<?xml version="1.0"?>
<svg xmlns="http://www.w3.org/2000/svg" xmlns:xlink="http://www.w3.org/1999/xlink" version="1.1" id="Layer_1" x="0px" y="0px" viewBox="0 0 511.999 511.999" style="enable-background:new 0 0 511.999 511.999;" xml:space="preserve" width="512px" height="512px" class=""><g><g>
	<g>
		<path d="M502.179,160.323c-18.871-46.8-50.895-86.702-92.613-115.396C366.833,15.536,316.731,0,264.68,0    c-68.381,0-132.668,26.629-181.02,74.98c-48.352,48.351-74.98,112.639-74.98,181.019c0,68.379,26.628,132.667,74.98,181.019    c48.352,48.35,112.639,74.98,181.019,74.98c28.524,0,56.567-4.675,83.35-13.893c4.46-1.535,7.994-4.992,9.626-9.417    c1.633-4.425,1.192-9.349-1.201-13.413c-4.519-7.672-6.907-16.45-6.907-25.384c0-18.36,10.026-35.238,26.165-44.049    c4.323-2.359,7.289-6.609,8.013-11.48c0.724-4.871-0.878-9.799-4.327-13.315c-14.732-15.014-22.846-34.856-22.846-55.87    c0-44.003,35.799-79.802,79.801-79.802c10.344,0,20.435,1.968,29.992,5.849c2.039,0.826,4.159,1.201,6.286,1.15    c8.514-0.189,15.359-7.148,15.359-15.707c0-2.975-0.827-5.757-2.263-8.128c-2.931-5.593-4.476-11.887-4.476-18.249    c0-12.514,5.752-24.003,15.781-31.526C502.73,174.497,504.842,166.927,502.179,160.323z M143.373,286.06    c-28.392,0-51.491-23.099-51.491-51.491c0-28.391,23.099-51.49,51.491-51.49c28.392,0,51.491,23.099,51.491,51.49    C194.864,262.962,171.766,286.06,143.373,286.06z M234.843,431.213c-28.392,0-51.49-23.098-51.49-51.489    c0-28.392,23.098-51.491,51.49-51.491c28.391,0,51.49,23.099,51.49,51.491C286.334,408.115,263.235,431.213,234.843,431.213z     M255.999,166.27c-28.392,0-51.491-23.099-51.491-51.491s23.099-51.491,51.491-51.491c28.391,0,51.49,23.099,51.49,51.491    S284.39,166.27,255.999,166.27z" data-original="#000000" class="active-path" data-old_color="#000000" fill="#F7D4AC"/>
	</g>
</g><link xmlns="" type="text/css" id="dark-mode" rel="stylesheet" class="active-path"/><style xmlns="" type="text/css" id="dark-mode-custom-style" class="active-path"/></g> </svg>
