<?xml version="1.0" encoding="iso-8859-1"?>
<!-- Generator: Adobe Illustrator 19.0.0, SVG Export Plug-In . SVG Version: 6.00 Build 0)  -->
<svg version="1.1" id="Layer_1" xmlns="http://www.w3.org/2000/svg" xmlns:xlink="http://www.w3.org/1999/xlink" x="0px" y="0px"
	 viewBox="0 0 512 512" style="enable-background:new 0 0 512 512;" xml:space="preserve">
<path style="fill:#A6673A;" d="M105.739,317.217V50.087c0-18.413,14.978-33.391,33.391-33.391H372.87
	c18.413,0,33.391,14.978,33.391,33.391v267.13H105.739z"/>
<path style="fill:#99522E;" d="M372.87,0H139.13c-27.619,0-50.087,22.468-50.087,50.087v267.13c0,9.223,7.479,16.696,16.696,16.696
	h300.522c9.217,0,16.696-7.473,16.696-16.696V50.087C422.957,22.468,400.489,0,372.87,0z M122.435,133.565h66.783v66.783h-66.783
	V133.565z M222.609,133.565h66.783v66.783h-66.783V133.565z M289.391,233.739v66.783h-66.783v-66.783H289.391z M222.609,100.174
	V33.391h66.783v66.783H222.609z M322.783,133.565h66.783v66.783h-66.783V133.565z M389.565,50.087v50.087h-66.783V33.391h50.087
	C382.076,33.391,389.565,40.881,389.565,50.087z M139.13,33.391h50.087v66.783h-66.783V50.087
	C122.435,40.881,129.924,33.391,139.13,33.391z M122.435,233.739h66.783v66.783h-66.783V233.739z M322.783,300.522v-66.783h66.783
	v66.783H322.783z"/>
<path style="fill:#E6563A;" d="M306.091,300.522c-4.428,0-8.676,1.76-11.808,4.892l-76.576,76.576
	c-6.487,6.487-17.101,6.487-23.587,0l-76.576-76.576c-3.182-3.186-7.453-4.726-11.785-4.736l-0.02-0.156H89.043v16.696v27.826
	v116.87c0,27.662,22.423,50.087,50.087,50.087H372.87c27.664,0,50.087-22.424,50.087-50.087V300.522H306.091z"/>
<rect x="89.043" y="300.522" style="fill:#FFD9B3;" width="333.913" height="33.391"/>
<path style="fill:#FFEFD9;" d="M370,300.522H89.043l105.076,105.076c9.761,9.761,22.576,14.641,35.403,14.641
	c12.827,0,25.641-4.881,35.403-14.641L370,300.522z"/>
<g>
</g>
<g>
</g>
<g>
</g>
<g>
</g>
<g>
</g>
<g>
</g>
<g>
</g>
<g>
</g>
<g>
</g>
<g>
</g>
<g>
</g>
<g>
</g>
<g>
</g>
<g>
</g>
<g>
</g>
</svg>
