<svg width="307" height="146" viewBox="0 0 307 146" fill="none" xmlns="http://www.w3.org/2000/svg">
<path d="M35.856 56.176L37.152 55.24C38.784 54.28 39.936 53.8 40.608 53.8C42.096 53.8 43.704 55.144 45.432 57.832C46.488 59.512 47.016 60.856 47.016 61.864C47.016 62.872 46.68 63.712 46.008 64.384C45.384 65.056 44.64 65.656 43.776 66.184C42.912 66.712 42.072 67.216 41.256 67.696C40.488 68.176 38.88 68.8 36.432 69.568C33.984 70.336 31.608 70.72 29.304 70.72C27.048 70.72 24.744 70.432 22.392 69.856C20.088 69.232 17.688 68.224 15.192 66.832C12.744 65.392 10.536 63.664 8.568 61.648C6.6 59.584 4.968 56.968 3.672 53.8C2.424 50.584 1.8 47.104 1.8 43.36C1.8 39.616 2.424 36.232 3.672 33.208C4.92 30.136 6.504 27.616 8.424 25.648C10.392 23.632 12.624 21.952 15.12 20.608C19.824 18.016 24.552 16.72 29.304 16.72C31.56 16.72 33.84 17.08 36.144 17.8C38.496 18.472 40.272 19.168 41.472 19.888L43.2 20.896C44.064 21.424 44.736 21.856 45.216 22.192C46.464 23.2 47.088 24.352 47.088 25.648C47.088 26.896 46.584 28.216 45.576 29.608C43.704 32.2 42.024 33.496 40.536 33.496C39.672 33.496 38.448 32.968 36.864 31.912C34.848 30.28 32.16 29.464 28.8 29.464C25.68 29.464 22.608 30.544 19.584 32.704C18.144 33.76 16.944 35.248 15.984 37.168C15.024 39.088 14.544 41.272 14.544 43.72C14.544 46.12 15.024 48.28 15.984 50.2C16.944 52.12 18.168 53.632 19.656 54.736C22.584 56.848 25.632 57.904 28.8 57.904C30.288 57.904 31.68 57.712 32.976 57.328C34.32 56.944 35.28 56.56 35.856 56.176ZM165.122 50.992L174.698 58.912C175.898 59.92 176.642 60.688 176.93 61.216C177.266 61.744 177.434 62.248 177.434 62.728C177.434 63.88 176.69 65.44 175.202 67.408C173.57 69.424 172.13 70.432 170.882 70.432C169.826 70.432 168.362 69.736 166.49 68.344L165.77 67.84C164.666 66.928 162.962 65.344 160.658 63.088C158.354 60.784 156.602 59.152 155.402 58.192V63.736C155.402 64.84 155.354 65.68 155.258 66.256C155.21 66.784 154.994 67.408 154.61 68.128C153.986 69.376 152.138 70 149.066 70C146.042 70 144.194 69.352 143.522 68.056C143.186 67.336 142.97 66.712 142.874 66.184C142.826 65.608 142.802 64.768 142.802 63.664V20.536C142.802 19.432 142.826 18.616 142.874 18.088C142.97 17.512 143.186 16.864 143.522 16.144C144.194 14.848 146.066 14.2 149.138 14.2C151.442 14.2 153.074 14.608 154.034 15.424C154.85 16.096 155.282 17.152 155.33 18.592C155.378 19.024 155.402 19.696 155.402 20.608V43.432C156.266 42.712 157.562 41.488 159.29 39.76C161.066 38.032 162.386 36.808 163.25 36.088L164.114 35.512C165.794 34.216 167.234 33.568 168.434 33.568C169.634 33.568 171.002 34.552 172.538 36.52C174.122 38.44 174.914 39.952 174.914 41.056C174.914 42.16 174.026 43.456 172.25 44.944L165.122 50.992ZM181.403 38.392C181.403 37.288 181.427 36.472 181.475 35.944C181.571 35.368 181.787 34.72 182.123 34C182.795 32.752 184.667 32.128 187.739 32.128C190.043 32.128 191.675 32.536 192.635 33.352C193.451 34.024 193.883 35.056 193.931 36.448C193.979 36.928 194.003 37.624 194.003 38.536V63.736C194.003 64.84 193.955 65.68 193.859 66.256C193.811 66.784 193.595 67.408 193.211 68.128C192.587 69.376 190.739 70 187.667 70C184.643 70 182.795 69.352 182.123 68.056C181.787 67.336 181.571 66.712 181.475 66.184C181.427 65.656 181.403 64.816 181.403 63.664V38.392ZM193.211 25.072C192.875 25.744 192.251 26.224 191.339 26.512C190.427 26.8 189.203 26.944 187.667 26.944C186.179 26.944 184.979 26.8 184.067 26.512C183.155 26.224 182.507 25.72 182.123 25C181.787 24.28 181.571 23.656 181.475 23.128C181.427 22.552 181.403 21.712 181.403 20.608C181.403 19.504 181.427 18.688 181.475 18.16C181.571 17.584 181.787 16.96 182.123 16.288C182.795 14.992 184.667 14.344 187.739 14.344C190.763 14.344 192.587 14.992 193.211 16.288C193.595 17.008 193.811 17.656 193.859 18.232C193.955 18.76 194.003 19.576 194.003 20.68C194.003 21.784 193.955 22.624 193.859 23.2C193.811 23.728 193.595 24.352 193.211 25.072ZM236.331 46.528C236.331 49.456 235.587 51.64 234.099 53.08C232.659 54.472 231.051 55.168 229.275 55.168H212.211C212.211 56.512 213.003 57.64 214.587 58.552C216.171 59.464 217.755 59.92 219.339 59.92C222.123 59.92 224.307 59.632 225.891 59.056L226.683 58.768C227.835 58.24 228.795 57.976 229.563 57.976C231.099 57.976 232.419 59.056 233.523 61.216C234.147 62.512 234.459 63.616 234.459 64.528C234.459 68.8 229.347 70.936 219.123 70.936C215.571 70.936 212.403 70.336 209.619 69.136C206.883 67.888 204.747 66.256 203.211 64.24C200.187 60.352 198.675 56.008 198.675 51.208C198.675 45.16 200.619 40.336 204.507 36.736C208.443 33.088 213.339 31.264 219.195 31.264C225.867 31.264 230.763 33.616 233.883 38.32C235.515 40.816 236.331 43.552 236.331 46.528ZM221.139 48.616C222.963 48.616 223.875 47.848 223.875 46.312C223.875 45.208 223.443 44.32 222.579 43.648C221.763 42.976 220.563 42.64 218.979 42.64C217.443 42.64 215.907 43.288 214.371 44.584C212.835 45.832 212.067 47.176 212.067 48.616H221.139Z" fill="#E2644E"/>
<path d="M97.3888 51.5895C97.5308 55.1103 98.727 58.4873 100.848 61.356C103.021 64.2943 106.026 66.4954 109.538 67.7212C114.151 69.3315 119.132 69.0949 123.563 67.0553C127.994 65.0156 131.345 61.4168 132.998 56.9219C134.65 52.427 134.408 47.574 132.314 43.257C130.22 38.9401 126.527 35.6757 121.913 34.0654C119.989 33.3937 117.984 33.0406 115.954 33.0158C115.616 33.0117 115.294 33.1557 115.077 33.4081C114.86 33.6605 114.77 33.9946 114.833 34.3181C114.953 34.9288 114.902 35.5621 114.686 36.1494C114.242 37.3562 113.158 38.2296 111.856 38.4287C111.507 38.482 111.204 38.6915 111.038 38.9946C110.871 39.2978 110.86 39.6595 111.008 39.9718C111.639 41.3057 111.707 42.801 111.199 44.1824C110.135 47.0749 106.855 48.5851 103.886 47.5488C103.188 47.3053 102.555 46.9383 102.004 46.4581C101.886 46.3558 101.752 46.2812 101.607 46.2345C101.028 46.0464 100.398 46.3426 100.191 46.9052C100.12 47.1008 100.108 47.3032 100.148 47.4928C100.21 47.9295 100.162 48.3796 100.009 48.7978C99.7061 49.6204 99.0403 50.2402 98.1818 50.4985C97.6942 50.6448 97.3687 51.0927 97.3888 51.5895ZM124.636 51.7739C126.552 52.4425 127.552 54.5049 126.866 56.3712C126.18 58.2375 124.063 59.2119 122.147 58.5433C120.232 57.8747 119.232 55.8123 119.918 53.946C120.604 52.0797 122.721 51.1053 124.636 51.7739ZM121.974 40.0783C123.889 40.7469 124.889 42.8092 124.203 44.6755C123.517 46.5418 121.4 47.5163 119.484 46.8476C117.569 46.1791 116.569 44.1167 117.255 42.2504C117.941 40.3841 120.058 39.4097 121.974 40.0783ZM114.142 56.9959C116.058 57.6646 117.058 59.7269 116.372 61.5932C115.685 63.4596 113.569 64.434 111.653 63.7654C109.738 63.0968 108.737 61.0344 109.424 59.1681C110.11 57.3018 112.227 56.3274 114.142 56.9959Z" fill="#F7D4AC"/>
<path d="M91.4555 45.2764C90.9637 41.7856 89.4371 38.5375 87.0405 35.8828C84.5855 33.1635 81.3757 31.2567 77.7584 30.3685C73.0062 29.2016 68.0722 29.9076 63.8651 32.3562C59.658 34.8049 56.6814 38.7033 55.4838 43.3332C54.2861 47.963 55.0107 52.7702 57.524 56.8691C60.0374 60.9678 64.0387 63.8679 68.7908 65.0348C70.7731 65.5215 72.8038 65.6835 74.8266 65.5164C75.1634 65.4886 75.4696 65.3148 75.6605 65.0431C75.8515 64.7713 75.9071 64.4304 75.8119 64.1144C75.6323 63.5179 75.6201 62.8828 75.7765 62.2779C76.0981 61.0347 77.0905 60.0631 78.3664 59.7419C78.7081 59.6559 78.9887 59.4188 79.1243 59.1013C79.26 58.7839 79.2349 58.4229 79.0568 58.126C78.296 56.858 78.0796 55.3761 78.4477 53.9533C79.2184 50.9739 82.3333 49.1609 85.3912 49.9118C86.1101 50.0883 86.7769 50.3937 87.3731 50.8196C87.5003 50.9103 87.6411 50.9719 87.7898 51.0047C88.3848 51.1372 88.9824 50.7828 89.1323 50.2033C89.1844 50.0019 89.1756 49.7994 89.1174 49.6144C89.0116 49.1857 89.0145 48.7332 89.1259 48.3024C89.3451 47.4551 89.9461 46.7754 90.7748 46.4371C91.2455 46.2455 91.5249 45.7689 91.4555 45.2764ZM64.3178 47.667C62.3447 47.1825 61.144 45.2243 61.6413 43.302C62.1386 41.3797 64.1484 40.2099 66.1215 40.6943C68.0946 41.1788 69.2953 43.137 68.7981 45.0593C68.3008 46.9817 66.291 48.1515 64.3178 47.667ZM68.1323 59.0559C66.1591 58.5714 64.9585 56.6133 65.4558 54.691C65.953 52.7686 67.9628 51.5988 69.9359 52.0833C71.909 52.5678 73.1097 54.5259 72.6124 56.4483C72.1152 58.3706 70.1054 59.5404 68.1323 59.0559ZM74.2429 41.4781C72.2698 40.9936 71.0691 39.0355 71.5664 37.1131C72.0637 35.1908 74.0735 34.0209 76.0466 34.5054C78.0197 34.9899 79.2204 36.9481 78.7231 38.8704C78.2258 40.7928 76.216 41.9626 74.2429 41.4781Z" fill="#F7D4AC"/>
<path d="M157.336 89.968L176.776 130.144C177.592 131.776 178 133 178 133.816C178 135.544 176.608 137.104 173.824 138.496C172.192 139.312 170.896 139.72 169.936 139.72C169.024 139.72 168.256 139.504 167.632 139.072C167.056 138.64 166.624 138.184 166.336 137.704C166.096 137.224 165.736 136.504 165.256 135.544L161.512 127.768H141.568L137.824 135.544C137.344 136.504 136.96 137.2 136.672 137.632C136.432 138.064 136 138.52 135.376 139C134.8 139.432 134.032 139.648 133.072 139.648C132.16 139.648 130.888 139.24 129.256 138.424C126.472 137.08 125.08 135.544 125.08 133.816C125.08 133 125.488 131.776 126.304 130.144L145.744 89.896C146.272 88.792 147.064 87.904 148.12 87.232C149.224 86.56 150.376 86.224 151.576 86.224C154.168 86.224 156.088 87.472 157.336 89.968ZM151.504 107.248L146.752 117.112H156.328L151.504 107.248ZM182.655 128.056C183.135 127.096 183.855 126.448 184.815 126.112C185.823 125.776 187.359 125.608 189.423 125.608C191.535 125.608 193.047 126.064 193.959 126.976C194.919 127.888 195.399 129.328 195.399 131.296V132.448C195.399 133.6 195.351 134.464 195.255 135.04C195.207 135.568 194.991 136.216 194.607 136.984C193.839 138.376 191.991 139.072 189.063 139.072C186.183 139.072 184.263 138.616 183.303 137.704C182.391 136.744 181.935 134.92 181.935 132.232C181.935 130.36 182.175 128.968 182.655 128.056ZM192.303 119.632C191.391 119.872 190.167 119.992 188.631 119.992C187.095 119.992 185.871 119.872 184.959 119.632C184.047 119.392 183.399 118.96 183.015 118.336C182.679 117.712 182.463 117.16 182.367 116.68C182.319 116.2 182.295 115.456 182.295 114.448V91.624C182.295 90.616 182.319 89.872 182.367 89.392C182.463 88.864 182.703 88.288 183.087 87.664C183.471 87.04 184.119 86.608 185.031 86.368C185.943 86.08 187.167 85.936 188.703 85.936C190.239 85.936 191.463 86.08 192.375 86.368C193.287 86.608 193.911 87.064 194.247 87.736C194.631 88.36 194.847 88.936 194.895 89.464C194.991 89.944 195.039 90.688 195.039 91.696V114.52C195.039 115.528 194.991 116.272 194.895 116.752C194.847 117.232 194.631 117.784 194.247 118.408C193.863 118.984 193.215 119.392 192.303 119.632ZM237.706 115.528C237.706 118.456 236.962 120.64 235.474 122.08C234.034 123.472 232.426 124.168 230.65 124.168H213.586C213.586 125.512 214.378 126.64 215.962 127.552C217.546 128.464 219.13 128.92 220.714 128.92C223.498 128.92 225.682 128.632 227.266 128.056L228.058 127.768C229.21 127.24 230.17 126.976 230.938 126.976C232.474 126.976 233.794 128.056 234.898 130.216C235.522 131.512 235.834 132.616 235.834 133.528C235.834 137.8 230.722 139.936 220.498 139.936C216.946 139.936 213.778 139.336 210.994 138.136C208.258 136.888 206.122 135.256 204.586 133.24C201.562 129.352 200.05 125.008 200.05 120.208C200.05 114.16 201.994 109.336 205.882 105.736C209.818 102.088 214.714 100.264 220.57 100.264C227.242 100.264 232.138 102.616 235.258 107.32C236.89 109.816 237.706 112.552 237.706 115.528ZM222.514 117.616C224.338 117.616 225.25 116.848 225.25 115.312C225.25 114.208 224.818 113.32 223.954 112.648C223.138 111.976 221.938 111.64 220.354 111.64C218.818 111.64 217.282 112.288 215.746 113.584C214.21 114.832 213.442 116.176 213.442 117.616H222.514ZM268.179 101.488C269.091 101.776 269.835 102.28 270.411 103C271.035 103.672 271.347 104.776 271.347 106.312C271.347 107.848 270.891 109.528 269.979 111.352C269.067 113.176 267.747 114.088 266.019 114.088C265.155 114.088 264.315 113.896 263.499 113.512C262.731 113.128 261.699 112.936 260.403 112.936C259.107 112.936 257.883 113.392 256.731 114.304C255.627 115.216 255.075 116.32 255.075 117.616V132.736C255.075 133.84 255.027 134.68 254.931 135.256C254.883 135.784 254.667 136.408 254.283 137.128C253.563 138.376 251.691 139 248.667 139C246.363 139 244.707 138.592 243.699 137.776C242.931 137.104 242.499 136.072 242.403 134.68C242.403 134.2 242.403 133.504 242.403 132.592V107.32C242.403 106.216 242.427 105.4 242.475 104.872C242.571 104.296 242.787 103.672 243.123 103C243.795 101.704 245.667 101.056 248.739 101.056C251.619 101.056 253.419 101.608 254.139 102.712C254.667 103.48 254.931 104.272 254.931 105.088C255.171 104.752 255.507 104.344 255.939 103.864C256.419 103.384 257.403 102.736 258.891 101.92C260.379 101.104 261.675 100.696 262.779 100.696C263.931 100.696 264.891 100.768 265.659 100.912C266.427 101.008 267.267 101.2 268.179 101.488ZM297.342 113.8L292.662 113.512V123.448C292.662 124.744 292.854 125.68 293.238 126.256C293.67 126.832 294.438 127.12 295.542 127.12C296.694 127.12 297.558 127.168 298.134 127.264C298.758 127.312 299.406 127.528 300.078 127.912C301.182 128.536 301.734 130.144 301.734 132.736C301.734 135.76 301.062 137.608 299.718 138.28C298.998 138.616 298.35 138.832 297.774 138.928C297.246 138.976 296.454 139 295.398 139C290.406 139 286.614 137.872 284.022 135.616C281.43 133.36 280.134 129.544 280.134 124.168V113.512C279.222 113.656 278.238 113.728 277.182 113.728C276.126 113.728 275.238 113.32 274.518 112.504C273.846 111.688 273.51 110.296 273.51 108.328C273.51 106.36 273.63 104.944 273.87 104.08C274.11 103.168 274.446 102.52 274.878 102.136C275.646 101.512 276.606 101.2 277.758 101.2L280.134 101.488V94.072C280.134 92.968 280.158 92.152 280.206 91.624C280.302 91.096 280.542 90.52 280.926 89.896C281.55 88.696 283.398 88.096 286.47 88.096C289.734 88.096 291.678 88.984 292.302 90.76C292.542 91.528 292.662 92.752 292.662 94.432V101.488C294.774 101.296 296.358 101.2 297.414 101.2C298.518 101.2 299.334 101.248 299.862 101.344C300.438 101.392 301.086 101.608 301.806 101.992C303.054 102.616 303.678 104.464 303.678 107.536C303.678 110.56 303.03 112.408 301.734 113.08C301.014 113.416 300.366 113.632 299.79 113.728C299.262 113.776 298.446 113.8 297.342 113.8Z" fill="#E2644E"/>
</svg>
