<?xml version="1.0"?>
<svg xmlns="http://www.w3.org/2000/svg" xmlns:xlink="http://www.w3.org/1999/xlink" version="1.1" id="Capa_1" x="0px" y="0px" viewBox="0 0 409.635 409.635" style="enable-background:new 0 0 409.635 409.635;" xml:space="preserve" width="512px" height="512px" class=""><g><path style="fill:#612D27" d="M356.899,202.279c-55.808-4.096-58.368-37.376-58.368-37.376c-67.584-11.776-76.8-62.464-76.8-62.464  c-68.608-8.192-76.288-75.264-76.8-99.328C72.227,25.639,15.395,87.591,2.595,167.975c-17.92,112.64,58.88,218.112,171.52,236.032  c111.104,17.408,215.552-57.344,235.52-167.424C377.891,243.751,356.899,202.279,356.899,202.279z" data-original="#DC8744" class="" data-old_color="#DC8744"/><g>
	<circle style="fill:#D8B293" cx="194.083" cy="129.575" r="24.576" data-original="#D15241" class="active-path" data-old_color="#D15241"/>
	<circle style="fill:#D8B293" cx="267.299" cy="204.839" r="24.576" data-original="#D15241" class="active-path" data-old_color="#D15241"/>
	<circle style="fill:#D8B293" cx="156.195" cy="326.183" r="24.576" data-original="#D15241" class="active-path" data-old_color="#D15241"/>
	<circle style="fill:#D8B293" cx="337.955" cy="286.247" r="24.576" data-original="#D15241" class="active-path" data-old_color="#D15241"/>
	<circle style="fill:#D8B293" cx="88.611" cy="105.511" r="24.576" data-original="#D15241" class="active-path" data-old_color="#D15241"/>
	<circle style="fill:#D8B293" cx="44.067" cy="248.871" r="24.576" data-original="#D15241" class="active-path" data-old_color="#D15241"/>
	<circle style="fill:#D8B293" cx="145.443" cy="223.783" r="24.576" data-original="#D15241" class="active-path" data-old_color="#D15241"/>
	<circle style="fill:#D8B293" cx="260.131" cy="334.887" r="24.576" data-original="#D15241" class="active-path" data-old_color="#D15241"/>
</g><link xmlns="" type="text/css" id="dark-mode" rel="stylesheet"/><style xmlns="" type="text/css" id="dark-mode-custom-style"/></g> </svg>
