<svg width="325" height="213" viewBox="0 0 325 213" fill="none" xmlns="http://www.w3.org/2000/svg">
<path d="M57.3922 54.56L58.6522 53.65C60.2389 52.7167 61.3589 52.25 62.0122 52.25C63.4589 52.25 65.0222 53.5567 66.7022 56.17C67.7289 57.8033 68.2422 59.11 68.2422 60.09C68.2422 61.07 67.9156 61.8867 67.2622 62.54C66.6556 63.1933 65.9322 63.7767 65.0922 64.29C64.2522 64.8033 63.4356 65.2933 62.6422 65.76C61.8956 66.2267 60.3322 66.8333 57.9522 67.58C55.5722 68.3267 53.2622 68.7 51.0222 68.7C48.8289 68.7 46.5889 68.42 44.3022 67.86C42.0622 67.2533 39.7289 66.2733 37.3022 64.92C34.9222 63.52 32.7756 61.84 30.8622 59.88C28.9489 57.8733 27.3622 55.33 26.1022 52.25C24.8889 49.1233 24.2822 45.74 24.2822 42.1C24.2822 38.46 24.8889 35.17 26.1022 32.23C27.3156 29.2433 28.8556 26.7933 30.7222 24.88C32.6356 22.92 34.8056 21.2867 37.2322 19.98C41.8056 17.46 46.4022 16.2 51.0222 16.2C53.2156 16.2 55.4322 16.55 57.6722 17.25C59.9589 17.9033 61.6856 18.58 62.8522 19.28L64.5322 20.26C65.3722 20.7733 66.0256 21.1933 66.4922 21.52C67.7056 22.5 68.3122 23.62 68.3122 24.88C68.3122 26.0933 67.8222 27.3767 66.8422 28.73C65.0222 31.25 63.3889 32.51 61.9422 32.51C61.1022 32.51 59.9122 31.9967 58.3722 30.97C56.4122 29.3833 53.7989 28.59 50.5322 28.59C47.4989 28.59 44.5122 29.64 41.5722 31.74C40.1722 32.7667 39.0056 34.2133 38.0722 36.08C37.1389 37.9467 36.6722 40.07 36.6722 42.45C36.6722 44.7833 37.1389 46.8833 38.0722 48.75C39.0056 50.6167 40.1956 52.0867 41.6422 53.16C44.4889 55.2133 47.4522 56.24 50.5322 56.24C51.9789 56.24 53.3322 56.0533 54.5922 55.68C55.8989 55.3067 56.8322 54.9333 57.3922 54.56ZM97.902 31.53C98.7887 31.81 99.512 32.3 100.072 33C100.679 33.6533 100.982 34.7267 100.982 36.22C100.982 37.7133 100.539 39.3467 99.652 41.12C98.7653 42.8933 97.482 43.78 95.802 43.78C94.962 43.78 94.1453 43.5933 93.352 43.22C92.6053 42.8467 91.602 42.66 90.342 42.66C89.082 42.66 87.892 43.1033 86.772 43.99C85.6987 44.8767 85.162 45.95 85.162 47.21V61.91C85.162 62.9833 85.1153 63.8 85.022 64.36C84.9753 64.8733 84.7653 65.48 84.392 66.18C83.692 67.3933 81.872 68 78.932 68C76.692 68 75.082 67.6033 74.102 66.81C73.3553 66.1567 72.9353 65.1533 72.842 63.8C72.842 63.3333 72.842 62.6567 72.842 61.77V37.2C72.842 36.1267 72.8653 35.3333 72.912 34.82C73.0053 34.26 73.2153 33.6533 73.542 33C74.1953 31.74 76.0153 31.11 79.002 31.11C81.802 31.11 83.552 31.6467 84.252 32.72C84.7653 33.4667 85.022 34.2367 85.022 35.03C85.2553 34.7033 85.582 34.3067 86.002 33.84C86.4687 33.3733 87.4253 32.7433 88.872 31.95C90.3187 31.1567 91.5787 30.76 92.652 30.76C93.772 30.76 94.7053 30.83 95.452 30.97C96.1987 31.0633 97.0153 31.25 97.902 31.53ZM126.655 35.03C126.935 32.4167 128.778 31.11 132.185 31.11C134.005 31.11 135.358 31.25 136.245 31.53C137.132 31.81 137.738 32.3 138.065 33C138.438 33.7 138.648 34.33 138.695 34.89C138.788 35.4033 138.835 36.1967 138.835 37.27V61.77C138.835 62.8433 138.788 63.66 138.695 64.22C138.648 64.7333 138.462 65.34 138.135 66.04C137.482 67.2533 135.872 67.86 133.305 67.86C130.785 67.86 129.082 67.5567 128.195 66.95C127.355 66.2967 126.865 65.3633 126.725 64.15C124.998 66.6233 122.105 67.86 118.045 67.86C114.032 67.86 110.298 66.0167 106.845 62.33C103.392 58.6433 101.665 54.3733 101.665 49.52C101.665 44.62 103.392 40.35 106.845 36.71C110.345 33.0233 114.172 31.18 118.325 31.18C119.912 31.18 121.358 31.46 122.665 32.02C123.972 32.58 124.882 33.1167 125.395 33.63C125.908 34.0967 126.328 34.5633 126.655 35.03ZM113.915 49.59C113.915 51.13 114.522 52.53 115.735 53.79C116.948 55.0033 118.418 55.61 120.145 55.61C121.872 55.61 123.295 54.98 124.415 53.72C125.582 52.46 126.165 51.0833 126.165 49.59C126.165 48.05 125.605 46.6267 124.485 45.32C123.412 44.0133 121.942 43.36 120.075 43.36C118.255 43.36 116.762 44.0133 115.595 45.32C114.475 46.6267 113.915 48.05 113.915 49.59ZM180.559 31.95C182.986 33.3967 184.199 34.9367 184.199 36.57C184.199 37.5033 183.732 38.7867 182.799 40.42L168.309 65.27C167.842 66.0633 167.096 66.7867 166.069 67.44C165.042 68.0467 164.016 68.35 162.989 68.35C162.009 68.35 161.052 68.1167 160.119 67.65C159.232 67.1367 158.602 66.6233 158.229 66.11L157.599 65.34L143.039 40.42C142.106 38.88 141.639 37.62 141.639 36.64C141.639 34.96 142.852 33.3967 145.279 31.95C147.052 30.9233 148.452 30.41 149.479 30.41C150.506 30.41 151.299 30.7367 151.859 31.39C152.466 31.9967 153.096 32.93 153.749 34.19L162.919 51.83L172.089 34.19C172.602 33.3033 172.976 32.6733 173.209 32.3C173.489 31.88 173.909 31.4833 174.469 31.11C175.029 30.69 175.776 30.48 176.709 30.48C177.642 30.48 178.926 30.97 180.559 31.95ZM188.028 37.27C188.028 36.1967 188.051 35.4033 188.098 34.89C188.191 34.33 188.401 33.7 188.728 33C189.381 31.7867 191.201 31.18 194.188 31.18C196.428 31.18 198.014 31.5767 198.948 32.37C199.741 33.0233 200.161 34.0267 200.208 35.38C200.254 35.8467 200.278 36.5233 200.278 37.41V61.91C200.278 62.9833 200.231 63.8 200.138 64.36C200.091 64.8733 199.881 65.48 199.508 66.18C198.901 67.3933 197.104 68 194.118 68C191.178 68 189.381 67.37 188.728 66.11C188.401 65.41 188.191 64.8033 188.098 64.29C188.051 63.7767 188.028 62.96 188.028 61.84V37.27ZM199.508 24.32C199.181 24.9733 198.574 25.44 197.688 25.72C196.801 26 195.611 26.14 194.118 26.14C192.671 26.14 191.504 26 190.618 25.72C189.731 25.44 189.101 24.95 188.728 24.25C188.401 23.55 188.191 22.9433 188.098 22.43C188.051 21.87 188.028 21.0533 188.028 19.98C188.028 18.9067 188.051 18.1133 188.098 17.6C188.191 17.04 188.401 16.4333 188.728 15.78C189.381 14.52 191.201 13.89 194.188 13.89C197.128 13.89 198.901 14.52 199.508 15.78C199.881 16.48 200.091 17.11 200.138 17.67C200.231 18.1833 200.278 18.9767 200.278 20.05C200.278 21.1233 200.231 21.94 200.138 22.5C200.091 23.0133 199.881 23.62 199.508 24.32ZM226.379 31.11C231.046 31.11 234.919 32.9067 237.999 36.5C241.126 40.0467 242.689 44.3867 242.689 49.52V61.84C242.689 62.9133 242.643 63.73 242.549 64.29C242.503 64.8033 242.316 65.3867 241.989 66.04C241.336 67.3 239.516 67.93 236.529 67.93C233.216 67.93 231.303 67.0667 230.789 65.34C230.509 64.5467 230.369 63.3567 230.369 61.77V49.45C230.369 47.5367 229.809 46.0433 228.689 44.97C227.616 43.8967 226.146 43.36 224.279 43.36C222.459 43.36 220.966 43.92 219.799 45.04C218.679 46.16 218.119 47.63 218.119 49.45V61.84C218.119 62.9133 218.073 63.73 217.979 64.29C217.933 64.8033 217.723 65.3867 217.349 66.04C216.743 67.3 214.946 67.93 211.959 67.93C209.019 67.93 207.223 67.3 206.569 66.04C206.243 65.34 206.033 64.7333 205.939 64.22C205.893 63.66 205.869 62.8433 205.869 61.77V36.99C205.869 35.9633 205.893 35.1933 205.939 34.68C206.033 34.12 206.266 33.5133 206.639 32.86C207.293 31.6933 209.089 31.11 212.029 31.11C214.876 31.11 216.626 31.6467 217.279 32.72C217.746 33.5133 217.979 34.47 217.979 35.59C218.166 35.2633 218.586 34.7967 219.239 34.19C219.893 33.5833 220.523 33.0933 221.129 32.72C222.716 31.6467 224.466 31.11 226.379 31.11ZM271.701 63.38C269.927 65.7133 267.104 66.88 263.231 66.88C259.357 66.88 255.717 65.1067 252.311 61.56C248.951 57.9667 247.271 53.79 247.271 49.03C247.271 44.27 248.974 40.0933 252.381 36.5C255.787 32.9067 259.521 31.11 263.581 31.11C265.167 31.11 266.614 31.4133 267.921 32.02C269.227 32.58 270.114 33.1167 270.581 33.63C271.094 34.0967 271.491 34.54 271.771 34.96C271.911 33.6533 272.377 32.6733 273.171 32.02C274.011 31.32 275.341 30.97 277.161 30.97C278.981 30.97 280.311 31.11 281.151 31.39C281.991 31.67 282.574 32.16 282.901 32.86C283.274 33.5133 283.484 34.0967 283.531 34.61C283.624 35.1233 283.671 35.9167 283.671 36.99V65.97C283.671 71.3367 281.804 75.6533 278.071 78.92C274.337 82.2333 270.137 83.89 265.471 83.89C261.924 83.89 258.541 83.0267 255.321 81.3C252.101 79.5733 250.491 78.01 250.491 76.61C250.491 74.79 251.191 73.18 252.591 71.78C253.477 70.8 254.154 70.1233 254.621 69.75C255.134 69.3767 255.717 69.19 256.371 69.19C257.024 69.19 257.701 69.47 258.401 70.03C260.641 71.7567 263.067 72.62 265.681 72.62C267.454 72.62 268.901 71.92 270.021 70.52C271.141 69.12 271.701 67.44 271.701 65.48V63.38ZM259.241 49.1C259.241 50.5933 259.824 51.9467 260.991 53.16C262.204 54.3733 263.651 54.98 265.331 54.98C267.057 54.98 268.481 54.3733 269.601 53.16C270.721 51.9 271.281 50.5467 271.281 49.1C271.281 47.6067 270.744 46.23 269.671 44.97C268.597 43.6633 267.151 43.01 265.331 43.01C263.511 43.01 262.041 43.64 260.921 44.9C259.801 46.16 259.241 47.56 259.241 49.1Z" fill="#E2644E"/>
<path d="M143.009 98.752C145.217 98.752 146.513 99.36 146.897 100.576C147.089 101.184 147.185 101.984 147.185 102.976C147.185 103.968 147.073 104.768 146.849 105.376C146.657 105.952 146.337 106.368 145.889 106.624C145.217 107.008 144.241 107.2 142.961 107.2L139.889 107.008V119.872C139.889 121.088 139.729 122 139.409 122.608C139.121 123.184 138.657 123.568 138.017 123.76C137.409 123.952 136.609 124.048 135.617 124.048C134.625 124.048 133.825 123.952 133.217 123.76C132.641 123.536 132.225 123.2 131.969 122.752C131.713 122.272 131.553 121.84 131.489 121.456C131.457 121.072 131.441 120.512 131.441 119.776V107.056H129.713C128.881 106.992 128.289 106.8 127.937 106.48C127.329 105.872 127.025 104.704 127.025 102.976C127.025 100.352 127.969 99.04 129.857 99.04H131.441V96.496C131.441 94.032 132.321 91.808 134.081 89.824C135.841 87.808 138.385 86.8 141.713 86.8C142.449 86.8 142.993 86.832 143.345 86.896C143.729 86.928 144.161 87.072 144.641 87.328C145.505 87.744 145.937 88.976 145.937 91.024C145.937 92.56 145.665 93.664 145.121 94.336C144.673 94.848 143.969 95.136 143.009 95.2C142.721 95.2 142.273 95.2 141.665 95.2C140.481 95.2 139.889 95.6 139.889 96.4V99.04L143.009 98.752ZM148.177 111.376C148.177 107.536 149.521 104.368 152.209 101.872C154.897 99.376 157.969 98.128 161.425 98.128C164.881 98.128 167.937 99.376 170.593 101.872C173.249 104.336 174.577 107.488 174.577 111.328C174.577 113.984 173.889 116.352 172.513 118.432C171.137 120.48 169.457 122 167.473 122.992C165.521 123.952 163.489 124.432 161.377 124.432C159.265 124.432 157.217 123.92 155.233 122.896C153.249 121.84 151.569 120.304 150.193 118.288C148.849 116.24 148.177 113.936 148.177 111.376ZM158.209 114.832C159.233 115.6 160.273 115.984 161.329 115.984C162.385 115.984 163.441 115.584 164.497 114.784C165.553 113.984 166.081 112.8 166.081 111.232C166.081 109.664 165.585 108.496 164.593 107.728C163.601 106.96 162.529 106.576 161.377 106.576C160.225 106.576 159.153 106.976 158.161 107.776C157.169 108.576 156.673 109.76 156.673 111.328C156.673 112.864 157.185 114.032 158.209 114.832ZM194.862 98.992C195.47 99.184 195.966 99.52 196.35 100C196.766 100.448 196.974 101.184 196.974 102.208C196.974 103.232 196.67 104.352 196.062 105.568C195.454 106.784 194.574 107.392 193.422 107.392C192.846 107.392 192.286 107.264 191.742 107.008C191.23 106.752 190.542 106.624 189.678 106.624C188.814 106.624 187.998 106.928 187.23 107.536C186.494 108.144 186.126 108.88 186.126 109.744V119.824C186.126 120.56 186.094 121.12 186.03 121.504C185.998 121.856 185.854 122.272 185.598 122.752C185.118 123.584 183.87 124 181.854 124C180.318 124 179.214 123.728 178.542 123.184C178.03 122.736 177.742 122.048 177.678 121.12C177.678 120.8 177.678 120.336 177.678 119.728V102.88C177.678 102.144 177.694 101.6 177.726 101.248C177.79 100.864 177.934 100.448 178.158 100C178.606 99.136 179.854 98.704 181.902 98.704C183.822 98.704 185.022 99.072 185.502 99.808C185.854 100.32 186.03 100.848 186.03 101.392C186.19 101.168 186.414 100.896 186.702 100.576C187.022 100.256 187.678 99.824 188.67 99.28C189.662 98.736 190.526 98.464 191.262 98.464C192.03 98.464 192.67 98.512 193.182 98.608C193.694 98.672 194.254 98.8 194.862 98.992Z" fill="#E2644E"/>
<path d="M38.2777 193.6L39.6277 192.625C41.3277 191.625 42.5277 191.125 43.2277 191.125C44.7777 191.125 46.4527 192.525 48.2527 195.325C49.3527 197.075 49.9027 198.475 49.9027 199.525C49.9027 200.575 49.5527 201.45 48.8527 202.15C48.2027 202.85 47.4277 203.475 46.5277 204.025C45.6277 204.575 44.7527 205.1 43.9027 205.6C43.1027 206.1 41.4277 206.75 38.8777 207.55C36.3277 208.35 33.8527 208.75 31.4527 208.75C29.1027 208.75 26.7027 208.45 24.2527 207.85C21.8527 207.2 19.3527 206.15 16.7527 204.7C14.2027 203.2 11.9027 201.4 9.85273 199.3C7.80273 197.15 6.10273 194.425 4.75273 191.125C3.45273 187.775 2.80273 184.15 2.80273 180.25C2.80273 176.35 3.45273 172.825 4.75273 169.675C6.05273 166.475 7.70273 163.85 9.70273 161.8C11.7527 159.7 14.0777 157.95 16.6777 156.55C21.5777 153.85 26.5027 152.5 31.4527 152.5C33.8027 152.5 36.1777 152.875 38.5777 153.625C41.0277 154.325 42.8777 155.05 44.1277 155.8L45.9277 156.85C46.8277 157.4 47.5277 157.85 48.0277 158.2C49.3277 159.25 49.9777 160.45 49.9777 161.8C49.9777 163.1 49.4527 164.475 48.4027 165.925C46.4527 168.625 44.7027 169.975 43.1527 169.975C42.2527 169.975 40.9777 169.425 39.3277 168.325C37.2277 166.625 34.4277 165.775 30.9277 165.775C27.6777 165.775 24.4777 166.9 21.3277 169.15C19.8277 170.25 18.5777 171.8 17.5777 173.8C16.5777 175.8 16.0777 178.075 16.0777 180.625C16.0777 183.125 16.5777 185.375 17.5777 187.375C18.5777 189.375 19.8527 190.95 21.4027 192.1C24.4527 194.3 27.6277 195.4 30.9277 195.4C32.4777 195.4 33.9277 195.2 35.2777 194.8C36.6777 194.4 37.6777 194 38.2777 193.6ZM172.93 188.2L182.905 196.45C184.155 197.5 184.93 198.3 185.23 198.85C185.58 199.4 185.755 199.925 185.755 200.425C185.755 201.625 184.98 203.25 183.43 205.3C181.73 207.4 180.23 208.45 178.93 208.45C177.83 208.45 176.305 207.725 174.355 206.275L173.605 205.75C172.455 204.8 170.68 203.15 168.28 200.8C165.88 198.4 164.055 196.7 162.805 195.7V201.475C162.805 202.625 162.755 203.5 162.655 204.1C162.605 204.65 162.38 205.3 161.98 206.05C161.33 207.35 159.405 208 156.205 208C153.055 208 151.13 207.325 150.43 205.975C150.08 205.225 149.855 204.575 149.755 204.025C149.705 203.425 149.68 202.55 149.68 201.4V156.475C149.68 155.325 149.705 154.475 149.755 153.925C149.855 153.325 150.08 152.65 150.43 151.9C151.13 150.55 153.08 149.875 156.28 149.875C158.68 149.875 160.38 150.3 161.38 151.15C162.23 151.85 162.68 152.95 162.73 154.45C162.78 154.9 162.805 155.6 162.805 156.55V180.325C163.705 179.575 165.055 178.3 166.855 176.5C168.705 174.7 170.08 173.425 170.98 172.675L171.88 172.075C173.63 170.725 175.13 170.05 176.38 170.05C177.63 170.05 179.055 171.075 180.655 173.125C182.305 175.125 183.13 176.7 183.13 177.85C183.13 179 182.205 180.35 180.355 181.9L172.93 188.2ZM189.89 175.075C189.89 173.925 189.915 173.075 189.965 172.525C190.065 171.925 190.29 171.25 190.64 170.5C191.34 169.2 193.29 168.55 196.49 168.55C198.89 168.55 200.59 168.975 201.59 169.825C202.44 170.525 202.89 171.6 202.94 173.05C202.99 173.55 203.015 174.275 203.015 175.225V201.475C203.015 202.625 202.965 203.5 202.865 204.1C202.815 204.65 202.59 205.3 202.19 206.05C201.54 207.35 199.615 208 196.415 208C193.265 208 191.34 207.325 190.64 205.975C190.29 205.225 190.065 204.575 189.965 204.025C189.915 203.475 189.89 202.6 189.89 201.4V175.075ZM202.19 161.2C201.84 161.9 201.19 162.4 200.24 162.7C199.29 163 198.015 163.15 196.415 163.15C194.865 163.15 193.615 163 192.665 162.7C191.715 162.4 191.04 161.875 190.64 161.125C190.29 160.375 190.065 159.725 189.965 159.175C189.915 158.575 189.89 157.7 189.89 156.55C189.89 155.4 189.915 154.55 189.965 154C190.065 153.4 190.29 152.75 190.64 152.05C191.34 150.7 193.29 150.025 196.49 150.025C199.64 150.025 201.54 150.7 202.19 152.05C202.59 152.8 202.815 153.475 202.865 154.075C202.965 154.625 203.015 155.475 203.015 156.625C203.015 157.775 202.965 158.65 202.865 159.25C202.815 159.8 202.59 160.45 202.19 161.2ZM247.106 183.55C247.106 186.6 246.331 188.875 244.781 190.375C243.281 191.825 241.606 192.55 239.756 192.55H221.981C221.981 193.95 222.806 195.125 224.456 196.075C226.106 197.025 227.756 197.5 229.406 197.5C232.306 197.5 234.581 197.2 236.231 196.6L237.056 196.3C238.256 195.75 239.256 195.475 240.056 195.475C241.656 195.475 243.031 196.6 244.181 198.85C244.831 200.2 245.156 201.35 245.156 202.3C245.156 206.75 239.831 208.975 229.181 208.975C225.481 208.975 222.181 208.35 219.281 207.1C216.431 205.8 214.206 204.1 212.606 202C209.456 197.95 207.881 193.425 207.881 188.425C207.881 182.125 209.906 177.1 213.956 173.35C218.056 169.55 223.156 167.65 229.256 167.65C236.206 167.65 241.306 170.1 244.556 175C246.256 177.6 247.106 180.45 247.106 183.55ZM231.281 185.725C233.181 185.725 234.131 184.925 234.131 183.325C234.131 182.175 233.681 181.25 232.781 180.55C231.931 179.85 230.681 179.5 229.031 179.5C227.431 179.5 225.831 180.175 224.231 181.525C222.631 182.825 221.831 184.225 221.831 185.725H231.281ZM252.299 204.475C251.349 203.875 250.874 202.925 250.874 201.625C250.874 200.325 251.824 198.35 253.724 195.7C254.274 194.85 255.149 194.425 256.349 194.425C257.599 194.425 259.274 195.05 261.374 196.3C263.474 197.5 265.374 198.1 267.074 198.1C270.124 198.1 271.649 197.5 271.649 196.3C271.649 195.35 269.974 194.65 266.624 194.2C263.474 193.75 260.349 192.575 257.249 190.675C255.799 189.775 254.599 188.375 253.649 186.475C252.699 184.525 252.224 182.225 252.224 179.575C252.224 171.675 257.649 167.725 268.499 167.725C272.049 167.725 275.699 168.575 279.449 170.275C281.199 171.075 282.074 172.075 282.074 173.275C282.074 174.475 281.524 175.95 280.424 177.7C279.324 179.45 278.199 180.325 277.049 180.325C276.449 180.325 275.324 179.95 273.674 179.2C272.074 178.45 270.324 178.075 268.424 178.075C265.474 178.075 263.999 178.625 263.999 179.725C263.999 181.225 265.699 182.2 269.099 182.65C272.399 183 275.599 183.95 278.699 185.5C280.149 186.2 281.349 187.425 282.299 189.175C283.299 190.875 283.799 193.025 283.799 195.625C283.799 198.225 283.299 200.45 282.299 202.3C281.349 204.1 279.999 205.45 278.249 206.35C275.049 207.9 271.024 208.675 266.174 208.675C261.374 208.675 256.749 207.275 252.299 204.475ZM298.668 182.875L298.743 182.275C298.743 180.125 299.343 178.425 300.543 177.175C301.793 175.925 303.143 175.1 304.593 174.7C306.043 174.3 307.368 173.625 308.568 172.675C309.818 171.725 310.443 170.45 310.443 168.85C310.443 167.2 309.968 165.925 309.018 165.025C308.118 164.125 306.743 163.675 304.893 163.675C303.043 163.675 301.668 163.975 300.768 164.575C299.918 165.125 299.393 165.7 299.193 166.3L298.968 167.2C298.518 168.5 297.993 169.5 297.393 170.2C296.793 170.85 296.018 171.175 295.068 171.175C294.118 171.175 292.868 170.875 291.318 170.275C288.318 169.125 286.818 167.7 286.818 166C286.818 165.25 286.968 164.5 287.268 163.75C287.568 162.95 287.818 162.3 288.018 161.8C288.218 161.25 288.743 160.325 289.593 159.025C290.493 157.725 291.493 156.6 292.593 155.65C293.743 154.65 295.343 153.75 297.393 152.95C299.443 152.1 301.718 151.675 304.218 151.675C309.518 151.675 313.843 153.375 317.193 156.775C320.543 160.175 322.218 164.125 322.218 168.625C322.218 170.775 321.818 172.775 321.018 174.625C320.268 176.425 319.343 177.85 318.243 178.9C316.043 181 313.993 182.4 312.093 183.1L310.893 183.475C310.893 184.325 310.843 184.975 310.743 185.425C310.693 185.875 310.468 186.375 310.068 186.925C309.718 187.425 309.093 187.8 308.193 188.05C307.343 188.25 306.193 188.35 304.743 188.35C303.293 188.35 302.118 188.225 301.218 187.975C300.368 187.725 299.768 187.3 299.418 186.7C299.068 186.1 298.843 185.575 298.743 185.125C298.693 184.625 298.668 183.875 298.668 182.875ZM298.368 196.3C298.768 195.5 299.468 194.925 300.468 194.575C301.518 194.225 303.143 194.05 305.343 194.05C307.543 194.05 309.118 194.55 310.068 195.55C311.068 196.5 311.568 198.375 311.568 201.175C311.568 203.175 311.318 204.675 310.818 205.675C310.318 206.625 309.543 207.275 308.493 207.625C307.493 207.925 305.918 208.075 303.768 208.075C301.618 208.075 299.968 207.55 298.818 206.5C297.968 205.65 297.543 204.2 297.543 202.15V200.95C297.543 199.8 297.568 198.925 297.618 198.325C297.718 197.725 297.968 197.05 298.368 196.3Z" fill="#E2644E"/>
<path d="M100.37 187.403C100.529 191.311 101.863 195.059 104.23 198.243C106.654 201.505 110.006 203.948 113.924 205.309C119.071 207.096 124.628 206.833 129.572 204.569C134.515 202.306 138.253 198.311 140.097 193.322C141.941 188.333 141.67 182.946 139.334 178.154C136.999 173.363 132.878 169.74 127.731 167.952C125.584 167.207 123.347 166.815 121.082 166.787C120.705 166.783 120.346 166.942 120.104 167.223C119.861 167.503 119.762 167.874 119.832 168.233C119.966 168.911 119.909 169.613 119.668 170.265C119.173 171.605 117.963 172.574 116.51 172.795C116.121 172.854 115.783 173.087 115.598 173.423C115.412 173.76 115.399 174.161 115.564 174.508C116.268 175.989 116.344 177.648 115.777 179.182C114.591 182.392 110.931 184.068 107.619 182.918C106.84 182.648 106.134 182.24 105.519 181.708C105.388 181.594 105.238 181.511 105.077 181.459C104.431 181.251 103.728 181.579 103.497 182.204C103.417 182.421 103.404 182.646 103.448 182.856C103.518 183.341 103.465 183.84 103.293 184.305C102.956 185.218 102.213 185.905 101.255 186.192C100.711 186.355 100.348 186.852 100.37 187.403ZM130.769 187.608C132.906 188.35 134.022 190.639 133.256 192.711C132.491 194.782 130.129 195.864 127.992 195.122C125.855 194.379 124.739 192.09 125.505 190.019C126.27 187.947 128.632 186.866 130.769 187.608ZM127.798 174.626C129.935 175.368 131.051 177.657 130.285 179.729C129.52 181.8 127.158 182.882 125.021 182.14C122.884 181.398 121.768 179.109 122.534 177.037C123.299 174.966 125.661 173.884 127.798 174.626ZM119.061 193.404C121.198 194.146 122.314 196.435 121.548 198.507C120.783 200.578 118.421 201.66 116.284 200.918C114.147 200.176 113.031 197.887 113.797 195.815C114.562 193.744 116.924 192.662 119.061 193.404Z" fill="#F0C798"/>
<path d="M97.7509 180.396C97.2022 176.521 95.4991 172.916 92.8253 169.969C90.0864 166.951 86.5055 164.835 82.4699 163.849C77.1682 162.554 71.6636 163.337 66.97 166.055C62.2764 168.773 58.9557 173.1 57.6196 178.239C56.2834 183.378 57.0917 188.714 59.8957 193.263C62.6998 197.813 67.1637 201.032 72.4653 202.327C74.6768 202.867 76.9424 203.047 79.1991 202.861C79.5748 202.83 79.9164 202.638 80.1294 202.336C80.3425 202.034 80.4045 201.656 80.2984 201.305C80.0979 200.643 80.0843 199.938 80.2589 199.267C80.6176 197.887 81.7247 196.808 83.1482 196.452C83.5295 196.356 83.8425 196.093 83.9938 195.741C84.1451 195.389 84.1172 194.988 83.9185 194.658C83.0697 193.251 82.8283 191.606 83.2389 190.027C84.0987 186.72 87.5738 184.708 90.9853 185.541C91.7873 185.737 92.5312 186.076 93.1964 186.549C93.3383 186.649 93.4954 186.718 93.6613 186.754C94.3251 186.901 94.9918 186.508 95.159 185.865C95.2171 185.641 95.2074 185.416 95.1424 185.211C95.0244 184.735 95.0276 184.233 95.1519 183.755C95.3965 182.814 96.0669 182.06 96.9915 181.684C97.5166 181.472 97.8283 180.943 97.7509 180.396ZM67.4751 183.049C65.2739 182.512 63.9343 180.338 64.4891 178.204C65.0439 176.071 67.2861 174.772 69.4874 175.31C71.6887 175.848 73.0282 178.021 72.4735 180.155C71.9187 182.289 69.6765 183.587 67.4751 183.049ZM71.7306 195.69C69.5294 195.153 68.1899 192.979 68.7446 190.846C69.2994 188.712 71.5416 187.413 73.7429 187.951C75.9441 188.489 77.2836 190.662 76.7289 192.796C76.1742 194.93 73.9319 196.228 71.7306 195.69ZM78.5479 176.18C76.3467 175.642 75.0071 173.469 75.5619 171.335C76.1167 169.201 78.3589 167.903 80.5602 168.441C82.7614 168.978 84.101 171.152 83.5462 173.286C82.9914 175.419 80.7491 176.718 78.5479 176.18Z" fill="#F0C798"/>
</svg>
