<svg width="303" height="211" viewBox="0 0 303 211" fill="none" xmlns="http://www.w3.org/2000/svg">
<path d="M52.3922 54.56L53.6522 53.65C55.2389 52.7167 56.3589 52.25 57.0122 52.25C58.4589 52.25 60.0222 53.5567 61.7022 56.17C62.7289 57.8033 63.2422 59.11 63.2422 60.09C63.2422 61.07 62.9156 61.8867 62.2622 62.54C61.6556 63.1933 60.9322 63.7767 60.0922 64.29C59.2522 64.8033 58.4356 65.2933 57.6422 65.76C56.8956 66.2267 55.3322 66.8333 52.9522 67.58C50.5722 68.3267 48.2622 68.7 46.0222 68.7C43.8289 68.7 41.5889 68.42 39.3022 67.86C37.0622 67.2533 34.7289 66.2733 32.3022 64.92C29.9222 63.52 27.7756 61.84 25.8622 59.88C23.9489 57.8733 22.3622 55.33 21.1022 52.25C19.8889 49.1233 19.2822 45.74 19.2822 42.1C19.2822 38.46 19.8889 35.17 21.1022 32.23C22.3156 29.2433 23.8556 26.7933 25.7222 24.88C27.6356 22.92 29.8056 21.2867 32.2322 19.98C36.8056 17.46 41.4022 16.2 46.0222 16.2C48.2156 16.2 50.4322 16.55 52.6722 17.25C54.9589 17.9033 56.6856 18.58 57.8522 19.28L59.5322 20.26C60.3722 20.7733 61.0256 21.1933 61.4922 21.52C62.7056 22.5 63.3122 23.62 63.3122 24.88C63.3122 26.0933 62.8222 27.3767 61.8422 28.73C60.0222 31.25 58.3889 32.51 56.9422 32.51C56.1022 32.51 54.9122 31.9967 53.3722 30.97C51.4122 29.3833 48.7989 28.59 45.5322 28.59C42.4989 28.59 39.5122 29.64 36.5722 31.74C35.1722 32.7667 34.0056 34.2133 33.0722 36.08C32.1389 37.9467 31.6722 40.07 31.6722 42.45C31.6722 44.7833 32.1389 46.8833 33.0722 48.75C34.0056 50.6167 35.1956 52.0867 36.6422 53.16C39.4889 55.2133 42.4522 56.24 45.5322 56.24C46.9789 56.24 48.3322 56.0533 49.5922 55.68C50.8989 55.3067 51.8322 54.9333 52.3922 54.56ZM92.902 31.53C93.7887 31.81 94.512 32.3 95.072 33C95.6787 33.6533 95.982 34.7267 95.982 36.22C95.982 37.7133 95.5387 39.3467 94.652 41.12C93.7653 42.8933 92.482 43.78 90.802 43.78C89.962 43.78 89.1453 43.5933 88.352 43.22C87.6053 42.8467 86.602 42.66 85.342 42.66C84.082 42.66 82.892 43.1033 81.772 43.99C80.6987 44.8767 80.162 45.95 80.162 47.21V61.91C80.162 62.9833 80.1153 63.8 80.022 64.36C79.9753 64.8733 79.7653 65.48 79.392 66.18C78.692 67.3933 76.872 68 73.932 68C71.692 68 70.082 67.6033 69.102 66.81C68.3553 66.1567 67.9353 65.1533 67.842 63.8C67.842 63.3333 67.842 62.6567 67.842 61.77V37.2C67.842 36.1267 67.8653 35.3333 67.912 34.82C68.0053 34.26 68.2153 33.6533 68.542 33C69.1953 31.74 71.0153 31.11 74.002 31.11C76.802 31.11 78.552 31.6467 79.252 32.72C79.7653 33.4667 80.022 34.2367 80.022 35.03C80.2553 34.7033 80.582 34.3067 81.002 33.84C81.4687 33.3733 82.4253 32.7433 83.872 31.95C85.3187 31.1567 86.5787 30.76 87.652 30.76C88.772 30.76 89.7053 30.83 90.452 30.97C91.1987 31.0633 92.0153 31.25 92.902 31.53ZM121.655 35.03C121.935 32.4167 123.778 31.11 127.185 31.11C129.005 31.11 130.358 31.25 131.245 31.53C132.132 31.81 132.738 32.3 133.065 33C133.438 33.7 133.648 34.33 133.695 34.89C133.788 35.4033 133.835 36.1967 133.835 37.27V61.77C133.835 62.8433 133.788 63.66 133.695 64.22C133.648 64.7333 133.462 65.34 133.135 66.04C132.482 67.2533 130.872 67.86 128.305 67.86C125.785 67.86 124.082 67.5567 123.195 66.95C122.355 66.2967 121.865 65.3633 121.725 64.15C119.998 66.6233 117.105 67.86 113.045 67.86C109.032 67.86 105.298 66.0167 101.845 62.33C98.3917 58.6433 96.665 54.3733 96.665 49.52C96.665 44.62 98.3917 40.35 101.845 36.71C105.345 33.0233 109.172 31.18 113.325 31.18C114.912 31.18 116.358 31.46 117.665 32.02C118.972 32.58 119.882 33.1167 120.395 33.63C120.908 34.0967 121.328 34.5633 121.655 35.03ZM108.915 49.59C108.915 51.13 109.522 52.53 110.735 53.79C111.948 55.0033 113.418 55.61 115.145 55.61C116.872 55.61 118.295 54.98 119.415 53.72C120.582 52.46 121.165 51.0833 121.165 49.59C121.165 48.05 120.605 46.6267 119.485 45.32C118.412 44.0133 116.942 43.36 115.075 43.36C113.255 43.36 111.762 44.0133 110.595 45.32C109.475 46.6267 108.915 48.05 108.915 49.59ZM175.559 31.95C177.986 33.3967 179.199 34.9367 179.199 36.57C179.199 37.5033 178.732 38.7867 177.799 40.42L163.309 65.27C162.842 66.0633 162.096 66.7867 161.069 67.44C160.042 68.0467 159.016 68.35 157.989 68.35C157.009 68.35 156.052 68.1167 155.119 67.65C154.232 67.1367 153.602 66.6233 153.229 66.11L152.599 65.34L138.039 40.42C137.106 38.88 136.639 37.62 136.639 36.64C136.639 34.96 137.852 33.3967 140.279 31.95C142.052 30.9233 143.452 30.41 144.479 30.41C145.506 30.41 146.299 30.7367 146.859 31.39C147.466 31.9967 148.096 32.93 148.749 34.19L157.919 51.83L167.089 34.19C167.602 33.3033 167.976 32.6733 168.209 32.3C168.489 31.88 168.909 31.4833 169.469 31.11C170.029 30.69 170.776 30.48 171.709 30.48C172.642 30.48 173.926 30.97 175.559 31.95ZM183.028 37.27C183.028 36.1967 183.051 35.4033 183.098 34.89C183.191 34.33 183.401 33.7 183.728 33C184.381 31.7867 186.201 31.18 189.188 31.18C191.428 31.18 193.014 31.5767 193.948 32.37C194.741 33.0233 195.161 34.0267 195.208 35.38C195.254 35.8467 195.278 36.5233 195.278 37.41V61.91C195.278 62.9833 195.231 63.8 195.138 64.36C195.091 64.8733 194.881 65.48 194.508 66.18C193.901 67.3933 192.104 68 189.118 68C186.178 68 184.381 67.37 183.728 66.11C183.401 65.41 183.191 64.8033 183.098 64.29C183.051 63.7767 183.028 62.96 183.028 61.84V37.27ZM194.508 24.32C194.181 24.9733 193.574 25.44 192.688 25.72C191.801 26 190.611 26.14 189.118 26.14C187.671 26.14 186.504 26 185.618 25.72C184.731 25.44 184.101 24.95 183.728 24.25C183.401 23.55 183.191 22.9433 183.098 22.43C183.051 21.87 183.028 21.0533 183.028 19.98C183.028 18.9067 183.051 18.1133 183.098 17.6C183.191 17.04 183.401 16.4333 183.728 15.78C184.381 14.52 186.201 13.89 189.188 13.89C192.128 13.89 193.901 14.52 194.508 15.78C194.881 16.48 195.091 17.11 195.138 17.67C195.231 18.1833 195.278 18.9767 195.278 20.05C195.278 21.1233 195.231 21.94 195.138 22.5C195.091 23.0133 194.881 23.62 194.508 24.32ZM221.379 31.11C226.046 31.11 229.919 32.9067 232.999 36.5C236.126 40.0467 237.689 44.3867 237.689 49.52V61.84C237.689 62.9133 237.643 63.73 237.549 64.29C237.503 64.8033 237.316 65.3867 236.989 66.04C236.336 67.3 234.516 67.93 231.529 67.93C228.216 67.93 226.303 67.0667 225.789 65.34C225.509 64.5467 225.369 63.3567 225.369 61.77V49.45C225.369 47.5367 224.809 46.0433 223.689 44.97C222.616 43.8967 221.146 43.36 219.279 43.36C217.459 43.36 215.966 43.92 214.799 45.04C213.679 46.16 213.119 47.63 213.119 49.45V61.84C213.119 62.9133 213.073 63.73 212.979 64.29C212.933 64.8033 212.723 65.3867 212.349 66.04C211.743 67.3 209.946 67.93 206.959 67.93C204.019 67.93 202.223 67.3 201.569 66.04C201.243 65.34 201.033 64.7333 200.939 64.22C200.893 63.66 200.869 62.8433 200.869 61.77V36.99C200.869 35.9633 200.893 35.1933 200.939 34.68C201.033 34.12 201.266 33.5133 201.639 32.86C202.293 31.6933 204.089 31.11 207.029 31.11C209.876 31.11 211.626 31.6467 212.279 32.72C212.746 33.5133 212.979 34.47 212.979 35.59C213.166 35.2633 213.586 34.7967 214.239 34.19C214.893 33.5833 215.523 33.0933 216.129 32.72C217.716 31.6467 219.466 31.11 221.379 31.11ZM266.701 63.38C264.927 65.7133 262.104 66.88 258.231 66.88C254.357 66.88 250.717 65.1067 247.311 61.56C243.951 57.9667 242.271 53.79 242.271 49.03C242.271 44.27 243.974 40.0933 247.381 36.5C250.787 32.9067 254.521 31.11 258.581 31.11C260.167 31.11 261.614 31.4133 262.921 32.02C264.227 32.58 265.114 33.1167 265.581 33.63C266.094 34.0967 266.491 34.54 266.771 34.96C266.911 33.6533 267.377 32.6733 268.171 32.02C269.011 31.32 270.341 30.97 272.161 30.97C273.981 30.97 275.311 31.11 276.151 31.39C276.991 31.67 277.574 32.16 277.901 32.86C278.274 33.5133 278.484 34.0967 278.531 34.61C278.624 35.1233 278.671 35.9167 278.671 36.99V65.97C278.671 71.3367 276.804 75.6533 273.071 78.92C269.337 82.2333 265.137 83.89 260.471 83.89C256.924 83.89 253.541 83.0267 250.321 81.3C247.101 79.5733 245.491 78.01 245.491 76.61C245.491 74.79 246.191 73.18 247.591 71.78C248.477 70.8 249.154 70.1233 249.621 69.75C250.134 69.3767 250.717 69.19 251.371 69.19C252.024 69.19 252.701 69.47 253.401 70.03C255.641 71.7567 258.067 72.62 260.681 72.62C262.454 72.62 263.901 71.92 265.021 70.52C266.141 69.12 266.701 67.44 266.701 65.48V63.38ZM254.241 49.1C254.241 50.5933 254.824 51.9467 255.991 53.16C257.204 54.3733 258.651 54.98 260.331 54.98C262.057 54.98 263.481 54.3733 264.601 53.16C265.721 51.9 266.281 50.5467 266.281 49.1C266.281 47.6067 265.744 46.23 264.671 44.97C263.597 43.6633 262.151 43.01 260.331 43.01C258.511 43.01 257.041 43.64 255.921 44.9C254.801 46.16 254.241 47.56 254.241 49.1Z" fill="#E2644E"/>
<path d="M132.009 107.752C134.217 107.752 135.513 108.36 135.897 109.576C136.089 110.184 136.185 110.984 136.185 111.976C136.185 112.968 136.073 113.768 135.849 114.376C135.657 114.952 135.337 115.368 134.889 115.624C134.217 116.008 133.241 116.2 131.961 116.2L128.889 116.008V128.872C128.889 130.088 128.729 131 128.409 131.608C128.121 132.184 127.657 132.568 127.017 132.76C126.409 132.952 125.609 133.048 124.617 133.048C123.625 133.048 122.825 132.952 122.217 132.76C121.641 132.536 121.225 132.2 120.969 131.752C120.713 131.272 120.553 130.84 120.489 130.456C120.457 130.072 120.441 129.512 120.441 128.776V116.056H118.713C117.881 115.992 117.289 115.8 116.937 115.48C116.329 114.872 116.025 113.704 116.025 111.976C116.025 109.352 116.969 108.04 118.857 108.04H120.441V105.496C120.441 103.032 121.321 100.808 123.081 98.824C124.841 96.808 127.385 95.8 130.713 95.8C131.449 95.8 131.993 95.832 132.345 95.896C132.729 95.928 133.161 96.072 133.641 96.328C134.505 96.744 134.937 97.976 134.937 100.024C134.937 101.56 134.665 102.664 134.121 103.336C133.673 103.848 132.969 104.136 132.009 104.2C131.721 104.2 131.273 104.2 130.665 104.2C129.481 104.2 128.889 104.6 128.889 105.4V108.04L132.009 107.752ZM137.177 120.376C137.177 116.536 138.521 113.368 141.209 110.872C143.897 108.376 146.969 107.128 150.425 107.128C153.881 107.128 156.937 108.376 159.593 110.872C162.249 113.336 163.577 116.488 163.577 120.328C163.577 122.984 162.889 125.352 161.513 127.432C160.137 129.48 158.457 131 156.473 131.992C154.521 132.952 152.489 133.432 150.377 133.432C148.265 133.432 146.217 132.92 144.233 131.896C142.249 130.84 140.569 129.304 139.193 127.288C137.849 125.24 137.177 122.936 137.177 120.376ZM147.209 123.832C148.233 124.6 149.273 124.984 150.329 124.984C151.385 124.984 152.441 124.584 153.497 123.784C154.553 122.984 155.081 121.8 155.081 120.232C155.081 118.664 154.585 117.496 153.593 116.728C152.601 115.96 151.529 115.576 150.377 115.576C149.225 115.576 148.153 115.976 147.161 116.776C146.169 117.576 145.673 118.76 145.673 120.328C145.673 121.864 146.185 123.032 147.209 123.832ZM183.862 107.992C184.47 108.184 184.966 108.52 185.35 109C185.766 109.448 185.974 110.184 185.974 111.208C185.974 112.232 185.67 113.352 185.062 114.568C184.454 115.784 183.574 116.392 182.422 116.392C181.846 116.392 181.286 116.264 180.742 116.008C180.23 115.752 179.542 115.624 178.678 115.624C177.814 115.624 176.998 115.928 176.23 116.536C175.494 117.144 175.126 117.88 175.126 118.744V128.824C175.126 129.56 175.094 130.12 175.03 130.504C174.998 130.856 174.854 131.272 174.598 131.752C174.118 132.584 172.87 133 170.854 133C169.318 133 168.214 132.728 167.542 132.184C167.03 131.736 166.742 131.048 166.678 130.12C166.678 129.8 166.678 129.336 166.678 128.728V111.88C166.678 111.144 166.694 110.6 166.726 110.248C166.79 109.864 166.934 109.448 167.158 109C167.606 108.136 168.854 107.704 170.902 107.704C172.822 107.704 174.022 108.072 174.502 108.808C174.854 109.32 175.03 109.848 175.03 110.392C175.19 110.168 175.414 109.896 175.702 109.576C176.022 109.256 176.678 108.824 177.67 108.28C178.662 107.736 179.526 107.464 180.262 107.464C181.03 107.464 181.67 107.512 182.182 107.608C182.694 107.672 183.254 107.8 183.862 107.992Z" fill="#E2644E"/>
<path d="M8.58428 198.275C7.28428 196.675 6.63428 195.25 6.63428 194C6.63428 192.7 7.70928 191 9.85928 188.9C11.1093 187.7 12.4343 187.1 13.8343 187.1C15.2343 187.1 17.1843 188.35 19.6843 190.85C20.3843 191.7 21.3843 192.525 22.6843 193.325C23.9843 194.075 25.1843 194.45 26.2843 194.45C30.9343 194.45 33.2593 192.55 33.2593 188.75C33.2593 187.6 32.6093 186.65 31.3093 185.9C30.0593 185.1 28.4843 184.525 26.5843 184.175C24.6843 183.825 22.6343 183.275 20.4343 182.525C18.2343 181.725 16.1843 180.8 14.2843 179.75C12.3843 178.7 10.7843 177.05 9.48428 174.8C8.23428 172.5 7.60928 169.75 7.60928 166.55C7.60928 162.15 9.23428 158.325 12.4843 155.075C15.7843 151.775 20.2593 150.125 25.9093 150.125C28.9093 150.125 31.6343 150.525 34.0843 151.325C36.5843 152.075 38.3093 152.85 39.2593 153.65L41.1343 155.075C42.6843 156.525 43.4593 157.75 43.4593 158.75C43.4593 159.75 42.8593 161.125 41.6593 162.875C39.9593 165.375 38.2093 166.625 36.4093 166.625C35.3593 166.625 34.0593 166.125 32.5093 165.125C32.3593 165.025 32.0593 164.775 31.6093 164.375C31.2093 163.975 30.8343 163.65 30.4843 163.4C29.4343 162.75 28.0843 162.425 26.4343 162.425C24.8343 162.425 23.4843 162.825 22.3843 163.625C21.3343 164.375 20.8093 165.45 20.8093 166.85C20.8093 168.2 21.4343 169.3 22.6843 170.15C23.9843 171 25.5843 171.575 27.4843 171.875C29.3843 172.175 31.4593 172.65 33.7093 173.3C35.9593 173.9 38.0343 174.65 39.9343 175.55C41.8343 176.45 43.4093 178.025 44.6593 180.275C45.9593 182.475 46.6093 185.2 46.6093 188.45C46.6093 191.7 45.9593 194.575 44.6593 197.075C43.3593 199.525 41.6593 201.425 39.5593 202.775C35.5093 205.425 31.1843 206.75 26.5843 206.75C24.2343 206.75 22.0093 206.475 19.9093 205.925C17.8093 205.325 16.1093 204.6 14.8093 203.75C12.1593 202.15 10.3093 200.6 9.25928 199.1L8.58428 198.275ZM99.7644 166.775C102.964 168.175 104.564 169.9 104.564 171.95C104.564 172.8 104.164 174.175 103.364 176.075C102.564 177.925 101.889 179.55 101.339 180.95L93.0894 201.05C92.3394 203.25 91.0894 204.8 89.3394 205.7C88.5894 206.05 87.6394 206.225 86.4894 206.225C85.3394 206.225 84.2144 205.8 83.1144 204.95C82.0644 204.05 81.3644 203.15 81.0144 202.25L80.4144 200.975C80.0144 199.975 78.5394 196.075 75.9894 189.275C75.4894 190.475 74.7394 192.45 73.7394 195.2C72.7894 197.9 72.1644 199.6 71.8644 200.3C71.6144 200.95 71.4394 201.4 71.3394 201.65C71.2894 201.85 71.0894 202.25 70.7394 202.85C70.3894 203.45 69.9894 203.975 69.5394 204.425C68.3394 205.625 66.9644 206.225 65.4144 206.225C63.8644 206.225 62.5644 205.8 61.5144 204.95C60.4644 204.05 59.7644 203.15 59.4144 202.25L48.0894 174.65C47.5894 173.15 47.3394 172.175 47.3394 171.725C47.3394 169.725 48.7644 168.15 51.6144 167C53.2144 166.35 54.5144 166.025 55.5144 166.025C56.5144 166.025 57.3144 166.25 57.9144 166.7C58.5644 167.1 59.0144 167.525 59.2644 167.975C59.5144 168.375 59.7144 168.8 59.8644 169.25C60.7144 171.25 62.4894 175.95 65.1894 183.35L69.6144 171.2C69.9144 170.2 70.4644 169.325 71.2644 168.575C72.7144 167.125 74.1894 166.4 75.6894 166.4C77.1894 166.4 78.4644 166.8 79.5144 167.6C80.6144 168.4 81.3644 169.2 81.7644 170L82.3644 171.275C84.8644 178.275 86.3394 182.275 86.7894 183.275L91.3644 170.825C92.5644 167.625 94.3644 166.025 96.7644 166.025C97.7144 166.025 98.7144 166.275 99.7644 166.775ZM145.322 181.55C145.322 184.6 144.547 186.875 142.997 188.375C141.497 189.825 139.822 190.55 137.972 190.55H120.197C120.197 191.95 121.022 193.125 122.672 194.075C124.322 195.025 125.972 195.5 127.622 195.5C130.522 195.5 132.797 195.2 134.447 194.6L135.272 194.3C136.472 193.75 137.472 193.475 138.272 193.475C139.872 193.475 141.247 194.6 142.397 196.85C143.047 198.2 143.372 199.35 143.372 200.3C143.372 204.75 138.047 206.975 127.397 206.975C123.697 206.975 120.397 206.35 117.497 205.1C114.647 203.8 112.422 202.1 110.822 200C107.672 195.95 106.097 191.425 106.097 186.425C106.097 180.125 108.122 175.1 112.172 171.35C116.272 167.55 121.372 165.65 127.472 165.65C134.422 165.65 139.522 168.1 142.772 173C144.472 175.6 145.322 178.45 145.322 181.55ZM129.497 183.725C131.397 183.725 132.347 182.925 132.347 181.325C132.347 180.175 131.897 179.25 130.997 178.55C130.147 177.85 128.897 177.5 127.247 177.5C125.647 177.5 124.047 178.175 122.447 179.525C120.847 180.825 120.047 182.225 120.047 183.725H129.497ZM188.315 181.55C188.315 184.6 187.54 186.875 185.99 188.375C184.49 189.825 182.815 190.55 180.965 190.55H163.19C163.19 191.95 164.015 193.125 165.665 194.075C167.315 195.025 168.965 195.5 170.615 195.5C173.515 195.5 175.79 195.2 177.44 194.6L178.265 194.3C179.465 193.75 180.465 193.475 181.265 193.475C182.865 193.475 184.24 194.6 185.39 196.85C186.04 198.2 186.365 199.35 186.365 200.3C186.365 204.75 181.04 206.975 170.39 206.975C166.69 206.975 163.39 206.35 160.49 205.1C157.64 203.8 155.415 202.1 153.815 200C150.665 195.95 149.09 191.425 149.09 186.425C149.09 180.125 151.115 175.1 155.165 171.35C159.265 167.55 164.365 165.65 170.465 165.65C177.415 165.65 182.515 168.1 185.765 173C187.465 175.6 188.315 178.45 188.315 181.55ZM172.49 183.725C174.39 183.725 175.34 182.925 175.34 181.325C175.34 180.175 174.89 179.25 173.99 178.55C173.14 177.85 171.89 177.5 170.24 177.5C168.64 177.5 167.04 178.175 165.44 179.525C163.84 180.825 163.04 182.225 163.04 183.725H172.49ZM215.426 179.75L210.551 179.45V189.8C210.551 191.15 210.751 192.125 211.151 192.725C211.601 193.325 212.401 193.625 213.551 193.625C214.751 193.625 215.651 193.675 216.251 193.775C216.901 193.825 217.576 194.05 218.276 194.45C219.426 195.1 220.001 196.775 220.001 199.475C220.001 202.625 219.301 204.55 217.901 205.25C217.151 205.6 216.476 205.825 215.876 205.925C215.326 205.975 214.501 206 213.401 206C208.201 206 204.251 204.825 201.551 202.475C198.851 200.125 197.501 196.15 197.501 190.55V179.45C196.551 179.6 195.526 179.675 194.426 179.675C193.326 179.675 192.401 179.25 191.651 178.4C190.951 177.55 190.601 176.1 190.601 174.05C190.601 172 190.726 170.525 190.976 169.625C191.226 168.675 191.576 168 192.026 167.6C192.826 166.95 193.826 166.625 195.026 166.625L197.501 166.925V159.2C197.501 158.05 197.526 157.2 197.576 156.65C197.676 156.1 197.926 155.5 198.326 154.85C198.976 153.6 200.901 152.975 204.101 152.975C207.501 152.975 209.526 153.9 210.176 155.75C210.426 156.55 210.551 157.825 210.551 159.575V166.925C212.751 166.725 214.401 166.625 215.501 166.625C216.651 166.625 217.501 166.675 218.051 166.775C218.651 166.825 219.326 167.05 220.076 167.45C221.376 168.1 222.026 170.025 222.026 173.225C222.026 176.375 221.351 178.3 220.001 179C219.251 179.35 218.576 179.575 217.976 179.675C217.426 179.725 216.576 179.75 215.426 179.75ZM226.467 202.475C225.517 201.875 225.042 200.925 225.042 199.625C225.042 198.325 225.992 196.35 227.892 193.7C228.442 192.85 229.317 192.425 230.517 192.425C231.767 192.425 233.442 193.05 235.542 194.3C237.642 195.5 239.542 196.1 241.242 196.1C244.292 196.1 245.817 195.5 245.817 194.3C245.817 193.35 244.142 192.65 240.792 192.2C237.642 191.75 234.517 190.575 231.417 188.675C229.967 187.775 228.767 186.375 227.817 184.475C226.867 182.525 226.392 180.225 226.392 177.575C226.392 169.675 231.817 165.725 242.667 165.725C246.217 165.725 249.867 166.575 253.617 168.275C255.367 169.075 256.242 170.075 256.242 171.275C256.242 172.475 255.692 173.95 254.592 175.7C253.492 177.45 252.367 178.325 251.217 178.325C250.617 178.325 249.492 177.95 247.842 177.2C246.242 176.45 244.492 176.075 242.592 176.075C239.642 176.075 238.167 176.625 238.167 177.725C238.167 179.225 239.867 180.2 243.267 180.65C246.567 181 249.767 181.95 252.867 183.5C254.317 184.2 255.517 185.425 256.467 187.175C257.467 188.875 257.967 191.025 257.967 193.625C257.967 196.225 257.467 198.45 256.467 200.3C255.517 202.1 254.167 203.45 252.417 204.35C249.217 205.9 245.192 206.675 240.342 206.675C235.542 206.675 230.917 205.275 226.467 202.475ZM272.837 180.875L272.912 180.275C272.912 178.125 273.512 176.425 274.712 175.175C275.962 173.925 277.312 173.1 278.762 172.7C280.212 172.3 281.537 171.625 282.737 170.675C283.987 169.725 284.612 168.45 284.612 166.85C284.612 165.2 284.137 163.925 283.187 163.025C282.287 162.125 280.912 161.675 279.062 161.675C277.212 161.675 275.837 161.975 274.937 162.575C274.087 163.125 273.562 163.7 273.362 164.3L273.137 165.2C272.687 166.5 272.162 167.5 271.562 168.2C270.962 168.85 270.187 169.175 269.237 169.175C268.287 169.175 267.037 168.875 265.487 168.275C262.487 167.125 260.987 165.7 260.987 164C260.987 163.25 261.137 162.5 261.437 161.75C261.737 160.95 261.987 160.3 262.187 159.8C262.387 159.25 262.912 158.325 263.762 157.025C264.662 155.725 265.662 154.6 266.762 153.65C267.912 152.65 269.512 151.75 271.562 150.95C273.612 150.1 275.887 149.675 278.387 149.675C283.687 149.675 288.012 151.375 291.362 154.775C294.712 158.175 296.387 162.125 296.387 166.625C296.387 168.775 295.987 170.775 295.187 172.625C294.437 174.425 293.512 175.85 292.412 176.9C290.212 179 288.162 180.4 286.262 181.1L285.062 181.475C285.062 182.325 285.012 182.975 284.912 183.425C284.862 183.875 284.637 184.375 284.237 184.925C283.887 185.425 283.262 185.8 282.362 186.05C281.512 186.25 280.362 186.35 278.912 186.35C277.462 186.35 276.287 186.225 275.387 185.975C274.537 185.725 273.937 185.3 273.587 184.7C273.237 184.1 273.012 183.575 272.912 183.125C272.862 182.625 272.837 181.875 272.837 180.875ZM272.537 194.3C272.937 193.5 273.637 192.925 274.637 192.575C275.687 192.225 277.312 192.05 279.512 192.05C281.712 192.05 283.287 192.55 284.237 193.55C285.237 194.5 285.737 196.375 285.737 199.175C285.737 201.175 285.487 202.675 284.987 203.675C284.487 204.625 283.712 205.275 282.662 205.625C281.662 205.925 280.087 206.075 277.937 206.075C275.787 206.075 274.137 205.55 272.987 204.5C272.137 203.65 271.712 202.2 271.712 200.15V198.95C271.712 197.8 271.737 196.925 271.787 196.325C271.887 195.725 272.137 195.05 272.537 194.3Z" fill="#E2644E"/>
</svg>
