<?xml version="1.0"?>
<svg xmlns="http://www.w3.org/2000/svg" height="512px" viewBox="0 -12 512 512" width="512px" class=""><g><path d="m316.285156 295.363281c53.199219 0 96.324219 43.128907 96.324219 96.328125 0 53.195313-43.125 96.324219-96.324219 96.324219-31.730468 0-129.339844-34.265625-202.953125-61.921875-31.792969-11.945312-31.792969-56.863281 0-68.804688 73.613281-27.65625 171.222657-61.925781 202.953125-61.925781zm0 0" fill="#b66652" data-original="#B66652" class="" style="fill:#7E1D6E" data-old_color="#b66652"/><path d="m347.695312 300.605469c-7.070312 13.101562-3.800781 29.765625 8.390626 39.121093 16.300781 12.511719 25.648437 31.453126 25.648437 51.964844 0 36.089844-29.359375 65.449219-65.449219 65.449219-5.839844 0-28.539062-2.53125-105.261718-28.664063l121.179687 15.324219c.332031.042969.65625.0625.980469.0625 3.832031 0 7.152344-2.851562 7.648437-6.75.535157-4.230469-2.460937-8.089843-6.691406-8.625-202.605469-25.625-161.824219-19.113281-209.953125-31.296875-11.644531-4.375-24.269531-1.25-32.574219 6.960938 3.320313 9.476562 10.550781 17.746094 21.71875 21.941406 73.613281 27.65625 171.222657 61.925781 202.953125 61.925781 53.199219 0 96.324219-43.128906 96.324219-96.328125 0-42.203125-27.140625-78.058594-64.914063-91.085937zm0 0" fill="#a05a4b" data-original="#A05A4B" class="" style="fill:#E1B9B1" data-old_color="#a05a4b"/><path d="m140.425781 383.066406c.382813 0 .765625-.027344 1.15625-.085937l181.421875-27.210938c4.21875-.632812 7.121094-4.5625 6.488282-8.777343-.628907-4.214844-4.566407-7.121094-8.777344-6.488282l-181.421875 27.210938c-4.21875.628906-7.121094 4.5625-6.488281 8.777344.574218 3.828124 3.863281 6.574218 7.621093 6.574218zm0 0" fill="#a05a4b" data-original="#A05A4B" class="" style="fill:#E1B9B1" data-old_color="#a05a4b"/><path d="m189.136719 384.914062c-4.261719 0-7.71875 3.457032-7.71875 7.71875 0 4.265626 3.457031 7.71875 7.71875 7.71875h117.058593c4.261719 0 7.714844-3.453124 7.714844-7.71875 0-4.261718-3.453125-7.71875-7.714844-7.71875zm0 0" fill="#a05a4b" data-original="#A05A4B" class="" style="fill:#E1B9B1" data-old_color="#a05a4b"/><path d="m28.214844 164.4375c-37.621094-37.617188-37.621094-98.605469 0-136.222656 37.617187-37.621094 98.605468-37.621094 136.222656 0 22.4375 22.433594 67.226562 115.683594 99.726562 187.292968 14.03125 30.925782-17.730468 62.6875-48.652343 48.652344-71.613281-32.496094-164.863281-77.285156-187.296875-99.722656zm0 0" fill="#f7a16e" data-original="#F7A16E" class="" style="fill:#7E1D6E" data-old_color="#f7a16e"/><g fill="#ce795f"><path d="m264.160156 215.507812c-32.496094-71.609374-77.285156-164.859374-99.722656-187.292968-20.886719-20.890625-48.980469-30.160156-76.277344-27.851563-1.132812 14.84375 8.628906 28.742188 23.566406 32.335938 11.660157 2.804687 22.335938 8.800781 30.878907 17.34375 4.246093 4.25 19.21875 23.019531 57.292969 101.105469l-71.933594-97.320313c-2.535156-3.429687-7.367188-4.152344-10.796875-1.621094-3.425781 2.535157-4.152344 7.367188-1.617188 10.796875 123.300781 166.808594 105.226563 141.609375 120.496094 165.265625 1.238281 2.726563.671875 5.097657-1.683594 7.050781-9.554687 7.910157-13.121093 20.363282-10.175781 31.621094 27.796875 5.308594 52.691406-23.40625 39.972656-51.433594zm0 0" data-original="#CE795F" class="active-path" style="fill:#E1B9B1" data-old_color="#CE795F"/><path d="m211.074219 226.601562-154.816407-120.054687c-3.367187-2.613281-8.214843-2-10.828124 1.371094-2.613282 3.367187-2 8.214843 1.367187 10.828125l154.820313 120.054687c1.40625 1.089844 3.070312 1.617188 4.722656 1.617188 2.304687 0 4.585937-1.027344 6.105468-2.988281 2.613282-3.367188 2-8.21875-1.371093-10.828126zm0 0" data-original="#CE795F" class="active-path" style="fill:#E1B9B1" data-old_color="#CE795F"/><path d="m184.140625 191.445312c1.976563 0 3.953125-.75 5.460937-2.257812 3.011719-3.015625 3.011719-7.902344 0-10.917969l-82.773437-82.769531c-3.015625-3.015625-7.902344-3.015625-10.914063 0-3.015624 3.015625-3.015624 7.902344 0 10.914062l82.769532 82.773438c1.507812 1.503906 3.484375 2.257812 5.457031 2.257812zm0 0" data-original="#CE795F" class="active-path" style="fill:#E1B9B1" data-old_color="#CE795F"/><path d="m483.785156 103.140625c37.621094 37.617187 37.621094 98.609375 0 136.226563-37.617187 37.617187-98.605468 37.617187-136.222656 0-22.4375-22.4375-67.226562-115.6875-99.726562-187.296876-14.03125-30.925781 17.730468-62.6875 48.652343-48.652343 71.613281 32.496093 164.863281 77.285156 187.296875 99.722656zm0 0" data-original="#CE795F" class="active-path" style="fill:#E1B9B1" data-old_color="#CE795F"/></g><path d="m483.785156 103.140625c-22.433594-22.4375-115.683594-67.226563-187.292968-99.722656-10.863282-4.929688-21.828126-4.203125-30.875.148437.0625 11.679688 6.777343 22.820313 18.113281 27.964844 48.234375 29.160156 13.554687 4.09375 174.945312 129.246094 1.40625 1.089844 3.070313 1.617187 4.722657 1.617187 2.304687 0 4.582031-1.027343 6.105468-2.988281 2.613282-3.367188 2-8.214844-1.371094-10.828125l-99.230468-76.949219c71.339844 35.171875 88.957031 49.25 93.054687 53.34375 25.515625 25.519532 25.515625 67.042969 0 92.5625-12.363281 12.363282-28.800781 19.171875-46.28125 19.171875-15.367187 0-28.105469 11.226563-30.476562 25.921875 33.507812 11.144532 71.917969 3.40625 98.585937-23.261718 37.621094-37.621094 37.621094-98.609376 0-136.226563zm0 0" fill="#b66652" data-original="#B66652" class="" style="fill:#7E1D6E" data-old_color="#b66652"/><path d="m393.183594 216.625c1.59375 0 3.199218-.492188 4.582031-1.511719 3.425781-2.535156 4.152344-7.367187 1.617187-10.796875l-109.046874-147.523437c-2.535157-3.429688-7.367188-4.152344-10.792969-1.621094-3.429688 2.535156-4.152344 7.367187-1.621094 10.796875l109.046875 147.523438c1.511719 2.050781 3.847656 3.132812 6.214844 3.132812zm0 0" fill="#b66652" data-original="#B66652" class="" style="fill:#7E1D6E" data-old_color="#b66652"/><path d="m413.5625 174.082031c1.976562 0 3.949219-.753906 5.457031-2.257812 3.015625-3.015625 3.015625-7.902344 0-10.917969l-82.769531-82.769531c-3.015625-3.011719-7.902344-3.011719-10.914062 0-3.015626 3.015625-3.015626 7.902343 0 10.917969l82.769531 82.769531c1.503906 1.503906 3.480469 2.257812 5.457031 2.257812zm0 0" fill="#b66652" data-original="#B66652" class="" style="fill:#7E1D6E" data-old_color="#b66652"/><link xmlns="" type="text/css" id="dark-mode" rel="stylesheet"/><style xmlns="" type="text/css" id="dark-mode-custom-style"/></g> </svg>
