<?xml version="1.0"?>
<svg xmlns="http://www.w3.org/2000/svg" xmlns:xlink="http://www.w3.org/1999/xlink" version="1.1" id="Capa_1" x="0px" y="0px" viewBox="0 0 511.973 511.973" style="enable-background:new 0 0 511.973 511.973;" xml:space="preserve" width="512px" height="512px" class=""><g><path style="fill:#DE9362" d="M467.848,186.939c-0.809,23.775-20.349,42.613-44.138,42.55h-61.793v236.226  c0.138,12.218-4.619,23.983-13.209,32.672s-20.299,13.581-32.518,13.584c-20.428-0.681-37.693-15.349-41.666-35.399  c-0.608-2.873-0.904-5.803-0.883-8.739v-87.305c0.178-9.38-6.756-17.381-16.066-18.538c-4.93-0.419-9.81,1.239-13.464,4.574  c-3.654,3.336-5.749,8.045-5.78,12.993v86.157c0.006,3.66-0.439,7.307-1.324,10.858c-4.574,20.811-23.096,35.577-44.403,35.399  c-23.775-0.809-42.612-20.349-42.549-44.138V229.488H90.381c-0.707,0.015-1.415-0.015-2.119-0.088  c-24.636-0.769-44.193-20.99-44.138-45.638c0.808-23.775,20.349-42.613,44.138-42.55h102.135c3.545-0.021,6.733-2.159,8.099-5.43  s0.645-7.041-1.832-9.577c-27.82-29.852-26.688-76.463,2.549-104.93C228.45-7.19,275.075-7.078,304.174,21.53  c29.099,28.607,30.006,75.223,2.041,104.941c-2.355,2.581-2.961,6.309-1.546,9.503s4.585,5.249,8.078,5.239h108.844  c0.707-0.015,1.415,0.015,2.119,0.088C448.346,142.069,467.904,162.291,467.848,186.939L467.848,186.939z" data-original="#CB8252" class="active-path" data-old_color="#CB8252"/><g>
	<path style="fill:#FDD7AD;" d="M106.624,229.488H90.381c-0.707,0.015-1.415-0.015-2.119-0.088c-0.009-1.09,0.201-2.171,0.618-3.178   l0.618-1.501c10.151-25.266,10.151-53.476,0-78.741l-0.618-1.501c-0.417-1.038-0.627-2.148-0.618-3.267h18.361   C117.481,169.636,117.481,201.065,106.624,229.488z" data-original="#FDD7AD" class=""/>
	<path style="fill:#FDD7AD;" d="M423.093,226.222c0.417,1.038,0.627,2.148,0.618,3.266H405.35   c-10.858-28.424-10.858-59.852,0-88.276h16.243c0.707-0.015,1.415,0.015,2.119,0.088c0.009,1.09-0.201,2.171-0.618,3.178   l-0.618,1.501c-10.151,25.266-10.151,53.476,0,78.741L423.093,226.222z" data-original="#FDD7AD" class=""/>
	<path style="fill:#FDD7AD;" d="M361.917,414.868v17.655h-6.268c-26.849-0.067-52.251,12.163-68.943,33.192l-6.179,7.68   c-1.485,1.833-3.653,2.981-6.003,3.178c-0.608-2.873-0.904-5.803-0.882-8.739v-13.948c19.987-24.791,50.164-39.148,82.008-39.017   h6.267V414.868z" data-original="#FDD7AD" class=""/>
	<path style="fill:#FDD7AD;" d="M238.331,453.885v11.83c0.006,3.66-0.439,7.307-1.324,10.858c-2.2-0.286-4.198-1.428-5.561-3.178   l-6.179-7.68c-16.693-21.029-42.095-33.258-68.943-33.192h-6.268v-17.655h6.268C188.168,414.737,218.344,429.094,238.331,453.885   L238.331,453.885z" data-original="#FDD7AD" class=""/>
</g><g>
	<path style="fill:#805333;" d="M251.573,114.575c-12.422-0.101-24.598-3.482-35.293-9.802c-4.228-2.428-5.687-7.823-3.259-12.051   c2.428-4.228,7.823-5.687,12.051-3.259c16.222,10.103,36.778,10.103,53,0c4.228-2.428,9.624-0.969,12.052,3.259   c2.428,4.228,0.969,9.624-3.259,12.052C276.17,111.093,263.995,114.474,251.573,114.575L251.573,114.575z" data-original="#805333" class=""/>
	<path style="fill:#805333;" d="M229.504,61.764c-2.348,0.023-4.607-0.9-6.267-2.56s-2.583-3.919-2.56-6.267   c0-4.875,3.952-8.828,8.828-8.828c4.875,0,8.828,3.952,8.828,8.828c0.023,2.348-0.9,4.607-2.56,6.267   C234.11,60.864,231.852,61.787,229.504,61.764L229.504,61.764z" data-original="#805333" class=""/>
	<path style="fill:#805333;" d="M273.642,61.764c-2.952,0.028-5.719-1.436-7.358-3.892c-1.638-2.456-1.927-5.573-0.767-8.289   c0.406-1.092,1.039-2.085,1.857-2.914c2.525-2.546,6.341-3.312,9.653-1.937c3.312,1.375,5.463,4.618,5.442,8.204   c0.023,2.348-0.9,4.607-2.56,6.267C278.248,60.864,275.99,61.787,273.642,61.764L273.642,61.764z" data-original="#805333" class=""/>
</g><g>
	<path style="fill:#F4C5BD" d="M255.986,326.592c-1.155-0.014-2.296-0.254-3.358-0.707c-2.215-0.807-3.96-2.552-4.767-4.767   c-0.451-1.061-0.69-2.201-0.703-3.354c0.014-0.564,0.073-1.126,0.177-1.681c0.081-0.583,0.259-1.148,0.526-1.672   c0.194-0.565,0.462-1.101,0.797-1.595l1.06-1.319c0.857-0.779,1.841-1.406,2.909-1.854c2.131-0.974,4.58-0.974,6.711,0   c1.07,0.448,2.055,1.074,2.914,1.854c0.379,0.417,0.732,0.858,1.056,1.319c0.335,0.494,0.604,1.03,0.797,1.595   c0.266,0.525,0.445,1.09,0.53,1.672c0.102,0.555,0.161,1.117,0.177,1.681c-0.014,1.153-0.254,2.293-0.707,3.353   c-0.45,1.068-1.077,2.053-1.854,2.914c-0.859,0.779-1.844,1.406-2.914,1.854C258.279,326.338,257.139,326.578,255.986,326.592   L255.986,326.592z" data-original="#F5EFCA" class="" data-old_color="#F5EFCA"/>
	<path style="fill:#F4C5BD" d="M255.986,282.454c-1.155-0.014-2.296-0.254-3.358-0.707c-2.215-0.807-3.96-2.552-4.767-4.767   c-0.451-1.061-0.69-2.201-0.703-3.354c0.033-2.337,0.947-4.576,2.56-6.268c0.857-0.779,1.841-1.406,2.909-1.854   c1.61-0.707,3.4-0.894,5.121-0.535c0.553,0.1,1.089,0.28,1.591,0.535c0.564,0.191,1.099,0.457,1.591,0.793   c0.461,0.328,0.903,0.682,1.324,1.061c1.611,1.693,2.525,3.931,2.56,6.268c-0.014,1.153-0.254,2.293-0.707,3.353   c-0.45,1.068-1.077,2.053-1.854,2.914c-0.859,0.779-1.844,1.406-2.914,1.854C258.279,282.2,257.139,282.44,255.986,282.454   L255.986,282.454z" data-original="#F5EFCA" class="" data-old_color="#F5EFCA"/>
	<path style="fill:#F4C5BD" d="M255.986,238.316c-2.952,0.028-5.719-1.436-7.358-3.892c-1.638-2.456-1.927-5.573-0.767-8.289   c0.448-1.07,1.076-2.056,1.857-2.914c0.828-0.817,1.819-1.449,2.909-1.854c2.149-0.888,4.562-0.888,6.711,0   c1.08,0.427,2.069,1.056,2.914,1.854c0.779,0.859,1.406,1.844,1.854,2.914c1.409,3.284,0.675,7.096-1.853,9.621   c-0.859,0.779-1.844,1.406-2.914,1.854C258.279,238.062,257.14,238.302,255.986,238.316L255.986,238.316z" data-original="#F5EFCA" class="" data-old_color="#F5EFCA"/>
	<path style="fill:#F4C5BD" d="M255.986,194.178c-1.155-0.014-2.296-0.254-3.358-0.707c-1.068-0.448-2.052-1.075-2.91-1.854   c-2.525-2.527-3.261-6.335-1.858-9.621c0.807-2.215,2.552-3.96,4.767-4.767c2.14-0.931,4.571-0.931,6.711,0   c1.08,0.427,2.069,1.056,2.914,1.854c0.779,0.859,1.406,1.844,1.854,2.914c1.162,2.714,0.876,5.832-0.762,8.289   C261.707,192.743,258.939,194.207,255.986,194.178L255.986,194.178z" data-original="#F5EFCA" class="" data-old_color="#F5EFCA"/>
</g><link xmlns="" type="text/css" id="dark-mode" rel="stylesheet"/><style xmlns="" type="text/css" id="dark-mode-custom-style"/></g> </svg>
