<?xml version="1.0"?>
<svg xmlns="http://www.w3.org/2000/svg" height="512px" viewBox="0 0 512 512" width="512px" class=""><g><g id="Flat"><path d="m374.151 93.075-11.226-11.226a33.625 33.625 0 0 0 -47.554 0 33.614 33.614 0 0 0 -8.123 13.144l-9.867 29.6a26.9 26.9 0 0 0 6.5 27.528 26.9 26.9 0 0 0 27.528 6.5l29.6-9.867a33.618 33.618 0 0 0 13.143-8.123 33.625 33.625 0 0 0 -.001-47.556z" fill="#f35244" data-original="#F35244" class=""/><path d="m215.8 124.742a65.446 65.446 0 0 0 -95.6 0l-8.2 8.591 56 58.667 56-58.667z" fill="#7eb457" data-original="#7EB457"/><path d="m376 240a40 40 0 0 1 -40 40h-160a39.875 39.875 0 0 1 -28.28-11.72 41.05 41.05 0 0 1 -4.77-5.74 40.019 40.019 0 0 1 19.1-60.04 39.988 39.988 0 0 1 22.5-65.8 40 40 0 0 1 31.45-64.7 22.664 22.664 0 0 0 22.14-17.15 31.8 31.8 0 0 0 .86-7.35 31.379 31.379 0 0 0 -7.63-20.54 48.015 48.015 0 0 1 64.63 45.04 39.988 39.988 0 0 1 31.45 64.7 39.52 39.52 0 0 1 10.33 3.46 39.995 39.995 0 0 1 12.17 62.34 40.018 40.018 0 0 1 26.05 37.5z" fill="#fae5c9" data-original="#FAE5C9" class="" data-old_color="#fae5c9" style="fill:#F6ECDE"/><rect fill="#f2dec2" height="16" rx="8" width="32" x="264" y="64" data-original="#F2DEC2" class="active-path" style="fill:#FFFFFF" data-old_color="#f2dec2"/><rect fill="#f2dec2" height="16" rx="8" width="112" x="216" y="128" data-original="#F2DEC2" class="active-path" style="fill:#FFFFFF" data-old_color="#f2dec2"/><rect fill="#f2dec2" height="16" rx="8" width="136" x="216" y="200" data-original="#F2DEC2" class="active-path" style="fill:#FFFFFF" data-old_color="#f2dec2"/><path d="m169.167 312h-18.334a38.833 38.833 0 0 1 -38.833-38.833 38.833 38.833 0 0 1 4.1-17.366l20.745-41.49a25.887 25.887 0 0 1 23.155-14.311 25.887 25.887 0 0 1 23.155 14.311l20.745 41.489a38.833 38.833 0 0 1 4.1 17.366 38.833 38.833 0 0 1 -38.833 38.834z" fill="#f35244" data-original="#F35244" class=""/><path d="m328 280v-80h11.716a68.283 68.283 0 0 1 48.284 20 68.283 68.283 0 0 1 20 48.284v11.716z" fill="#7eb457" data-original="#7EB457"/><path d="m344 232h16v16h-16z" fill="#4d5e78" data-original="#4D5E78" class=""/><path d="m368 248h16v16h-16z" fill="#4d5e78" data-original="#4D5E78" class=""/><path d="m392 312-2.18 16-21.82 160h-224l-21.82-160-2.18-16z" fill="#ed9191" data-original="#ED9191" class=""/><path d="m149.909 343.915h16v18.481h-16z" fill="#feb2b2" transform="matrix(.991 -.135 .135 .991 -46.268 24.574)" data-original="#FEB2B2" class=""/><path d="m158.902 381.873h16v74.468h-16z" fill="#feb2b2" transform="matrix(.991 -.135 .135 .991 -55.096 26.393)" data-original="#FEB2B2" class=""/><rect fill="#ead7bc" height="32" rx="16" width="320" x="96" y="280" data-original="#EAD7BC" class="" style="fill:#EAD7BC"/><path d="m400 280h-96a16 16 0 0 1 16 16 16 16 0 0 1 -16 16h96a16 16 0 0 0 16-16 16 16 0 0 0 -16-16z" fill="#e5d2b8" data-original="#E5D2B8" class="" style="fill:#E5D2B8"/><path d="m312 488h-80v-11.716a68.283 68.283 0 0 1 20-48.284 68.283 68.283 0 0 1 48.284-20h11.716z" fill="#7eb457" data-original="#7EB457"/><path d="m264 456h16v16h-16z" fill="#4d5e78" data-original="#4D5E78" class=""/><path d="m280 432h16v16h-16z" fill="#4d5e78" data-original="#4D5E78" class=""/><g fill="#f35244"><path d="m458.462 428.085-10.832-17.646c-11.038-17.98-34.9-23.811-53.294-13.023a38.521 38.521 0 0 0 -11.624 10.489l-25.218 34.508a28.285 28.285 0 0 0 -2.38 29.65 29.574 29.574 0 0 0 26.386 15.937h40.57a39.411 39.411 0 0 0 24.266-8.32l3.087-2.414a37.392 37.392 0 0 0 9.039-49.181z" data-original="#F35244" class=""/><circle cx="272" cy="256" r="24" data-original="#F35244" class=""/><circle cx="120" cy="464" r="24" data-original="#F35244" class=""/></g><circle cx="192" cy="256" fill="#4d5e78" r="24" data-original="#4D5E78" class=""/><circle cx="280" cy="184" fill="#4d5e78" r="24" data-original="#4D5E78" class=""/><circle cx="72" cy="464" fill="#4d5e78" r="24" data-original="#4D5E78" class=""/><path d="m392 312-2.18 16h-267.64l-2.18-16z" fill="#e07777" data-original="#E07777" class="" style="fill:#E07777"/></g><link xmlns="" type="text/css" id="dark-mode" rel="stylesheet"/><style xmlns="" type="text/css" id="dark-mode-custom-style"/></g> </svg>
