<?xml version="1.0"?>
<svg xmlns="http://www.w3.org/2000/svg" xmlns:xlink="http://www.w3.org/1999/xlink" version="1.1" id="Capa_1" x="0px" y="0px" viewBox="0 0 342.812 342.812" style="enable-background:new 0 0 342.812 342.812;" xml:space="preserve" width="512px" height="512px" class=""><g><path style="fill:#773228" d="M316.986,276.451c-58,74.8-166,88.4-240.8,30.4s-88.4-166-30.4-240.8c29.6-38.4,74-62,122.4-66  c3.2-0.4,6,1.6,6.8,4.8c2,5.2,4.4,10.8,6.8,16c1.6,4,4,8,6.8,11.2c9.6,10.4,20.4,19.2,32.8,26c21.2,13.2,39.2,24,40.8,61.6  c0,9.2-1.6,18.8-5.2,27.2c-4.4,13.6-8.8,27.2,4.8,45.6c6.4,8.4,7.2,18.4,8.4,28.8c1.6,16.4,3.6,34.4,34.8,41.6l4.8,1.2l4.4,1.2  c3.6,0.8,5.6,4.8,4.4,8C318.186,274.451,317.786,275.651,316.986,276.451L316.986,276.451z" data-original="#B54D3E" class="" data-old_color="#B54D3E"/><g>
	<path style="fill:#92483B" d="M116.586,109.251c0.4,3.6-2,6.8-5.6,7.2s-6.8-2-7.2-5.6l-2.4-21.2c-0.4-3.6,2-6.8,5.6-7.2   s6.8,2,7.2,5.6l0,0L116.586,109.251z" data-original="#893729" class="active-path" data-old_color="#893729"/>
	<path style="fill:#92483B" d="M197.786,129.651c2.8,2,3.6,6.4,1.6,9.2s-6.4,3.6-9.2,1.6l-17.2-12.4c-2.8-2-3.6-6.4-1.6-9.2   s6.4-3.6,9.2-1.6L197.786,129.651z" data-original="#893729" class="active-path" data-old_color="#893729"/>
</g><g>
	<circle style="fill:#F7CB91" cx="144.586" cy="209.251" r="16" data-original="#F7CB91" class=""/>
	<path style="fill:#F7CB91" d="M83.786,132.051c10,0,18,8,18,18s-8,18-18,18s-18-8-18-18c0-4.8,2-9.2,5.2-12.8   C74.186,133.651,78.986,132.051,83.786,132.051z M144.586,43.251c4.8,0,9.2,2,12.8,5.2l0.4,0.4c6.8,7.2,6.4,18.4-0.8,25.2   s-18.4,6.4-25.2-0.8s-6.4-18,0.4-24.8l0,0C135.386,45.251,139.786,43.251,144.586,43.251z M219.386,259.251   c10.8,0,19.6,8.8,20,19.6c0,5.2-2,10.4-6,14l0,0c-7.6,7.6-20,7.6-28,0l0,0l0,0c-7.6-7.6-7.6-20.4,0-28   C208.986,261.251,214.186,259.251,219.386,259.251z" data-original="#F7CB91" class=""/>
</g><g>
	<path style="fill:#92483B" d="M141.386,290.851c2.8,2,3.6,6.4,1.6,9.2c-2,2.8-6.4,3.6-9.2,1.6l-17.2-12.4c-2.8-2-3.6-6.4-1.6-9.2   c2-2.8,6.4-3.6,9.2-1.6l0,0L141.386,290.851z" data-original="#893729" class="active-path" data-old_color="#893729"/>
	<path style="fill:#92483B" d="M70.186,208.451c0.4,3.6-2,6.8-5.6,7.2c-3.6,0.4-6.8-2-7.2-5.6l-2.4-21.2c-0.4-3.6,2-6.8,5.6-7.2   c3.6-0.4,6.8,2,7.2,5.6L70.186,208.451z" data-original="#893729" class="active-path" data-old_color="#893729"/>
</g><g>
	<circle style="fill:#773228" cx="255.386" cy="44.451" r="11.2" data-original="#B54D3E" class="" data-old_color="#B54D3E"/>
	<circle style="fill:#773228" cx="310.186" cy="159.251" r="22.8" data-original="#B54D3E" class="" data-old_color="#B54D3E"/>
	<circle style="fill:#773228" cx="306.186" cy="92.051" r="11.2" data-original="#B54D3E" class="" data-old_color="#B54D3E"/>
</g><link xmlns="" type="text/css" id="dark-mode" rel="stylesheet"/><style xmlns="" type="text/css" id="dark-mode-custom-style"/></g> </svg>
