<svg height="511pt" viewBox="-108 0 511 511.99993" width="511pt" xmlns="http://www.w3.org/2000/svg"><path d="m156.164062 317.6875-16.488281 1.832031c-4.554687.507813-8.65625-2.773437-9.160156-7.328125l-31.167969-280.308594c-.507812-4.554687 2.773438-8.65625 7.328125-9.160156l16.488281-1.832031c4.554688-.507813 8.65625 2.773437 9.160157 7.328125l31.167969 280.308594c.503906 4.550781-2.773438 8.652344-7.328126 9.160156zm0 0" fill="#f7d291"/><path d="m106.675781 22.722656 8.242188-.917968 33 296.800781-8.242188.914062c-4.554687.507813-8.65625-2.773437-9.160156-7.328125l-31.167969-280.308594c-.507812-4.554687 2.773438-8.65625 7.328125-9.160156zm0 0" fill="#f0c382"/><g fill="#ffedb1"><path d="m138.363281 82.511719-29.3125 36.644531 2.59375 23.316406 29.308594-36.644531zm0 0"/><path d="m149.363281 181.445312-29.3125 36.644532 2.59375 23.316406 29.308594-36.644531zm0 0"/><path d="m143.863281 131.980469-29.3125 36.644531 2.59375 23.316406 29.308594-36.644531zm0 0"/><path d="m154.863281 230.914062-29.3125 36.644532 2.59375 23.316406 29.308594-36.644531zm0 0"/><path d="m103.550781 69.691406 2.59375 23.316406 29.308594-36.644531-2.589844-23.316406zm0 0"/></g><path d="m118.207031 51.367188-14.65625 18.324218 2.59375 23.316406 14.65625-18.324218zm0 0" fill="#ffe17d"/><path d="m123.707031 100.835938-14.65625 18.320312 2.59375 23.316406 14.65625-18.320312zm0 0" fill="#ffe17d"/><path d="m129.207031 150.300781-14.65625 18.324219 2.59375 23.316406 14.65625-18.324218zm0 0" fill="#ffe17d"/><path d="m134.707031 199.769531-14.65625 18.320313 2.59375 23.316406 14.65625-18.320312zm0 0" fill="#ffe17d"/><path d="m140.207031 249.234375-14.65625 18.324219 2.59375 23.316406 14.65625-18.324219zm0 0" fill="#ffe17d"/><path d="m115.625 283.976562-15.753906 5.203126c-4.347656 1.4375-9.042969-.921876-10.476563-5.273438l-88.472656-267.800781c-1.4375-4.351563.921875-9.042969 5.273437-10.480469l15.753907-5.203125c4.347656-1.4375 9.039062.921875 10.476562 5.273437l88.472657 267.800782c1.4375 4.351562-.921876 9.042968-5.273438 10.480468zm0 0" fill="#f7d291"/><path d="m6.195312 5.625 7.875-2.601562 93.675782 283.554687-7.875 2.601563c-4.351563 1.4375-9.042969-.921876-10.480469-5.273438l-88.46875-267.800781c-1.4375-4.351563.921875-9.042969 5.273437-10.480469zm0 0" fill="#f0c382"/><path d="m49.5625 57.570312-21.09375 41.914063 7.355469 22.277344 21.101562-41.917969zm0 0" fill="#ffedb1"/><path d="m80.789062 152.089844-21.097656 41.914062 7.359375 22.273438 21.097657-41.914063zm0 0" fill="#ffedb1"/><path d="m65.175781 104.828125-21.097656 41.914063 7.359375 22.277343 21.097656-41.914062zm0 0" fill="#ffedb1"/><path d="m12.855469 52.226562 7.359375 22.273438 21.097656-41.914062-7.359375-22.273438zm0 0" fill="#ffedb1"/><path d="m23.402344 31.269531-10.546875 20.957031 7.359375 22.273438 10.546875-20.957031zm0 0" fill="#ffe17d"/><path d="m39.015625 78.527344-10.546875 20.957031 7.355469 22.277344 10.550781-20.957031zm0 0" fill="#ffe17d"/><path d="m54.628906 125.785156-10.550781 20.957032 7.359375 22.277343 10.550781-20.957031zm0 0" fill="#ffe17d"/><path d="m70.242188 173.046875-10.550782 20.957031 7.359375 22.273438 10.550781-20.957032zm0 0" fill="#ffe17d"/><path d="m256.261719 512h-185.292969c-8.597656 0-15.773438-6.566406-16.527344-15.132812l-22.992187-260.585938c-.300781-3.394531 2.375-6.316406 5.785156-6.316406h252.761719c3.410156 0 6.085937 2.921875 5.785156 6.316406l-22.992188 260.585938c-.757812 8.566406-7.929687 15.132812-16.527343 15.132812zm0 0" fill="#dcebff"/><path d="m37.234375 229.960938c-3.410156 0-6.085937 2.921874-5.785156 6.316406l22.992187 260.589844c.753906 8.5625 7.929688 15.132812 16.527344 15.132812h45.46875l-10.886719-282.039062zm0 0" fill="#c4deff"/><path d="m258.394531 471.253906 8.113281-91.976562h-205.785156l8.113282 91.976562c.378906 4.28125 3.964843 7.566406 8.265624 7.566406h173.027344c4.300782 0 7.886719-3.285156 8.265625-7.566406zm0 0" fill="#fff"/><path d="m111.3125 379.277344h-50.589844l8.113282 91.976562c.378906 4.28125 3.964843 7.566406 8.261718 7.566406h38.054688zm0 0" fill="#dcebff"/><path d="m62.265625 396.804688c15.425781 2.160156 20.238281 7.359374 43.222656 7.359374 29.03125 0 29.03125-8.296874 58.0625-8.296874 29.046875 0 29.046875 8.296874 58.097657 8.296874 23.03125 0 27.84375-5.203124 43.3125-7.363281l5.9375-67.292969h-214.570313zm0 0" fill="#ffedb1"/><path d="m62.265625 396.804688c15.425781 2.160156 20.238281 7.359374 43.222656 7.359374 2.480469 0 4.683594-.082031 6.777344-.191406l-2.875-74.464844h-53.0625zm0 0" fill="#ffe17d"/><path d="m260.871094 300.695312c2.304687-10.496093 2.96875-21.59375 1.527344-33.097656-6.148438-48.953125-48.671876-87.027344-98.007813-87.402344-55.332031-.421874-100.316406 44.304688-100.316406 99.539063 0 6.992187.757812 13.796875 2.15625 20.367187.839843 3.9375-1.003907 7.765626-4.066407 10.195313-4.136718 3.289063-6.816406 8.054687-6.355468 13.320313l2.023437 22.910156c19.15625 1.683594 22.605469 7.863281 47.660157 7.863281 29.027343 0 29.027343-8.292969 58.058593-8.292969 29.050781 0 29.050781 8.292969 58.097657 8.292969 25.101562 0 28.546874-6.183594 47.75-7.867187l2.058593-23.3125c.449219-5.109376-2.210937-9.722657-6.332031-12.78125-3.109375-2.308594-5.085938-5.949219-4.253906-9.734376zm0 0" fill="#ff9ba0"/><path d="m52.851562 478.820312 1.589844 18.046876c.753906 8.566406 7.929688 15.132812 16.527344 15.132812h185.292969c8.597656 0 15.769531-6.566406 16.527343-15.132812l1.589844-18.046876zm0 0" fill="#c4deff"/><path d="m52.851562 478.820312 1.589844 18.046876c.753906 8.566406 7.929688 15.132812 16.527344 15.132812h45.46875l-1.28125-33.179688zm0 0" fill="#a5cdff"/><path d="m110.347656 354.300781-4.800781-124.339843h-28.160156c-8.488281 14.652343-13.316407 31.621093-13.316407 49.773437 0 6.988281.757813 13.796875 2.160157 20.367187.839843 3.9375-1.003907 7.765626-4.066407 10.195313-4.140624 3.285156-6.820312 8.050781-6.355468 13.316406l2.023437 22.910157c19.15625 1.6875 22.605469 7.867187 47.65625 7.867187 1.726563 0 3.328125-.035156 4.859375-.089844zm0 0" fill="#ff8087"/><path d="m77.386719 229.960938h172.140625c-17.382813-29.503907-49.5-49.496094-85.136719-49.765626-37.148437-.285156-69.664063 19.832032-87.003906 49.765626zm0 0" fill="#ffb4b9"/></svg>