<svg height="512" viewBox="0 0 512 512" width="512" xmlns="http://www.w3.org/2000/svg"><g id="Flat"><path d="m185.59 361.99a60.8 60.8 0 1 1 -121.59 0 136.782 136.782 0 0 1 54.71-109.43l6.08-4.56 6.08 4.56a136.654 136.654 0 0 1 36.63 41.44c1.28 2.23 2.5 4.51 3.65 6.81a136.807 136.807 0 0 1 14.44 61.18z" fill="#92563a"/><path d="m185.59 361.99a60.8 60.8 0 0 1 -121.18 7.06c38.43-10.77 75.25-33.7 103.09-75.05 1.28 2.23 2.5 4.51 3.65 6.81a136.807 136.807 0 0 1 14.44 61.18z" fill="#875036"/><g fill="#78462f"><rect height="53.194" rx="8" width="16" x="86.397" y="323.993"/><rect height="113.989" rx="8" width="16" x="116.794" y="285.996"/><rect height="53.194" rx="8" width="16" x="147.192" y="323.993"/></g><path d="m472 317.33a136.749 136.749 0 0 1 -40.07 96.71 60.8 60.8 0 0 1 -101.23-25.56 60.766 60.766 0 0 1 -2.55-17.42 60.823 60.823 0 0 1 17.81-42.99 136.759 136.759 0 0 1 116.07-38.69l7.52 1.07 1.07 7.52q.84 5.91 1.17 11.81.21 3.78.21 7.55z" fill="#92563a"/><path d="m472 317.33a136.749 136.749 0 0 1 -40.07 96.71 60.8 60.8 0 0 1 -101.23-25.56c50.32-12.11 99.43-36.57 141.09-78.7q.21 3.78.21 7.55z" fill="#875036"/><rect fill="#78462f" height="16" rx="8" transform="matrix(.707 -.707 .707 .707 -131.493 365.529)" width="53.195" x="348.915" y="333.499"/><rect fill="#78462f" height="16" rx="8" transform="matrix(.707 -.707 .707 .707 -135.022 389.247)" width="113.989" x="345.386" y="349.619"/><rect fill="#78462f" height="16" rx="8" transform="matrix(.707 -.707 .707 .707 -149.299 408.514)" width="53.196" x="391.903" y="376.487"/><path d="m479.85 180.94a60.823 60.823 0 0 1 -17.81 42.99 136.759 136.759 0 0 1 -116.07 38.69l-7.52-1.07-1.07-7.52a137.326 137.326 0 0 1 -1.38-19.36c0-1.2.02-2.39.05-3.58a136.758 136.758 0 0 1 40.02-93.13 60.793 60.793 0 0 1 84.31-1.61c.56.53 1.12 1.07 1.66 1.61a60.761 60.761 0 0 1 17.81 42.98z" fill="#92563a"/><path d="m479.85 180.94a60.823 60.823 0 0 1 -17.81 42.99 136.759 136.759 0 0 1 -116.07 38.69l-7.52-1.07-1.07-7.52a137.326 137.326 0 0 1 -1.38-19.36c0-1.2.02-2.39.05-3.58 45.7-18.18 88.81-48.33 124.33-94.74.56.53 1.12 1.07 1.66 1.61a60.761 60.761 0 0 1 17.81 42.98z" fill="#875036"/><rect fill="#78462f" height="16" rx="8" transform="matrix(.707 -.707 .707 .707 -22.18 367.449)" width="53.195" x="405.89" y="202.5"/><rect fill="#78462f" height="16" rx="8" transform="matrix(.707 -.707 .707 .707 -18.651 343.731)" width="113.99" x="348.625" y="186.38"/><rect fill="#78462f" height="16" rx="8" transform="matrix(.707 -.707 .707 .707 -4.375 324.464)" width="53.196" x="362.901" y="159.513"/><path d="m193.118 158.962a76.039 76.039 0 0 0 61.764 0 29.242 29.242 0 0 1 41.118 26.722 29.244 29.244 0 0 1 -17.366 26.722 134.519 134.519 0 0 1 -109.268 0 29.244 29.244 0 0 1 -17.366-26.722 29.242 29.242 0 0 1 41.118-26.722z" fill="#ffb531"/><path d="m144.667 136.733a76.037 76.037 0 0 0 -37.711 48.914 29.242 29.242 0 0 1 -46.268 16.253 29.244 29.244 0 0 1 -10.56-30.068 134.523 134.523 0 0 1 66.717-86.536 29.242 29.242 0 0 1 31.766 2.563 29.241 29.241 0 0 1 -3.944 48.874z" fill="#ffb531"/><path d="m217.118 422.962a76.039 76.039 0 0 0 61.764 0 29.242 29.242 0 0 1 41.118 26.722 29.244 29.244 0 0 1 -17.366 26.722 134.519 134.519 0 0 1 -109.268 0 29.244 29.244 0 0 1 -17.366-26.722 29.242 29.242 0 0 1 41.118-26.722z" fill="#ffb531"/><path d="m218.17 121.727a26.171 26.171 0 0 1 -26.17-26.171v-33.647a29.909 29.909 0 0 1 29.909-29.909l22.431 29.909v33.647a26.17 26.17 0 0 1 -26.17 26.171z" fill="#92563a"/><path d="m285.563 386.09a26.171 26.171 0 0 1 -37.011 0l-23.792-23.79a29.908 29.908 0 0 1 0-42.3l37.01 5.287 23.793 23.793a26.17 26.17 0 0 1 0 37.01z" fill="#92563a"/><rect fill="#4d5e78" height="32" rx="16" transform="matrix(.707 -.707 .707 .707 46.897 226.191)" width="56" x="268.485" y="40.485"/><rect fill="#4d5e78" height="32" rx="16" width="56" x="192" y="256"/><rect fill="#4d5e78" height="32" rx="16" transform="matrix(.83 .558 -.558 .83 105.134 -198.345)" width="56" x="349.962" y="57.305"/><rect fill="#7eb457" height="32" rx="16" transform="matrix(0 1 -1 0 580 -12)" width="56" x="268" y="268"/><rect fill="#7eb457" height="32" rx="16" transform="matrix(0 -1 1 0 -204 300)" width="56" x="20" y="236"/><rect fill="#7eb457" height="32" rx="16" transform="matrix(.707 -.707 .707 .707 8.672 261.907)" width="56" x="292.485" y="104.485"/></g></svg>