<svg width="225" height="225" viewBox="0 0 225 225" fill="none" xmlns="http://www.w3.org/2000/svg">
<rect width="225" height="225" fill="white"/>
<path d="M76.3706 19.576L83.0306 19.612C86.5106 19.612 89.5706 20.872 92.2106 23.392C94.8506 25.888 96.1706 28.972 96.1706 32.644C96.1706 36.292 94.8746 39.424 92.2826 42.04C89.7146 44.656 86.5946 45.964 82.9226 45.964H76.3346C74.8706 45.964 73.9586 45.664 73.5986 45.064C73.3106 44.56 73.1666 43.792 73.1666 42.76V22.744C73.1666 22.168 73.1786 21.748 73.2026 21.484C73.2506 21.22 73.3706 20.908 73.5626 20.548C73.8986 19.9 74.8346 19.576 76.3706 19.576ZM83.0306 39.592C84.7586 39.592 86.3186 38.956 87.7106 37.684C89.1026 36.388 89.7986 34.768 89.7986 32.824C89.7986 30.88 89.1146 29.26 87.7466 27.964C86.4026 26.644 84.8186 25.984 82.9946 25.984H79.5386V39.592H83.0306ZM110.826 29.044C110.97 27.7 111.918 27.028 113.67 27.028C114.606 27.028 115.302 27.1 115.758 27.244C116.214 27.388 116.526 27.64 116.694 28C116.886 28.36 116.994 28.684 117.018 28.972C117.066 29.236 117.09 29.644 117.09 30.196V42.796C117.09 43.348 117.066 43.768 117.018 44.056C116.994 44.32 116.898 44.632 116.73 44.992C116.394 45.616 115.566 45.928 114.246 45.928C112.95 45.928 112.074 45.772 111.618 45.46C111.186 45.124 110.934 44.644 110.862 44.02C109.974 45.292 108.486 45.928 106.398 45.928C104.334 45.928 102.414 44.98 100.638 43.084C98.8622 41.188 97.9742 38.992 97.9742 36.496C97.9742 33.976 98.8622 31.78 100.638 29.908C102.438 28.012 104.406 27.064 106.542 27.064C107.358 27.064 108.102 27.208 108.774 27.496C109.446 27.784 109.914 28.06 110.178 28.324C110.442 28.564 110.658 28.804 110.826 29.044ZM104.274 36.532C104.274 37.324 104.586 38.044 105.21 38.692C105.834 39.316 106.59 39.628 107.478 39.628C108.366 39.628 109.098 39.304 109.674 38.656C110.274 38.008 110.574 37.3 110.574 36.532C110.574 35.74 110.286 35.008 109.71 34.336C109.158 33.664 108.402 33.328 107.442 33.328C106.506 33.328 105.738 33.664 105.138 34.336C104.562 35.008 104.274 35.74 104.274 36.532ZM132.848 27.244C133.304 27.388 133.676 27.64 133.964 28C134.276 28.336 134.432 28.888 134.432 29.656C134.432 30.424 134.204 31.264 133.748 32.176C133.292 33.088 132.632 33.544 131.768 33.544C131.336 33.544 130.916 33.448 130.508 33.256C130.124 33.064 129.608 32.968 128.96 32.968C128.312 32.968 127.7 33.196 127.124 33.652C126.572 34.108 126.296 34.66 126.296 35.308V42.868C126.296 43.42 126.272 43.84 126.224 44.128C126.2 44.392 126.092 44.704 125.9 45.064C125.54 45.688 124.604 46 123.092 46C121.94 46 121.112 45.796 120.608 45.388C120.224 45.052 120.008 44.536 119.96 43.84C119.96 43.6 119.96 43.252 119.96 42.796V30.16C119.96 29.608 119.972 29.2 119.996 28.936C120.044 28.648 120.152 28.336 120.32 28C120.656 27.352 121.592 27.028 123.128 27.028C124.568 27.028 125.468 27.304 125.828 27.856C126.092 28.24 126.224 28.636 126.224 29.044C126.344 28.876 126.512 28.672 126.728 28.432C126.968 28.192 127.46 27.868 128.204 27.46C128.948 27.052 129.596 26.848 130.148 26.848C130.724 26.848 131.204 26.884 131.588 26.956C131.972 27.004 132.392 27.1 132.848 27.244ZM147.573 36.496L152.361 40.456C152.961 40.96 153.333 41.344 153.477 41.608C153.645 41.872 153.729 42.124 153.729 42.364C153.729 42.94 153.357 43.72 152.613 44.704C151.797 45.712 151.077 46.216 150.453 46.216C149.925 46.216 149.193 45.868 148.257 45.172L147.897 44.92C147.345 44.464 146.493 43.672 145.341 42.544C144.189 41.392 143.313 40.576 142.713 40.096V42.868C142.713 43.42 142.689 43.84 142.641 44.128C142.617 44.392 142.509 44.704 142.317 45.064C142.005 45.688 141.081 46 139.545 46C138.033 46 137.109 45.676 136.773 45.028C136.605 44.668 136.497 44.356 136.449 44.092C136.425 43.804 136.413 43.384 136.413 42.832V21.268C136.413 20.716 136.425 20.308 136.449 20.044C136.497 19.756 136.605 19.432 136.773 19.072C137.109 18.424 138.045 18.1 139.581 18.1C140.733 18.1 141.549 18.304 142.029 18.712C142.437 19.048 142.653 19.576 142.677 20.296C142.701 20.512 142.713 20.848 142.713 21.304V32.716C143.145 32.356 143.793 31.744 144.657 30.88C145.545 30.016 146.205 29.404 146.637 29.044L147.069 28.756C147.909 28.108 148.629 27.784 149.229 27.784C149.829 27.784 150.513 28.276 151.281 29.26C152.073 30.22 152.469 30.976 152.469 31.528C152.469 32.08 152.025 32.728 151.137 33.472L147.573 36.496ZM42.2639 83.088L42.9119 82.62C43.7279 82.14 44.3039 81.9 44.6399 81.9C45.3839 81.9 46.1879 82.572 47.0519 83.916C47.5799 84.756 47.8439 85.428 47.8439 85.932C47.8439 86.436 47.6759 86.856 47.3399 87.192C47.0279 87.528 46.6559 87.828 46.2239 88.092C45.7919 88.356 45.3719 88.608 44.9639 88.848C44.5799 89.088 43.7759 89.4 42.5519 89.784C41.3279 90.168 40.1399 90.36 38.9879 90.36C37.8599 90.36 36.7079 90.216 35.5319 89.928C34.3799 89.616 33.1799 89.112 31.9319 88.416C30.7079 87.696 29.6039 86.832 28.6199 85.824C27.6359 84.792 26.8199 83.484 26.1719 81.9C25.5479 80.292 25.2359 78.552 25.2359 76.68C25.2359 74.808 25.5479 73.116 26.1719 71.604C26.7959 70.068 27.5879 68.808 28.5479 67.824C29.5319 66.816 30.6479 65.976 31.8959 65.304C34.2479 64.008 36.6119 63.36 38.9879 63.36C40.1159 63.36 41.2559 63.54 42.4079 63.9C43.5839 64.236 44.4719 64.584 45.0719 64.944L45.9359 65.448C46.3679 65.712 46.7039 65.928 46.9439 66.096C47.5679 66.6 47.8799 67.176 47.8799 67.824C47.8799 68.448 47.6279 69.108 47.1239 69.804C46.1879 71.1 45.3479 71.748 44.6039 71.748C44.1719 71.748 43.5599 71.484 42.7679 70.956C41.7599 70.14 40.4159 69.732 38.7359 69.732C37.1759 69.732 35.6399 70.272 34.1279 71.352C33.4079 71.88 32.8079 72.624 32.3279 73.584C31.8479 74.544 31.6079 75.636 31.6079 76.86C31.6079 78.06 31.8479 79.14 32.3279 80.1C32.8079 81.06 33.4199 81.816 34.1639 82.368C35.6279 83.424 37.1519 83.952 38.7359 83.952C39.4799 83.952 40.1759 83.856 40.8239 83.664C41.4959 83.472 41.9759 83.28 42.2639 83.088ZM60.7215 71.1C63.1215 71.1 65.1135 72.012 66.6975 73.836C68.3055 75.66 69.1095 77.892 69.1095 80.532V86.868C69.1095 87.42 69.0855 87.84 69.0375 88.128C69.0135 88.392 68.9055 88.704 68.7135 89.064C68.4015 89.688 67.4775 90 65.9415 90C64.4775 90 63.5655 89.688 63.2055 89.064C63.0135 88.704 62.8935 88.38 62.8455 88.092C62.8215 87.804 62.8095 87.372 62.8095 86.796V80.496C62.8095 79.512 62.5335 78.744 61.9815 78.192C61.4295 77.64 60.7215 77.364 59.8575 77.364C59.0175 77.364 58.2735 77.628 57.6255 78.156C56.9775 78.66 56.6055 79.236 56.5095 79.884V86.868C56.5095 87.42 56.4855 87.84 56.4375 88.128C56.4135 88.392 56.3055 88.704 56.1135 89.064C55.8015 89.688 54.8775 90 53.3415 90C51.8295 90 50.9055 89.676 50.5695 89.028C50.4015 88.668 50.2935 88.356 50.2455 88.092C50.2215 87.828 50.2095 87.408 50.2095 86.832V65.304C50.2095 64.752 50.2215 64.344 50.2455 64.08C50.2935 63.792 50.4015 63.48 50.5695 63.144C50.9055 62.496 51.8415 62.172 53.3775 62.172C54.8895 62.172 55.8015 62.496 56.1135 63.144C56.3055 63.504 56.4135 63.828 56.4375 64.116C56.4855 64.38 56.5095 64.788 56.5095 65.34V73.296C57.7095 71.832 59.1135 71.1 60.7215 71.1ZM71.4664 80.532C71.4664 77.652 72.4744 75.276 74.4904 73.404C76.5064 71.532 78.8104 70.596 81.4024 70.596C83.9944 70.596 86.2864 71.532 88.2784 73.404C90.2704 75.252 91.2664 77.616 91.2664 80.496C91.2664 82.488 90.7504 84.264 89.7184 85.824C88.6864 87.36 87.4264 88.5 85.9384 89.244C84.4744 89.964 82.9504 90.324 81.3664 90.324C79.7824 90.324 78.2464 89.94 76.7584 89.172C75.2704 88.38 74.0104 87.228 72.9784 85.716C71.9704 84.18 71.4664 82.452 71.4664 80.532ZM78.9904 83.124C79.7584 83.7 80.5384 83.988 81.3304 83.988C82.1224 83.988 82.9144 83.688 83.7064 83.088C84.4984 82.488 84.8944 81.6 84.8944 80.424C84.8944 79.248 84.5224 78.372 83.7784 77.796C83.0344 77.22 82.2304 76.932 81.3664 76.932C80.5024 76.932 79.6984 77.232 78.9544 77.832C78.2104 78.432 77.8384 79.32 77.8384 80.496C77.8384 81.648 78.2224 82.524 78.9904 83.124ZM99.5323 80.532C99.5323 81.54 99.8683 82.332 100.54 82.908C101.212 83.46 101.92 83.736 102.664 83.736C103.432 83.736 104.14 83.52 104.788 83.088C105.46 82.632 106 82.404 106.408 82.404C107.128 82.404 108.004 83.04 109.036 84.312C109.588 85.008 109.864 85.632 109.864 86.184C109.864 87.096 109.204 87.948 107.884 88.74C106.516 89.7 104.836 90.18 102.844 90.18C100.612 90.18 98.4643 89.376 96.4003 87.768C95.4163 87 94.6123 85.98 93.9883 84.708C93.3643 83.412 93.0523 81.996 93.0523 80.46C93.0523 78.9 93.3643 77.496 93.9883 76.248C94.6123 74.976 95.4163 73.956 96.4003 73.188C98.3923 71.604 100.516 70.812 102.772 70.812C103.684 70.812 104.572 70.944 105.436 71.208C106.3 71.448 106.936 71.688 107.344 71.928L107.92 72.288C108.352 72.576 108.688 72.804 108.928 72.972C109.552 73.452 109.864 74.004 109.864 74.628C109.864 75.228 109.612 75.912 109.108 76.68C108.244 78 107.416 78.66 106.624 78.66C106.168 78.66 105.52 78.396 104.68 77.868C104.248 77.46 103.624 77.256 102.808 77.256C102.016 77.256 101.272 77.544 100.576 78.12C99.8803 78.696 99.5323 79.5 99.5323 80.532ZM111.65 80.532C111.65 77.652 112.658 75.276 114.674 73.404C116.69 71.532 118.994 70.596 121.586 70.596C124.178 70.596 126.47 71.532 128.462 73.404C130.454 75.252 131.45 77.616 131.45 80.496C131.45 82.488 130.934 84.264 129.902 85.824C128.87 87.36 127.61 88.5 126.122 89.244C124.658 89.964 123.134 90.324 121.55 90.324C119.966 90.324 118.43 89.94 116.942 89.172C115.454 88.38 114.194 87.228 113.162 85.716C112.154 84.18 111.65 82.452 111.65 80.532ZM119.174 83.124C119.942 83.7 120.722 83.988 121.514 83.988C122.306 83.988 123.098 83.688 123.89 83.088C124.682 82.488 125.078 81.6 125.078 80.424C125.078 79.248 124.706 78.372 123.962 77.796C123.218 77.22 122.414 76.932 121.55 76.932C120.686 76.932 119.882 77.232 119.138 77.832C118.394 78.432 118.022 79.32 118.022 80.496C118.022 81.648 118.406 82.524 119.174 83.124ZM133.776 65.268C133.776 64.716 133.788 64.308 133.812 64.044C133.86 63.756 133.968 63.432 134.136 63.072C134.472 62.424 135.408 62.1 136.944 62.1C138.408 62.1 139.32 62.424 139.68 63.072C139.872 63.432 139.98 63.756 140.004 64.044C140.052 64.332 140.076 64.752 140.076 65.304V81.972C140.076 82.836 140.148 83.388 140.292 83.628C140.436 83.844 140.748 83.952 141.228 83.952C141.732 83.952 142.068 83.976 142.236 84.024C142.404 84.048 142.608 84.144 142.848 84.312C143.328 84.624 143.568 85.476 143.568 86.868C143.568 88.38 143.328 89.304 142.848 89.64C142.224 90.072 140.736 90.144 138.384 89.856C136.536 89.616 135.336 89.004 134.784 88.02C134.112 86.844 133.776 84.972 133.776 82.404V65.268ZM157.865 73.044C158.009 71.7 158.957 71.028 160.709 71.028C161.645 71.028 162.341 71.1 162.797 71.244C163.253 71.388 163.565 71.64 163.733 72C163.925 72.36 164.033 72.684 164.057 72.972C164.105 73.236 164.129 73.644 164.129 74.196V86.796C164.129 87.348 164.105 87.768 164.057 88.056C164.033 88.32 163.937 88.632 163.769 88.992C163.433 89.616 162.605 89.928 161.285 89.928C159.989 89.928 159.113 89.772 158.657 89.46C158.225 89.124 157.973 88.644 157.901 88.02C157.013 89.292 155.525 89.928 153.437 89.928C151.373 89.928 149.453 88.98 147.677 87.084C145.901 85.188 145.013 82.992 145.013 80.496C145.013 77.976 145.901 75.78 147.677 73.908C149.477 72.012 151.445 71.064 153.581 71.064C154.397 71.064 155.141 71.208 155.813 71.496C156.485 71.784 156.953 72.06 157.217 72.324C157.481 72.564 157.697 72.804 157.865 73.044ZM151.313 80.532C151.313 81.324 151.625 82.044 152.249 82.692C152.873 83.316 153.629 83.628 154.517 83.628C155.405 83.628 156.137 83.304 156.713 82.656C157.313 82.008 157.613 81.3 157.613 80.532C157.613 79.74 157.325 79.008 156.749 78.336C156.197 77.664 155.441 77.328 154.481 77.328C153.545 77.328 152.777 77.664 152.177 78.336C151.601 79.008 151.313 79.74 151.313 80.532ZM178.015 77.4L175.675 77.256V82.224C175.675 82.872 175.771 83.34 175.963 83.628C176.179 83.916 176.563 84.06 177.115 84.06C177.691 84.06 178.123 84.084 178.411 84.132C178.723 84.156 179.047 84.264 179.383 84.456C179.935 84.768 180.211 85.572 180.211 86.868C180.211 88.38 179.875 89.304 179.203 89.64C178.843 89.808 178.519 89.916 178.231 89.964C177.967 89.988 177.571 90 177.043 90C174.547 90 172.651 89.436 171.355 88.308C170.059 87.18 169.411 85.272 169.411 82.584V77.256C168.955 77.328 168.463 77.364 167.935 77.364C167.407 77.364 166.963 77.16 166.603 76.752C166.267 76.344 166.099 75.648 166.099 74.664C166.099 73.68 166.159 72.972 166.279 72.54C166.399 72.084 166.567 71.76 166.783 71.568C167.167 71.256 167.647 71.1 168.223 71.1L169.411 71.244V67.536C169.411 66.984 169.423 66.576 169.447 66.312C169.495 66.048 169.615 65.76 169.807 65.448C170.119 64.848 171.043 64.548 172.579 64.548C174.211 64.548 175.183 64.992 175.495 65.88C175.615 66.264 175.675 66.876 175.675 67.716V71.244C176.731 71.148 177.523 71.1 178.051 71.1C178.603 71.1 179.011 71.124 179.275 71.172C179.563 71.196 179.887 71.304 180.247 71.496C180.871 71.808 181.183 72.732 181.183 74.268C181.183 75.78 180.859 76.704 180.211 77.04C179.851 77.208 179.527 77.316 179.239 77.364C178.975 77.388 178.567 77.4 178.015 77.4ZM200.755 78.264C200.755 79.728 200.383 80.82 199.639 81.54C198.919 82.236 198.115 82.584 197.227 82.584H188.695C188.695 83.256 189.091 83.82 189.883 84.276C190.675 84.732 191.467 84.96 192.259 84.96C193.651 84.96 194.743 84.816 195.535 84.528L195.931 84.384C196.507 84.12 196.987 83.988 197.371 83.988C198.139 83.988 198.799 84.528 199.351 85.608C199.663 86.256 199.819 86.808 199.819 87.264C199.819 89.4 197.263 90.468 192.151 90.468C190.375 90.468 188.791 90.168 187.399 89.568C186.031 88.944 184.963 88.128 184.195 87.12C182.683 85.176 181.927 83.004 181.927 80.604C181.927 77.58 182.899 75.168 184.843 73.368C186.811 71.544 189.259 70.632 192.187 70.632C195.523 70.632 197.971 71.808 199.531 74.16C200.347 75.408 200.755 76.776 200.755 78.264ZM193.159 79.308C194.071 79.308 194.527 78.924 194.527 78.156C194.527 77.604 194.311 77.16 193.879 76.824C193.471 76.488 192.871 76.32 192.079 76.32C191.311 76.32 190.543 76.644 189.775 77.292C189.007 77.916 188.623 78.588 188.623 79.308H193.159Z" fill="#DBB780"/>
<g clip-path="url(#clip0)">
<rect x="64" y="110" width="98" height="95" fill="white"/>
<path d="M84.2391 168.859V119.293C84.2391 115.877 87.106 113.098 90.6304 113.098H135.37C138.894 113.098 141.761 115.877 141.761 119.293V168.859H84.2391Z" fill="#A6673A"/>
<path d="M135.37 110H90.6304C85.3439 110 81.0434 114.169 81.0434 119.293V168.859C81.0434 170.57 82.4749 171.957 84.2391 171.957H141.761C143.525 171.957 144.957 170.57 144.957 168.859V119.293C144.957 114.169 140.656 110 135.37 110ZM87.4348 134.783H100.218V147.174H87.4348V134.783ZM106.609 134.783H119.391V147.174H106.609V134.783ZM119.391 153.37V165.761H106.609V153.37H119.391ZM106.609 128.587V116.196H119.391V128.587H106.609ZM125.783 134.783H138.565V147.174H125.783V134.783ZM138.565 119.293V128.587H125.782V116.196H135.369C137.132 116.196 138.565 117.585 138.565 119.293ZM90.6304 116.196H100.217V128.587H87.4346V119.293C87.4348 117.585 88.8683 116.196 90.6304 116.196ZM87.4348 153.37H100.218V165.761H87.4348V153.37ZM125.783 165.761V153.37H138.565V165.761H125.783Z" fill="#99522E"/>
<path d="M122.588 165.761C121.74 165.761 120.927 166.087 120.328 166.669L105.67 180.877C104.429 182.081 102.397 182.081 101.156 180.877L86.4987 166.669C85.8896 166.077 85.0721 165.792 84.2429 165.79L84.2391 165.761H81.0434V168.859V174.022V195.707C81.0434 200.839 85.3353 205 90.6304 205H135.37C140.665 205 144.957 200.839 144.957 195.707V165.761H122.588Z" fill="#E6563A"/>
<path d="M144.956 165.761H81.0434V171.957H144.956V165.761Z" fill="#FFD9B3"/>
<path d="M134.82 165.761H81.0434L101.156 185.257C103.024 187.069 105.477 187.974 107.932 187.974C110.387 187.974 112.84 187.068 114.708 185.257L134.82 165.761Z" fill="#FFEFD9"/>
</g>
<defs>
<clipPath id="clip0">
<rect x="64" y="110" width="98" height="95" fill="white"/>
</clipPath>
</defs>
</svg>
