<svg width="225" height="225" viewBox="0 0 225 225" fill="none" xmlns="http://www.w3.org/2000/svg">
<rect width="225" height="225" fill="white"/>
<path d="M66.8555 77.576H86.8715C87.6395 77.576 88.2035 77.672 88.5635 77.864C88.9235 78.032 89.1635 78.308 89.2835 78.692C89.4035 79.076 89.4635 79.58 89.4635 80.204C89.4635 80.828 89.4035 81.332 89.2835 81.716C89.1635 82.076 88.9595 82.328 88.6715 82.472C88.2395 82.688 87.6275 82.796 86.8355 82.796H79.9595V100.904C79.9595 101.456 79.9355 101.864 79.8875 102.128C79.8635 102.392 79.7555 102.704 79.5635 103.064C79.3955 103.4 79.0835 103.64 78.6275 103.784C78.1715 103.928 77.5715 104 76.8275 104C76.0835 104 75.4835 103.928 75.0275 103.784C74.5955 103.64 74.2835 103.4 74.0915 103.064C73.9235 102.704 73.8155 102.392 73.7675 102.128C73.7435 101.84 73.7315 101.42 73.7315 100.868V82.796H66.8195C66.0515 82.796 65.4875 82.712 65.1275 82.544C64.7675 82.352 64.5275 82.064 64.4075 81.68C64.2875 81.296 64.2275 80.792 64.2275 80.168C64.2275 79.544 64.2875 79.052 64.4075 78.692C64.5275 78.308 64.7315 78.044 65.0195 77.9C65.4515 77.684 66.0635 77.576 66.8555 77.576ZM100.023 85.244C100.479 85.388 100.851 85.64 101.139 86C101.451 86.336 101.607 86.888 101.607 87.656C101.607 88.424 101.379 89.264 100.923 90.176C100.467 91.088 99.8073 91.544 98.9433 91.544C98.5113 91.544 98.0913 91.448 97.6833 91.256C97.2993 91.064 96.7833 90.968 96.1353 90.968C95.4873 90.968 94.8753 91.196 94.2993 91.652C93.7473 92.108 93.4713 92.66 93.4713 93.308V100.868C93.4713 101.42 93.4473 101.84 93.3993 102.128C93.3753 102.392 93.2673 102.704 93.0753 103.064C92.7153 103.688 91.7793 104 90.2673 104C89.1153 104 88.2873 103.796 87.7833 103.388C87.3993 103.052 87.1833 102.536 87.1353 101.84C87.1353 101.6 87.1353 101.252 87.1353 100.796V88.16C87.1353 87.608 87.1473 87.2 87.1713 86.936C87.2193 86.648 87.3273 86.336 87.4953 86C87.8313 85.352 88.7673 85.028 90.3033 85.028C91.7433 85.028 92.6433 85.304 93.0033 85.856C93.2673 86.24 93.3993 86.636 93.3993 87.044C93.5193 86.876 93.6873 86.672 93.9033 86.432C94.1433 86.192 94.6353 85.868 95.3793 85.46C96.1233 85.052 96.7713 84.848 97.3233 84.848C97.8993 84.848 98.3793 84.884 98.7633 84.956C99.1473 85.004 99.5673 85.1 100.023 85.244ZM120.787 92.264C120.787 93.728 120.415 94.82 119.671 95.54C118.951 96.236 118.147 96.584 117.259 96.584H108.727C108.727 97.256 109.123 97.82 109.915 98.276C110.707 98.732 111.499 98.96 112.291 98.96C113.683 98.96 114.775 98.816 115.567 98.528L115.963 98.384C116.539 98.12 117.019 97.988 117.403 97.988C118.171 97.988 118.831 98.528 119.383 99.608C119.695 100.256 119.851 100.808 119.851 101.264C119.851 103.4 117.295 104.468 112.183 104.468C110.407 104.468 108.823 104.168 107.431 103.568C106.063 102.944 104.995 102.128 104.227 101.12C102.715 99.176 101.959 97.004 101.959 94.604C101.959 91.58 102.931 89.168 104.875 87.368C106.843 85.544 109.291 84.632 112.219 84.632C115.555 84.632 118.003 85.808 119.563 88.16C120.379 89.408 120.787 90.776 120.787 92.264ZM113.191 93.308C114.103 93.308 114.559 92.924 114.559 92.156C114.559 91.604 114.343 91.16 113.911 90.824C113.503 90.488 112.903 90.32 112.111 90.32C111.343 90.32 110.575 90.644 109.807 91.292C109.039 91.916 108.655 92.588 108.655 93.308H113.191ZM135.447 87.044C135.591 85.7 136.539 85.028 138.291 85.028C139.227 85.028 139.923 85.1 140.379 85.244C140.835 85.388 141.147 85.64 141.315 86C141.507 86.36 141.615 86.684 141.639 86.972C141.687 87.236 141.711 87.644 141.711 88.196V100.796C141.711 101.348 141.687 101.768 141.639 102.056C141.615 102.32 141.519 102.632 141.351 102.992C141.015 103.616 140.187 103.928 138.867 103.928C137.571 103.928 136.695 103.772 136.239 103.46C135.807 103.124 135.555 102.644 135.483 102.02C134.595 103.292 133.107 103.928 131.019 103.928C128.955 103.928 127.035 102.98 125.259 101.084C123.483 99.188 122.595 96.992 122.595 94.496C122.595 91.976 123.483 89.78 125.259 87.908C127.059 86.012 129.027 85.064 131.163 85.064C131.979 85.064 132.723 85.208 133.395 85.496C134.067 85.784 134.535 86.06 134.799 86.324C135.063 86.564 135.279 86.804 135.447 87.044ZM128.895 94.532C128.895 95.324 129.207 96.044 129.831 96.692C130.455 97.316 131.211 97.628 132.099 97.628C132.987 97.628 133.719 97.304 134.295 96.656C134.895 96.008 135.195 95.3 135.195 94.532C135.195 93.74 134.907 93.008 134.331 92.336C133.779 91.664 133.023 91.328 132.063 91.328C131.127 91.328 130.359 91.664 129.759 92.336C129.183 93.008 128.895 93.74 128.895 94.532ZM155.597 91.4L153.257 91.256V96.224C153.257 96.872 153.353 97.34 153.545 97.628C153.761 97.916 154.145 98.06 154.697 98.06C155.273 98.06 155.705 98.084 155.993 98.132C156.305 98.156 156.629 98.264 156.965 98.456C157.517 98.768 157.793 99.572 157.793 100.868C157.793 102.38 157.457 103.304 156.785 103.64C156.425 103.808 156.101 103.916 155.813 103.964C155.549 103.988 155.153 104 154.625 104C152.129 104 150.233 103.436 148.937 102.308C147.641 101.18 146.993 99.272 146.993 96.584V91.256C146.537 91.328 146.045 91.364 145.517 91.364C144.989 91.364 144.545 91.16 144.185 90.752C143.849 90.344 143.681 89.648 143.681 88.664C143.681 87.68 143.741 86.972 143.861 86.54C143.981 86.084 144.149 85.76 144.365 85.568C144.749 85.256 145.229 85.1 145.805 85.1L146.993 85.244V81.536C146.993 80.984 147.005 80.576 147.029 80.312C147.077 80.048 147.197 79.76 147.389 79.448C147.701 78.848 148.625 78.548 150.161 78.548C151.793 78.548 152.765 78.992 153.077 79.88C153.197 80.264 153.257 80.876 153.257 81.716V85.244C154.313 85.148 155.105 85.1 155.633 85.1C156.185 85.1 156.593 85.124 156.857 85.172C157.145 85.196 157.469 85.304 157.829 85.496C158.453 85.808 158.765 86.732 158.765 88.268C158.765 89.78 158.441 90.704 157.793 91.04C157.433 91.208 157.109 91.316 156.821 91.364C156.557 91.388 156.149 91.4 155.597 91.4ZM57.5605 129.244C58.9765 129.868 59.6845 130.624 59.6845 131.512C59.6845 131.944 59.5885 132.352 59.3965 132.736C59.2045 133.12 59.1085 133.324 59.1085 133.348L49.6765 154.444C49.4845 154.9 49.3165 155.248 49.1725 155.488C49.0525 155.728 48.8485 155.956 48.5605 156.172C48.2725 156.388 47.9125 156.496 47.4805 156.496C47.0485 156.496 46.4125 156.316 45.5725 155.956C44.1565 155.332 43.4485 154.588 43.4485 153.724C43.4485 153.148 44.6005 150.4 46.9045 145.48L39.7405 133.42C39.2605 132.628 39.0205 132.04 39.0205 131.656C39.0205 130.888 39.6685 130.12 40.9645 129.352C41.7805 128.872 42.4165 128.632 42.8725 128.632C43.3285 128.632 43.7005 128.728 43.9885 128.92C44.2765 129.112 44.4805 129.316 44.6005 129.532C44.7445 129.724 45.4045 130.84 46.5805 132.88C47.7805 134.896 48.9205 136.78 50.0005 138.532C50.1205 138.148 50.7685 136.672 51.9445 134.104C53.1205 131.512 53.7445 130.132 53.8165 129.964C53.9125 129.796 54.0565 129.592 54.2485 129.352C54.5605 128.944 54.9925 128.74 55.5445 128.74C56.1205 128.74 56.7925 128.908 57.5605 129.244ZM61.107 138.532C61.107 135.652 62.115 133.276 64.131 131.404C66.147 129.532 68.451 128.596 71.043 128.596C73.635 128.596 75.927 129.532 77.919 131.404C79.911 133.252 80.907 135.616 80.907 138.496C80.907 140.488 80.391 142.264 79.359 143.824C78.327 145.36 77.067 146.5 75.579 147.244C74.115 147.964 72.591 148.324 71.007 148.324C69.423 148.324 67.887 147.94 66.399 147.172C64.911 146.38 63.651 145.228 62.619 143.716C61.611 142.18 61.107 140.452 61.107 138.532ZM68.631 141.124C69.399 141.7 70.179 141.988 70.971 141.988C71.763 141.988 72.555 141.688 73.347 141.088C74.139 140.488 74.535 139.6 74.535 138.424C74.535 137.248 74.163 136.372 73.419 135.796C72.675 135.22 71.871 134.932 71.007 134.932C70.143 134.932 69.339 135.232 68.595 135.832C67.851 136.432 67.479 137.32 67.479 138.496C67.479 139.648 67.863 140.524 68.631 141.124ZM91.657 147.928C89.233 147.928 87.217 147.016 85.609 145.192C84.025 143.344 83.233 141.1 83.233 138.46V132.16C83.233 131.584 83.245 131.164 83.269 130.9C83.317 130.636 83.425 130.324 83.593 129.964C83.929 129.316 84.865 128.992 86.401 128.992C88.081 128.992 89.065 129.448 89.353 130.36C89.497 130.744 89.569 131.356 89.569 132.196V138.496C89.569 139.48 89.845 140.248 90.397 140.8C90.973 141.352 91.729 141.628 92.665 141.628C93.625 141.628 94.393 141.34 94.969 140.764C95.569 140.188 95.869 139.432 95.869 138.496V132.124C95.869 131.572 95.881 131.164 95.905 130.9C95.953 130.612 96.073 130.288 96.265 129.928C96.577 129.304 97.501 128.992 99.037 128.992C100.549 128.992 101.473 129.316 101.809 129.964C101.977 130.324 102.073 130.648 102.097 130.936C102.145 131.2 102.169 131.608 102.169 132.16V144.904C102.169 145.432 102.145 145.84 102.097 146.128C102.073 146.392 101.965 146.692 101.773 147.028C101.413 147.652 100.489 147.964 99.001 147.964C97.537 147.964 96.637 147.676 96.301 147.1C96.061 146.692 95.941 146.2 95.941 145.624C95.845 145.792 95.629 146.032 95.293 146.344C94.957 146.656 94.633 146.92 94.321 147.136C93.505 147.664 92.617 147.928 91.657 147.928ZM117.953 129.244C118.409 129.388 118.781 129.64 119.069 130C119.381 130.336 119.537 130.888 119.537 131.656C119.537 132.424 119.309 133.264 118.853 134.176C118.397 135.088 117.737 135.544 116.873 135.544C116.441 135.544 116.021 135.448 115.613 135.256C115.229 135.064 114.713 134.968 114.065 134.968C113.417 134.968 112.805 135.196 112.229 135.652C111.677 136.108 111.401 136.66 111.401 137.308V144.868C111.401 145.42 111.377 145.84 111.329 146.128C111.305 146.392 111.197 146.704 111.005 147.064C110.645 147.688 109.709 148 108.197 148C107.045 148 106.217 147.796 105.713 147.388C105.329 147.052 105.113 146.536 105.065 145.84C105.065 145.6 105.065 145.252 105.065 144.796V132.16C105.065 131.608 105.077 131.2 105.101 130.936C105.149 130.648 105.257 130.336 105.425 130C105.761 129.352 106.697 129.028 108.233 129.028C109.673 129.028 110.573 129.304 110.933 129.856C111.197 130.24 111.329 130.636 111.329 131.044C111.449 130.876 111.617 130.672 111.833 130.432C112.073 130.192 112.565 129.868 113.309 129.46C114.053 129.052 114.701 128.848 115.253 128.848C115.829 128.848 116.309 128.884 116.693 128.956C117.077 129.004 117.497 129.1 117.953 129.244ZM120.959 146.308C120.503 146.02 120.275 145.564 120.275 144.94C120.275 144.316 120.731 143.368 121.643 142.096C121.907 141.688 122.327 141.484 122.903 141.484C123.503 141.484 124.307 141.784 125.315 142.384C126.323 142.96 127.235 143.248 128.051 143.248C129.515 143.248 130.247 142.96 130.247 142.384C130.247 141.928 129.443 141.592 127.835 141.376C126.323 141.16 124.823 140.596 123.335 139.684C122.639 139.252 122.063 138.58 121.607 137.668C121.151 136.732 120.923 135.628 120.923 134.356C120.923 130.564 123.527 128.668 128.735 128.668C130.439 128.668 132.191 129.076 133.991 129.892C134.831 130.276 135.251 130.756 135.251 131.332C135.251 131.908 134.987 132.616 134.459 133.456C133.931 134.296 133.391 134.716 132.839 134.716C132.551 134.716 132.011 134.536 131.219 134.176C130.451 133.816 129.611 133.636 128.699 133.636C127.283 133.636 126.575 133.9 126.575 134.428C126.575 135.148 127.391 135.616 129.023 135.832C130.607 136 132.143 136.456 133.631 137.2C134.327 137.536 134.903 138.124 135.359 138.964C135.839 139.78 136.079 140.812 136.079 142.06C136.079 143.308 135.839 144.376 135.359 145.264C134.903 146.128 134.255 146.776 133.415 147.208C131.879 147.952 129.947 148.324 127.619 148.324C125.315 148.324 123.095 147.652 120.959 146.308ZM156.716 136.264C156.716 137.728 156.344 138.82 155.6 139.54C154.88 140.236 154.076 140.584 153.188 140.584H144.656C144.656 141.256 145.052 141.82 145.844 142.276C146.636 142.732 147.428 142.96 148.22 142.96C149.612 142.96 150.704 142.816 151.496 142.528L151.892 142.384C152.468 142.12 152.948 141.988 153.332 141.988C154.1 141.988 154.76 142.528 155.312 143.608C155.624 144.256 155.78 144.808 155.78 145.264C155.78 147.4 153.224 148.468 148.112 148.468C146.336 148.468 144.752 148.168 143.36 147.568C141.992 146.944 140.924 146.128 140.156 145.12C138.644 143.176 137.888 141.004 137.888 138.604C137.888 135.58 138.86 133.168 140.804 131.368C142.772 129.544 145.22 128.632 148.148 128.632C151.484 128.632 153.932 129.808 155.492 132.16C156.308 133.408 156.716 134.776 156.716 136.264ZM149.12 137.308C150.032 137.308 150.488 136.924 150.488 136.156C150.488 135.604 150.272 135.16 149.84 134.824C149.432 134.488 148.832 134.32 148.04 134.32C147.272 134.32 146.504 134.644 145.736 135.292C144.968 135.916 144.584 136.588 144.584 137.308H149.12ZM159.065 123.268C159.065 122.716 159.077 122.308 159.101 122.044C159.149 121.756 159.257 121.432 159.425 121.072C159.761 120.424 160.697 120.1 162.233 120.1C163.697 120.1 164.609 120.424 164.969 121.072C165.161 121.432 165.269 121.756 165.293 122.044C165.341 122.332 165.365 122.752 165.365 123.304V139.972C165.365 140.836 165.437 141.388 165.581 141.628C165.725 141.844 166.037 141.952 166.517 141.952C167.021 141.952 167.357 141.976 167.525 142.024C167.693 142.048 167.897 142.144 168.137 142.312C168.617 142.624 168.857 143.476 168.857 144.868C168.857 146.38 168.617 147.304 168.137 147.64C167.513 148.072 166.025 148.144 163.673 147.856C161.825 147.616 160.625 147.004 160.073 146.02C159.401 144.844 159.065 142.972 159.065 140.404V123.268ZM180.841 129.064C182.497 129.064 183.469 129.52 183.757 130.432C183.901 130.888 183.973 131.488 183.973 132.232C183.973 132.976 183.889 133.576 183.721 134.032C183.577 134.464 183.337 134.776 183.001 134.968C182.497 135.256 181.765 135.4 180.805 135.4L178.501 135.256V144.904C178.501 145.816 178.381 146.5 178.141 146.956C177.924 147.388 177.577 147.676 177.097 147.82C176.641 147.964 176.041 148.036 175.297 148.036C174.553 148.036 173.953 147.964 173.497 147.82C173.065 147.652 172.753 147.4 172.561 147.064C172.369 146.704 172.249 146.38 172.201 146.092C172.177 145.804 172.165 145.384 172.165 144.832V135.292H170.869C170.245 135.244 169.801 135.1 169.537 134.86C169.081 134.404 168.853 133.528 168.853 132.232C168.853 130.264 169.561 129.28 170.977 129.28H172.165V127.372C172.165 125.524 172.825 123.856 174.145 122.368C175.465 120.856 177.373 120.1 179.869 120.1C180.421 120.1 180.829 120.124 181.093 120.172C181.381 120.196 181.705 120.304 182.065 120.496C182.713 120.808 183.037 121.732 183.037 123.268C183.037 124.42 182.833 125.248 182.425 125.752C182.089 126.136 181.561 126.352 180.841 126.4C180.625 126.4 180.289 126.4 179.833 126.4C178.945 126.4 178.501 126.7 178.501 127.3V129.28L180.841 129.064ZM68.2861 179.4L65.9461 179.256V184.224C65.9461 184.872 66.0421 185.34 66.2341 185.628C66.4501 185.916 66.8341 186.06 67.3861 186.06C67.9621 186.06 68.3941 186.084 68.6821 186.132C68.9941 186.156 69.3181 186.264 69.6541 186.456C70.2061 186.768 70.4821 187.572 70.4821 188.868C70.4821 190.38 70.1461 191.304 69.4741 191.64C69.1141 191.808 68.7901 191.916 68.5021 191.964C68.2381 191.988 67.8421 192 67.3141 192C64.8181 192 62.9221 191.436 61.6261 190.308C60.3301 189.18 59.6821 187.272 59.6821 184.584V179.256C59.2261 179.328 58.7341 179.364 58.2061 179.364C57.6781 179.364 57.2341 179.16 56.8741 178.752C56.5381 178.344 56.3701 177.648 56.3701 176.664C56.3701 175.68 56.4301 174.972 56.5501 174.54C56.6701 174.084 56.8381 173.76 57.0541 173.568C57.4381 173.256 57.9181 173.1 58.4941 173.1L59.6821 173.244V169.536C59.6821 168.984 59.6941 168.576 59.7181 168.312C59.7661 168.048 59.8861 167.76 60.0781 167.448C60.3901 166.848 61.3141 166.548 62.8501 166.548C64.4821 166.548 65.4541 166.992 65.7661 167.88C65.8861 168.264 65.9461 168.876 65.9461 169.716V173.244C67.0021 173.148 67.7941 173.1 68.3221 173.1C68.8741 173.1 69.2821 173.124 69.5461 173.172C69.8341 173.196 70.1581 173.304 70.5181 173.496C71.1421 173.808 71.4541 174.732 71.4541 176.268C71.4541 177.78 71.1301 178.704 70.4821 179.04C70.1221 179.208 69.7981 179.316 69.5101 179.364C69.2461 179.388 68.8381 179.4 68.2861 179.4ZM72.902 182.532C72.902 179.652 73.91 177.276 75.926 175.404C77.942 173.532 80.246 172.596 82.838 172.596C85.43 172.596 87.722 173.532 89.714 175.404C91.706 177.252 92.702 179.616 92.702 182.496C92.702 184.488 92.186 186.264 91.154 187.824C90.122 189.36 88.862 190.5 87.374 191.244C85.91 191.964 84.386 192.324 82.802 192.324C81.218 192.324 79.682 191.94 78.194 191.172C76.706 190.38 75.446 189.228 74.414 187.716C73.406 186.18 72.902 184.452 72.902 182.532ZM80.426 185.124C81.194 185.7 81.974 185.988 82.766 185.988C83.558 185.988 84.35 185.688 85.142 185.088C85.934 184.488 86.33 183.6 86.33 182.424C86.33 181.248 85.958 180.372 85.214 179.796C84.47 179.22 83.666 178.932 82.802 178.932C81.938 178.932 81.134 179.232 80.39 179.832C79.646 180.432 79.274 181.32 79.274 182.496C79.274 183.648 79.658 184.524 80.426 185.124ZM107.736 165.144C107.928 164.784 108.252 164.532 108.708 164.388C109.164 164.244 109.764 164.172 110.508 164.172C111.276 164.172 111.888 164.244 112.344 164.388C112.8 164.532 113.112 164.784 113.28 165.144C113.472 165.504 113.58 165.828 113.604 166.116C113.652 166.38 113.676 166.788 113.676 167.34V188.832C113.676 189.384 113.652 189.804 113.604 190.092C113.58 190.356 113.472 190.656 113.28 190.992C112.92 191.64 111.9 191.964 110.22 191.964C108.564 191.964 107.64 191.376 107.448 190.2C106.44 191.352 105.036 191.928 103.236 191.928C101.076 191.928 99.1079 190.992 97.3319 189.12C95.5559 187.224 94.6679 185.028 94.6679 182.532C94.6679 180.012 95.5559 177.804 97.3319 175.908C99.1319 174.012 101.1 173.064 103.236 173.064C105.012 173.064 106.392 173.664 107.376 174.864V167.304C107.376 166.752 107.388 166.344 107.412 166.08C107.46 165.792 107.568 165.48 107.736 165.144ZM101.904 184.692C102.528 185.34 103.284 185.664 104.172 185.664C105.06 185.664 105.792 185.34 106.368 184.692C106.968 184.044 107.268 183.336 107.268 182.568C107.268 181.776 106.98 181.044 106.404 180.372C105.852 179.7 105.096 179.364 104.136 179.364C103.176 179.364 102.408 179.7 101.832 180.372C101.256 181.02 100.968 181.74 100.968 182.532C100.968 183.324 101.28 184.044 101.904 184.692ZM128.856 175.044C129 173.7 129.948 173.028 131.7 173.028C132.636 173.028 133.332 173.1 133.788 173.244C134.244 173.388 134.556 173.64 134.724 174C134.916 174.36 135.024 174.684 135.048 174.972C135.096 175.236 135.12 175.644 135.12 176.196V188.796C135.12 189.348 135.096 189.768 135.048 190.056C135.024 190.32 134.928 190.632 134.76 190.992C134.424 191.616 133.596 191.928 132.276 191.928C130.98 191.928 130.104 191.772 129.648 191.46C129.216 191.124 128.964 190.644 128.892 190.02C128.004 191.292 126.516 191.928 124.428 191.928C122.364 191.928 120.444 190.98 118.668 189.084C116.892 187.188 116.004 184.992 116.004 182.496C116.004 179.976 116.892 177.78 118.668 175.908C120.468 174.012 122.436 173.064 124.572 173.064C125.388 173.064 126.132 173.208 126.804 173.496C127.476 173.784 127.944 174.06 128.208 174.324C128.472 174.564 128.688 174.804 128.856 175.044ZM122.304 182.532C122.304 183.324 122.616 184.044 123.24 184.692C123.864 185.316 124.62 185.628 125.508 185.628C126.396 185.628 127.128 185.304 127.704 184.656C128.304 184.008 128.604 183.3 128.604 182.532C128.604 181.74 128.316 181.008 127.74 180.336C127.188 179.664 126.432 179.328 125.472 179.328C124.536 179.328 123.768 179.664 123.168 180.336C122.592 181.008 122.304 181.74 122.304 182.532ZM154.926 173.244C156.342 173.868 157.05 174.624 157.05 175.512C157.05 175.944 156.954 176.352 156.762 176.736C156.57 177.12 156.474 177.324 156.474 177.348L147.042 198.444C146.85 198.9 146.682 199.248 146.538 199.488C146.418 199.728 146.214 199.956 145.926 200.172C145.638 200.388 145.278 200.496 144.846 200.496C144.414 200.496 143.778 200.316 142.938 199.956C141.522 199.332 140.814 198.588 140.814 197.724C140.814 197.148 141.966 194.4 144.27 189.48L137.106 177.42C136.626 176.628 136.386 176.04 136.386 175.656C136.386 174.888 137.034 174.12 138.33 173.352C139.146 172.872 139.782 172.632 140.238 172.632C140.694 172.632 141.066 172.728 141.354 172.92C141.642 173.112 141.846 173.316 141.966 173.532C142.11 173.724 142.77 174.84 143.946 176.88C145.146 178.896 146.286 180.78 147.366 182.532C147.486 182.148 148.134 180.672 149.31 178.104C150.486 175.512 151.11 174.132 151.182 173.964C151.278 173.796 151.422 173.592 151.614 173.352C151.926 172.944 152.358 172.74 152.91 172.74C153.486 172.74 154.158 172.908 154.926 173.244ZM159.372 186.528C159.612 186.048 159.972 185.724 160.452 185.556C160.956 185.388 161.724 185.304 162.756 185.304C163.812 185.304 164.568 185.532 165.024 185.988C165.504 186.444 165.744 187.164 165.744 188.148V188.724C165.744 189.3 165.72 189.732 165.672 190.02C165.648 190.284 165.54 190.608 165.348 190.992C164.964 191.688 164.04 192.036 162.576 192.036C161.136 192.036 160.176 191.808 159.696 191.352C159.24 190.872 159.012 189.96 159.012 188.616C159.012 187.68 159.132 186.984 159.372 186.528ZM164.196 182.316C163.74 182.436 163.128 182.496 162.36 182.496C161.592 182.496 160.98 182.436 160.524 182.316C160.068 182.196 159.744 181.98 159.552 181.668C159.384 181.356 159.276 181.08 159.228 180.84C159.204 180.6 159.192 180.228 159.192 179.724V168.312C159.192 167.808 159.204 167.436 159.228 167.196C159.276 166.932 159.396 166.644 159.588 166.332C159.78 166.02 160.104 165.804 160.56 165.684C161.016 165.54 161.628 165.468 162.396 165.468C163.164 165.468 163.776 165.54 164.232 165.684C164.688 165.804 165 166.032 165.168 166.368C165.36 166.68 165.468 166.968 165.492 167.232C165.54 167.472 165.564 167.844 165.564 168.348V179.76C165.564 180.264 165.54 180.636 165.492 180.876C165.468 181.116 165.36 181.392 165.168 181.704C164.976 181.992 164.652 182.196 164.196 182.316Z" fill="#EE97A1"/>
<path d="M81.2927 24.568C82.2367 25.688 82.7087 26.944 82.7087 28.336C82.6767 29.936 82.1247 31.28 81.0527 32.368C79.9967 33.44 78.7087 33.976 77.1887 33.976H70.8767C69.7567 33.976 69.1007 33.672 68.9087 33.064C68.8127 32.792 68.7647 32.376 68.7647 31.816V18.496C68.7647 18.112 68.7727 17.832 68.7887 17.656C68.8207 17.48 68.9007 17.272 69.0287 17.032C69.2527 16.6 69.8767 16.384 70.9007 16.384H76.9487C78.4207 16.384 79.6527 16.896 80.6447 17.92C81.6847 18.96 82.2047 20.208 82.2047 21.664C82.2047 22.72 81.9007 23.688 81.2927 24.568ZM78.4607 28.096C78.4607 27.712 78.4127 27.408 78.3167 27.184C78.2367 26.96 78.0927 26.8 77.8847 26.704C77.5647 26.576 77.1167 26.512 76.5407 26.512C75.9647 26.512 75.5327 26.4 75.2447 26.176C74.9567 25.952 74.8127 25.496 74.8127 24.808C74.8127 24.104 74.9567 23.64 75.2447 23.416C75.5487 23.192 76.0447 23.08 76.7327 23.08C77.3727 23.08 77.7567 22.912 77.8847 22.576C77.9327 22.4 77.9567 22.112 77.9567 21.712C77.9567 21.312 77.8207 21.032 77.5487 20.872C77.2927 20.712 76.9007 20.632 76.3727 20.632H73.0127V29.728H76.9487C77.9567 29.728 78.4607 29.184 78.4607 28.096ZM92.4883 22.696C92.5843 21.8 93.2163 21.352 94.3843 21.352C95.0083 21.352 95.4723 21.4 95.7763 21.496C96.0803 21.592 96.2883 21.76 96.4003 22C96.5283 22.24 96.6003 22.456 96.6163 22.648C96.6483 22.824 96.6643 23.096 96.6643 23.464V31.864C96.6643 32.232 96.6483 32.512 96.6163 32.704C96.6003 32.88 96.5363 33.088 96.4243 33.328C96.2003 33.744 95.6483 33.952 94.7683 33.952C93.9043 33.952 93.3203 33.848 93.0163 33.64C92.7283 33.416 92.5603 33.096 92.5123 32.68C91.9203 33.528 90.9283 33.952 89.5363 33.952C88.1603 33.952 86.8803 33.32 85.6963 32.056C84.5123 30.792 83.9203 29.328 83.9203 27.664C83.9203 25.984 84.5123 24.52 85.6963 23.272C86.8963 22.008 88.2083 21.376 89.6323 21.376C90.1763 21.376 90.6723 21.472 91.1203 21.664C91.5683 21.856 91.8803 22.04 92.0563 22.216C92.2323 22.376 92.3763 22.536 92.4883 22.696ZM88.1203 27.688C88.1203 28.216 88.3283 28.696 88.7443 29.128C89.1603 29.544 89.6643 29.752 90.2563 29.752C90.8483 29.752 91.3363 29.536 91.7203 29.104C92.1203 28.672 92.3203 28.2 92.3203 27.688C92.3203 27.16 92.1283 26.672 91.7443 26.224C91.3763 25.776 90.8723 25.552 90.2323 25.552C89.6083 25.552 89.0963 25.776 88.6963 26.224C88.3123 26.672 88.1203 27.16 88.1203 27.688ZM98.5772 17.512C98.5772 17.144 98.5852 16.872 98.6012 16.696C98.6332 16.504 98.7052 16.288 98.8172 16.048C99.0412 15.616 99.6652 15.4 100.689 15.4C101.665 15.4 102.273 15.616 102.513 16.048C102.641 16.288 102.713 16.504 102.729 16.696C102.761 16.888 102.777 17.168 102.777 17.536V28.648C102.777 29.224 102.825 29.592 102.921 29.752C103.017 29.896 103.225 29.968 103.545 29.968C103.881 29.968 104.105 29.984 104.217 30.016C104.329 30.032 104.465 30.096 104.625 30.208C104.945 30.416 105.105 30.984 105.105 31.912C105.105 32.92 104.945 33.536 104.625 33.76C104.209 34.048 103.217 34.096 101.649 33.904C100.417 33.744 99.6172 33.336 99.2492 32.68C98.8012 31.896 98.5772 30.648 98.5772 28.936V17.512ZM114.637 22.696C114.733 21.8 115.365 21.352 116.533 21.352C117.157 21.352 117.621 21.4 117.925 21.496C118.229 21.592 118.437 21.76 118.549 22C118.677 22.24 118.749 22.456 118.765 22.648C118.797 22.824 118.813 23.096 118.813 23.464V31.864C118.813 32.232 118.797 32.512 118.765 32.704C118.749 32.88 118.685 33.088 118.573 33.328C118.349 33.744 117.797 33.952 116.917 33.952C116.053 33.952 115.469 33.848 115.165 33.64C114.877 33.416 114.709 33.096 114.661 32.68C114.069 33.528 113.077 33.952 111.685 33.952C110.309 33.952 109.029 33.32 107.845 32.056C106.661 30.792 106.069 29.328 106.069 27.664C106.069 25.984 106.661 24.52 107.845 23.272C109.045 22.008 110.357 21.376 111.781 21.376C112.325 21.376 112.821 21.472 113.269 21.664C113.717 21.856 114.029 22.04 114.205 22.216C114.381 22.376 114.525 22.536 114.637 22.696ZM110.269 27.688C110.269 28.216 110.477 28.696 110.893 29.128C111.309 29.544 111.813 29.752 112.405 29.752C112.997 29.752 113.485 29.536 113.869 29.104C114.269 28.672 114.469 28.2 114.469 27.688C114.469 27.16 114.277 26.672 113.893 26.224C113.525 25.776 113.021 25.552 112.381 25.552C111.757 25.552 111.245 25.776 110.845 26.224C110.461 26.672 110.269 27.16 110.269 27.688ZM127.758 21.352C129.358 21.352 130.686 21.968 131.742 23.2C132.814 24.416 133.35 25.904 133.35 27.664V31.888C133.35 32.256 133.334 32.536 133.302 32.728C133.286 32.904 133.222 33.104 133.11 33.328C132.886 33.76 132.262 33.976 131.238 33.976C130.102 33.976 129.446 33.68 129.27 33.088C129.174 32.816 129.126 32.408 129.126 31.864V27.64C129.126 26.984 128.934 26.472 128.55 26.104C128.182 25.736 127.678 25.552 127.038 25.552C126.414 25.552 125.902 25.744 125.502 26.128C125.118 26.512 124.926 27.016 124.926 27.64V31.888C124.926 32.256 124.91 32.536 124.878 32.728C124.862 32.904 124.79 33.104 124.662 33.328C124.454 33.76 123.838 33.976 122.814 33.976C121.806 33.976 121.19 33.76 120.966 33.328C120.854 33.088 120.782 32.88 120.75 32.704C120.734 32.512 120.726 32.232 120.726 31.864V23.368C120.726 23.016 120.734 22.752 120.75 22.576C120.782 22.384 120.862 22.176 120.99 21.952C121.214 21.552 121.83 21.352 122.838 21.352C123.814 21.352 124.414 21.536 124.638 21.904C124.798 22.176 124.878 22.504 124.878 22.888C124.942 22.776 125.086 22.616 125.31 22.408C125.534 22.2 125.75 22.032 125.958 21.904C126.502 21.536 127.102 21.352 127.758 21.352ZM139.24 27.688C139.24 28.36 139.464 28.888 139.912 29.272C140.36 29.64 140.832 29.824 141.328 29.824C141.84 29.824 142.312 29.68 142.744 29.392C143.192 29.088 143.552 28.936 143.824 28.936C144.304 28.936 144.888 29.36 145.576 30.208C145.944 30.672 146.128 31.088 146.128 31.456C146.128 32.064 145.688 32.632 144.808 33.16C143.896 33.8 142.776 34.12 141.448 34.12C139.96 34.12 138.528 33.584 137.152 32.512C136.496 32 135.96 31.32 135.544 30.472C135.128 29.608 134.92 28.664 134.92 27.64C134.92 26.6 135.128 25.664 135.544 24.832C135.96 23.984 136.496 23.304 137.152 22.792C138.48 21.736 139.896 21.208 141.4 21.208C142.008 21.208 142.6 21.296 143.176 21.472C143.752 21.632 144.176 21.792 144.448 21.952L144.832 22.192C145.12 22.384 145.344 22.536 145.504 22.648C145.92 22.968 146.128 23.336 146.128 23.752C146.128 24.152 145.96 24.608 145.624 25.12C145.048 26 144.496 26.44 143.968 26.44C143.664 26.44 143.232 26.264 142.672 25.912C142.384 25.64 141.968 25.504 141.424 25.504C140.896 25.504 140.4 25.696 139.936 26.08C139.472 26.464 139.24 27 139.24 27.688ZM159.519 26.176C159.519 27.152 159.271 27.88 158.775 28.36C158.295 28.824 157.759 29.056 157.167 29.056H151.479C151.479 29.504 151.743 29.88 152.271 30.184C152.799 30.488 153.327 30.64 153.855 30.64C154.783 30.64 155.511 30.544 156.039 30.352L156.303 30.256C156.687 30.08 157.007 29.992 157.263 29.992C157.775 29.992 158.215 30.352 158.583 31.072C158.791 31.504 158.895 31.872 158.895 32.176C158.895 33.6 157.191 34.312 153.783 34.312C152.599 34.312 151.543 34.112 150.615 33.712C149.703 33.296 148.991 32.752 148.479 32.08C147.471 30.784 146.967 29.336 146.967 27.736C146.967 25.72 147.615 24.112 148.911 22.912C150.223 21.696 151.855 21.088 153.807 21.088C156.031 21.088 157.663 21.872 158.703 23.44C159.247 24.272 159.519 25.184 159.519 26.176ZM154.455 26.872C155.063 26.872 155.367 26.616 155.367 26.104C155.367 25.736 155.223 25.44 154.935 25.216C154.663 24.992 154.263 24.88 153.735 24.88C153.223 24.88 152.711 25.096 152.199 25.528C151.687 25.944 151.431 26.392 151.431 26.872H154.455Z" fill="#6FB876"/>
<path d="M59.4797 49.22C59.4797 48.9133 59.4864 48.6867 59.4997 48.54C59.5264 48.38 59.5864 48.2 59.6797 48C59.8664 47.6533 60.3864 47.48 61.2397 47.48C61.8797 47.48 62.333 47.5933 62.5997 47.82C62.8264 48.0067 62.9464 48.2933 62.9597 48.68C62.973 48.8133 62.9797 49.0067 62.9797 49.26V56.26C62.9797 56.5667 62.9664 56.8 62.9397 56.96C62.9264 57.1067 62.8664 57.28 62.7597 57.48C62.5864 57.8267 62.073 58 61.2197 58C60.3797 58 59.8664 57.82 59.6797 57.46C59.5864 57.26 59.5264 57.0867 59.4997 56.94C59.4864 56.7933 59.4797 56.56 59.4797 56.24V49.22ZM62.7597 45.52C62.6664 45.7067 62.493 45.84 62.2397 45.92C61.9864 46 61.6464 46.04 61.2197 46.04C60.8064 46.04 60.473 46 60.2197 45.92C59.9664 45.84 59.7864 45.7 59.6797 45.5C59.5864 45.3 59.5264 45.1267 59.4997 44.98C59.4864 44.82 59.4797 44.5867 59.4797 44.28C59.4797 43.9733 59.4864 43.7467 59.4997 43.6C59.5264 43.44 59.5864 43.2667 59.6797 43.08C59.8664 42.72 60.3864 42.54 61.2397 42.54C62.0797 42.54 62.5864 42.72 62.7597 43.08C62.8664 43.28 62.9264 43.46 62.9397 43.62C62.9664 43.7667 62.9797 43.9933 62.9797 44.3C62.9797 44.6067 62.9664 44.84 62.9397 45C62.9264 45.1467 62.8664 45.32 62.7597 45.52ZM64.6573 57.06C64.404 56.9 64.2773 56.6467 64.2773 56.3C64.2773 55.9533 64.5307 55.4267 65.0373 54.72C65.184 54.4933 65.4173 54.38 65.7373 54.38C66.0707 54.38 66.5173 54.5467 67.0773 54.88C67.6373 55.2 68.144 55.36 68.5973 55.36C69.4107 55.36 69.8173 55.2 69.8173 54.88C69.8173 54.6267 69.3707 54.44 68.4773 54.32C67.6373 54.2 66.804 53.8867 65.9773 53.38C65.5907 53.14 65.2707 52.7667 65.0173 52.26C64.764 51.74 64.6373 51.1267 64.6373 50.42C64.6373 48.3133 66.084 47.26 68.9773 47.26C69.924 47.26 70.8973 47.4867 71.8973 47.94C72.364 48.1533 72.5973 48.42 72.5973 48.74C72.5973 49.06 72.4507 49.4533 72.1573 49.92C71.864 50.3867 71.564 50.62 71.2573 50.62C71.0973 50.62 70.7973 50.52 70.3573 50.32C69.9307 50.12 69.464 50.02 68.9573 50.02C68.1707 50.02 67.7773 50.1667 67.7773 50.46C67.7773 50.86 68.2307 51.12 69.1373 51.24C70.0173 51.3333 70.8707 51.5867 71.6973 52C72.084 52.1867 72.404 52.5133 72.6573 52.98C72.924 53.4333 73.0573 54.0067 73.0573 54.7C73.0573 55.3933 72.924 55.9867 72.6573 56.48C72.404 56.96 72.044 57.32 71.5773 57.56C70.724 57.9733 69.6507 58.18 68.3573 58.18C67.0773 58.18 65.844 57.8067 64.6573 57.06ZM79.4211 49.22C79.4211 48.9133 79.4278 48.6867 79.4411 48.54C79.4678 48.38 79.5278 48.2 79.6211 48C79.8078 47.6533 80.3278 47.48 81.1811 47.48C81.8211 47.48 82.2744 47.5933 82.5411 47.82C82.7678 48.0067 82.8878 48.2933 82.9011 48.68C82.9144 48.8133 82.9211 49.0067 82.9211 49.26V56.26C82.9211 56.5667 82.9078 56.8 82.8811 56.96C82.8678 57.1067 82.8078 57.28 82.7011 57.48C82.5278 57.8267 82.0144 58 81.1611 58C80.3211 58 79.8078 57.82 79.6211 57.46C79.5278 57.26 79.4678 57.0867 79.4411 56.94C79.4278 56.7933 79.4211 56.56 79.4211 56.24V49.22ZM82.7011 45.52C82.6078 45.7067 82.4344 45.84 82.1811 45.92C81.9278 46 81.5878 46.04 81.1611 46.04C80.7478 46.04 80.4144 46 80.1611 45.92C79.9078 45.84 79.7278 45.7 79.6211 45.5C79.5278 45.3 79.4678 45.1267 79.4411 44.98C79.4278 44.82 79.4211 44.5867 79.4211 44.28C79.4211 43.9733 79.4278 43.7467 79.4411 43.6C79.4678 43.44 79.5278 43.2667 79.6211 43.08C79.8078 42.72 80.3278 42.54 81.1811 42.54C82.0211 42.54 82.5278 42.72 82.7011 43.08C82.8078 43.28 82.8678 43.46 82.8811 43.62C82.9078 43.7667 82.9211 43.9933 82.9211 44.3C82.9211 44.6067 82.9078 44.84 82.8811 45C82.8678 45.1467 82.8078 45.32 82.7011 45.52ZM87.9588 48.86C88.5854 47.9133 89.3388 47.44 90.2188 47.44C91.5788 47.44 92.5921 48.02 93.2588 49.18C93.4054 48.98 93.5788 48.7733 93.7788 48.56C93.9921 48.3333 94.3254 48.0933 94.7788 47.84C95.2321 47.5733 95.6988 47.44 96.1788 47.44C97.2454 47.44 98.1388 47.8533 98.8588 48.68C99.5788 49.4933 99.9388 50.8467 99.9388 52.74V56.24C99.9388 56.5467 99.9254 56.78 99.8988 56.94C99.8854 57.0867 99.8254 57.26 99.7188 57.46C99.5454 57.82 99.0321 58 98.1788 58C97.3388 58 96.8254 57.8133 96.6388 57.44C96.5454 57.24 96.4854 57.0667 96.4588 56.92C96.4454 56.76 96.4388 56.5267 96.4388 56.22V52.72C96.4388 51.56 96.0254 50.98 95.1988 50.98C94.7321 50.98 94.4121 51.1333 94.2388 51.44C94.0788 51.7467 93.9987 52.18 93.9987 52.74V56.24C93.9987 56.56 93.9854 56.7933 93.9588 56.94C93.9454 57.0867 93.8854 57.26 93.7788 57.46C93.5921 57.82 93.0721 58 92.2188 58C91.3788 58 90.8654 57.8133 90.6788 57.44C90.5854 57.24 90.5254 57.0667 90.4988 56.92C90.4854 56.76 90.4788 56.5267 90.4788 56.22V52.72C90.4788 51.56 90.0654 50.98 89.2388 50.98C88.4388 50.98 88.0388 51.56 88.0388 52.72V56.26C88.0388 56.5667 88.0254 56.8 87.9988 56.96C87.9854 57.1067 87.9254 57.28 87.8188 57.48C87.6188 57.8267 87.0988 58 86.2588 58C85.4188 58 84.9054 57.82 84.7188 57.46C84.6254 57.26 84.5654 57.0867 84.5388 56.94C84.5254 56.7933 84.5188 56.56 84.5188 56.24V49.2C84.5188 48.8933 84.5254 48.6667 84.5388 48.52C84.5654 48.36 84.6321 48.1867 84.7388 48C84.9388 47.64 85.4121 47.46 86.1588 47.46C86.9054 47.46 87.3921 47.58 87.6188 47.82C87.8454 48.06 87.9588 48.4067 87.9588 48.86ZM101.53 60.86V49.18C101.53 48.8733 101.537 48.6467 101.55 48.5C101.577 48.3533 101.637 48.1867 101.73 48C101.917 47.64 102.364 47.46 103.07 47.46C103.777 47.46 104.25 47.5533 104.49 47.74C104.744 47.9133 104.89 48.1733 104.93 48.52C105.437 47.8267 106.23 47.48 107.31 47.48C108.404 47.48 109.437 47.9933 110.41 49.02C111.384 50.0467 111.87 51.24 111.87 52.6C111.87 53.96 111.384 55.1533 110.41 56.18C109.45 57.2067 108.424 57.72 107.33 57.72C106.237 57.72 105.444 57.4133 104.95 56.8V60.84C104.95 61.1467 104.937 61.3733 104.91 61.52C104.897 61.6667 104.837 61.8333 104.73 62.02C104.637 62.22 104.47 62.36 104.23 62.44C103.99 62.52 103.664 62.56 103.25 62.56C102.837 62.56 102.504 62.52 102.25 62.44C102.01 62.36 101.837 62.2267 101.73 62.04C101.637 61.8533 101.577 61.6867 101.55 61.54C101.537 61.3933 101.53 61.1667 101.53 60.86ZM105.49 51.44C105.184 51.8 105.03 52.1933 105.03 52.62C105.03 53.0467 105.184 53.44 105.49 53.8C105.81 54.1467 106.21 54.32 106.69 54.32C107.184 54.32 107.597 54.1467 107.93 53.8C108.277 53.4533 108.45 53.06 108.45 52.62C108.45 52.18 108.29 51.7867 107.97 51.44C107.65 51.08 107.23 50.9 106.71 50.9C106.204 50.9 105.797 51.08 105.49 51.44ZM112.871 52.74C112.871 51.14 113.431 49.82 114.551 48.78C115.671 47.74 116.951 47.22 118.391 47.22C119.831 47.22 121.104 47.74 122.211 48.78C123.318 49.8067 123.871 51.12 123.871 52.72C123.871 53.8267 123.584 54.8133 123.011 55.68C122.438 56.5333 121.738 57.1667 120.911 57.58C120.098 57.98 119.251 58.18 118.371 58.18C117.491 58.18 116.638 57.9667 115.811 57.54C114.984 57.1 114.284 56.46 113.711 55.62C113.151 54.7667 112.871 53.8067 112.871 52.74ZM117.051 54.18C117.478 54.5 117.911 54.66 118.351 54.66C118.791 54.66 119.231 54.4933 119.671 54.16C120.111 53.8267 120.331 53.3333 120.331 52.68C120.331 52.0267 120.124 51.54 119.711 51.22C119.298 50.9 118.851 50.74 118.371 50.74C117.891 50.74 117.444 50.9067 117.031 51.24C116.618 51.5733 116.411 52.0667 116.411 52.72C116.411 53.36 116.624 53.8467 117.051 54.18ZM132.323 47.58C132.577 47.66 132.783 47.8 132.943 48C133.117 48.1867 133.203 48.4933 133.203 48.92C133.203 49.3467 133.077 49.8133 132.823 50.32C132.57 50.8267 132.203 51.08 131.723 51.08C131.483 51.08 131.25 51.0267 131.023 50.92C130.81 50.8133 130.523 50.76 130.163 50.76C129.803 50.76 129.463 50.8867 129.143 51.14C128.837 51.3933 128.683 51.7 128.683 52.06V56.26C128.683 56.5667 128.67 56.8 128.643 56.96C128.63 57.1067 128.57 57.28 128.463 57.48C128.263 57.8267 127.743 58 126.903 58C126.263 58 125.803 57.8867 125.523 57.66C125.31 57.4733 125.19 57.1867 125.163 56.8C125.163 56.6667 125.163 56.4733 125.163 56.22V49.2C125.163 48.8933 125.17 48.6667 125.183 48.52C125.21 48.36 125.27 48.1867 125.363 48C125.55 47.64 126.07 47.46 126.923 47.46C127.723 47.46 128.223 47.6133 128.423 47.92C128.57 48.1333 128.643 48.3533 128.643 48.58C128.71 48.4867 128.803 48.3733 128.923 48.24C129.057 48.1067 129.33 47.9267 129.743 47.7C130.157 47.4733 130.517 47.36 130.823 47.36C131.143 47.36 131.41 47.38 131.623 47.42C131.837 47.4467 132.07 47.5 132.323 47.58ZM140.424 51L139.124 50.92V53.68C139.124 54.04 139.177 54.3 139.284 54.46C139.404 54.62 139.617 54.7 139.924 54.7C140.244 54.7 140.484 54.7133 140.644 54.74C140.817 54.7533 140.997 54.8133 141.184 54.92C141.491 55.0933 141.644 55.54 141.644 56.26C141.644 57.1 141.457 57.6133 141.084 57.8C140.884 57.8933 140.704 57.9533 140.544 57.98C140.397 57.9933 140.177 58 139.884 58C138.497 58 137.444 57.6867 136.724 57.06C136.004 56.4333 135.644 55.3733 135.644 53.88V50.92C135.391 50.96 135.117 50.98 134.824 50.98C134.531 50.98 134.284 50.8667 134.084 50.64C133.897 50.4133 133.804 50.0267 133.804 49.48C133.804 48.9333 133.837 48.54 133.904 48.3C133.971 48.0467 134.064 47.8667 134.184 47.76C134.397 47.5867 134.664 47.5 134.984 47.5L135.644 47.58V45.52C135.644 45.2133 135.651 44.9867 135.664 44.84C135.691 44.6933 135.757 44.5333 135.864 44.36C136.037 44.0267 136.551 43.86 137.404 43.86C138.311 43.86 138.851 44.1067 139.024 44.6C139.091 44.8133 139.124 45.1533 139.124 45.62V47.58C139.711 47.5267 140.151 47.5 140.444 47.5C140.751 47.5 140.977 47.5133 141.124 47.54C141.284 47.5533 141.464 47.6133 141.664 47.72C142.011 47.8933 142.184 48.4067 142.184 49.26C142.184 50.1 142.004 50.6133 141.644 50.8C141.444 50.8933 141.264 50.9533 141.104 50.98C140.957 50.9933 140.731 51 140.424 51ZM150.128 48.58C150.208 47.8333 150.735 47.46 151.708 47.46C152.228 47.46 152.615 47.5 152.868 47.58C153.122 47.66 153.295 47.8 153.388 48C153.495 48.2 153.555 48.38 153.568 48.54C153.595 48.6867 153.608 48.9133 153.608 49.22V56.22C153.608 56.5267 153.595 56.76 153.568 56.92C153.555 57.0667 153.502 57.24 153.408 57.44C153.222 57.7867 152.762 57.96 152.028 57.96C151.308 57.96 150.822 57.8733 150.568 57.7C150.328 57.5133 150.188 57.2467 150.148 56.9C149.655 57.6067 148.828 57.96 147.668 57.96C146.522 57.96 145.455 57.4333 144.468 56.38C143.482 55.3267 142.988 54.1067 142.988 52.72C142.988 51.32 143.482 50.1 144.468 49.06C145.468 48.0067 146.562 47.48 147.748 47.48C148.202 47.48 148.615 47.56 148.988 47.72C149.362 47.88 149.622 48.0333 149.768 48.18C149.915 48.3133 150.035 48.4467 150.128 48.58ZM146.488 52.74C146.488 53.18 146.662 53.58 147.008 53.94C147.355 54.2867 147.775 54.46 148.268 54.46C148.762 54.46 149.168 54.28 149.488 53.92C149.822 53.56 149.988 53.1667 149.988 52.74C149.988 52.3 149.828 51.8933 149.508 51.52C149.202 51.1467 148.782 50.96 148.248 50.96C147.728 50.96 147.302 51.1467 146.968 51.52C146.648 51.8933 146.488 52.3 146.488 52.74ZM161.062 47.46C162.396 47.46 163.502 47.9733 164.382 49C165.276 50.0133 165.722 51.2533 165.722 52.72V56.24C165.722 56.5467 165.709 56.78 165.682 56.94C165.669 57.0867 165.616 57.2533 165.522 57.44C165.336 57.8 164.816 57.98 163.962 57.98C163.016 57.98 162.469 57.7333 162.322 57.24C162.242 57.0133 162.202 56.6733 162.202 56.22V52.7C162.202 52.1533 162.042 51.7267 161.722 51.42C161.416 51.1133 160.996 50.96 160.462 50.96C159.942 50.96 159.516 51.12 159.182 51.44C158.862 51.76 158.702 52.18 158.702 52.7V56.24C158.702 56.5467 158.689 56.78 158.662 56.94C158.649 57.0867 158.589 57.2533 158.482 57.44C158.309 57.8 157.796 57.98 156.942 57.98C156.102 57.98 155.589 57.8 155.402 57.44C155.309 57.24 155.249 57.0667 155.222 56.92C155.209 56.76 155.202 56.5267 155.202 56.22V49.14C155.202 48.8467 155.209 48.6267 155.222 48.48C155.249 48.32 155.316 48.1467 155.422 47.96C155.609 47.6267 156.122 47.46 156.962 47.46C157.776 47.46 158.276 47.6133 158.462 47.92C158.596 48.1467 158.662 48.42 158.662 48.74C158.716 48.6467 158.836 48.5133 159.022 48.34C159.209 48.1667 159.389 48.0267 159.562 47.92C160.016 47.6133 160.516 47.46 161.062 47.46ZM173.256 51L171.956 50.92V53.68C171.956 54.04 172.009 54.3 172.116 54.46C172.236 54.62 172.449 54.7 172.756 54.7C173.076 54.7 173.316 54.7133 173.476 54.74C173.649 54.7533 173.829 54.8133 174.016 54.92C174.323 55.0933 174.476 55.54 174.476 56.26C174.476 57.1 174.289 57.6133 173.916 57.8C173.716 57.8933 173.536 57.9533 173.376 57.98C173.229 57.9933 173.009 58 172.716 58C171.329 58 170.276 57.6867 169.556 57.06C168.836 56.4333 168.476 55.3733 168.476 53.88V50.92C168.223 50.96 167.949 50.98 167.656 50.98C167.363 50.98 167.116 50.8667 166.916 50.64C166.729 50.4133 166.636 50.0267 166.636 49.48C166.636 48.9333 166.669 48.54 166.736 48.3C166.803 48.0467 166.896 47.8667 167.016 47.76C167.229 47.5867 167.496 47.5 167.816 47.5L168.476 47.58V45.52C168.476 45.2133 168.483 44.9867 168.496 44.84C168.523 44.6933 168.589 44.5333 168.696 44.36C168.869 44.0267 169.383 43.86 170.236 43.86C171.143 43.86 171.683 44.1067 171.856 44.6C171.923 44.8133 171.956 45.1533 171.956 45.62V47.58C172.543 47.5267 172.983 47.5 173.276 47.5C173.583 47.5 173.809 47.5133 173.956 47.54C174.116 47.5533 174.296 47.6133 174.496 47.72C174.843 47.8933 175.016 48.4067 175.016 49.26C175.016 50.1 174.836 50.6133 174.476 50.8C174.276 50.8933 174.096 50.9533 173.936 50.98C173.789 50.9933 173.563 51 173.256 51Z" fill="#DBB780"/>
</svg>
