<svg width="225" height="225" viewBox="0 0 225 225" fill="none" xmlns="http://www.w3.org/2000/svg">
<rect width="225" height="225" rx="25" fill="white"/>
<path d="M35.7918 20.232C35.9784 19.9333 36.2491 19.728 36.6038 19.616C36.9584 19.504 37.3971 19.448 37.9198 19.448C38.4611 19.448 38.8904 19.4947 39.2078 19.588C39.5251 19.6813 39.7678 19.7933 39.9358 19.924C40.1038 20.0547 40.2251 20.2507 40.2998 20.512C40.4118 20.8293 40.4678 21.3147 40.4678 21.968V30.424C40.4678 32.888 39.7024 35.128 38.1718 37.144C37.4251 38.096 36.4638 38.8707 35.2878 39.468C34.1118 40.0467 32.8051 40.336 31.3678 40.336C29.9491 40.336 28.6518 40.0373 27.4758 39.44C26.3184 38.8427 25.3758 38.0587 24.6478 37.088C23.1358 35.1093 22.3798 32.8693 22.3798 30.368V21.94C22.3798 21.492 22.3891 21.1653 22.4078 20.96C22.4451 20.736 22.5384 20.484 22.6878 20.204C22.8371 19.924 23.0891 19.728 23.4438 19.616C23.7984 19.504 24.2744 19.448 24.8718 19.448C25.4691 19.448 25.9451 19.504 26.2998 19.616C26.6544 19.728 26.8971 19.924 27.0278 20.204C27.2518 20.6333 27.3638 21.2213 27.3638 21.968V30.368C27.3638 31.5067 27.6438 32.5893 28.2038 33.616C28.4838 34.1387 28.9038 34.5587 29.4638 34.876C30.0238 35.1933 30.6864 35.352 31.4518 35.352C32.8144 35.352 33.8318 34.848 34.5038 33.84C35.1758 32.832 35.5118 31.6653 35.5118 30.34V21.772C35.5118 21.044 35.6051 20.5307 35.7918 20.232ZM50.9002 25.244C52.7668 25.244 54.3162 25.9627 55.5482 27.4C56.7988 28.8187 57.4242 30.5547 57.4242 32.608V37.536C57.4242 37.9653 57.4055 38.292 57.3682 38.516C57.3495 38.7213 57.2748 38.9547 57.1442 39.216C56.8828 39.72 56.1548 39.972 54.9602 39.972C53.6348 39.972 52.8695 39.6267 52.6642 38.936C52.5522 38.6187 52.4962 38.1427 52.4962 37.508V32.58C52.4962 31.8147 52.2722 31.2173 51.8242 30.788C51.3948 30.3587 50.8068 30.144 50.0602 30.144C49.3322 30.144 48.7348 30.368 48.2682 30.816C47.8202 31.264 47.5962 31.852 47.5962 32.58V37.536C47.5962 37.9653 47.5775 38.292 47.5402 38.516C47.5215 38.7213 47.4375 38.9547 47.2882 39.216C47.0455 39.72 46.3268 39.972 45.1322 39.972C43.9562 39.972 43.2375 39.72 42.9762 39.216C42.8455 38.936 42.7615 38.6933 42.7242 38.488C42.7055 38.264 42.6962 37.9373 42.6962 37.508V27.596C42.6962 27.1853 42.7055 26.8773 42.7242 26.672C42.7615 26.448 42.8548 26.2053 43.0042 25.944C43.2655 25.4773 43.9842 25.244 45.1602 25.244C46.2988 25.244 46.9988 25.4587 47.2602 25.888C47.4468 26.2053 47.5402 26.588 47.5402 27.036C47.6148 26.9053 47.7828 26.7187 48.0442 26.476C48.3055 26.2333 48.5575 26.0373 48.8002 25.888C49.4348 25.4587 50.1348 25.244 50.9002 25.244ZM59.7886 38.684C59.434 38.46 59.2566 38.1053 59.2566 37.62C59.2566 37.1347 59.6113 36.3973 60.3206 35.408C60.526 35.0907 60.8526 34.932 61.3006 34.932C61.7673 34.932 62.3926 35.1653 63.1766 35.632C63.9606 36.08 64.67 36.304 65.3046 36.304C66.4433 36.304 67.0126 36.08 67.0126 35.632C67.0126 35.2773 66.3873 35.016 65.1366 34.848C63.9606 34.68 62.794 34.2413 61.6366 33.532C61.0953 33.196 60.6473 32.6733 60.2926 31.964C59.938 31.236 59.7606 30.3773 59.7606 29.388C59.7606 26.4387 61.786 24.964 65.8366 24.964C67.162 24.964 68.5246 25.2813 69.9246 25.916C70.578 26.2147 70.9046 26.588 70.9046 27.036C70.9046 27.484 70.6993 28.0347 70.2886 28.688C69.878 29.3413 69.458 29.668 69.0286 29.668C68.8046 29.668 68.3846 29.528 67.7686 29.248C67.1713 28.968 66.518 28.828 65.8086 28.828C64.7073 28.828 64.1566 29.0333 64.1566 29.444C64.1566 30.004 64.7913 30.368 66.0606 30.536C67.2926 30.6667 68.4873 31.0213 69.6446 31.6C70.186 31.8613 70.634 32.3187 70.9886 32.972C71.362 33.6067 71.5486 34.4093 71.5486 35.38C71.5486 36.3507 71.362 37.1813 70.9886 37.872C70.634 38.544 70.13 39.048 69.4766 39.384C68.282 39.9627 66.7793 40.252 64.9686 40.252C63.1766 40.252 61.45 39.7293 59.7886 38.684ZM91.4002 25.356C92.5949 25.8787 93.1922 26.5227 93.1922 27.288C93.1922 27.6053 93.0429 28.1187 92.7442 28.828C92.4455 29.5187 92.1935 30.1253 91.9882 30.648L88.9082 38.152C88.6282 38.9733 88.1615 39.552 87.5082 39.888C87.2282 40.0187 86.8735 40.084 86.4442 40.084C86.0149 40.084 85.5949 39.9253 85.1842 39.608C84.7922 39.272 84.5309 38.936 84.4002 38.6L84.1762 38.124C84.0269 37.7507 83.4762 36.2947 82.5242 33.756C82.3375 34.204 82.0575 34.9413 81.6842 35.968C81.3295 36.976 81.0962 37.6107 80.9842 37.872C80.8909 38.1147 80.8255 38.2827 80.7882 38.376C80.7695 38.4507 80.6949 38.6 80.5642 38.824C80.4335 39.048 80.2842 39.244 80.1162 39.412C79.6682 39.86 79.1549 40.084 78.5762 40.084C77.9975 40.084 77.5122 39.9253 77.1202 39.608C76.7282 39.272 76.4669 38.936 76.3362 38.6L72.1082 28.296C71.9215 27.736 71.8282 27.372 71.8282 27.204C71.8282 26.4573 72.3602 25.8693 73.4242 25.44C74.0215 25.1973 74.5069 25.076 74.8802 25.076C75.2535 25.076 75.5522 25.16 75.7762 25.328C76.0189 25.4773 76.1869 25.636 76.2802 25.804C76.3735 25.9533 76.4482 26.112 76.5042 26.28C76.8215 27.0267 77.4842 28.7813 78.4922 31.544L80.1442 27.008C80.2562 26.6347 80.4615 26.308 80.7602 26.028C81.3015 25.4867 81.8522 25.216 82.4122 25.216C82.9722 25.216 83.4482 25.3653 83.8402 25.664C84.2509 25.9627 84.5309 26.2613 84.6802 26.56L84.9042 27.036C85.8375 29.6493 86.3882 31.1427 86.5562 31.516L88.2642 26.868C88.7122 25.6733 89.3842 25.076 90.2802 25.076C90.6349 25.076 91.0082 25.1693 91.4002 25.356ZM108.408 30.872C108.408 32.0107 108.119 32.86 107.54 33.42C106.98 33.9613 106.355 34.232 105.664 34.232H99.0285C99.0285 34.7547 99.3365 35.1933 99.9525 35.548C100.568 35.9027 101.184 36.08 101.8 36.08C102.883 36.08 103.732 35.968 104.348 35.744L104.656 35.632C105.104 35.4267 105.478 35.324 105.776 35.324C106.374 35.324 106.887 35.744 107.316 36.584C107.559 37.088 107.68 37.5173 107.68 37.872C107.68 39.5333 105.692 40.364 101.716 40.364C100.335 40.364 99.1031 40.1307 98.0205 39.664C96.9565 39.1787 96.1258 38.544 95.5285 37.76C94.3525 36.248 93.7645 34.5587 93.7645 32.692C93.7645 30.34 94.5205 28.464 96.0325 27.064C97.5631 25.6453 99.4671 24.936 101.744 24.936C104.339 24.936 106.243 25.8507 107.456 27.68C108.091 28.6507 108.408 29.7147 108.408 30.872ZM102.5 31.684C103.21 31.684 103.564 31.3853 103.564 30.788C103.564 30.3587 103.396 30.0133 103.06 29.752C102.743 29.4907 102.276 29.36 101.66 29.36C101.063 29.36 100.466 29.612 99.8685 30.116C99.2711 30.6013 98.9725 31.124 98.9725 31.684H102.5ZM124.459 30.872C124.459 32.0107 124.17 32.86 123.591 33.42C123.031 33.9613 122.406 34.232 121.715 34.232H115.079C115.079 34.7547 115.387 35.1933 116.003 35.548C116.619 35.9027 117.235 36.08 117.851 36.08C118.934 36.08 119.783 35.968 120.399 35.744L120.707 35.632C121.155 35.4267 121.529 35.324 121.827 35.324C122.425 35.324 122.938 35.744 123.367 36.584C123.61 37.088 123.731 37.5173 123.731 37.872C123.731 39.5333 121.743 40.364 117.767 40.364C116.386 40.364 115.154 40.1307 114.071 39.664C113.007 39.1787 112.177 38.544 111.579 37.76C110.403 36.248 109.815 34.5587 109.815 32.692C109.815 30.34 110.571 28.464 112.083 27.064C113.614 25.6453 115.518 24.936 117.795 24.936C120.39 24.936 122.294 25.8507 123.507 27.68C124.142 28.6507 124.459 29.7147 124.459 30.872ZM118.551 31.684C119.261 31.684 119.615 31.3853 119.615 30.788C119.615 30.3587 119.447 30.0133 119.111 29.752C118.794 29.4907 118.327 29.36 117.711 29.36C117.114 29.36 116.517 29.612 115.919 30.116C115.322 30.6013 115.023 31.124 115.023 31.684H118.551ZM134.581 30.2L132.761 30.088V33.952C132.761 34.456 132.835 34.82 132.985 35.044C133.153 35.268 133.451 35.38 133.881 35.38C134.329 35.38 134.665 35.3987 134.889 35.436C135.131 35.4547 135.383 35.5387 135.645 35.688C136.074 35.9307 136.289 36.556 136.289 37.564C136.289 38.74 136.027 39.4587 135.505 39.72C135.225 39.8507 134.973 39.9347 134.749 39.972C134.543 39.9907 134.235 40 133.825 40C131.883 40 130.409 39.5613 129.401 38.684C128.393 37.8067 127.889 36.3227 127.889 34.232V30.088C127.534 30.144 127.151 30.172 126.741 30.172C126.33 30.172 125.985 30.0133 125.705 29.696C125.443 29.3787 125.313 28.8373 125.313 28.072C125.313 27.3067 125.359 26.756 125.453 26.42C125.546 26.0653 125.677 25.8133 125.845 25.664C126.143 25.4213 126.517 25.3 126.965 25.3L127.889 25.412V22.528C127.889 22.0987 127.898 21.7813 127.917 21.576C127.954 21.3707 128.047 21.1467 128.197 20.904C128.439 20.4373 129.158 20.204 130.353 20.204C131.622 20.204 132.378 20.5493 132.621 21.24C132.714 21.5387 132.761 22.0147 132.761 22.668V25.412C133.582 25.3373 134.198 25.3 134.609 25.3C135.038 25.3 135.355 25.3187 135.561 25.356C135.785 25.3747 136.037 25.4587 136.317 25.608C136.802 25.8507 137.045 26.5693 137.045 27.764C137.045 28.94 136.793 29.6587 136.289 29.92C136.009 30.0507 135.757 30.1347 135.533 30.172C135.327 30.1907 135.01 30.2 134.581 30.2ZM152.268 30.872C152.268 32.0107 151.978 32.86 151.4 33.42C150.84 33.9613 150.214 34.232 149.524 34.232H142.888C142.888 34.7547 143.196 35.1933 143.812 35.548C144.428 35.9027 145.044 36.08 145.66 36.08C146.742 36.08 147.592 35.968 148.208 35.744L148.516 35.632C148.964 35.4267 149.337 35.324 149.636 35.324C150.233 35.324 150.746 35.744 151.176 36.584C151.418 37.088 151.54 37.5173 151.54 37.872C151.54 39.5333 149.552 40.364 145.576 40.364C144.194 40.364 142.962 40.1307 141.88 39.664C140.816 39.1787 139.985 38.544 139.388 37.76C138.212 36.248 137.624 34.5587 137.624 32.692C137.624 30.34 138.38 28.464 139.892 27.064C141.422 25.6453 143.326 24.936 145.604 24.936C148.198 24.936 150.102 25.8507 151.316 27.68C151.95 28.6507 152.268 29.7147 152.268 30.872ZM146.36 31.684C147.069 31.684 147.424 31.3853 147.424 30.788C147.424 30.3587 147.256 30.0133 146.92 29.752C146.602 29.4907 146.136 29.36 145.52 29.36C144.922 29.36 144.325 29.612 143.728 30.116C143.13 30.6013 142.832 31.124 142.832 31.684H146.36ZM162.299 25.244C164.165 25.244 165.715 25.9627 166.947 27.4C168.197 28.8187 168.823 30.5547 168.823 32.608V37.536C168.823 37.9653 168.804 38.292 168.767 38.516C168.748 38.7213 168.673 38.9547 168.543 39.216C168.281 39.72 167.553 39.972 166.359 39.972C165.033 39.972 164.268 39.6267 164.063 38.936C163.951 38.6187 163.895 38.1427 163.895 37.508V32.58C163.895 31.8147 163.671 31.2173 163.223 30.788C162.793 30.3587 162.205 30.144 161.459 30.144C160.731 30.144 160.133 30.368 159.667 30.816C159.219 31.264 158.995 31.852 158.995 32.58V37.536C158.995 37.9653 158.976 38.292 158.939 38.516C158.92 38.7213 158.836 38.9547 158.687 39.216C158.444 39.72 157.725 39.972 156.531 39.972C155.355 39.972 154.636 39.72 154.375 39.216C154.244 38.936 154.16 38.6933 154.123 38.488C154.104 38.264 154.095 37.9373 154.095 37.508V27.596C154.095 27.1853 154.104 26.8773 154.123 26.672C154.16 26.448 154.253 26.2053 154.403 25.944C154.664 25.4773 155.383 25.244 156.559 25.244C157.697 25.244 158.397 25.4587 158.659 25.888C158.845 26.2053 158.939 26.588 158.939 27.036C159.013 26.9053 159.181 26.7187 159.443 26.476C159.704 26.2333 159.956 26.0373 160.199 25.888C160.833 25.4587 161.533 25.244 162.299 25.244ZM185.299 30.872C185.299 32.0107 185.01 32.86 184.431 33.42C183.871 33.9613 183.246 34.232 182.555 34.232H175.919C175.919 34.7547 176.227 35.1933 176.843 35.548C177.459 35.9027 178.075 36.08 178.691 36.08C179.774 36.08 180.623 35.968 181.239 35.744L181.547 35.632C181.995 35.4267 182.368 35.324 182.667 35.324C183.264 35.324 183.778 35.744 184.207 36.584C184.45 37.088 184.571 37.5173 184.571 37.872C184.571 39.5333 182.583 40.364 178.607 40.364C177.226 40.364 175.994 40.1307 174.911 39.664C173.847 39.1787 173.016 38.544 172.419 37.76C171.243 36.248 170.655 34.5587 170.655 32.692C170.655 30.34 171.411 28.464 172.923 27.064C174.454 25.6453 176.358 24.936 178.635 24.936C181.23 24.936 183.134 25.8507 184.347 27.68C184.982 28.6507 185.299 29.7147 185.299 30.872ZM179.391 31.684C180.1 31.684 180.455 31.3853 180.455 30.788C180.455 30.3587 180.287 30.0133 179.951 29.752C179.634 29.4907 179.167 29.36 178.551 29.36C177.954 29.36 177.356 29.612 176.759 30.116C176.162 30.6013 175.863 31.124 175.863 31.684H179.391ZM197.01 19.112C197.159 18.832 197.411 18.636 197.766 18.524C198.121 18.412 198.587 18.356 199.166 18.356C199.763 18.356 200.239 18.412 200.594 18.524C200.949 18.636 201.191 18.832 201.322 19.112C201.471 19.392 201.555 19.644 201.574 19.868C201.611 20.0733 201.63 20.3907 201.63 20.82V37.536C201.63 37.9653 201.611 38.292 201.574 38.516C201.555 38.7213 201.471 38.9547 201.322 39.216C201.042 39.72 200.249 39.972 198.942 39.972C197.654 39.972 196.935 39.5147 196.786 38.6C196.002 39.496 194.91 39.944 193.51 39.944C191.83 39.944 190.299 39.216 188.918 37.76C187.537 36.2853 186.846 34.5773 186.846 32.636C186.846 30.676 187.537 28.9587 188.918 27.484C190.318 26.0093 191.849 25.272 193.51 25.272C194.891 25.272 195.965 25.7387 196.73 26.672V20.792C196.73 20.3627 196.739 20.0453 196.758 19.84C196.795 19.616 196.879 19.3733 197.01 19.112ZM192.474 34.316C192.959 34.82 193.547 35.072 194.238 35.072C194.929 35.072 195.498 34.82 195.946 34.316C196.413 33.812 196.646 33.2613 196.646 32.664C196.646 32.048 196.422 31.4787 195.974 30.956C195.545 30.4333 194.957 30.172 194.21 30.172C193.463 30.172 192.866 30.4333 192.418 30.956C191.97 31.46 191.746 32.02 191.746 32.636C191.746 33.252 191.989 33.812 192.474 34.316ZM90.943 57.132C91.1696 56.724 91.4983 56.452 91.929 56.316C92.3596 56.18 92.8923 56.112 93.527 56.112C94.1843 56.112 94.7056 56.1687 95.091 56.282C95.499 56.3953 95.7936 56.5313 95.975 56.69C96.179 56.8487 96.3263 57.0867 96.417 57.404C96.553 57.7667 96.621 58.3447 96.621 59.138V78.008C96.621 78.552 96.5983 78.9487 96.553 79.198C96.5303 79.4473 96.4283 79.742 96.247 80.082C95.9296 80.694 95.0456 81 93.595 81C92.711 81 92.099 80.932 91.759 80.796C91.419 80.66 91.1356 80.4447 90.909 80.15C85.809 73.35 82.4543 68.9073 80.845 66.822V78.008C80.845 78.552 80.8223 78.9487 80.777 79.198C80.7543 79.4473 80.6523 79.742 80.471 80.082C80.1536 80.694 79.2696 81 77.819 81C76.4136 81 75.5523 80.694 75.235 80.082C75.0536 79.742 74.9403 79.436 74.895 79.164C74.8723 78.892 74.861 78.4953 74.861 77.974V59.002C74.861 58.1407 74.963 57.5173 75.167 57.132C75.3936 56.724 75.7223 56.452 76.153 56.316C76.5836 56.18 77.139 56.112 77.819 56.112C78.499 56.112 79.0316 56.18 79.417 56.316C79.825 56.4293 80.1083 56.5653 80.267 56.724C80.3576 56.792 80.6183 57.0867 81.049 57.608C85.8316 64.1133 89.0276 68.4087 90.637 70.494V59.002C90.637 58.1407 90.739 57.5173 90.943 57.132ZM107.288 80.932C104.998 80.932 103.094 80.0707 101.576 78.348C100.08 76.6027 99.3317 74.4833 99.3317 71.99V66.04C99.3317 65.496 99.343 65.0993 99.3657 64.85C99.411 64.6007 99.513 64.306 99.6717 63.966C99.989 63.354 100.873 63.048 102.324 63.048C103.91 63.048 104.84 63.4787 105.112 64.34C105.248 64.7027 105.316 65.2807 105.316 66.074V72.024C105.316 72.9533 105.576 73.6787 106.098 74.2C106.642 74.7213 107.356 74.982 108.24 74.982C109.146 74.982 109.872 74.71 110.416 74.166C110.982 73.622 111.266 72.908 111.266 72.024V66.006C111.266 65.4847 111.277 65.0993 111.3 64.85C111.345 64.578 111.458 64.272 111.64 63.932C111.934 63.3427 112.807 63.048 114.258 63.048C115.686 63.048 116.558 63.354 116.876 63.966C117.034 64.306 117.125 64.612 117.148 64.884C117.193 65.1333 117.216 65.5187 117.216 66.04V78.076C117.216 78.5747 117.193 78.96 117.148 79.232C117.125 79.4813 117.023 79.7647 116.842 80.082C116.502 80.6713 115.629 80.966 114.224 80.966C112.841 80.966 111.991 80.694 111.674 80.15C111.447 79.7647 111.334 79.3 111.334 78.756C111.243 78.9147 111.039 79.1413 110.722 79.436C110.404 79.7307 110.098 79.98 109.804 80.184C109.033 80.6827 108.194 80.932 107.288 80.932ZM130.355 69.1L128.145 68.964V73.656C128.145 74.268 128.235 74.71 128.417 74.982C128.621 75.254 128.983 75.39 129.505 75.39C130.049 75.39 130.457 75.4127 130.729 75.458C131.023 75.4807 131.329 75.5827 131.647 75.764C132.168 76.0587 132.429 76.818 132.429 78.042C132.429 79.47 132.111 80.3427 131.477 80.66C131.137 80.8187 130.831 80.9207 130.559 80.966C130.309 80.9887 129.935 81 129.437 81C127.079 81 125.289 80.4673 124.065 79.402C122.841 78.3367 122.229 76.5347 122.229 73.996V68.964C121.798 69.032 121.333 69.066 120.835 69.066C120.336 69.066 119.917 68.8733 119.577 68.488C119.259 68.1027 119.101 67.4453 119.101 66.516C119.101 65.5867 119.157 64.918 119.271 64.51C119.384 64.0793 119.543 63.7733 119.747 63.592C120.109 63.2973 120.563 63.15 121.107 63.15L122.229 63.286V59.784C122.229 59.2627 122.24 58.8773 122.263 58.628C122.308 58.3787 122.421 58.1067 122.603 57.812C122.897 57.2453 123.77 56.962 125.221 56.962C126.762 56.962 127.68 57.3813 127.975 58.22C128.088 58.5827 128.145 59.1607 128.145 59.954V63.286C129.142 63.1953 129.89 63.15 130.389 63.15C130.91 63.15 131.295 63.1727 131.545 63.218C131.817 63.2407 132.123 63.3427 132.463 63.524C133.052 63.8187 133.347 64.6913 133.347 66.142C133.347 67.57 133.041 68.4427 132.429 68.76C132.089 68.9187 131.783 69.0207 131.511 69.066C131.261 69.0887 130.876 69.1 130.355 69.1ZM135.36 79.402C134.93 79.13 134.714 78.6993 134.714 78.11C134.714 77.5207 135.145 76.6253 136.006 75.424C136.256 75.0387 136.652 74.846 137.196 74.846C137.763 74.846 138.522 75.1293 139.474 75.696C140.426 76.24 141.288 76.512 142.058 76.512C143.441 76.512 144.132 76.24 144.132 75.696C144.132 75.2653 143.373 74.948 141.854 74.744C140.426 74.54 139.01 74.0073 137.604 73.146C136.947 72.738 136.403 72.1033 135.972 71.242C135.542 70.358 135.326 69.3153 135.326 68.114C135.326 64.5327 137.786 62.742 142.704 62.742C144.314 62.742 145.968 63.1273 147.668 63.898C148.462 64.2607 148.858 64.714 148.858 65.258C148.858 65.802 148.609 66.4707 148.11 67.264C147.612 68.0573 147.102 68.454 146.58 68.454C146.308 68.454 145.798 68.284 145.05 67.944C144.325 67.604 143.532 67.434 142.67 67.434C141.333 67.434 140.664 67.6833 140.664 68.182C140.664 68.862 141.435 69.304 142.976 69.508C144.472 69.6667 145.923 70.0973 147.328 70.8C147.986 71.1173 148.53 71.6727 148.96 72.466C149.414 73.2367 149.64 74.2113 149.64 75.39C149.64 76.5687 149.414 77.5773 148.96 78.416C148.53 79.232 147.918 79.844 147.124 80.252C145.674 80.9547 143.849 81.306 141.65 81.306C139.474 81.306 137.378 80.6713 135.36 79.402Z" fill="#DBB780"/>
<path d="M97.3975 175.888C97.4233 177.774 97.0492 179.647 96.297 181.397C95.5448 183.147 94.4294 184.739 93.0155 186.082C91.6016 187.424 89.9174 188.49 88.0605 189.218C86.2037 189.946 84.2112 190.32 82.1987 190.32C80.1863 190.32 78.1938 189.946 76.337 189.218C74.4801 188.49 72.7959 187.424 71.382 186.082C69.9681 184.739 68.8527 183.147 68.1005 181.397C67.3483 179.647 66.9742 177.774 67 175.888C66.9997 170.911 68.2356 166.002 70.6096 161.55C72.9836 157.099 76.4305 153.226 80.6775 150.24L82.1975 149.171L83.7175 150.24C87.4442 152.858 90.5605 156.164 92.875 159.952C93.195 160.475 93.5 161.009 93.7875 161.549C96.1617 166.001 97.3977 170.91 97.3975 175.888V175.888Z" fill="#92563A"/>
<path d="M97.3975 175.888C97.3928 179.52 95.9083 183.014 93.2474 185.655C90.5864 188.296 86.9501 189.885 83.0816 190.096C79.2131 190.307 75.4046 189.126 72.4345 186.792C69.4645 184.459 67.5572 181.15 67.1025 177.542C76.71 175.018 85.915 169.644 92.875 159.952C93.195 160.475 93.5 161.009 93.7875 161.549C96.1617 166.001 97.3977 170.91 97.3975 175.888V175.888Z" fill="#875036"/>
<path d="M76.5992 168.857C76.5992 167.821 75.7038 166.982 74.5992 166.982C73.4947 166.982 72.5992 167.821 72.5992 168.857V177.574C72.5992 178.61 73.4947 179.449 74.5992 179.449C75.7038 179.449 76.5992 178.61 76.5992 177.574V168.857Z" fill="#78462F"/>
<path d="M84.1985 159.951C84.1985 158.916 83.3031 158.076 82.1985 158.076C81.0939 158.076 80.1985 158.916 80.1985 159.951V182.918C80.1985 183.953 81.0939 184.793 82.1985 184.793C83.3031 184.793 84.1985 183.953 84.1985 182.918V159.951Z" fill="#78462F"/>
<path d="M91.798 168.857C91.798 167.821 90.9026 166.982 89.798 166.982C88.6934 166.982 87.798 167.821 87.798 168.857V177.574C87.798 178.61 88.6934 179.449 89.798 179.449C90.9026 179.449 91.798 178.61 91.798 177.574V168.857Z" fill="#78462F"/>
<path d="M169 165.42C169 169.63 168.115 173.799 166.396 177.688C164.678 181.577 162.158 185.111 158.983 188.087C157.122 189.83 154.811 191.091 152.275 191.746C149.739 192.402 147.066 192.429 144.515 191.825C141.965 191.221 139.625 190.008 137.725 188.302C135.825 186.597 134.43 184.459 133.675 182.096C133.252 180.771 133.037 179.396 133.038 178.013C133.038 174.234 134.64 170.61 137.49 167.938C141.244 164.418 145.82 161.766 150.857 160.192C155.893 158.618 161.252 158.165 166.508 158.87L168.388 159.12L168.655 160.883C168.795 161.806 168.893 162.729 168.948 163.651C168.983 164.241 169 164.831 169 165.42V165.42Z" fill="#92563A"/>
<path d="M169 165.42C169 169.63 168.115 173.799 166.396 177.688C164.678 181.577 162.158 185.111 158.982 188.087C157.122 189.83 154.811 191.091 152.275 191.747C149.739 192.402 147.066 192.429 144.515 191.825C141.965 191.221 139.625 190.008 137.725 188.302C135.825 186.597 134.429 184.459 133.675 182.096C146.255 179.258 158.533 173.525 168.948 163.651C168.983 164.241 169 164.831 169 165.42V165.42Z" fill="#875036"/>
<path d="M146.732 166.674L140.157 172.837C139.376 173.569 139.376 174.756 140.157 175.488C140.938 176.22 142.204 176.22 142.985 175.488L149.56 169.325C150.341 168.593 150.341 167.406 149.56 166.674C148.779 165.941 147.513 165.941 146.732 166.674Z" fill="#78462F"/>
<path d="M158.82 165.415L141.501 181.652C140.72 182.384 140.72 183.571 141.501 184.303C142.282 185.035 143.548 185.035 144.329 184.303L161.648 168.066C162.429 167.334 162.429 166.147 161.648 165.415C160.867 164.683 159.601 164.683 158.82 165.415Z" fill="#78462F"/>
<path d="M157.477 176.748L150.902 182.912C150.121 183.644 150.121 184.831 150.902 185.563C151.683 186.295 152.949 186.295 153.73 185.563L160.305 179.399C161.086 178.667 161.086 177.48 160.305 176.748C159.524 176.016 158.258 176.016 157.477 176.748Z" fill="#78462F"/>
<path d="M170.963 133.454C170.962 137.233 169.36 140.857 166.51 143.53C162.756 147.05 158.18 149.702 153.143 151.276C148.107 152.849 142.748 153.302 137.493 152.598L135.613 152.347L135.345 150.584C135.116 149.081 135.001 147.565 135 146.047C135 145.766 135.005 145.487 135.012 145.208C135.242 136.999 138.823 129.186 145.018 123.381C147.797 120.774 151.545 119.279 155.475 119.209C159.405 119.139 163.212 120.499 166.095 123.003C166.235 123.127 166.375 123.254 166.51 123.381C167.922 124.703 169.041 126.273 169.805 128.002C170.569 129.73 170.963 131.583 170.963 133.454V133.454Z" fill="#92563A"/>
<path d="M170.963 133.454C170.962 137.233 169.36 140.857 166.51 143.53C162.756 147.05 158.18 149.702 153.143 151.276C148.107 152.849 142.748 153.302 137.493 152.598L135.613 152.347L135.345 150.584C135.116 149.081 135.001 147.565 135 146.047C135 145.766 135.005 145.487 135.012 145.208C146.437 140.947 157.215 133.881 166.095 123.003C166.235 123.127 166.375 123.254 166.51 123.381C167.922 124.703 169.041 126.273 169.805 128.002C170.569 129.73 170.963 131.583 170.963 133.454V133.454Z" fill="#875036"/>
<path d="M160.976 135.976L154.402 142.139C153.621 142.871 153.621 144.058 154.402 144.79C155.183 145.522 156.449 145.522 157.23 144.79L163.804 138.627C164.585 137.895 164.585 136.708 163.804 135.976C163.023 135.244 161.757 135.244 160.976 135.976Z" fill="#78462F"/>
<path d="M159.633 127.161L142.313 143.398C141.532 144.13 141.532 145.317 142.313 146.049C143.094 146.781 144.36 146.781 145.141 146.049L162.461 129.812C163.242 129.08 163.242 127.893 162.461 127.161C161.68 126.429 160.414 126.429 159.633 127.161Z" fill="#78462F"/>
<path d="M150.231 125.901L143.657 132.065C142.876 132.797 142.876 133.984 143.657 134.716C144.438 135.448 145.704 135.448 146.485 134.716L153.059 128.553C153.84 127.82 153.84 126.633 153.059 125.901C152.278 125.169 151.012 125.169 150.231 125.901Z" fill="#78462F"/>
<path d="M99.2795 128.303C101.71 129.316 104.34 129.839 107 129.839C109.66 129.839 112.29 129.316 114.721 128.303C115.834 127.839 117.053 127.643 118.267 127.734C119.481 127.824 120.652 128.197 121.673 128.819C122.694 129.441 123.534 130.293 124.115 131.297C124.696 132.3 125 133.424 125 134.566C125 135.892 124.59 137.189 123.819 138.3C123.049 139.412 121.951 140.29 120.659 140.829C116.359 142.62 111.705 143.546 107 143.546C102.295 143.546 97.6414 142.62 93.3415 140.829C92.0493 140.29 90.9514 139.412 90.1808 138.3C89.4102 137.189 89.0001 135.892 89 134.566C89 133.424 89.3043 132.3 89.8853 131.297C90.4663 130.293 91.3056 129.441 92.3269 128.819C93.3481 128.197 94.5191 127.824 95.7333 127.734C96.9475 127.643 98.1665 127.839 99.2795 128.303V128.303Z" fill="#FFB531"/>
<path d="M87.1668 123.093C84.8273 124.279 82.7793 125.912 81.1553 127.887C79.5314 129.862 78.3675 132.134 77.739 134.557C77.4513 135.667 76.8725 136.691 76.055 137.538C75.2376 138.385 74.2074 139.026 73.0582 139.405C71.909 139.783 70.6771 139.886 69.4745 139.705C68.2719 139.524 67.1367 139.064 66.172 138.366C65.0521 137.557 64.2067 136.46 63.7381 135.21C63.2695 133.959 63.1979 132.607 63.532 131.319C64.644 127.033 66.7031 123.013 69.5761 119.519C72.4492 116.026 76.0723 113.136 80.2113 111.037C81.4551 110.407 82.8674 110.128 84.277 110.234C85.6865 110.341 87.0328 110.829 88.1528 111.638C89.1171 112.335 89.8804 113.247 90.3733 114.291C90.8661 115.335 91.073 116.478 90.975 117.616C90.8771 118.754 90.4774 119.851 89.8124 120.808C89.1473 121.764 88.2379 122.55 87.1668 123.093V123.093Z" fill="#FFB531"/>
<path d="M105.279 190.178C107.71 191.191 110.34 191.714 113 191.714C115.66 191.714 118.29 191.191 120.72 190.178C121.834 189.714 123.053 189.518 124.267 189.609C125.481 189.699 126.652 190.072 127.673 190.694C128.694 191.316 129.534 192.168 130.115 193.172C130.696 194.175 131 195.299 131 196.441C131 197.767 130.59 199.064 129.819 200.175C129.049 201.287 127.951 202.165 126.659 202.704C122.359 204.495 117.705 205.421 113 205.421C108.295 205.421 103.641 204.495 99.3415 202.704C98.0493 202.165 96.9514 201.287 96.1808 200.175C95.4102 199.064 95.0001 197.767 95 196.441C95 195.299 95.3043 194.175 95.8853 193.172C96.4663 192.168 97.3056 191.316 98.3269 190.694C99.3481 190.072 100.519 189.699 101.733 189.609C102.947 189.518 104.166 189.714 105.279 190.178V190.178Z" fill="#FFB531"/>
<path d="M105.542 119.576C103.807 119.576 102.143 118.93 100.916 117.779C99.6893 116.629 99 115.069 99 113.442V105.556C99 103.697 99.7878 101.914 101.19 100.599C102.592 99.2847 104.494 98.5462 106.477 98.5462L112.085 105.556V113.442C112.085 114.248 111.916 115.045 111.587 115.789C111.258 116.534 110.776 117.21 110.169 117.779C109.561 118.349 108.84 118.801 108.046 119.109C107.252 119.417 106.402 119.576 105.542 119.576V119.576Z" fill="#92563A"/>
<path d="M122.391 181.536C121.164 182.686 119.5 183.333 117.764 183.333C116.029 183.333 114.365 182.686 113.138 181.536L107.19 175.96C106.496 175.309 105.945 174.537 105.569 173.686C105.193 172.835 105 171.924 105 171.003C105 170.083 105.193 169.171 105.569 168.32C105.945 167.47 106.496 166.697 107.19 166.046L116.442 167.285L122.391 172.862C122.998 173.431 123.48 174.108 123.809 174.852C124.138 175.596 124.307 176.393 124.307 177.199C124.307 178.004 124.138 178.802 123.809 179.546C123.48 180.29 122.998 180.966 122.391 181.536V181.536Z" fill="#92563A"/>
<path d="M124.405 99.6513L120.163 103.628C118.601 105.092 118.601 107.466 120.163 108.931C121.725 110.395 124.257 110.395 125.819 108.931L130.061 104.954C131.623 103.49 131.623 101.115 130.061 99.6513C128.499 98.187 125.967 98.187 124.405 99.6513Z" fill="#4D5E78"/>
<path d="M109 151.046H103C100.791 151.046 99 152.725 99 154.796C99 156.867 100.791 158.546 103 158.546H109C111.209 158.546 113 156.867 113 154.796C113 152.725 111.209 151.046 109 151.046Z" fill="#4D5E78"/>
<path d="M150.207 106.706L145.227 103.568C143.393 102.412 140.907 102.869 139.675 104.588C138.442 106.307 138.929 108.637 140.763 109.793L145.743 112.931C147.576 114.087 150.062 113.63 151.295 111.911C152.527 110.192 152.04 107.862 150.207 106.706Z" fill="#4D5E78"/>
<path d="M129 160.421V154.796C129 152.725 127.209 151.046 125 151.046C122.791 151.046 121 152.725 121 154.796V160.421C121 162.492 122.791 164.171 125 164.171C127.209 164.171 129 162.492 129 160.421Z" fill="#7EB457"/>
<path d="M59 147.296V152.921C59 154.992 60.7909 156.671 63 156.671C65.2091 156.671 67 154.992 67 152.921V147.296C67 145.225 65.2091 143.546 63 143.546C60.7909 143.546 59 145.225 59 147.296Z" fill="#7EB457"/>
<path d="M130.402 114.65L126.16 118.627C124.599 120.091 124.599 122.465 126.16 123.93C127.722 125.394 130.255 125.394 131.816 123.93L136.058 119.953C137.62 118.489 137.62 116.115 136.058 114.65C134.497 113.186 131.964 113.186 130.402 114.65Z" fill="#7EB457"/>
</svg>
