<svg width="225" height="225" viewBox="0 0 225 225" fill="none" xmlns="http://www.w3.org/2000/svg">
<rect width="225" height="225" rx="25" fill="white"/>
<path d="M30.577 28.74H35.857C36.937 28.78 37.597 29.06 37.837 29.58C38.037 29.96 38.137 30.52 38.137 31.26V37.86C38.137 38.5 37.857 39.11 37.297 39.69C35.617 41.43 33.097 42.3 29.737 42.3C26.757 42.3 24.167 41.18 21.967 38.94C19.767 36.68 18.667 33.96 18.667 30.78C18.667 27.6 19.787 24.95 22.027 22.83C24.267 20.69 26.907 19.62 29.947 19.62C32.307 19.62 34.537 20.4 36.637 21.96C37.177 22.36 37.447 22.81 37.447 23.31C37.447 23.79 37.217 24.35 36.757 24.99C35.977 26.05 35.267 26.58 34.627 26.58C34.247 26.58 33.637 26.31 32.797 25.77C31.957 25.21 30.957 24.93 29.797 24.93C28.277 24.93 26.927 25.47 25.747 26.55C24.567 27.61 23.977 29.01 23.977 30.75C23.977 32.47 24.577 33.94 25.777 35.16C26.977 36.36 28.337 36.96 29.857 36.96C30.957 36.96 31.947 36.78 32.827 36.42V33.15H30.457C29.837 33.15 29.397 33.07 29.137 32.91C28.877 32.75 28.707 32.52 28.627 32.22C28.547 31.9 28.507 31.48 28.507 30.96C28.507 30.42 28.547 29.99 28.627 29.67C28.727 29.35 28.897 29.13 29.137 29.01C29.497 28.83 29.977 28.74 30.577 28.74ZM51.273 26.37C51.653 26.49 51.963 26.7 52.203 27C52.463 27.28 52.593 27.74 52.593 28.38C52.593 29.02 52.403 29.72 52.023 30.48C51.643 31.24 51.093 31.62 50.373 31.62C50.013 31.62 49.663 31.54 49.323 31.38C49.003 31.22 48.573 31.14 48.033 31.14C47.493 31.14 46.983 31.33 46.503 31.71C46.043 32.09 45.813 32.55 45.813 33.09V39.39C45.813 39.85 45.793 40.2 45.753 40.44C45.733 40.66 45.643 40.92 45.483 41.22C45.183 41.74 44.403 42 43.143 42C42.183 42 41.493 41.83 41.073 41.49C40.753 41.21 40.573 40.78 40.533 40.2C40.533 40 40.533 39.71 40.533 39.33V28.8C40.533 28.34 40.543 28 40.563 27.78C40.603 27.54 40.693 27.28 40.833 27C41.113 26.46 41.893 26.19 43.173 26.19C44.373 26.19 45.123 26.42 45.423 26.88C45.643 27.2 45.753 27.53 45.753 27.87C45.853 27.73 45.993 27.56 46.173 27.36C46.373 27.16 46.783 26.89 47.403 26.55C48.023 26.21 48.563 26.04 49.023 26.04C49.503 26.04 49.903 26.07 50.223 26.13C50.543 26.17 50.893 26.25 51.273 26.37ZM68.5757 32.22C68.5757 33.44 68.2657 34.35 67.6457 34.95C67.0457 35.53 66.3757 35.82 65.6357 35.82H58.5257C58.5257 36.38 58.8557 36.85 59.5157 37.23C60.1757 37.61 60.8357 37.8 61.4957 37.8C62.6557 37.8 63.5657 37.68 64.2257 37.44L64.5557 37.32C65.0357 37.1 65.4357 36.99 65.7557 36.99C66.3957 36.99 66.9457 37.44 67.4057 38.34C67.6657 38.88 67.7957 39.34 67.7957 39.72C67.7957 41.5 65.6657 42.39 61.4057 42.39C59.9257 42.39 58.6057 42.14 57.4457 41.64C56.3057 41.12 55.4157 40.44 54.7757 39.6C53.5157 37.98 52.8857 36.17 52.8857 34.17C52.8857 31.65 53.6957 29.64 55.3157 28.14C56.9557 26.62 58.9957 25.86 61.4357 25.86C64.2157 25.86 66.2557 26.84 67.5557 28.8C68.2357 29.84 68.5757 30.98 68.5757 32.22ZM62.2457 33.09C63.0057 33.09 63.3857 32.77 63.3857 32.13C63.3857 31.67 63.2057 31.3 62.8457 31.02C62.5057 30.74 62.0057 30.6 61.3457 30.6C60.7057 30.6 60.0657 30.87 59.4257 31.41C58.7857 31.93 58.4657 32.49 58.4657 33.09H62.2457ZM85.773 32.22C85.773 33.44 85.463 34.35 84.843 34.95C84.243 35.53 83.573 35.82 82.833 35.82H75.723C75.723 36.38 76.053 36.85 76.713 37.23C77.373 37.61 78.033 37.8 78.693 37.8C79.853 37.8 80.763 37.68 81.423 37.44L81.753 37.32C82.233 37.1 82.633 36.99 82.953 36.99C83.593 36.99 84.143 37.44 84.603 38.34C84.863 38.88 84.993 39.34 84.993 39.72C84.993 41.5 82.863 42.39 78.603 42.39C77.123 42.39 75.803 42.14 74.643 41.64C73.503 41.12 72.613 40.44 71.973 39.6C70.713 37.98 70.083 36.17 70.083 34.17C70.083 31.65 70.893 29.64 72.513 28.14C74.153 26.62 76.193 25.86 78.633 25.86C81.413 25.86 83.453 26.84 84.753 28.8C85.433 29.84 85.773 30.98 85.773 32.22ZM79.443 33.09C80.203 33.09 80.583 32.77 80.583 32.13C80.583 31.67 80.403 31.3 80.043 31.02C79.703 30.74 79.203 30.6 78.543 30.6C77.903 30.6 77.263 30.87 76.623 31.41C75.983 31.93 75.663 32.49 75.663 33.09H79.443ZM97.0303 34.08L101.02 37.38C101.52 37.8 101.83 38.12 101.95 38.34C102.09 38.56 102.16 38.77 102.16 38.97C102.16 39.45 101.85 40.1 101.23 40.92C100.55 41.76 99.9503 42.18 99.4303 42.18C98.9903 42.18 98.3803 41.89 97.6003 41.31L97.3003 41.1C96.8403 40.72 96.1303 40.06 95.1703 39.12C94.2103 38.16 93.4803 37.48 92.9803 37.08V39.39C92.9803 39.85 92.9603 40.2 92.9203 40.44C92.9003 40.66 92.8103 40.92 92.6503 41.22C92.3903 41.74 91.6203 42 90.3403 42C89.0803 42 88.3103 41.73 88.0303 41.19C87.8903 40.89 87.8003 40.63 87.7603 40.41C87.7403 40.17 87.7303 39.82 87.7303 39.36V21.39C87.7303 20.93 87.7403 20.59 87.7603 20.37C87.8003 20.13 87.8903 19.86 88.0303 19.56C88.3103 19.02 89.0903 18.75 90.3703 18.75C91.3303 18.75 92.0103 18.92 92.4103 19.26C92.7503 19.54 92.9303 19.98 92.9503 20.58C92.9703 20.76 92.9803 21.04 92.9803 21.42V30.93C93.3403 30.63 93.8803 30.12 94.6003 29.4C95.3403 28.68 95.8903 28.17 96.2503 27.87L96.6103 27.63C97.3103 27.09 97.9103 26.82 98.4103 26.82C98.9103 26.82 99.4803 27.23 100.12 28.05C100.78 28.85 101.11 29.48 101.11 29.94C101.11 30.4 100.74 30.94 100 31.56L97.0303 34.08ZM128.862 20.43C129.842 21.11 130.332 21.77 130.332 22.41C130.332 22.79 130.102 23.32 129.642 24L123.162 33.69V39.42C123.162 39.88 123.142 40.23 123.102 40.47C123.082 40.69 122.992 40.95 122.832 41.25C122.672 41.55 122.402 41.76 122.022 41.88C121.642 42 121.132 42.06 120.492 42.06C119.852 42.06 119.342 42 118.962 41.88C118.582 41.76 118.312 41.55 118.152 41.25C117.992 40.93 117.892 40.66 117.852 40.44C117.832 40.2 117.822 39.84 117.822 39.36V33.69L111.342 24C110.882 23.32 110.652 22.79 110.652 22.41C110.652 21.77 111.092 21.16 111.972 20.58C112.852 19.98 113.482 19.68 113.862 19.68C114.242 19.68 114.542 19.76 114.762 19.92C115.102 20.14 115.462 20.55 115.842 21.15L120.492 28.59L125.142 21.15C125.522 20.55 125.852 20.16 126.132 19.98C126.412 19.78 126.732 19.68 127.092 19.68C127.472 19.68 128.062 19.93 128.862 20.43ZM127.915 34.11C127.915 31.71 128.755 29.73 130.435 28.17C132.115 26.61 134.035 25.83 136.195 25.83C138.355 25.83 140.265 26.61 141.925 28.17C143.585 29.71 144.415 31.68 144.415 34.08C144.415 35.74 143.985 37.22 143.125 38.52C142.265 39.8 141.215 40.75 139.975 41.37C138.755 41.97 137.485 42.27 136.165 42.27C134.845 42.27 133.565 41.95 132.325 41.31C131.085 40.65 130.035 39.69 129.175 38.43C128.335 37.15 127.915 35.71 127.915 34.11ZM134.185 36.27C134.825 36.75 135.475 36.99 136.135 36.99C136.795 36.99 137.455 36.74 138.115 36.24C138.775 35.74 139.105 35 139.105 34.02C139.105 33.04 138.795 32.31 138.175 31.83C137.555 31.35 136.885 31.11 136.165 31.11C135.445 31.11 134.775 31.36 134.155 31.86C133.535 32.36 133.225 33.1 133.225 34.08C133.225 35.04 133.545 35.77 134.185 36.27ZM156.373 40.02C155.613 41.02 154.403 41.52 152.743 41.52C151.083 41.52 149.523 40.76 148.063 39.24C146.623 37.7 145.903 35.91 145.903 33.87C145.903 31.83 146.633 30.04 148.093 28.5C149.553 26.96 151.153 26.19 152.893 26.19C153.573 26.19 154.193 26.32 154.753 26.58C155.313 26.82 155.693 27.05 155.893 27.27C156.113 27.47 156.283 27.66 156.403 27.84C156.463 27.28 156.663 26.86 157.003 26.58C157.363 26.28 157.933 26.13 158.713 26.13C159.493 26.13 160.063 26.19 160.423 26.31C160.783 26.43 161.033 26.64 161.173 26.94C161.333 27.22 161.423 27.47 161.443 27.69C161.483 27.91 161.503 28.25 161.503 28.71V41.13C161.503 43.43 160.703 45.28 159.103 46.68C157.503 48.1 155.703 48.81 153.703 48.81C152.183 48.81 150.733 48.44 149.353 47.7C147.973 46.96 147.283 46.29 147.283 45.69C147.283 44.91 147.583 44.22 148.183 43.62C148.563 43.2 148.853 42.91 149.053 42.75C149.273 42.59 149.523 42.51 149.803 42.51C150.083 42.51 150.373 42.63 150.673 42.87C151.633 43.61 152.673 43.98 153.793 43.98C154.553 43.98 155.173 43.68 155.653 43.08C156.133 42.48 156.373 41.76 156.373 40.92V40.02ZM151.033 33.9C151.033 34.54 151.283 35.12 151.783 35.64C152.303 36.16 152.923 36.42 153.643 36.42C154.383 36.42 154.993 36.16 155.473 35.64C155.953 35.1 156.193 34.52 156.193 33.9C156.193 33.26 155.963 32.67 155.503 32.13C155.043 31.57 154.423 31.29 153.643 31.29C152.863 31.29 152.233 31.56 151.753 32.1C151.273 32.64 151.033 33.24 151.033 33.9ZM170.922 41.94C168.902 41.94 167.222 41.18 165.882 39.66C164.562 38.12 163.902 36.25 163.902 34.05V28.8C163.902 28.32 163.912 27.97 163.932 27.75C163.972 27.53 164.062 27.27 164.202 26.97C164.482 26.43 165.262 26.16 166.542 26.16C167.942 26.16 168.762 26.54 169.002 27.3C169.122 27.62 169.182 28.13 169.182 28.83V34.08C169.182 34.9 169.412 35.54 169.872 36C170.352 36.46 170.982 36.69 171.762 36.69C172.562 36.69 173.202 36.45 173.682 35.97C174.182 35.49 174.432 34.86 174.432 34.08V28.77C174.432 28.31 174.442 27.97 174.462 27.75C174.502 27.51 174.602 27.24 174.762 26.94C175.022 26.42 175.792 26.16 177.072 26.16C178.332 26.16 179.102 26.43 179.382 26.97C179.522 27.27 179.602 27.54 179.622 27.78C179.662 28 179.682 28.34 179.682 28.8V39.42C179.682 39.86 179.662 40.2 179.622 40.44C179.602 40.66 179.512 40.91 179.352 41.19C179.052 41.71 178.282 41.97 177.042 41.97C175.822 41.97 175.072 41.73 174.792 41.25C174.592 40.91 174.492 40.5 174.492 40.02C174.412 40.16 174.232 40.36 173.952 40.62C173.672 40.88 173.402 41.1 173.142 41.28C172.462 41.72 171.722 41.94 170.922 41.94ZM192.836 26.37C193.216 26.49 193.526 26.7 193.766 27C194.026 27.28 194.156 27.74 194.156 28.38C194.156 29.02 193.966 29.72 193.586 30.48C193.206 31.24 192.656 31.62 191.936 31.62C191.576 31.62 191.226 31.54 190.886 31.38C190.566 31.22 190.136 31.14 189.596 31.14C189.056 31.14 188.546 31.33 188.066 31.71C187.606 32.09 187.376 32.55 187.376 33.09V39.39C187.376 39.85 187.356 40.2 187.316 40.44C187.296 40.66 187.206 40.92 187.046 41.22C186.746 41.74 185.966 42 184.706 42C183.746 42 183.056 41.83 182.636 41.49C182.316 41.21 182.136 40.78 182.096 40.2C182.096 40 182.096 39.71 182.096 39.33V28.8C182.096 28.34 182.106 28 182.126 27.78C182.166 27.54 182.256 27.28 182.396 27C182.676 26.46 183.456 26.19 184.736 26.19C185.936 26.19 186.686 26.42 186.986 26.88C187.206 27.2 187.316 27.53 187.316 27.87C187.416 27.73 187.556 27.56 187.736 27.36C187.936 27.16 188.346 26.89 188.966 26.55C189.586 26.21 190.126 26.04 190.586 26.04C191.066 26.04 191.466 26.07 191.786 26.13C192.106 26.17 192.456 26.25 192.836 26.37ZM204.986 31.5L203.036 31.38V35.52C203.036 36.06 203.116 36.45 203.276 36.69C203.456 36.93 203.776 37.05 204.236 37.05C204.716 37.05 205.076 37.07 205.316 37.11C205.576 37.13 205.846 37.22 206.126 37.38C206.586 37.64 206.816 38.31 206.816 39.39C206.816 40.65 206.536 41.42 205.976 41.7C205.676 41.84 205.406 41.93 205.166 41.97C204.946 41.99 204.616 42 204.176 42C202.096 42 200.516 41.53 199.436 40.59C198.356 39.65 197.816 38.06 197.816 35.82V31.38C197.436 31.44 197.026 31.47 196.586 31.47C196.146 31.47 195.776 31.3 195.476 30.96C195.196 30.62 195.056 30.04 195.056 29.22C195.056 28.4 195.106 27.81 195.206 27.45C195.306 27.07 195.446 26.8 195.626 26.64C195.946 26.38 196.346 26.25 196.826 26.25L197.816 26.37V23.28C197.816 22.82 197.826 22.48 197.846 22.26C197.886 22.04 197.986 21.8 198.146 21.54C198.406 21.04 199.176 20.79 200.456 20.79C201.816 20.79 202.626 21.16 202.886 21.9C202.986 22.22 203.036 22.73 203.036 23.43V26.37C203.916 26.29 204.576 26.25 205.016 26.25C205.476 26.25 205.816 26.27 206.036 26.31C206.276 26.33 206.546 26.42 206.846 26.58C207.366 26.84 207.626 27.61 207.626 28.89C207.626 30.15 207.356 30.92 206.816 31.2C206.516 31.34 206.246 31.43 206.006 31.47C205.786 31.49 205.446 31.5 204.986 31.5ZM33.5852 58.448C34.6092 58.896 35.1212 59.448 35.1212 60.104C35.1212 60.376 34.9932 60.816 34.7372 61.424C34.4812 62.016 34.2652 62.536 34.0892 62.984L31.4492 69.416C31.2092 70.12 30.8092 70.616 30.2492 70.904C30.0092 71.016 29.7052 71.072 29.3372 71.072C28.9692 71.072 28.6092 70.936 28.2572 70.664C27.9212 70.376 27.6972 70.088 27.5852 69.8L27.3932 69.392C27.2652 69.072 26.7932 67.824 25.9772 65.648C25.8172 66.032 25.5772 66.664 25.2572 67.544C24.9532 68.408 24.7532 68.952 24.6572 69.176C24.5772 69.384 24.5212 69.528 24.4892 69.608C24.4732 69.672 24.4092 69.8 24.2972 69.992C24.1852 70.184 24.0572 70.352 23.9132 70.496C23.5292 70.88 23.0892 71.072 22.5932 71.072C22.0972 71.072 21.6812 70.936 21.3452 70.664C21.0092 70.376 20.7852 70.088 20.6732 69.8L17.0492 60.968C16.8892 60.488 16.8092 60.176 16.8092 60.032C16.8092 59.392 17.2652 58.888 18.1772 58.52C18.6892 58.312 19.1052 58.208 19.4252 58.208C19.7452 58.208 20.0012 58.28 20.1932 58.424C20.4012 58.552 20.5452 58.688 20.6252 58.832C20.7052 58.96 20.7692 59.096 20.8172 59.24C21.0892 59.88 21.6572 61.384 22.5212 63.752L23.9372 59.864C24.0332 59.544 24.2092 59.264 24.4652 59.024C24.9292 58.56 25.4012 58.328 25.8812 58.328C26.3612 58.328 26.7692 58.456 27.1052 58.712C27.4572 58.968 27.6972 59.224 27.8252 59.48L28.0172 59.888C28.8172 62.128 29.2892 63.408 29.4332 63.728L30.8972 59.744C31.2812 58.72 31.8572 58.208 32.6252 58.208C32.9292 58.208 33.2492 58.288 33.5852 58.448ZM39.7045 71.192C39.5765 71.464 39.4725 71.664 39.3925 71.792C39.3285 71.92 39.2085 72.04 39.0325 72.152C38.8725 72.28 38.6565 72.344 38.3845 72.344C38.1125 72.344 37.7125 72.224 37.1845 71.984C36.6565 71.744 36.2965 71.528 36.1045 71.336C35.9285 71.16 35.8405 70.96 35.8405 70.736C35.8405 70.512 35.9365 70.112 36.1285 69.536L43.8565 53.384C44.1605 52.776 44.4325 52.424 44.6725 52.328C44.8005 52.264 44.9845 52.232 45.2245 52.232C45.4805 52.232 45.8885 52.36 46.4485 52.616C47.3125 53.032 47.7445 53.488 47.7445 53.984C47.7445 54.192 47.6325 54.592 47.4085 55.184L39.7045 71.192ZM59.2716 60.032C60.0236 58.896 60.9276 58.328 61.9836 58.328C63.6156 58.328 64.8316 59.024 65.6316 60.416C65.8076 60.176 66.0156 59.928 66.2556 59.672C66.5116 59.4 66.9116 59.112 67.4556 58.808C67.9996 58.488 68.5596 58.328 69.1356 58.328C70.4156 58.328 71.4876 58.824 72.3516 59.816C73.2156 60.792 73.6476 62.416 73.6476 64.688V68.888C73.6476 69.256 73.6316 69.536 73.5996 69.728C73.5836 69.904 73.5116 70.112 73.3836 70.352C73.1756 70.784 72.5596 71 71.5356 71C70.5276 71 69.9116 70.776 69.6876 70.328C69.5756 70.088 69.5036 69.88 69.4716 69.704C69.4556 69.512 69.4476 69.232 69.4476 68.864V64.664C69.4476 63.272 68.9516 62.576 67.9596 62.576C67.3996 62.576 67.0156 62.76 66.8076 63.128C66.6156 63.496 66.5196 64.016 66.5196 64.688V68.888C66.5196 69.272 66.5036 69.552 66.4716 69.728C66.4556 69.904 66.3836 70.112 66.2556 70.352C66.0316 70.784 65.4076 71 64.3836 71C63.3756 71 62.7596 70.776 62.5356 70.328C62.4236 70.088 62.3516 69.88 62.3196 69.704C62.3036 69.512 62.2956 69.232 62.2956 68.864V64.664C62.2956 63.272 61.7996 62.576 60.8076 62.576C59.8476 62.576 59.3676 63.272 59.3676 64.664V68.912C59.3676 69.28 59.3516 69.56 59.3196 69.752C59.3036 69.928 59.2316 70.136 59.1036 70.376C58.8636 70.792 58.2396 71 57.2316 71C56.2236 71 55.6076 70.784 55.3836 70.352C55.2716 70.112 55.1996 69.904 55.1676 69.728C55.1516 69.552 55.1436 69.272 55.1436 68.888V60.44C55.1436 60.072 55.1516 59.8 55.1676 59.624C55.1996 59.432 55.2796 59.224 55.4076 59C55.6476 58.568 56.2156 58.352 57.1116 58.352C58.0076 58.352 58.5916 58.496 58.8636 58.784C59.1356 59.072 59.2716 59.488 59.2716 60.032ZM75.5577 60.464C75.5577 60.096 75.5657 59.824 75.5817 59.648C75.6137 59.456 75.6857 59.24 75.7977 59C76.0217 58.584 76.6457 58.376 77.6697 58.376C78.4377 58.376 78.9817 58.512 79.3017 58.784C79.5737 59.008 79.7177 59.352 79.7337 59.816C79.7497 59.976 79.7577 60.208 79.7577 60.512V68.912C79.7577 69.28 79.7417 69.56 79.7097 69.752C79.6937 69.928 79.6217 70.136 79.4937 70.376C79.2857 70.792 78.6697 71 77.6457 71C76.6377 71 76.0217 70.784 75.7977 70.352C75.6857 70.112 75.6137 69.904 75.5817 69.728C75.5657 69.552 75.5577 69.272 75.5577 68.888V60.464ZM79.4937 56.024C79.3817 56.248 79.1737 56.408 78.8697 56.504C78.5657 56.6 78.1577 56.648 77.6457 56.648C77.1497 56.648 76.7497 56.6 76.4457 56.504C76.1417 56.408 75.9257 56.24 75.7977 56C75.6857 55.76 75.6137 55.552 75.5817 55.376C75.5657 55.184 75.5577 54.904 75.5577 54.536C75.5577 54.168 75.5657 53.896 75.5817 53.72C75.6137 53.528 75.6857 53.32 75.7977 53.096C76.0217 52.664 76.6457 52.448 77.6697 52.448C78.6777 52.448 79.2857 52.664 79.4937 53.096C79.6217 53.336 79.6937 53.552 79.7097 53.744C79.7417 53.92 79.7577 54.192 79.7577 54.56C79.7577 54.928 79.7417 55.208 79.7097 55.4C79.6937 55.576 79.6217 55.784 79.4937 56.024ZM90.4348 64.664L93.0988 67.352C93.6748 67.928 93.9628 68.424 93.9628 68.84C93.9628 69.24 93.6748 69.728 93.0988 70.304C92.5228 70.864 92.0348 71.144 91.6348 71.144C91.2348 71.144 90.7468 70.856 90.1708 70.28L87.5308 67.616L84.8668 70.28C84.2908 70.856 83.8028 71.144 83.4028 71.144C83.0188 71.144 82.5308 70.864 81.9388 70.304C81.3628 69.728 81.0748 69.24 81.0748 68.84C81.0748 68.424 81.3628 67.928 81.9388 67.352L84.6028 64.664L81.9388 61.976C81.3628 61.4 81.0748 60.912 81.0748 60.512C81.0748 60.096 81.3628 59.6 81.9388 59.024C82.5308 58.448 83.0188 58.16 83.4028 58.16C83.8028 58.16 84.2908 58.448 84.8668 59.024L87.5308 61.712L90.1708 59.024C90.7468 58.448 91.2348 58.16 91.6348 58.16C92.0348 58.16 92.5228 58.448 93.0988 59.024C93.6748 59.6 93.9628 60.096 93.9628 60.512C93.9628 60.912 93.6748 61.4 93.0988 61.976L90.4348 64.664ZM107.015 63.176C107.015 64.152 106.767 64.88 106.271 65.36C105.791 65.824 105.255 66.056 104.663 66.056H98.9753C98.9753 66.504 99.2393 66.88 99.7673 67.184C100.295 67.488 100.823 67.64 101.351 67.64C102.279 67.64 103.007 67.544 103.535 67.352L103.799 67.256C104.183 67.08 104.503 66.992 104.759 66.992C105.271 66.992 105.711 67.352 106.079 68.072C106.287 68.504 106.391 68.872 106.391 69.176C106.391 70.6 104.687 71.312 101.279 71.312C100.095 71.312 99.0393 71.112 98.1113 70.712C97.1993 70.296 96.4873 69.752 95.9753 69.08C94.9673 67.784 94.4633 66.336 94.4633 64.736C94.4633 62.72 95.1113 61.112 96.4073 59.912C97.7193 58.696 99.3513 58.088 101.303 58.088C103.527 58.088 105.159 58.872 106.199 60.44C106.743 61.272 107.015 62.184 107.015 63.176ZM101.951 63.872C102.559 63.872 102.863 63.616 102.863 63.104C102.863 62.736 102.719 62.44 102.431 62.216C102.159 61.992 101.759 61.88 101.231 61.88C100.719 61.88 100.207 62.096 99.6953 62.528C99.1833 62.944 98.9273 63.392 98.9273 63.872H101.951ZM117.053 53.096C117.181 52.856 117.397 52.688 117.701 52.592C118.005 52.496 118.405 52.448 118.901 52.448C119.413 52.448 119.821 52.496 120.125 52.592C120.429 52.688 120.637 52.856 120.749 53.096C120.877 53.336 120.949 53.552 120.965 53.744C120.997 53.92 121.013 54.192 121.013 54.56V68.888C121.013 69.256 120.997 69.536 120.965 69.728C120.949 69.904 120.877 70.104 120.749 70.328C120.509 70.76 119.829 70.976 118.709 70.976C117.605 70.976 116.989 70.584 116.861 69.8C116.189 70.568 115.253 70.952 114.053 70.952C112.613 70.952 111.301 70.328 110.117 69.08C108.933 67.816 108.341 66.352 108.341 64.688C108.341 63.008 108.933 61.536 110.117 60.272C111.317 59.008 112.629 58.376 114.053 58.376C115.237 58.376 116.157 58.776 116.813 59.576V54.536C116.813 54.168 116.821 53.896 116.837 53.72C116.869 53.528 116.941 53.32 117.053 53.096ZM113.165 66.128C113.581 66.56 114.085 66.776 114.677 66.776C115.269 66.776 115.757 66.56 116.141 66.128C116.541 65.696 116.741 65.224 116.741 64.712C116.741 64.184 116.549 63.696 116.165 63.248C115.797 62.8 115.293 62.576 114.653 62.576C114.013 62.576 113.501 62.8 113.117 63.248C112.733 63.68 112.541 64.16 112.541 64.688C112.541 65.216 112.749 65.696 113.165 66.128ZM135.931 58.376C137.355 58.376 138.659 59.008 139.843 60.272C141.043 61.536 141.643 63.008 141.643 64.688C141.643 66.352 141.051 67.816 139.867 69.08C138.683 70.328 137.411 70.952 136.051 70.952C134.691 70.952 133.723 70.568 133.147 69.8C133.019 70.584 132.331 70.976 131.083 70.976C130.075 70.976 129.459 70.76 129.235 70.328C129.123 70.088 129.051 69.88 129.019 69.704C129.003 69.512 128.995 69.232 128.995 68.864V54.536C128.995 54.168 129.003 53.896 129.019 53.72C129.051 53.528 129.123 53.32 129.235 53.096C129.459 52.664 130.083 52.448 131.107 52.448C132.115 52.448 132.723 52.664 132.931 53.096C133.059 53.336 133.131 53.552 133.147 53.744C133.179 53.92 133.195 54.192 133.195 54.56V59.552C133.835 58.768 134.747 58.376 135.931 58.376ZM133.819 66.128C134.219 66.56 134.715 66.776 135.307 66.776C135.899 66.776 136.403 66.56 136.819 66.128C137.235 65.696 137.443 65.216 137.443 64.688C137.443 64.16 137.251 63.68 136.867 63.248C136.483 62.8 135.971 62.576 135.331 62.576C134.691 62.576 134.179 62.8 133.795 63.248C133.427 63.696 133.243 64.184 133.243 64.712C133.243 65.224 133.435 65.696 133.819 66.128ZM155.39 63.176C155.39 64.152 155.142 64.88 154.646 65.36C154.166 65.824 153.63 66.056 153.038 66.056H147.35C147.35 66.504 147.614 66.88 148.142 67.184C148.67 67.488 149.198 67.64 149.726 67.64C150.654 67.64 151.382 67.544 151.91 67.352L152.174 67.256C152.558 67.08 152.878 66.992 153.134 66.992C153.646 66.992 154.086 67.352 154.454 68.072C154.662 68.504 154.766 68.872 154.766 69.176C154.766 70.6 153.062 71.312 149.654 71.312C148.47 71.312 147.414 71.112 146.486 70.712C145.574 70.296 144.862 69.752 144.35 69.08C143.342 67.784 142.838 66.336 142.838 64.736C142.838 62.72 143.486 61.112 144.782 59.912C146.094 58.696 147.726 58.088 149.678 58.088C151.902 58.088 153.534 58.872 154.574 60.44C155.118 61.272 155.39 62.184 155.39 63.176ZM150.326 63.872C150.934 63.872 151.238 63.616 151.238 63.104C151.238 62.736 151.094 62.44 150.806 62.216C150.534 61.992 150.134 61.88 149.606 61.88C149.094 61.88 148.582 62.096 148.07 62.528C147.558 62.944 147.302 63.392 147.302 63.872H150.326ZM165.548 58.496C165.852 58.592 166.1 58.76 166.292 59C166.5 59.224 166.604 59.592 166.604 60.104C166.604 60.616 166.452 61.176 166.148 61.784C165.844 62.392 165.404 62.696 164.828 62.696C164.54 62.696 164.26 62.632 163.988 62.504C163.732 62.376 163.388 62.312 162.956 62.312C162.524 62.312 162.116 62.464 161.732 62.768C161.364 63.072 161.18 63.44 161.18 63.872V68.912C161.18 69.28 161.164 69.56 161.132 69.752C161.116 69.928 161.044 70.136 160.916 70.376C160.676 70.792 160.052 71 159.044 71C158.276 71 157.724 70.864 157.388 70.592C157.132 70.368 156.988 70.024 156.956 69.56C156.956 69.4 156.956 69.168 156.956 68.864V60.44C156.956 60.072 156.964 59.8 156.98 59.624C157.012 59.432 157.084 59.224 157.196 59C157.42 58.568 158.044 58.352 159.068 58.352C160.028 58.352 160.628 58.536 160.868 58.904C161.044 59.16 161.132 59.424 161.132 59.696C161.212 59.584 161.324 59.448 161.468 59.288C161.628 59.128 161.956 58.912 162.452 58.64C162.948 58.368 163.38 58.232 163.748 58.232C164.132 58.232 164.452 58.256 164.708 58.304C164.964 58.336 165.244 58.4 165.548 58.496ZM176.517 58.496C176.821 58.592 177.069 58.76 177.261 59C177.469 59.224 177.573 59.592 177.573 60.104C177.573 60.616 177.421 61.176 177.117 61.784C176.813 62.392 176.373 62.696 175.797 62.696C175.509 62.696 175.229 62.632 174.957 62.504C174.701 62.376 174.357 62.312 173.925 62.312C173.493 62.312 173.085 62.464 172.701 62.768C172.333 63.072 172.149 63.44 172.149 63.872V68.912C172.149 69.28 172.133 69.56 172.101 69.752C172.085 69.928 172.013 70.136 171.885 70.376C171.645 70.792 171.021 71 170.013 71C169.245 71 168.693 70.864 168.357 70.592C168.101 70.368 167.957 70.024 167.925 69.56C167.925 69.4 167.925 69.168 167.925 68.864V60.44C167.925 60.072 167.933 59.8 167.949 59.624C167.981 59.432 168.053 59.224 168.165 59C168.389 58.568 169.013 58.352 170.037 58.352C170.997 58.352 171.597 58.536 171.837 58.904C172.013 59.16 172.101 59.424 172.101 59.696C172.181 59.584 172.293 59.448 172.437 59.288C172.597 59.128 172.925 58.912 173.421 58.64C173.917 58.368 174.349 58.232 174.717 58.232C175.101 58.232 175.421 58.256 175.677 58.304C175.933 58.336 176.213 58.4 176.517 58.496ZM178.894 60.464C178.894 60.096 178.902 59.824 178.918 59.648C178.95 59.456 179.022 59.24 179.134 59C179.358 58.584 179.982 58.376 181.006 58.376C181.774 58.376 182.318 58.512 182.638 58.784C182.91 59.008 183.054 59.352 183.07 59.816C183.086 59.976 183.094 60.208 183.094 60.512V68.912C183.094 69.28 183.078 69.56 183.046 69.752C183.03 69.928 182.958 70.136 182.83 70.376C182.622 70.792 182.006 71 180.982 71C179.974 71 179.358 70.784 179.134 70.352C179.022 70.112 178.95 69.904 178.918 69.728C178.902 69.552 178.894 69.272 178.894 68.888V60.464ZM182.83 56.024C182.718 56.248 182.51 56.408 182.206 56.504C181.902 56.6 181.494 56.648 180.982 56.648C180.486 56.648 180.086 56.6 179.782 56.504C179.478 56.408 179.262 56.24 179.134 56C179.022 55.76 178.95 55.552 178.918 55.376C178.902 55.184 178.894 54.904 178.894 54.536C178.894 54.168 178.902 53.896 178.918 53.72C178.95 53.528 179.022 53.32 179.134 53.096C179.358 52.664 179.982 52.448 181.006 52.448C182.014 52.448 182.622 52.664 182.83 53.096C182.958 53.336 183.03 53.552 183.046 53.744C183.078 53.92 183.094 54.192 183.094 54.56C183.094 54.928 183.078 55.208 183.046 55.4C183.03 55.576 182.958 55.784 182.83 56.024ZM197.203 63.176C197.203 64.152 196.955 64.88 196.459 65.36C195.979 65.824 195.443 66.056 194.851 66.056H189.163C189.163 66.504 189.427 66.88 189.955 67.184C190.483 67.488 191.011 67.64 191.539 67.64C192.467 67.64 193.195 67.544 193.723 67.352L193.987 67.256C194.371 67.08 194.691 66.992 194.947 66.992C195.459 66.992 195.899 67.352 196.267 68.072C196.475 68.504 196.579 68.872 196.579 69.176C196.579 70.6 194.875 71.312 191.467 71.312C190.283 71.312 189.227 71.112 188.299 70.712C187.387 70.296 186.675 69.752 186.163 69.08C185.155 67.784 184.651 66.336 184.651 64.736C184.651 62.72 185.299 61.112 186.595 59.912C187.907 58.696 189.539 58.088 191.491 58.088C193.715 58.088 195.347 58.872 196.387 60.44C196.931 61.272 197.203 62.184 197.203 63.176ZM192.139 63.872C192.747 63.872 193.051 63.616 193.051 63.104C193.051 62.736 192.907 62.44 192.619 62.216C192.347 61.992 191.947 61.88 191.419 61.88C190.907 61.88 190.395 62.096 189.883 62.528C189.371 62.944 189.115 63.392 189.115 63.872H192.139ZM198.865 69.872C198.561 69.68 198.409 69.376 198.409 68.96C198.409 68.544 198.713 67.912 199.321 67.064C199.497 66.792 199.777 66.656 200.161 66.656C200.561 66.656 201.097 66.856 201.769 67.256C202.441 67.64 203.049 67.832 203.593 67.832C204.569 67.832 205.057 67.64 205.057 67.256C205.057 66.952 204.521 66.728 203.449 66.584C202.441 66.44 201.441 66.064 200.449 65.456C199.985 65.168 199.601 64.72 199.297 64.112C198.993 63.488 198.841 62.752 198.841 61.904C198.841 59.376 200.577 58.112 204.049 58.112C205.185 58.112 206.353 58.384 207.553 58.928C208.113 59.184 208.393 59.504 208.393 59.888C208.393 60.272 208.217 60.744 207.865 61.304C207.513 61.864 207.153 62.144 206.785 62.144C206.593 62.144 206.233 62.024 205.705 61.784C205.193 61.544 204.633 61.424 204.025 61.424C203.081 61.424 202.609 61.6 202.609 61.952C202.609 62.432 203.153 62.744 204.241 62.888C205.297 63 206.321 63.304 207.313 63.8C207.777 64.024 208.161 64.416 208.465 64.976C208.785 65.52 208.945 66.208 208.945 67.04C208.945 67.872 208.785 68.584 208.465 69.176C208.161 69.752 207.729 70.184 207.169 70.472C206.145 70.968 204.857 71.216 203.305 71.216C201.769 71.216 200.289 70.768 198.865 69.872Z" fill="#DBB780"/>
<path d="M141.463 106.619L138.762 103.918C138.011 103.167 137.119 102.571 136.138 102.165C135.156 101.758 134.104 101.549 133.042 101.549C131.98 101.549 130.928 101.758 129.946 102.165C128.965 102.571 128.073 103.167 127.322 103.918C126.434 104.806 125.765 105.889 125.368 107.08L122.994 114.201C122.614 115.341 122.559 116.565 122.835 117.735C123.111 118.904 123.708 119.974 124.558 120.824C125.407 121.674 126.477 122.27 127.647 122.546C128.816 122.822 130.04 122.767 131.18 122.387L138.301 120.014C139.492 119.617 140.575 118.948 141.463 118.06C142.214 117.308 142.81 116.417 143.217 115.435C143.623 114.454 143.832 113.402 143.832 112.339C143.832 111.277 143.623 110.225 143.216 109.243C142.81 108.262 142.214 107.37 141.463 106.619V106.619Z" fill="#F35244"/>
<path d="M103.368 114.237C101.895 112.662 100.114 111.407 98.1363 110.548C96.1582 109.69 94.0249 109.247 91.8686 109.247C89.7122 109.247 87.5789 109.69 85.6009 110.548C83.6228 111.407 81.8421 112.662 80.3692 114.237L78.3966 116.304L91.8686 130.418L105.341 116.304L103.368 114.237Z" fill="#7EB457"/>
<path d="M141.907 141.965C141.907 144.517 140.894 146.965 139.089 148.769C137.284 150.574 134.837 151.588 132.285 151.588H93.7931C92.5293 151.589 91.2776 151.341 90.1101 150.857C88.9426 150.373 87.8821 149.663 86.9898 148.768C86.5661 148.344 86.182 147.882 85.8422 147.387C85.0198 146.181 84.4826 144.803 84.2714 143.358C84.0603 141.913 84.1806 140.438 84.6233 139.047C85.066 137.655 85.8195 136.382 86.8268 135.325C87.834 134.268 89.0686 133.453 90.4372 132.944C89.3101 131.671 88.5404 130.122 88.2066 128.455C87.8728 126.788 87.9867 125.062 88.5368 123.453C89.0869 121.845 90.0535 120.411 91.3381 119.297C92.6227 118.183 94.1796 117.43 95.85 117.114C94.7355 115.694 94.0427 113.99 93.8508 112.195C93.6588 110.401 93.9755 108.588 94.7645 106.965C95.5535 105.342 96.7832 103.973 98.313 103.015C99.8428 102.058 101.611 101.55 103.416 101.549C104.638 101.557 105.827 101.155 106.793 100.407C107.758 99.659 108.445 98.6082 108.742 97.4232C108.88 96.8438 108.949 96.2504 108.949 95.655C108.951 93.8408 108.299 92.0867 107.114 90.7136C108.86 90.0697 110.735 89.8571 112.581 90.094C114.427 90.3309 116.188 91.0102 117.715 92.0742C119.242 93.1382 120.489 94.5554 121.35 96.205C122.211 97.8547 122.661 99.688 122.662 101.549C124.467 101.548 126.236 102.056 127.767 103.013C129.297 103.971 130.527 105.34 131.316 106.963C132.106 108.587 132.422 110.4 132.23 112.195C132.037 113.99 131.343 115.695 130.228 117.114C131.09 117.275 131.927 117.555 132.713 117.946C134.037 118.603 135.191 119.556 136.087 120.731C136.983 121.906 137.597 123.272 137.88 124.722C138.163 126.172 138.108 127.668 137.72 129.094C137.332 130.52 136.62 131.837 135.64 132.944C137.48 133.629 139.067 134.86 140.187 136.473C141.307 138.085 141.907 140.002 141.907 141.965V141.965Z" fill="#F6ECDE"/>
<path d="M120.737 99.6244H116.888C115.825 99.6244 114.963 100.486 114.963 101.549C114.963 102.612 115.825 103.474 116.888 103.474H120.737C121.8 103.474 122.662 102.612 122.662 101.549C122.662 100.486 121.8 99.6244 120.737 99.6244Z" fill="white"/>
<path d="M128.435 115.021H105.341C104.278 115.021 103.416 115.883 103.416 116.946C103.416 118.008 104.278 118.87 105.341 118.87H128.435C129.498 118.87 130.36 118.008 130.36 116.946C130.36 115.883 129.498 115.021 128.435 115.021Z" fill="white"/>
<path d="M134.209 132.342H105.341C104.278 132.342 103.416 133.204 103.416 134.267C103.416 135.33 104.278 136.191 105.341 136.191H134.209C135.272 136.191 136.134 135.33 136.134 134.267C136.134 133.204 135.272 132.342 134.209 132.342Z" fill="white"/>
<path d="M92.1493 159.286H87.7387C85.261 159.286 82.8848 158.302 81.1328 156.55C79.3808 154.798 78.3966 152.422 78.3966 149.944C78.3966 148.494 78.7343 147.063 79.3829 145.766L84.3736 135.785C84.8908 134.75 85.6859 133.88 86.6697 133.272C87.6536 132.664 88.7874 132.342 89.944 132.342C91.1006 132.342 92.2344 132.664 93.2182 133.272C94.2021 133.88 94.9972 134.75 95.5144 135.785L100.505 145.766C101.154 147.063 101.491 148.493 101.491 149.944C101.491 151.171 101.25 152.385 100.78 153.519C100.311 154.652 99.6227 155.682 98.7552 156.55C97.8878 157.417 96.8579 158.105 95.7244 158.575C94.591 159.044 93.3761 159.286 92.1493 159.286V159.286Z" fill="#F35244"/>
<path d="M130.36 151.588V132.342H133.178C135.336 132.342 137.472 132.767 139.465 133.593C141.458 134.418 143.269 135.628 144.794 137.153C146.32 138.679 147.53 140.49 148.355 142.483C149.181 144.476 149.606 146.612 149.606 148.769V151.588H130.36Z" fill="#7EB457"/>
<path d="M134.209 140.04H138.058V143.889H134.209V140.04Z" fill="#4D5E78"/>
<path d="M139.983 143.889H143.832V147.739H139.983V143.889Z" fill="#4D5E78"/>
<path d="M145.757 159.286L145.232 163.135L139.983 201.627H86.0948L80.8456 163.135L80.3211 159.286H145.757Z" fill="#ED9191"/>
<path d="M87.2304 167.262L91.0449 166.743L91.6451 171.149L87.8306 171.668L87.2304 167.262Z" fill="#FEB2B2"/>
<path d="M88.4834 176.457L92.2979 175.938L94.7164 193.691L90.9019 194.211L88.4834 176.457Z" fill="#FEB2B2"/>
<path d="M147.681 151.588H78.3966C76.2707 151.588 74.5474 153.311 74.5474 155.437C74.5474 157.563 76.2707 159.286 78.3966 159.286H147.681C149.807 159.286 151.53 157.563 151.53 155.437C151.53 153.311 149.807 151.588 147.681 151.588Z" fill="#EAD7BC"/>
<path d="M147.681 151.588H124.586C125.607 151.588 126.586 151.993 127.308 152.715C128.03 153.437 128.435 154.416 128.435 155.437C128.435 156.458 128.03 157.437 127.308 158.159C126.586 158.881 125.607 159.286 124.586 159.286H147.681C148.702 159.286 149.681 158.881 150.403 158.159C151.125 157.437 151.53 156.458 151.53 155.437C151.53 154.416 151.125 153.437 150.403 152.715C149.681 151.993 148.702 151.588 147.681 151.588Z" fill="#E5D2B8"/>
<path d="M126.511 201.627H107.265V198.808C107.265 196.651 107.69 194.515 108.516 192.522C109.341 190.529 110.551 188.718 112.077 187.192C113.602 185.667 115.413 184.457 117.406 183.631C119.399 182.806 121.535 182.381 123.692 182.381H126.511V201.627Z" fill="#7EB457"/>
<path d="M114.963 193.928H118.813V197.777H114.963V193.928Z" fill="#4D5E78"/>
<path d="M118.813 188.155H122.662V192.004H118.813V188.155Z" fill="#4D5E78"/>
<path d="M161.745 187.213L159.14 182.968C156.484 178.642 150.744 177.239 146.318 179.835C145.223 180.476 144.272 181.334 143.522 182.358L137.455 190.66C136.707 191.678 136.257 192.885 136.156 194.145C136.055 195.405 136.306 196.668 136.883 197.793C137.486 198.954 138.398 199.926 139.518 200.602C140.638 201.278 141.922 201.633 143.231 201.627H152.991C155.105 201.629 157.16 200.925 158.828 199.625L159.571 199.044C161.33 197.689 162.525 195.73 162.927 193.546C163.328 191.361 162.907 189.105 161.745 187.213V187.213Z" fill="#F35244"/>
<path d="M116.888 151.588C120.077 151.588 122.662 149.003 122.662 145.814C122.662 142.625 120.077 140.04 116.888 140.04C113.699 140.04 111.114 142.625 111.114 145.814C111.114 149.003 113.699 151.588 116.888 151.588Z" fill="#F35244"/>
<path d="M80.3211 201.627C83.5099 201.627 86.0948 199.042 86.0948 195.853C86.0948 192.664 83.5099 190.079 80.3211 190.079C77.1324 190.079 74.5474 192.664 74.5474 195.853C74.5474 199.042 77.1324 201.627 80.3211 201.627Z" fill="#F35244"/>
<path d="M97.6423 151.588C100.831 151.588 103.416 149.003 103.416 145.814C103.416 142.625 100.831 140.04 97.6423 140.04C94.4535 140.04 91.8686 142.625 91.8686 145.814C91.8686 149.003 94.4535 151.588 97.6423 151.588Z" fill="#4D5E78"/>
<path d="M118.813 134.267C122.001 134.267 124.586 131.682 124.586 128.493C124.586 125.304 122.001 122.719 118.813 122.719C115.624 122.719 113.039 125.304 113.039 128.493C113.039 131.682 115.624 134.267 118.813 134.267Z" fill="#4D5E78"/>
<path d="M68.7737 201.627C71.9624 201.627 74.5474 199.042 74.5474 195.853C74.5474 192.664 71.9624 190.079 68.7737 190.079C65.585 190.079 63 192.664 63 195.853C63 199.042 65.585 201.627 68.7737 201.627Z" fill="#4D5E78"/>
<path d="M145.757 159.286L145.232 163.135H80.8456L80.3211 159.286H145.757Z" fill="#E07777"/>
</svg>
