<svg width="225" height="225" viewBox="0 0 225 225" fill="none" xmlns="http://www.w3.org/2000/svg">
<rect width="225" height="225" fill="white"/>
<path d="M63.6993 28.484L73.4193 48.572C73.8273 49.388 74.0313 50 74.0313 50.408C74.0313 51.272 73.3353 52.052 71.9433 52.748C71.1273 53.156 70.4793 53.36 69.9993 53.36C69.5433 53.36 69.1593 53.252 68.8473 53.036C68.5593 52.82 68.3433 52.592 68.1992 52.352C68.0793 52.112 67.8993 51.752 67.6593 51.272L65.7873 47.384H55.8153L53.9433 51.272C53.7033 51.752 53.5113 52.1 53.3673 52.316C53.2473 52.532 53.0313 52.76 52.7193 53C52.4313 53.216 52.0473 53.324 51.5673 53.324C51.1113 53.324 50.4753 53.12 49.6593 52.712C48.2673 52.04 47.5713 51.272 47.5713 50.408C47.5713 50 47.7753 49.388 48.1833 48.572L57.9033 28.448C58.1673 27.896 58.5633 27.452 59.0913 27.116C59.6433 26.78 60.2193 26.612 60.8193 26.612C62.1153 26.612 63.0753 27.236 63.6993 28.484ZM60.7833 37.124L58.4073 42.056H63.1953L60.7833 37.124ZM75.9986 58.148V37.124C75.9986 36.572 76.0106 36.164 76.0346 35.9C76.0826 35.636 76.1906 35.336 76.3586 35C76.6946 34.352 77.4986 34.028 78.7706 34.028C80.0426 34.028 80.8946 34.196 81.3266 34.532C81.7826 34.844 82.0466 35.312 82.1186 35.936C83.0306 34.688 84.4586 34.064 86.4026 34.064C88.3706 34.064 90.2306 34.988 91.9826 36.836C93.7346 38.684 94.6106 40.832 94.6106 43.28C94.6106 45.728 93.7346 47.876 91.9826 49.724C90.2546 51.572 88.4066 52.496 86.4386 52.496C84.4706 52.496 83.0426 51.944 82.1546 50.84V58.112C82.1546 58.664 82.1306 59.072 82.0826 59.336C82.0586 59.6 81.9506 59.9 81.7586 60.236C81.5906 60.596 81.2906 60.848 80.8586 60.992C80.4266 61.136 79.8386 61.208 79.0946 61.208C78.3506 61.208 77.7506 61.136 77.2946 60.992C76.8626 60.848 76.5506 60.608 76.3586 60.272C76.1906 59.936 76.0826 59.636 76.0346 59.372C76.0106 59.108 75.9986 58.7 75.9986 58.148ZM83.1266 41.192C82.5746 41.84 82.2986 42.548 82.2986 43.316C82.2986 44.084 82.5746 44.792 83.1266 45.44C83.7026 46.064 84.4226 46.376 85.2866 46.376C86.1746 46.376 86.9186 46.064 87.5186 45.44C88.1426 44.816 88.4546 44.108 88.4546 43.316C88.4546 42.524 88.1666 41.816 87.5906 41.192C87.0146 40.544 86.2586 40.22 85.3226 40.22C84.4106 40.22 83.6786 40.544 83.1266 41.192ZM109.84 34.244C110.296 34.388 110.668 34.64 110.956 35C111.268 35.336 111.424 35.888 111.424 36.656C111.424 37.424 111.196 38.264 110.74 39.176C110.284 40.088 109.624 40.544 108.76 40.544C108.328 40.544 107.908 40.448 107.5 40.256C107.116 40.064 106.6 39.968 105.952 39.968C105.304 39.968 104.692 40.196 104.116 40.652C103.564 41.108 103.288 41.66 103.288 42.308V49.868C103.288 50.42 103.264 50.84 103.216 51.128C103.192 51.392 103.084 51.704 102.892 52.064C102.532 52.688 101.596 53 100.084 53C98.9317 53 98.1037 52.796 97.5997 52.388C97.2157 52.052 96.9997 51.536 96.9517 50.84C96.9517 50.6 96.9517 50.252 96.9517 49.796V37.16C96.9517 36.608 96.9637 36.2 96.9877 35.936C97.0357 35.648 97.1437 35.336 97.3117 35C97.6477 34.352 98.5837 34.028 100.12 34.028C101.56 34.028 102.46 34.304 102.82 34.856C103.084 35.24 103.216 35.636 103.216 36.044C103.336 35.876 103.504 35.672 103.72 35.432C103.96 35.192 104.452 34.868 105.196 34.46C105.94 34.052 106.588 33.848 107.14 33.848C107.716 33.848 108.196 33.884 108.58 33.956C108.964 34.004 109.384 34.1 109.84 34.244ZM113.405 37.196C113.405 36.644 113.417 36.236 113.441 35.972C113.489 35.684 113.597 35.36 113.765 35C114.101 34.376 115.037 34.064 116.573 34.064C117.725 34.064 118.541 34.268 119.021 34.676C119.429 35.012 119.645 35.528 119.669 36.224C119.693 36.464 119.705 36.812 119.705 37.268V49.868C119.705 50.42 119.681 50.84 119.633 51.128C119.609 51.392 119.501 51.704 119.309 52.064C118.997 52.688 118.073 53 116.537 53C115.025 53 114.101 52.676 113.765 52.028C113.597 51.668 113.489 51.356 113.441 51.092C113.417 50.828 113.405 50.408 113.405 49.832V37.196ZM119.309 30.536C119.141 30.872 118.829 31.112 118.373 31.256C117.917 31.4 117.305 31.472 116.537 31.472C115.793 31.472 115.193 31.4 114.737 31.256C114.281 31.112 113.957 30.86 113.765 30.5C113.597 30.14 113.489 29.828 113.441 29.564C113.417 29.276 113.405 28.856 113.405 28.304C113.405 27.752 113.417 27.344 113.441 27.08C113.489 26.792 113.597 26.48 113.765 26.144C114.101 25.496 115.037 25.172 116.573 25.172C118.085 25.172 118.997 25.496 119.309 26.144C119.501 26.504 119.609 26.828 119.633 27.116C119.681 27.38 119.705 27.788 119.705 28.34C119.705 28.892 119.681 29.312 119.633 29.6C119.609 29.864 119.501 30.176 119.309 30.536ZM128.521 43.532C128.521 44.54 128.857 45.332 129.529 45.908C130.201 46.46 130.909 46.736 131.653 46.736C132.421 46.736 133.129 46.52 133.777 46.088C134.449 45.632 134.989 45.404 135.397 45.404C136.117 45.404 136.993 46.04 138.025 47.312C138.577 48.008 138.853 48.632 138.853 49.184C138.853 50.096 138.193 50.948 136.873 51.74C135.505 52.7 133.825 53.18 131.833 53.18C129.601 53.18 127.453 52.376 125.389 50.768C124.405 50 123.601 48.98 122.977 47.708C122.353 46.412 122.041 44.996 122.041 43.46C122.041 41.9 122.353 40.496 122.977 39.248C123.601 37.976 124.405 36.956 125.389 36.188C127.381 34.604 129.505 33.812 131.761 33.812C132.673 33.812 133.561 33.944 134.425 34.208C135.289 34.448 135.925 34.688 136.333 34.928L136.909 35.288C137.341 35.576 137.677 35.804 137.917 35.972C138.541 36.452 138.853 37.004 138.853 37.628C138.853 38.228 138.601 38.912 138.097 39.68C137.233 41 136.405 41.66 135.613 41.66C135.157 41.66 134.509 41.396 133.669 40.868C133.237 40.46 132.613 40.256 131.797 40.256C131.005 40.256 130.261 40.544 129.565 41.12C128.869 41.696 128.521 42.5 128.521 43.532ZM140.638 43.532C140.638 40.652 141.646 38.276 143.662 36.404C145.678 34.532 147.982 33.596 150.574 33.596C153.166 33.596 155.458 34.532 157.45 36.404C159.442 38.252 160.438 40.616 160.438 43.496C160.438 45.488 159.922 47.264 158.89 48.824C157.858 50.36 156.598 51.5 155.11 52.244C153.646 52.964 152.122 53.324 150.538 53.324C148.954 53.324 147.418 52.94 145.93 52.172C144.442 51.38 143.182 50.228 142.15 48.716C141.142 47.18 140.638 45.452 140.638 43.532ZM148.162 46.124C148.93 46.7 149.71 46.988 150.502 46.988C151.294 46.988 152.086 46.688 152.878 46.088C153.67 45.488 154.066 44.6 154.066 43.424C154.066 42.248 153.694 41.372 152.95 40.796C152.206 40.22 151.402 39.932 150.538 39.932C149.674 39.932 148.87 40.232 148.126 40.832C147.382 41.432 147.01 42.32 147.01 43.496C147.01 44.648 147.394 45.524 148.162 46.124ZM173.253 40.4L170.913 40.256V45.224C170.913 45.872 171.009 46.34 171.201 46.628C171.417 46.916 171.801 47.06 172.353 47.06C172.929 47.06 173.361 47.084 173.649 47.132C173.961 47.156 174.285 47.264 174.621 47.456C175.173 47.768 175.449 48.572 175.449 49.868C175.449 51.38 175.113 52.304 174.441 52.64C174.081 52.808 173.757 52.916 173.469 52.964C173.205 52.988 172.809 53 172.281 53C169.785 53 167.889 52.436 166.593 51.308C165.297 50.18 164.649 48.272 164.649 45.584V40.256C164.193 40.328 163.701 40.364 163.173 40.364C162.645 40.364 162.201 40.16 161.841 39.752C161.505 39.344 161.337 38.648 161.337 37.664C161.337 36.68 161.397 35.972 161.517 35.54C161.637 35.084 161.805 34.76 162.021 34.568C162.405 34.256 162.885 34.1 163.461 34.1L164.649 34.244V30.536C164.649 29.984 164.661 29.576 164.685 29.312C164.733 29.048 164.853 28.76 165.045 28.448C165.357 27.848 166.281 27.548 167.817 27.548C169.449 27.548 170.421 27.992 170.733 28.88C170.853 29.264 170.913 29.876 170.913 30.716V34.244C171.969 34.148 172.761 34.1 173.289 34.1C173.841 34.1 174.249 34.124 174.513 34.172C174.801 34.196 175.125 34.304 175.485 34.496C176.109 34.808 176.421 35.732 176.421 37.268C176.421 38.78 176.097 39.704 175.449 40.04C175.089 40.208 174.765 40.316 174.477 40.364C174.213 40.388 173.805 40.4 173.253 40.4Z" fill="#DBB780"/>
<rect x="52" y="75" width="120" height="119" fill="white"/>
<path d="M115.516 78.4863H108.485V103.669H115.516V78.4863Z" fill="#C27B48"/>
<path d="M151.38 85.4662L149.161 87.8369C148.851 88.1693 141.478 95.9345 131.995 95.9345C122.512 95.9345 115.138 88.1693 114.829 87.8369L112.609 85.4662L114.829 83.0955C115.138 82.7652 122.512 75 131.995 75C141.478 75 148.851 82.7652 149.161 83.0953L151.38 85.4662Z" fill="#11A892"/>
<path d="M151.38 85.4662L149.161 87.8369C148.851 88.1693 141.478 95.9345 131.995 95.9345C122.512 95.9345 115.138 88.1693 114.829 87.8369L112.609 85.4662H151.38Z" fill="#0F9887"/>
<path d="M115.516 78.4863H112.001V103.669H115.516V78.4863Z" fill="#A66235"/>
<path d="M161.381 141.634C161.165 158.182 156.881 171.456 148.652 181.085C140.224 190.949 130.858 193.174 128.188 193.62C126.599 193.887 125.076 193.999 123.639 193.999C118.398 193.999 114.271 192.5 112 191.435C109.105 192.793 103.192 194.857 95.8113 193.62C93.1417 193.174 83.7759 190.95 75.3477 181.085C67.1188 171.456 62.8342 158.182 62.6186 141.634C62.5155 133.864 63.7295 126.958 66.2256 121.111C68.5155 115.749 71.8811 111.246 76.2337 107.728C87.0386 98.9908 101.638 98.0448 112 100.106C122.362 98.0448 136.961 98.9908 147.766 107.728C152.118 111.246 155.484 115.748 157.774 121.111C160.27 126.959 161.484 133.864 161.381 141.634Z" fill="#FFB13B"/>
<path d="M161.381 141.634C161.165 158.182 156.881 171.456 148.652 181.085C140.224 190.949 130.858 193.174 128.188 193.62C126.599 193.887 125.076 193.999 123.639 193.999C118.398 193.999 114.271 192.5 112 191.435V100.106C122.362 98.0448 136.961 98.9908 147.766 107.728C152.118 111.246 155.484 115.748 157.774 121.111C160.27 126.959 161.484 133.864 161.381 141.634Z" fill="#FF9500"/>
<path d="M132.918 146.671C132.918 154.736 129.377 161.383 122.676 165.894C117.782 169.188 112.874 170.155 112.666 170.194L112 170.322L111.334 170.194C111.126 170.155 106.218 169.188 101.324 165.894C94.6234 161.383 91.0818 154.736 91.0818 146.671C91.0818 139.245 94.5951 132.806 101.242 128.051C106.047 124.616 110.856 123.265 111.058 123.21L112 122.949L112.075 122.928L113.08 123.251C113.28 123.314 118.037 124.86 122.8 128.372C129.419 133.255 132.918 139.581 132.918 146.671Z" fill="#C27B48"/>
<path d="M132.918 146.671C132.918 154.736 129.377 161.383 122.676 165.894C117.782 169.188 112.874 170.155 112.666 170.194L112 170.322V122.949L112.075 122.928L113.08 123.251C113.28 123.314 118.037 124.86 122.8 128.372C129.419 133.255 132.918 139.581 132.918 146.671Z" fill="#A66235"/>
</svg>
