<svg width="225" height="225" viewBox="0 0 225 225" fill="none" xmlns="http://www.w3.org/2000/svg">
<rect width="225" height="225" rx="25" fill="white"/>
<path d="M81.166 31.94C81.79 33.212 82.102 34.628 82.102 36.188C82.102 37.748 81.79 39.164 81.166 40.436C80.542 41.684 79.738 42.68 78.754 43.424C76.762 44.96 74.698 45.728 72.562 45.728H68.062V49.796C68.062 50.348 68.038 50.768 67.99 51.056C67.966 51.32 67.858 51.632 67.666 51.992C67.33 52.64 66.394 52.964 64.858 52.964C63.178 52.964 62.194 52.52 61.906 51.632C61.762 51.224 61.69 50.6 61.69 49.76V29.78C61.69 29.228 61.702 28.82 61.726 28.556C61.774 28.268 61.894 27.944 62.086 27.584C62.422 26.936 63.358 26.612 64.894 26.612H72.598C74.71 26.612 76.762 27.38 78.754 28.916C79.738 29.66 80.542 30.668 81.166 31.94ZM72.598 39.356C73.318 39.356 74.026 39.092 74.722 38.564C75.418 38.036 75.766 37.244 75.766 36.188C75.766 35.132 75.418 34.34 74.722 33.812C74.026 33.26 73.306 32.984 72.562 32.984H68.062V39.356H72.598ZM97.3241 34.244C97.7801 34.388 98.1521 34.64 98.4401 35C98.7521 35.336 98.9081 35.888 98.9081 36.656C98.9081 37.424 98.6801 38.264 98.2241 39.176C97.7681 40.088 97.1081 40.544 96.2441 40.544C95.8121 40.544 95.3921 40.448 94.9841 40.256C94.6001 40.064 94.0841 39.968 93.4361 39.968C92.7881 39.968 92.1761 40.196 91.6001 40.652C91.0481 41.108 90.7721 41.66 90.7721 42.308V49.868C90.7721 50.42 90.7481 50.84 90.7001 51.128C90.6761 51.392 90.5681 51.704 90.3761 52.064C90.0161 52.688 89.0801 53 87.5681 53C86.4161 53 85.5881 52.796 85.0841 52.388C84.7001 52.052 84.4841 51.536 84.4361 50.84C84.4361 50.6 84.4361 50.252 84.4361 49.796V37.16C84.4361 36.608 84.4481 36.2 84.4721 35.936C84.5201 35.648 84.6281 35.336 84.7961 35C85.1321 34.352 86.0681 34.028 87.6041 34.028C89.0441 34.028 89.9441 34.304 90.3041 34.856C90.5681 35.24 90.7001 35.636 90.7001 36.044C90.8201 35.876 90.9881 35.672 91.2041 35.432C91.4441 35.192 91.9361 34.868 92.6801 34.46C93.4241 34.052 94.0721 33.848 94.6241 33.848C95.2001 33.848 95.6801 33.884 96.0641 33.956C96.4481 34.004 96.8681 34.1 97.3241 34.244ZM109.313 52.928C106.889 52.928 104.873 52.016 103.265 50.192C101.681 48.344 100.889 46.1 100.889 43.46V37.16C100.889 36.584 100.901 36.164 100.925 35.9C100.973 35.636 101.081 35.324 101.249 34.964C101.585 34.316 102.521 33.992 104.057 33.992C105.737 33.992 106.721 34.448 107.009 35.36C107.153 35.744 107.225 36.356 107.225 37.196V43.496C107.225 44.48 107.501 45.248 108.053 45.8C108.629 46.352 109.385 46.628 110.321 46.628C111.281 46.628 112.049 46.34 112.625 45.764C113.225 45.188 113.525 44.432 113.525 43.496V37.124C113.525 36.572 113.537 36.164 113.561 35.9C113.609 35.612 113.729 35.288 113.921 34.928C114.233 34.304 115.157 33.992 116.693 33.992C118.205 33.992 119.129 34.316 119.465 34.964C119.633 35.324 119.729 35.648 119.753 35.936C119.801 36.2 119.825 36.608 119.825 37.16V49.904C119.825 50.432 119.801 50.84 119.753 51.128C119.729 51.392 119.621 51.692 119.429 52.028C119.069 52.652 118.145 52.964 116.657 52.964C115.193 52.964 114.293 52.676 113.957 52.1C113.717 51.692 113.597 51.2 113.597 50.624C113.501 50.792 113.285 51.032 112.949 51.344C112.613 51.656 112.289 51.92 111.977 52.136C111.161 52.664 110.273 52.928 109.313 52.928ZM133.269 34.028C135.669 34.028 137.661 34.952 139.245 36.8C140.853 38.624 141.657 40.856 141.657 43.496V49.832C141.657 50.384 141.633 50.804 141.585 51.092C141.561 51.356 141.465 51.656 141.297 51.992C140.961 52.64 140.025 52.964 138.489 52.964C136.785 52.964 135.801 52.52 135.537 51.632C135.393 51.224 135.321 50.612 135.321 49.796V43.46C135.321 42.476 135.033 41.708 134.457 41.156C133.905 40.604 133.149 40.328 132.189 40.328C131.253 40.328 130.485 40.616 129.885 41.192C129.309 41.768 129.021 42.524 129.021 43.46V49.832C129.021 50.384 128.997 50.804 128.949 51.092C128.925 51.356 128.817 51.656 128.625 51.992C128.313 52.64 127.389 52.964 125.853 52.964C124.341 52.964 123.417 52.64 123.081 51.992C122.913 51.632 122.805 51.32 122.757 51.056C122.733 50.768 122.721 50.348 122.721 49.796V37.052C122.721 36.524 122.733 36.128 122.757 35.864C122.805 35.576 122.925 35.264 123.117 34.928C123.453 34.328 124.377 34.028 125.889 34.028C127.353 34.028 128.253 34.304 128.589 34.856C128.829 35.264 128.949 35.756 128.949 36.332C129.045 36.164 129.261 35.924 129.597 35.612C129.933 35.3 130.257 35.048 130.569 34.856C131.385 34.304 132.285 34.028 133.269 34.028ZM162.841 41.264C162.841 42.728 162.469 43.82 161.725 44.54C161.005 45.236 160.201 45.584 159.313 45.584H150.781C150.781 46.256 151.177 46.82 151.969 47.276C152.761 47.732 153.553 47.96 154.345 47.96C155.737 47.96 156.829 47.816 157.621 47.528L158.017 47.384C158.593 47.12 159.073 46.988 159.457 46.988C160.225 46.988 160.885 47.528 161.437 48.608C161.749 49.256 161.905 49.808 161.905 50.264C161.905 52.4 159.349 53.468 154.237 53.468C152.461 53.468 150.877 53.168 149.485 52.568C148.117 51.944 147.049 51.128 146.281 50.12C144.769 48.176 144.013 46.004 144.013 43.604C144.013 40.58 144.985 38.168 146.929 36.368C148.897 34.544 151.345 33.632 154.273 33.632C157.609 33.632 160.057 34.808 161.617 37.16C162.433 38.408 162.841 39.776 162.841 41.264ZM155.245 42.308C156.157 42.308 156.613 41.924 156.613 41.156C156.613 40.604 156.397 40.16 155.965 39.824C155.557 39.488 154.957 39.32 154.165 39.32C153.397 39.32 152.629 39.644 151.861 40.292C151.093 40.916 150.709 41.588 150.709 42.308H155.245Z" fill="#DBB780"/>
<path d="M130.099 149.727C141.217 149.727 150.229 158.74 150.229 169.858C150.229 180.975 141.217 189.988 130.099 189.988C123.468 189.988 103.069 182.827 87.6848 177.047C81.0406 174.551 81.0406 165.164 87.6848 162.668C103.069 156.888 123.468 149.727 130.099 149.727V149.727Z" fill="#7E1D6E"/>
<path d="M136.663 150.822C135.186 153.56 135.869 157.043 138.417 158.998C141.823 161.613 143.777 165.571 143.777 169.858C143.777 177.4 137.641 183.535 130.099 183.535C128.878 183.535 124.135 183.006 108.101 177.545L133.425 180.748C133.495 180.757 133.563 180.761 133.63 180.761C134.431 180.761 135.125 180.165 135.229 179.35C135.341 178.466 134.714 177.659 133.83 177.548C91.489 172.192 100.012 173.553 89.9535 171.007C87.5199 170.093 84.8815 170.746 83.146 172.462C83.8398 174.442 85.3509 176.17 87.6848 177.047C103.069 182.827 123.468 189.989 130.099 189.989C141.217 189.989 150.229 180.975 150.229 169.858C150.229 161.038 144.557 153.545 136.663 150.822Z" fill="#E1B9B1"/>
<path d="M93.347 168.055C93.427 168.055 93.507 168.049 93.5886 168.037L131.503 162.35C132.385 162.218 132.991 161.397 132.859 160.516C132.727 159.635 131.905 159.028 131.025 159.16L93.1103 164.847C92.2286 164.978 91.6221 165.8 91.7543 166.681C91.8743 167.481 92.5617 168.055 93.347 168.055V168.055Z" fill="#E1B9B1"/>
<path d="M103.527 168.441C102.636 168.441 101.914 169.164 101.914 170.054C101.914 170.946 102.636 171.667 103.527 171.667H127.99C128.881 171.667 129.603 170.946 129.603 170.054C129.603 169.164 128.881 168.441 127.99 168.441H103.527Z" fill="#E1B9B1"/>
<path d="M69.8967 122.365C62.0344 114.504 62.0344 101.758 69.8967 93.8967C77.7581 86.0344 90.5037 86.0344 98.3651 93.8967C103.054 98.5849 112.414 118.073 119.206 133.038C122.139 139.501 115.501 146.139 109.039 143.206C94.0727 136.414 74.5849 127.054 69.8967 122.365V122.365Z" fill="#7E1D6E"/>
<path d="M119.206 133.038C112.414 118.073 103.054 98.5849 98.3651 93.8967C94.0001 89.5308 88.1289 87.5936 82.4243 88.0761C82.1876 91.1782 84.2276 94.0828 87.3493 94.8338C89.7861 95.42 92.0172 96.673 93.8025 98.4584C94.6899 99.3466 97.8189 103.269 105.776 119.588L90.7429 99.2494C90.213 98.5327 89.2032 98.3817 88.4865 98.9106C87.7705 99.4405 87.6187 100.45 88.1485 101.167C113.916 136.027 110.139 130.761 113.33 135.705C113.589 136.275 113.471 136.77 112.978 137.178C110.982 138.832 110.236 141.434 110.852 143.787C116.661 144.896 121.864 138.895 119.206 133.038V133.038Z" fill="#E1B9B1"/>
<path d="M108.111 135.356L75.7572 110.267C75.0535 109.721 74.0404 109.849 73.4943 110.553C72.9482 111.257 73.0763 112.27 73.78 112.816L106.135 137.906C106.429 138.134 106.777 138.244 107.122 138.244C107.604 138.244 108.08 138.029 108.398 137.619C108.944 136.916 108.816 135.902 108.111 135.356Z" fill="#E1B9B1"/>
<path d="M102.483 128.009C102.896 128.009 103.309 127.853 103.624 127.537C104.253 126.907 104.253 125.886 103.624 125.256L86.3256 107.958C85.6954 107.328 84.6741 107.328 84.0447 107.958C83.4145 108.588 83.4145 109.61 84.0447 110.239L101.342 127.537C101.657 127.852 102.07 128.009 102.483 128.009Z" fill="#E1B9B1"/>
<path d="M165.104 109.555C172.966 117.416 172.966 130.163 165.104 138.024C157.242 145.886 144.497 145.886 136.635 138.024C131.946 133.335 122.586 113.847 115.794 98.8821C112.862 92.4191 119.499 85.7814 125.962 88.7145C140.928 95.5057 160.415 104.866 165.104 109.555V109.555Z" fill="#E1B9B1"/>
<path d="M165.104 109.555C160.415 104.866 140.928 95.5057 125.962 88.7145C123.692 87.6843 121.401 87.8361 119.51 88.7455C119.523 91.1864 120.926 93.5146 123.295 94.5897C133.376 100.684 126.128 95.4453 159.856 121.6C160.15 121.828 160.498 121.938 160.843 121.938C161.325 121.938 161.801 121.723 162.119 121.314C162.665 120.61 162.537 119.597 161.833 119.051L141.095 102.97C156.004 110.32 159.686 113.262 160.542 114.118C165.874 119.451 165.874 128.128 160.542 133.462C157.958 136.045 154.523 137.468 150.87 137.468C147.658 137.468 144.996 139.814 144.501 142.886C151.503 145.215 159.531 143.597 165.104 138.024C172.966 130.162 172.966 117.416 165.104 109.555V109.555Z" fill="#7E1D6E"/>
<path d="M146.169 133.271C146.502 133.271 146.838 133.169 147.127 132.956C147.843 132.426 147.995 131.416 147.465 130.699L124.676 99.869C124.146 99.1523 123.136 99.0013 122.42 99.5303C121.704 100.06 121.553 101.07 122.082 101.787L144.871 132.617C145.187 133.045 145.675 133.271 146.169 133.271V133.271Z" fill="#7E1D6E"/>
<path d="M150.428 124.381C150.841 124.381 151.254 124.223 151.569 123.909C152.199 123.279 152.199 122.257 151.569 121.627L134.271 104.33C133.641 103.7 132.62 103.7 131.99 104.33C131.36 104.96 131.36 105.981 131.99 106.611L149.288 123.909C149.602 124.223 150.015 124.381 150.428 124.381V124.381Z" fill="#7E1D6E"/>
</svg>
