<svg width="225" height="225" viewBox="0 0 225 225" fill="none" xmlns="http://www.w3.org/2000/svg">
<rect width="225" height="225" fill="white"/>
<path d="M77.92 20.484L87.64 40.572C88.048 41.388 88.252 42 88.252 42.408C88.252 43.272 87.556 44.052 86.164 44.748C85.348 45.156 84.7 45.36 84.22 45.36C83.764 45.36 83.38 45.252 83.068 45.036C82.78 44.82 82.564 44.592 82.42 44.352C82.3 44.112 82.12 43.752 81.88 43.272L80.008 39.384H70.036L68.164 43.272C67.924 43.752 67.732 44.1 67.588 44.316C67.468 44.532 67.252 44.76 66.94 45C66.652 45.216 66.268 45.324 65.788 45.324C65.332 45.324 64.696 45.12 63.88 44.712C62.488 44.04 61.792 43.272 61.792 42.408C61.792 42 61.996 41.388 62.404 40.572L72.124 20.448C72.388 19.896 72.784 19.452 73.312 19.116C73.864 18.78 74.44 18.612 75.04 18.612C76.336 18.612 77.296 19.236 77.92 20.484ZM75.004 29.124L72.628 34.056H77.416L75.004 29.124ZM90.2193 50.148V29.124C90.2193 28.572 90.2313 28.164 90.2553 27.9C90.3033 27.636 90.4113 27.336 90.5793 27C90.9153 26.352 91.7193 26.028 92.9913 26.028C94.2633 26.028 95.1153 26.196 95.5473 26.532C96.0033 26.844 96.2673 27.312 96.3393 27.936C97.2513 26.688 98.6793 26.064 100.623 26.064C102.591 26.064 104.451 26.988 106.203 28.836C107.955 30.684 108.831 32.832 108.831 35.28C108.831 37.728 107.955 39.876 106.203 41.724C104.475 43.572 102.627 44.496 100.659 44.496C98.6913 44.496 97.2633 43.944 96.3753 42.84V50.112C96.3753 50.664 96.3513 51.072 96.3033 51.336C96.2793 51.6 96.1713 51.9 95.9793 52.236C95.8113 52.596 95.5113 52.848 95.0793 52.992C94.6473 53.136 94.0593 53.208 93.3153 53.208C92.5713 53.208 91.9713 53.136 91.5153 52.992C91.0833 52.848 90.7713 52.608 90.5793 52.272C90.4113 51.936 90.3033 51.636 90.2553 51.372C90.2313 51.108 90.2193 50.7 90.2193 50.148ZM97.3473 33.192C96.7953 33.84 96.5193 34.548 96.5193 35.316C96.5193 36.084 96.7953 36.792 97.3473 37.44C97.9233 38.064 98.6433 38.376 99.5073 38.376C100.395 38.376 101.139 38.064 101.739 37.44C102.363 36.816 102.675 36.108 102.675 35.316C102.675 34.524 102.387 33.816 101.811 33.192C101.235 32.544 100.479 32.22 99.5433 32.22C98.6313 32.22 97.8993 32.544 97.3473 33.192ZM111.172 50.148V29.124C111.172 28.572 111.184 28.164 111.208 27.9C111.256 27.636 111.364 27.336 111.532 27C111.868 26.352 112.672 26.028 113.944 26.028C115.216 26.028 116.068 26.196 116.5 26.532C116.956 26.844 117.22 27.312 117.292 27.936C118.204 26.688 119.632 26.064 121.576 26.064C123.544 26.064 125.404 26.988 127.156 28.836C128.908 30.684 129.784 32.832 129.784 35.28C129.784 37.728 128.908 39.876 127.156 41.724C125.428 43.572 123.58 44.496 121.612 44.496C119.644 44.496 118.216 43.944 117.328 42.84V50.112C117.328 50.664 117.304 51.072 117.256 51.336C117.232 51.6 117.124 51.9 116.932 52.236C116.764 52.596 116.464 52.848 116.032 52.992C115.6 53.136 115.012 53.208 114.268 53.208C113.524 53.208 112.924 53.136 112.468 52.992C112.036 52.848 111.724 52.608 111.532 52.272C111.364 51.936 111.256 51.636 111.208 51.372C111.184 51.108 111.172 50.7 111.172 50.148ZM118.3 33.192C117.748 33.84 117.472 34.548 117.472 35.316C117.472 36.084 117.748 36.792 118.3 37.44C118.876 38.064 119.596 38.376 120.46 38.376C121.348 38.376 122.092 38.064 122.692 37.44C123.316 36.816 123.628 36.108 123.628 35.316C123.628 34.524 123.34 33.816 122.764 33.192C122.188 32.544 121.432 32.22 120.496 32.22C119.584 32.22 118.852 32.544 118.3 33.192ZM132.126 20.268C132.126 19.716 132.138 19.308 132.162 19.044C132.21 18.756 132.318 18.432 132.486 18.072C132.822 17.424 133.758 17.1 135.294 17.1C136.758 17.1 137.67 17.424 138.03 18.072C138.222 18.432 138.33 18.756 138.354 19.044C138.402 19.332 138.426 19.752 138.426 20.304V36.972C138.426 37.836 138.498 38.388 138.642 38.628C138.786 38.844 139.098 38.952 139.578 38.952C140.082 38.952 140.418 38.976 140.586 39.024C140.754 39.048 140.958 39.144 141.198 39.312C141.678 39.624 141.918 40.476 141.918 41.868C141.918 43.38 141.678 44.304 141.198 44.64C140.574 45.072 139.086 45.144 136.734 44.856C134.886 44.616 133.686 44.004 133.134 43.02C132.462 41.844 132.126 39.972 132.126 37.404V20.268ZM161.839 33.264C161.839 34.728 161.467 35.82 160.723 36.54C160.003 37.236 159.199 37.584 158.311 37.584H149.779C149.779 38.256 150.175 38.82 150.967 39.276C151.759 39.732 152.551 39.96 153.343 39.96C154.735 39.96 155.827 39.816 156.619 39.528L157.015 39.384C157.591 39.12 158.071 38.988 158.455 38.988C159.223 38.988 159.883 39.528 160.435 40.608C160.747 41.256 160.903 41.808 160.903 42.264C160.903 44.4 158.347 45.468 153.235 45.468C151.459 45.468 149.875 45.168 148.483 44.568C147.115 43.944 146.047 43.128 145.279 42.12C143.767 40.176 143.011 38.004 143.011 35.604C143.011 32.58 143.983 30.168 145.927 28.368C147.895 26.544 150.343 25.632 153.271 25.632C156.607 25.632 159.055 26.808 160.615 29.16C161.431 30.408 161.839 31.776 161.839 33.264ZM154.243 34.308C155.155 34.308 155.611 33.924 155.611 33.156C155.611 32.604 155.395 32.16 154.963 31.824C154.555 31.488 153.955 31.32 153.163 31.32C152.395 31.32 151.627 31.644 150.859 32.292C150.091 32.916 149.707 33.588 149.707 34.308H154.243Z" fill="#DBB780"/>
<path d="M138.297 74.9297C138.297 76.57 137.008 77.8594 135.367 77.8594C124.058 77.8594 114.859 87.0589 114.859 98.3672V100.184C114.859 101.824 113.57 103.113 111.93 103.113C110.289 103.113 109 101.824 109 100.184V98.3672C109 94.0314 110.054 89.9298 111.93 86.2967C116.324 77.8006 125.172 72 135.367 72C137.008 72 138.297 73.2886 138.297 74.9297Z" fill="#B35F49"/>
<path d="M154.086 108.484C151.801 99.988 145.531 93.8356 136.917 91.6681C128.89 89.6174 120.394 91.5506 115.707 96.4724C114.71 97.5275 113.304 98.0547 111.898 98.0547C110.491 98.0547 109.085 97.5275 108.089 96.4724C103.167 91.3164 95.257 89.2656 87.2881 91.1989C78.792 93.2497 72.2887 99.4608 69.8862 107.781C67.7767 115.047 67.425 124.011 68.8898 132.215C72.23 151.434 83.9487 167 96.0779 167C98.4804 167 100.765 166.414 102.933 165.242C105.746 163.719 108.792 162.957 111.898 162.957C115.003 162.957 118.051 163.719 120.863 165.242C123.031 166.414 125.316 167 127.719 167C139.847 167 151.566 151.434 154.906 132.215C156.312 124.304 156.019 115.633 154.086 108.484Z" fill="#FF4949"/>
<path d="M154.906 132.215C151.567 151.434 139.848 167 127.719 167C125.316 167 123.031 166.414 120.864 165.242C118.051 163.719 115.004 162.957 111.898 162.957V98.0547C113.304 98.0547 114.71 97.5275 115.707 96.4724C120.394 91.5506 128.89 89.6173 136.918 91.6681C145.531 93.8356 151.801 99.988 154.086 108.484C156.019 115.633 156.312 124.304 154.906 132.215Z" fill="#FF193D"/>
<path d="M111.898 77.0197C108.324 71.0428 101.82 67 94.3201 67H82.6014C80.9603 67 79.6717 68.2886 79.6717 69.9297C79.6717 81.238 88.8704 90.4375 100.179 90.4375H111.898C113.539 90.4375 114.828 89.1481 114.828 87.5078C114.828 83.6992 113.773 80.0661 111.898 77.0197Z" fill="#93BF00"/>
<path d="M138.265 75.7891C138.265 77.4294 136.976 78.7188 135.336 78.7188C124.027 78.7188 114.828 87.9183 114.828 99.2266V101.043C114.828 102.683 113.539 103.973 111.898 103.973V87.1561C116.293 78.66 125.141 72.8594 135.336 72.8594C136.976 72.8594 138.265 74.148 138.265 75.7891Z" fill="#99503D"/>
<path d="M82.7008 189.14C82.8781 189.551 83.0648 189.859 83.2608 190.064C83.4661 190.279 83.6574 190.386 83.8348 190.386C84.0121 190.386 84.1381 190.391 84.2128 190.4C84.2968 190.409 84.3854 190.442 84.4788 190.498C84.5814 190.554 84.6514 190.647 84.6888 190.778C84.7354 190.909 84.7588 191.081 84.7588 191.296C84.7588 191.511 84.7354 191.679 84.6888 191.8C84.6514 191.931 84.5814 192.024 84.4788 192.08C84.3201 192.155 84.1101 192.192 83.8488 192.192C83.2141 192.192 82.6401 191.968 82.1268 191.52C81.6228 191.081 81.2214 190.512 80.9228 189.812C80.3161 188.375 80.0128 186.835 80.0128 185.192C80.0128 183.559 80.3021 182.028 80.8808 180.6C81.1794 179.872 81.5854 179.284 82.0988 178.836C82.6121 178.379 83.2001 178.15 83.8628 178.15C84.1428 178.15 84.3434 178.183 84.4648 178.248C84.6608 178.369 84.7588 178.64 84.7588 179.06C84.7588 179.499 84.6748 179.76 84.5068 179.844C84.3761 179.919 84.1848 179.956 83.9328 179.956H83.8488C83.4848 179.956 83.1114 180.371 82.7288 181.202C82.5514 181.603 82.4021 182.154 82.2808 182.854C82.1688 183.545 82.1128 184.319 82.1128 185.178C82.1128 186.037 82.1688 186.811 82.2808 187.502C82.3928 188.193 82.5328 188.739 82.7008 189.14ZM85.3158 185.318C85.3158 184.198 85.7078 183.274 86.4918 182.546C87.2758 181.818 88.1718 181.454 89.1798 181.454C90.1878 181.454 91.0792 181.818 91.8538 182.546C92.6285 183.265 93.0158 184.184 93.0158 185.304C93.0158 186.079 92.8152 186.769 92.4138 187.376C92.0125 187.973 91.5225 188.417 90.9438 188.706C90.3745 188.986 89.7818 189.126 89.1658 189.126C88.5498 189.126 87.9525 188.977 87.3738 188.678C86.7952 188.37 86.3052 187.922 85.9038 187.334C85.5118 186.737 85.3158 186.065 85.3158 185.318ZM88.2418 186.326C88.5405 186.55 88.8438 186.662 89.1518 186.662C89.4598 186.662 89.7678 186.545 90.0758 186.312C90.3838 186.079 90.5378 185.733 90.5378 185.276C90.5378 184.819 90.3932 184.478 90.1038 184.254C89.8145 184.03 89.5018 183.918 89.1658 183.918C88.8298 183.918 88.5172 184.035 88.2278 184.268C87.9385 184.501 87.7938 184.847 87.7938 185.304C87.7938 185.752 87.9432 186.093 88.2418 186.326ZM93.9204 191.002V182.826C93.9204 182.611 93.925 182.453 93.9344 182.35C93.953 182.247 93.995 182.131 94.0604 182C94.191 181.748 94.5037 181.622 94.9984 181.622C95.493 181.622 95.8244 181.687 95.9924 181.818C96.1697 181.939 96.2724 182.121 96.3004 182.364C96.655 181.879 97.2104 181.636 97.9664 181.636C98.7317 181.636 99.455 181.995 100.136 182.714C100.818 183.433 101.158 184.268 101.158 185.22C101.158 186.172 100.818 187.007 100.136 187.726C99.4644 188.445 98.7457 188.804 97.9804 188.804C97.215 188.804 96.6597 188.589 96.3144 188.16V190.988C96.3144 191.203 96.305 191.361 96.2864 191.464C96.277 191.567 96.235 191.683 96.1604 191.814C96.095 191.954 95.9784 192.052 95.8104 192.108C95.6424 192.164 95.4137 192.192 95.1244 192.192C94.835 192.192 94.6017 192.164 94.4244 192.108C94.2564 192.052 94.135 191.959 94.0604 191.828C93.995 191.697 93.953 191.581 93.9344 191.478C93.925 191.375 93.9204 191.217 93.9204 191.002ZM96.6924 184.408C96.4777 184.66 96.3704 184.935 96.3704 185.234C96.3704 185.533 96.4777 185.808 96.6924 186.06C96.9164 186.303 97.1964 186.424 97.5324 186.424C97.8777 186.424 98.167 186.303 98.4004 186.06C98.643 185.817 98.7644 185.542 98.7644 185.234C98.7644 184.926 98.6524 184.651 98.4284 184.408C98.2044 184.156 97.9104 184.03 97.5464 184.03C97.1917 184.03 96.907 184.156 96.6924 184.408ZM106.216 184.1L105.306 184.044V185.976C105.306 186.228 105.343 186.41 105.418 186.522C105.502 186.634 105.651 186.69 105.866 186.69C106.09 186.69 106.258 186.699 106.37 186.718C106.491 186.727 106.617 186.769 106.748 186.844C106.963 186.965 107.07 187.278 107.07 187.782C107.07 188.37 106.939 188.729 106.678 188.86C106.538 188.925 106.412 188.967 106.3 188.986C106.197 188.995 106.043 189 105.838 189C104.867 189 104.13 188.781 103.626 188.342C103.122 187.903 102.87 187.161 102.87 186.116V184.044C102.693 184.072 102.501 184.086 102.296 184.086C102.091 184.086 101.918 184.007 101.778 183.848C101.647 183.689 101.582 183.419 101.582 183.036C101.582 182.653 101.605 182.378 101.652 182.21C101.699 182.033 101.764 181.907 101.848 181.832C101.997 181.711 102.184 181.65 102.408 181.65L102.87 181.706V180.264C102.87 180.049 102.875 179.891 102.884 179.788C102.903 179.685 102.949 179.573 103.024 179.452C103.145 179.219 103.505 179.102 104.102 179.102C104.737 179.102 105.115 179.275 105.236 179.62C105.283 179.769 105.306 180.007 105.306 180.334V181.706C105.717 181.669 106.025 181.65 106.23 181.65C106.445 181.65 106.603 181.659 106.706 181.678C106.818 181.687 106.944 181.729 107.084 181.804C107.327 181.925 107.448 182.285 107.448 182.882C107.448 183.47 107.322 183.829 107.07 183.96C106.93 184.025 106.804 184.067 106.692 184.086C106.589 184.095 106.431 184.1 106.216 184.1ZM108.221 182.854C108.221 182.639 108.226 182.481 108.235 182.378C108.254 182.266 108.296 182.14 108.361 182C108.492 181.757 108.856 181.636 109.453 181.636C109.901 181.636 110.218 181.715 110.405 181.874C110.564 182.005 110.648 182.205 110.657 182.476C110.666 182.569 110.671 182.705 110.671 182.882V187.782C110.671 187.997 110.662 188.16 110.643 188.272C110.634 188.375 110.592 188.496 110.517 188.636C110.396 188.879 110.036 189 109.439 189C108.851 189 108.492 188.874 108.361 188.622C108.296 188.482 108.254 188.361 108.235 188.258C108.226 188.155 108.221 187.992 108.221 187.768V182.854ZM110.517 180.264C110.452 180.395 110.33 180.488 110.153 180.544C109.976 180.6 109.738 180.628 109.439 180.628C109.15 180.628 108.916 180.6 108.739 180.544C108.562 180.488 108.436 180.39 108.361 180.25C108.296 180.11 108.254 179.989 108.235 179.886C108.226 179.774 108.221 179.611 108.221 179.396C108.221 179.181 108.226 179.023 108.235 178.92C108.254 178.808 108.296 178.687 108.361 178.556C108.492 178.304 108.856 178.178 109.453 178.178C110.041 178.178 110.396 178.304 110.517 178.556C110.592 178.696 110.634 178.822 110.643 178.934C110.662 179.037 110.671 179.195 110.671 179.41C110.671 179.625 110.662 179.788 110.643 179.9C110.634 180.003 110.592 180.124 110.517 180.264ZM111.579 185.318C111.579 184.198 111.971 183.274 112.755 182.546C113.539 181.818 114.435 181.454 115.443 181.454C116.451 181.454 117.343 181.818 118.117 182.546C118.892 183.265 119.279 184.184 119.279 185.304C119.279 186.079 119.079 186.769 118.677 187.376C118.276 187.973 117.786 188.417 117.207 188.706C116.638 188.986 116.045 189.126 115.429 189.126C114.813 189.126 114.216 188.977 113.637 188.678C113.059 188.37 112.569 187.922 112.167 187.334C111.775 186.737 111.579 186.065 111.579 185.318ZM114.505 186.326C114.804 186.55 115.107 186.662 115.415 186.662C115.723 186.662 116.031 186.545 116.339 186.312C116.647 186.079 116.801 185.733 116.801 185.276C116.801 184.819 116.657 184.478 116.367 184.254C116.078 184.03 115.765 183.918 115.429 183.918C115.093 183.918 114.781 184.035 114.491 184.268C114.202 184.501 114.057 184.847 114.057 185.304C114.057 185.752 114.207 186.093 114.505 186.326ZM124.286 181.622C125.219 181.622 125.994 181.981 126.61 182.7C127.235 183.409 127.548 184.277 127.548 185.304V187.768C127.548 187.983 127.539 188.146 127.52 188.258C127.511 188.361 127.473 188.477 127.408 188.608C127.277 188.86 126.913 188.986 126.316 188.986C125.653 188.986 125.271 188.813 125.168 188.468C125.112 188.309 125.084 188.071 125.084 187.754V185.29C125.084 184.907 124.972 184.609 124.748 184.394C124.533 184.179 124.239 184.072 123.866 184.072C123.502 184.072 123.203 184.184 122.97 184.408C122.746 184.632 122.634 184.926 122.634 185.29V187.768C122.634 187.983 122.625 188.146 122.606 188.258C122.597 188.361 122.555 188.477 122.48 188.608C122.359 188.86 121.999 188.986 121.402 188.986C120.814 188.986 120.455 188.86 120.324 188.608C120.259 188.468 120.217 188.347 120.198 188.244C120.189 188.132 120.184 187.969 120.184 187.754V182.798C120.184 182.593 120.189 182.439 120.198 182.336C120.217 182.224 120.263 182.103 120.338 181.972C120.469 181.739 120.828 181.622 121.416 181.622C121.985 181.622 122.335 181.729 122.466 181.944C122.559 182.103 122.606 182.294 122.606 182.518C122.643 182.453 122.727 182.359 122.858 182.238C122.989 182.117 123.115 182.019 123.236 181.944C123.553 181.729 123.903 181.622 124.286 181.622ZM133.462 182.406C133.518 181.883 133.887 181.622 134.568 181.622C134.932 181.622 135.203 181.65 135.38 181.706C135.558 181.762 135.679 181.86 135.744 182C135.819 182.14 135.861 182.266 135.87 182.378C135.889 182.481 135.898 182.639 135.898 182.854V187.754C135.898 187.969 135.889 188.132 135.87 188.244C135.861 188.347 135.824 188.468 135.758 188.608C135.628 188.851 135.306 188.972 134.792 188.972C134.288 188.972 133.948 188.911 133.77 188.79C133.602 188.659 133.504 188.473 133.476 188.23C133.131 188.725 132.552 188.972 131.74 188.972C130.938 188.972 130.191 188.603 129.5 187.866C128.81 187.129 128.464 186.275 128.464 185.304C128.464 184.324 128.81 183.47 129.5 182.742C130.2 182.005 130.966 181.636 131.796 181.636C132.114 181.636 132.403 181.692 132.664 181.804C132.926 181.916 133.108 182.023 133.21 182.126C133.313 182.219 133.397 182.313 133.462 182.406ZM130.914 185.318C130.914 185.626 131.036 185.906 131.278 186.158C131.521 186.401 131.815 186.522 132.16 186.522C132.506 186.522 132.79 186.396 133.014 186.144C133.248 185.892 133.364 185.617 133.364 185.318C133.364 185.01 133.252 184.725 133.028 184.464C132.814 184.203 132.52 184.072 132.146 184.072C131.782 184.072 131.484 184.203 131.25 184.464C131.026 184.725 130.914 185.01 130.914 185.318ZM137.014 179.382C137.014 179.167 137.019 179.009 137.028 178.906C137.047 178.794 137.089 178.668 137.154 178.528C137.285 178.276 137.649 178.15 138.246 178.15C138.815 178.15 139.17 178.276 139.31 178.528C139.385 178.668 139.427 178.794 139.436 178.906C139.455 179.018 139.464 179.181 139.464 179.396V185.878C139.464 186.214 139.492 186.429 139.548 186.522C139.604 186.606 139.725 186.648 139.912 186.648C140.108 186.648 140.239 186.657 140.304 186.676C140.369 186.685 140.449 186.723 140.542 186.788C140.729 186.909 140.822 187.241 140.822 187.782C140.822 188.37 140.729 188.729 140.542 188.86C140.299 189.028 139.721 189.056 138.806 188.944C138.087 188.851 137.621 188.613 137.406 188.23C137.145 187.773 137.014 187.045 137.014 186.046V179.382ZM141.51 190.498C141.613 190.442 141.702 190.409 141.776 190.4C141.86 190.391 141.991 190.386 142.168 190.386C142.346 190.386 142.532 190.279 142.728 190.064C142.934 189.859 143.125 189.551 143.302 189.14C143.694 188.216 143.89 186.891 143.89 185.164C143.89 184.315 143.83 183.545 143.708 182.854C143.596 182.154 143.452 181.603 143.274 181.202C142.892 180.371 142.518 179.956 142.154 179.956H142.07C141.818 179.956 141.636 179.928 141.524 179.872C141.338 179.769 141.244 179.513 141.244 179.102C141.244 178.682 141.319 178.421 141.468 178.318C141.618 178.206 141.842 178.15 142.14 178.15C142.803 178.15 143.391 178.379 143.904 178.836C144.418 179.284 144.824 179.872 145.122 180.6C145.701 182.028 145.99 183.559 145.99 185.192C145.99 186.835 145.687 188.375 145.08 189.812C144.782 190.512 144.376 191.081 143.862 191.52C143.358 191.968 142.789 192.192 142.154 192.192C141.678 192.192 141.398 192.061 141.314 191.8C141.268 191.679 141.244 191.511 141.244 191.296C141.244 191.081 141.263 190.909 141.3 190.778C141.347 190.647 141.417 190.554 141.51 190.498ZM33.0575 201.3C33.4042 202.007 33.5775 202.793 33.5775 203.66C33.5775 204.527 33.4042 205.313 33.0575 206.02C32.7108 206.713 32.2642 207.267 31.7175 207.68C30.6108 208.533 29.4642 208.96 28.2775 208.96H25.7775V211.22C25.7775 211.527 25.7642 211.76 25.7375 211.92C25.7242 212.067 25.6642 212.24 25.5575 212.44C25.3708 212.8 24.8508 212.98 23.9975 212.98C23.0642 212.98 22.5175 212.733 22.3575 212.24C22.2775 212.013 22.2375 211.667 22.2375 211.2V200.1C22.2375 199.793 22.2442 199.567 22.2575 199.42C22.2842 199.26 22.3508 199.08 22.4575 198.88C22.6442 198.52 23.1642 198.34 24.0175 198.34H28.2975C29.4708 198.34 30.6108 198.767 31.7175 199.62C32.2642 200.033 32.7108 200.593 33.0575 201.3ZM28.2975 205.42C28.6975 205.42 29.0908 205.273 29.4775 204.98C29.8642 204.687 30.0575 204.247 30.0575 203.66C30.0575 203.073 29.8642 202.633 29.4775 202.34C29.0908 202.033 28.6908 201.88 28.2775 201.88H25.7775V205.42H28.2975ZM34.8742 199.26C34.8742 198.953 34.8809 198.727 34.8942 198.58C34.9209 198.42 34.9809 198.24 35.0742 198.04C35.2609 197.68 35.7809 197.5 36.6342 197.5C37.4476 197.5 37.9542 197.68 38.1542 198.04C38.2609 198.24 38.3209 198.42 38.3342 198.58C38.3609 198.74 38.3742 198.973 38.3742 199.28V208.54C38.3742 209.02 38.4142 209.327 38.4942 209.46C38.5742 209.58 38.7476 209.64 39.0142 209.64C39.2942 209.64 39.4809 209.653 39.5742 209.68C39.6676 209.693 39.7809 209.747 39.9142 209.84C40.1809 210.013 40.3142 210.487 40.3142 211.26C40.3142 212.1 40.1809 212.613 39.9142 212.8C39.5676 213.04 38.7409 213.08 37.4342 212.92C36.4076 212.787 35.7409 212.447 35.4342 211.9C35.0609 211.247 34.8742 210.207 34.8742 208.78V199.26ZM48.2572 203.58C48.3372 202.833 48.8639 202.46 49.8372 202.46C50.3572 202.46 50.7439 202.5 50.9972 202.58C51.2505 202.66 51.4239 202.8 51.5172 203C51.6239 203.2 51.6839 203.38 51.6972 203.54C51.7239 203.687 51.7372 203.913 51.7372 204.22V211.22C51.7372 211.527 51.7239 211.76 51.6972 211.92C51.6839 212.067 51.6305 212.24 51.5372 212.44C51.3505 212.787 50.8905 212.96 50.1572 212.96C49.4372 212.96 48.9505 212.873 48.6972 212.7C48.4572 212.513 48.3172 212.247 48.2772 211.9C47.7839 212.607 46.9572 212.96 45.7972 212.96C44.6505 212.96 43.5839 212.433 42.5972 211.38C41.6105 210.327 41.1172 209.107 41.1172 207.72C41.1172 206.32 41.6105 205.1 42.5972 204.06C43.5972 203.007 44.6905 202.48 45.8772 202.48C46.3305 202.48 46.7439 202.56 47.1172 202.72C47.4905 202.88 47.7505 203.033 47.8972 203.18C48.0439 203.313 48.1639 203.447 48.2572 203.58ZM44.6172 207.74C44.6172 208.18 44.7905 208.58 45.1372 208.94C45.4839 209.287 45.9039 209.46 46.3972 209.46C46.8905 209.46 47.2972 209.28 47.6172 208.92C47.9505 208.56 48.1172 208.167 48.1172 207.74C48.1172 207.3 47.9572 206.893 47.6372 206.52C47.3305 206.147 46.9105 205.96 46.3772 205.96C45.8572 205.96 45.4305 206.147 45.0972 206.52C44.7772 206.893 44.6172 207.3 44.6172 207.74ZM59.1913 202.46C60.5246 202.46 61.6313 202.973 62.5113 204C63.4046 205.013 63.8513 206.253 63.8513 207.72V211.24C63.8513 211.547 63.8379 211.78 63.8113 211.94C63.7979 212.087 63.7446 212.253 63.6513 212.44C63.4646 212.8 62.9446 212.98 62.0913 212.98C61.1446 212.98 60.5979 212.733 60.4513 212.24C60.3713 212.013 60.3313 211.673 60.3313 211.22V207.7C60.3313 207.153 60.1713 206.727 59.8513 206.42C59.5446 206.113 59.1246 205.96 58.5913 205.96C58.0713 205.96 57.6446 206.12 57.3113 206.44C56.9913 206.76 56.8313 207.18 56.8313 207.7V211.24C56.8313 211.547 56.8179 211.78 56.7913 211.94C56.7779 212.087 56.7179 212.253 56.6113 212.44C56.4379 212.8 55.9246 212.98 55.0713 212.98C54.2313 212.98 53.7179 212.8 53.5313 212.44C53.4379 212.24 53.3779 212.067 53.3513 211.92C53.3379 211.76 53.3313 211.527 53.3313 211.22V204.14C53.3313 203.847 53.3379 203.627 53.3513 203.48C53.3779 203.32 53.4446 203.147 53.5513 202.96C53.7379 202.627 54.2513 202.46 55.0913 202.46C55.9046 202.46 56.4046 202.613 56.5913 202.92C56.7246 203.147 56.7913 203.42 56.7913 203.74C56.8446 203.647 56.9646 203.513 57.1513 203.34C57.3379 203.167 57.5179 203.027 57.6913 202.92C58.1446 202.613 58.6446 202.46 59.1913 202.46ZM71.3848 206L70.0848 205.92V208.68C70.0848 209.04 70.1382 209.3 70.2448 209.46C70.3648 209.62 70.5782 209.7 70.8848 209.7C71.2048 209.7 71.4448 209.713 71.6048 209.74C71.7782 209.753 71.9582 209.813 72.1448 209.92C72.4515 210.093 72.6048 210.54 72.6048 211.26C72.6048 212.1 72.4182 212.613 72.0448 212.8C71.8448 212.893 71.6648 212.953 71.5048 212.98C71.3582 212.993 71.1382 213 70.8448 213C69.4582 213 68.4048 212.687 67.6848 212.06C66.9648 211.433 66.6048 210.373 66.6048 208.88V205.92C66.3515 205.96 66.0782 205.98 65.7848 205.98C65.4915 205.98 65.2448 205.867 65.0448 205.64C64.8582 205.413 64.7648 205.027 64.7648 204.48C64.7648 203.933 64.7982 203.54 64.8648 203.3C64.9315 203.047 65.0248 202.867 65.1448 202.76C65.3582 202.587 65.6248 202.5 65.9448 202.5L66.6048 202.58V200.52C66.6048 200.213 66.6115 199.987 66.6248 199.84C66.6515 199.693 66.7182 199.533 66.8248 199.36C66.9982 199.027 67.5115 198.86 68.3648 198.86C69.2715 198.86 69.8115 199.107 69.9848 199.6C70.0515 199.813 70.0848 200.153 70.0848 200.62V202.58C70.6715 202.527 71.1115 202.5 71.4048 202.5C71.7115 202.5 71.9382 202.513 72.0848 202.54C72.2448 202.553 72.4248 202.613 72.6248 202.72C72.9715 202.893 73.1448 203.407 73.1448 204.26C73.1448 205.1 72.9648 205.613 72.6048 205.8C72.4048 205.893 72.2248 205.953 72.0648 205.98C71.9182 205.993 71.6915 206 71.3848 206ZM80.1492 210.22H75.3892C74.6426 210.22 74.1959 209.993 74.0492 209.54C73.9826 209.3 73.9492 208.993 73.9492 208.62C73.9492 208.247 73.9892 207.947 74.0692 207.72C74.1492 207.493 74.2759 207.333 74.4492 207.24C74.6892 207.12 75.0092 207.06 75.4092 207.06H80.1692C80.9159 207.06 81.3559 207.28 81.4892 207.72C81.5692 207.96 81.6092 208.267 81.6092 208.64C81.6092 209.013 81.5692 209.32 81.4892 209.56C81.4226 209.787 81.3092 209.947 81.1492 210.04C80.9092 210.16 80.5759 210.22 80.1492 210.22ZM88.6816 202.48C89.8682 202.48 90.9549 203.007 91.9416 204.06C92.9416 205.113 93.4416 206.34 93.4416 207.74C93.4416 209.127 92.9482 210.347 91.9616 211.4C90.9749 212.44 89.9149 212.96 88.7816 212.96C87.6482 212.96 86.8416 212.64 86.3616 212C86.2549 212.653 85.6816 212.98 84.6416 212.98C83.8016 212.98 83.2882 212.8 83.1016 212.44C83.0082 212.24 82.9482 212.067 82.9216 211.92C82.9082 211.76 82.9016 211.527 82.9016 211.22V199.28C82.9016 198.973 82.9082 198.747 82.9216 198.6C82.9482 198.44 83.0082 198.267 83.1016 198.08C83.2882 197.72 83.8082 197.54 84.6616 197.54C85.5016 197.54 86.0082 197.72 86.1816 198.08C86.2882 198.28 86.3482 198.46 86.3616 198.62C86.3882 198.767 86.4016 198.993 86.4016 199.3V203.46C86.9349 202.807 87.6949 202.48 88.6816 202.48ZM86.9216 208.94C87.2549 209.3 87.6682 209.48 88.1616 209.48C88.6549 209.48 89.0749 209.3 89.4216 208.94C89.7682 208.58 89.9416 208.18 89.9416 207.74C89.9416 207.3 89.7816 206.9 89.4616 206.54C89.1416 206.167 88.7149 205.98 88.1816 205.98C87.6482 205.98 87.2216 206.167 86.9016 206.54C86.5949 206.913 86.4416 207.32 86.4416 207.76C86.4416 208.187 86.6016 208.58 86.9216 208.94ZM101.578 203.58C101.658 202.833 102.184 202.46 103.158 202.46C103.678 202.46 104.064 202.5 104.318 202.58C104.571 202.66 104.744 202.8 104.838 203C104.944 203.2 105.004 203.38 105.018 203.54C105.044 203.687 105.058 203.913 105.058 204.22V211.22C105.058 211.527 105.044 211.76 105.018 211.92C105.004 212.067 104.951 212.24 104.858 212.44C104.671 212.787 104.211 212.96 103.478 212.96C102.758 212.96 102.271 212.873 102.018 212.7C101.778 212.513 101.638 212.247 101.598 211.9C101.104 212.607 100.278 212.96 99.1175 212.96C97.9708 212.96 96.9042 212.433 95.9175 211.38C94.9308 210.327 94.4375 209.107 94.4375 207.72C94.4375 206.32 94.9308 205.1 95.9175 204.06C96.9175 203.007 98.0108 202.48 99.1975 202.48C99.6508 202.48 100.064 202.56 100.438 202.72C100.811 202.88 101.071 203.033 101.218 203.18C101.364 203.313 101.484 203.447 101.578 203.58ZM97.9375 207.74C97.9375 208.18 98.1108 208.58 98.4575 208.94C98.8042 209.287 99.2242 209.46 99.7175 209.46C100.211 209.46 100.618 209.28 100.938 208.92C101.271 208.56 101.438 208.167 101.438 207.74C101.438 207.3 101.278 206.893 100.958 206.52C100.651 206.147 100.231 205.96 99.6975 205.96C99.1775 205.96 98.7508 206.147 98.4175 206.52C98.0975 206.893 97.9375 207.3 97.9375 207.74ZM106.732 212.06C106.478 211.9 106.352 211.647 106.352 211.3C106.352 210.953 106.605 210.427 107.112 209.72C107.258 209.493 107.492 209.38 107.812 209.38C108.145 209.38 108.592 209.547 109.152 209.88C109.712 210.2 110.218 210.36 110.672 210.36C111.485 210.36 111.892 210.2 111.892 209.88C111.892 209.627 111.445 209.44 110.552 209.32C109.712 209.2 108.878 208.887 108.052 208.38C107.665 208.14 107.345 207.767 107.092 207.26C106.838 206.74 106.712 206.127 106.712 205.42C106.712 203.313 108.158 202.26 111.052 202.26C111.998 202.26 112.972 202.487 113.972 202.94C114.438 203.153 114.672 203.42 114.672 203.74C114.672 204.06 114.525 204.453 114.232 204.92C113.938 205.387 113.638 205.62 113.332 205.62C113.172 205.62 112.872 205.52 112.432 205.32C112.005 205.12 111.538 205.02 111.032 205.02C110.245 205.02 109.852 205.167 109.852 205.46C109.852 205.86 110.305 206.12 111.212 206.24C112.092 206.333 112.945 206.587 113.772 207C114.158 207.187 114.478 207.513 114.732 207.98C114.998 208.433 115.132 209.007 115.132 209.7C115.132 210.393 114.998 210.987 114.732 211.48C114.478 211.96 114.118 212.32 113.652 212.56C112.798 212.973 111.725 213.18 110.432 213.18C109.152 213.18 107.918 212.807 106.732 212.06ZM126.597 206.48C126.597 207.293 126.39 207.9 125.977 208.3C125.577 208.687 125.13 208.88 124.637 208.88H119.897C119.897 209.253 120.117 209.567 120.557 209.82C120.997 210.073 121.437 210.2 121.877 210.2C122.65 210.2 123.257 210.12 123.697 209.96L123.917 209.88C124.237 209.733 124.503 209.66 124.717 209.66C125.143 209.66 125.51 209.96 125.817 210.56C125.99 210.92 126.077 211.227 126.077 211.48C126.077 212.667 124.657 213.26 121.817 213.26C120.83 213.26 119.95 213.093 119.177 212.76C118.417 212.413 117.823 211.96 117.397 211.4C116.557 210.32 116.137 209.113 116.137 207.78C116.137 206.1 116.677 204.76 117.757 203.76C118.85 202.747 120.21 202.24 121.837 202.24C123.69 202.24 125.05 202.893 125.917 204.2C126.37 204.893 126.597 205.653 126.597 206.48ZM122.377 207.06C122.883 207.06 123.137 206.847 123.137 206.42C123.137 206.113 123.017 205.867 122.777 205.68C122.55 205.493 122.217 205.4 121.777 205.4C121.35 205.4 120.923 205.58 120.497 205.94C120.07 206.287 119.857 206.66 119.857 207.06H122.377ZM134.962 198.08C135.068 197.88 135.248 197.74 135.502 197.66C135.755 197.58 136.088 197.54 136.502 197.54C136.928 197.54 137.268 197.58 137.522 197.66C137.775 197.74 137.948 197.88 138.042 198.08C138.148 198.28 138.208 198.46 138.222 198.62C138.248 198.767 138.262 198.993 138.262 199.3V211.24C138.262 211.547 138.248 211.78 138.222 211.94C138.208 212.087 138.148 212.253 138.042 212.44C137.842 212.8 137.275 212.98 136.342 212.98C135.422 212.98 134.908 212.653 134.802 212C134.242 212.64 133.462 212.96 132.462 212.96C131.262 212.96 130.168 212.44 129.182 211.4C128.195 210.347 127.702 209.127 127.702 207.74C127.702 206.34 128.195 205.113 129.182 204.06C130.182 203.007 131.275 202.48 132.462 202.48C133.448 202.48 134.215 202.813 134.762 203.48V199.28C134.762 198.973 134.768 198.747 134.782 198.6C134.808 198.44 134.868 198.267 134.962 198.08ZM131.722 208.94C132.068 209.3 132.488 209.48 132.982 209.48C133.475 209.48 133.882 209.3 134.202 208.94C134.535 208.58 134.702 208.187 134.702 207.76C134.702 207.32 134.542 206.913 134.222 206.54C133.915 206.167 133.495 205.98 132.962 205.98C132.428 205.98 132.002 206.167 131.682 206.54C131.362 206.9 131.202 207.3 131.202 207.74C131.202 208.18 131.375 208.58 131.722 208.94ZM150.693 202.48C151.88 202.48 152.967 203.007 153.953 204.06C154.953 205.113 155.453 206.34 155.453 207.74C155.453 209.127 154.96 210.347 153.973 211.4C152.987 212.44 151.927 212.96 150.793 212.96C149.66 212.96 148.853 212.64 148.373 212C148.267 212.653 147.693 212.98 146.653 212.98C145.813 212.98 145.3 212.8 145.113 212.44C145.02 212.24 144.96 212.067 144.933 211.92C144.92 211.76 144.913 211.527 144.913 211.22V199.28C144.913 198.973 144.92 198.747 144.933 198.6C144.96 198.44 145.02 198.267 145.113 198.08C145.3 197.72 145.82 197.54 146.673 197.54C147.513 197.54 148.02 197.72 148.193 198.08C148.3 198.28 148.36 198.46 148.373 198.62C148.4 198.767 148.413 198.993 148.413 199.3V203.46C148.947 202.807 149.707 202.48 150.693 202.48ZM148.933 208.94C149.267 209.3 149.68 209.48 150.173 209.48C150.667 209.48 151.087 209.3 151.433 208.94C151.78 208.58 151.953 208.18 151.953 207.74C151.953 207.3 151.793 206.9 151.473 206.54C151.153 206.167 150.727 205.98 150.193 205.98C149.66 205.98 149.233 206.167 148.913 206.54C148.607 206.913 148.453 207.32 148.453 207.76C148.453 208.187 148.613 208.58 148.933 208.94ZM161.429 212.96C160.083 212.96 158.963 212.453 158.069 211.44C157.189 210.413 156.749 209.167 156.749 207.7V204.2C156.749 203.88 156.756 203.647 156.769 203.5C156.796 203.353 156.856 203.18 156.949 202.98C157.136 202.62 157.656 202.44 158.509 202.44C159.443 202.44 159.989 202.693 160.149 203.2C160.229 203.413 160.269 203.753 160.269 204.22V207.72C160.269 208.267 160.423 208.693 160.729 209C161.049 209.307 161.469 209.46 161.989 209.46C162.523 209.46 162.949 209.3 163.269 208.98C163.603 208.66 163.769 208.24 163.769 207.72V204.18C163.769 203.873 163.776 203.647 163.789 203.5C163.816 203.34 163.883 203.16 163.989 202.96C164.163 202.613 164.676 202.44 165.529 202.44C166.369 202.44 166.883 202.62 167.069 202.98C167.163 203.18 167.216 203.36 167.229 203.52C167.256 203.667 167.269 203.893 167.269 204.2V211.28C167.269 211.573 167.256 211.8 167.229 211.96C167.216 212.107 167.156 212.273 167.049 212.46C166.849 212.807 166.336 212.98 165.509 212.98C164.696 212.98 164.196 212.82 164.009 212.5C163.876 212.273 163.809 212 163.809 211.68C163.756 211.773 163.636 211.907 163.449 212.08C163.263 212.253 163.083 212.4 162.909 212.52C162.456 212.813 161.963 212.96 161.429 212.96ZM181.898 206L180.598 205.92V208.68C180.598 209.04 180.651 209.3 180.758 209.46C180.878 209.62 181.091 209.7 181.398 209.7C181.718 209.7 181.958 209.713 182.118 209.74C182.291 209.753 182.465 209.813 182.638 209.92C182.958 210.093 183.118 210.54 183.118 211.26C183.118 212.1 182.931 212.613 182.558 212.8C182.358 212.893 182.178 212.953 182.018 212.98C181.871 212.993 181.651 213 181.358 213C180.025 213 178.985 212.653 178.238 211.96C177.491 211.267 177.118 210.24 177.118 208.88V205.92C176.478 205.973 175.945 206 175.518 206L173.698 205.92V208.68C173.698 209.04 173.751 209.3 173.858 209.46C173.978 209.62 174.191 209.7 174.498 209.7C174.818 209.7 175.058 209.713 175.218 209.74C175.391 209.753 175.571 209.813 175.758 209.92C176.065 210.093 176.218 210.54 176.218 211.26C176.218 212.1 176.031 212.613 175.658 212.8C175.458 212.893 175.278 212.953 175.118 212.98C174.971 212.993 174.751 213 174.458 213C173.125 213 172.085 212.653 171.338 211.96C170.591 211.267 170.218 210.24 170.218 208.88V205.92C169.951 205.96 169.671 205.98 169.378 205.98C169.098 205.98 168.858 205.867 168.658 205.64C168.471 205.413 168.378 205.027 168.378 204.48C168.378 203.933 168.411 203.54 168.478 203.3C168.545 203.047 168.638 202.867 168.758 202.76C168.971 202.587 169.238 202.5 169.558 202.5L170.218 202.58V200.52C170.218 200.213 170.225 199.987 170.238 199.84C170.265 199.693 170.331 199.533 170.438 199.36C170.611 199.027 171.125 198.86 171.978 198.86C172.885 198.86 173.425 199.107 173.598 199.6C173.665 199.813 173.698 200.153 173.698 200.62V202.52C174.325 202.507 174.918 202.5 175.478 202.5L177.118 202.52V200.52C177.118 200.213 177.125 199.987 177.138 199.84C177.165 199.693 177.225 199.533 177.318 199.36C177.505 199.027 178.025 198.86 178.878 198.86C179.785 198.86 180.318 199.107 180.478 199.6C180.558 199.813 180.598 200.153 180.598 200.62V202.58C181.185 202.527 181.625 202.5 181.918 202.5C182.225 202.5 182.451 202.513 182.598 202.54C182.758 202.553 182.931 202.613 183.118 202.72C183.478 202.893 183.658 203.407 183.658 204.26C183.658 205.1 183.478 205.613 183.118 205.8C182.918 205.893 182.738 205.953 182.578 205.98C182.431 205.993 182.205 206 181.898 206ZM194.917 206.48C194.917 207.293 194.71 207.9 194.297 208.3C193.897 208.687 193.45 208.88 192.957 208.88H188.217C188.217 209.253 188.437 209.567 188.877 209.82C189.317 210.073 189.757 210.2 190.197 210.2C190.97 210.2 191.577 210.12 192.017 209.96L192.237 209.88C192.557 209.733 192.824 209.66 193.037 209.66C193.464 209.66 193.83 209.96 194.137 210.56C194.31 210.92 194.397 211.227 194.397 211.48C194.397 212.667 192.977 213.26 190.137 213.26C189.15 213.26 188.27 213.093 187.497 212.76C186.737 212.413 186.144 211.96 185.717 211.4C184.877 210.32 184.457 209.113 184.457 207.78C184.457 206.1 184.997 204.76 186.077 203.76C187.17 202.747 188.53 202.24 190.157 202.24C192.01 202.24 193.37 202.893 194.237 204.2C194.69 204.893 194.917 205.653 194.917 206.48ZM190.697 207.06C191.204 207.06 191.457 206.847 191.457 206.42C191.457 206.113 191.337 205.867 191.097 205.68C190.87 205.493 190.537 205.4 190.097 205.4C189.67 205.4 189.244 205.58 188.817 205.94C188.39 206.287 188.177 206.66 188.177 207.06H190.697ZM203.382 202.58C203.635 202.66 203.842 202.8 204.002 203C204.175 203.187 204.262 203.493 204.262 203.92C204.262 204.347 204.135 204.813 203.882 205.32C203.629 205.827 203.262 206.08 202.782 206.08C202.542 206.08 202.309 206.027 202.082 205.92C201.869 205.813 201.582 205.76 201.222 205.76C200.862 205.76 200.522 205.887 200.202 206.14C199.895 206.393 199.742 206.7 199.742 207.06V211.26C199.742 211.567 199.729 211.8 199.702 211.96C199.689 212.107 199.629 212.28 199.522 212.48C199.322 212.827 198.802 213 197.962 213C197.322 213 196.862 212.887 196.582 212.66C196.369 212.473 196.249 212.187 196.222 211.8C196.222 211.667 196.222 211.473 196.222 211.22V204.2C196.222 203.893 196.229 203.667 196.242 203.52C196.269 203.36 196.329 203.187 196.422 203C196.609 202.64 197.129 202.46 197.982 202.46C198.782 202.46 199.282 202.613 199.482 202.92C199.629 203.133 199.702 203.353 199.702 203.58C199.769 203.487 199.862 203.373 199.982 203.24C200.115 203.107 200.389 202.927 200.802 202.7C201.215 202.473 201.575 202.36 201.882 202.36C202.202 202.36 202.469 202.38 202.682 202.42C202.895 202.447 203.129 202.5 203.382 202.58Z" fill="#DBB780"/>
</svg>
