<svg width="225" height="225" viewBox="0 0 225 225" fill="none" xmlns="http://www.w3.org/2000/svg">
<rect width="225" height="225" fill="white"/>
<path d="M50.7331 18.384H64.0771C64.5891 18.384 64.9651 18.448 65.2051 18.576C65.4451 18.688 65.6051 18.872 65.6851 19.128C65.7651 19.384 65.8051 19.72 65.8051 20.136C65.8051 20.552 65.7651 20.888 65.6851 21.144C65.6051 21.384 65.4691 21.552 65.2771 21.648C64.9891 21.792 64.5811 21.864 64.0531 21.864H59.4691V33.936C59.4691 34.304 59.4531 34.576 59.4211 34.752C59.4051 34.928 59.3331 35.136 59.2051 35.376C59.0931 35.6 58.8851 35.76 58.5811 35.856C58.2771 35.952 57.8771 36 57.3811 36C56.8851 36 56.4851 35.952 56.1811 35.856C55.8931 35.76 55.6851 35.6 55.5571 35.376C55.4451 35.136 55.3731 34.928 55.3411 34.752C55.3251 34.56 55.3171 34.28 55.3171 33.912V21.864H50.7091C50.1971 21.864 49.8211 21.808 49.5811 21.696C49.3411 21.568 49.1811 21.376 49.1011 21.12C49.0211 20.864 48.9811 20.528 48.9811 20.112C48.9811 19.696 49.0211 19.368 49.1011 19.128C49.1811 18.872 49.3171 18.696 49.5091 18.6C49.7971 18.456 50.2051 18.384 50.7331 18.384ZM72.845 23.496C73.149 23.592 73.397 23.76 73.589 24C73.797 24.224 73.901 24.592 73.901 25.104C73.901 25.616 73.749 26.176 73.445 26.784C73.141 27.392 72.701 27.696 72.125 27.696C71.837 27.696 71.557 27.632 71.285 27.504C71.029 27.376 70.685 27.312 70.253 27.312C69.821 27.312 69.413 27.464 69.029 27.768C68.661 28.072 68.477 28.44 68.477 28.872V33.912C68.477 34.28 68.461 34.56 68.429 34.752C68.413 34.928 68.341 35.136 68.213 35.376C67.973 35.792 67.349 36 66.341 36C65.573 36 65.021 35.864 64.685 35.592C64.429 35.368 64.285 35.024 64.253 34.56C64.253 34.4 64.253 34.168 64.253 33.864V25.44C64.253 25.072 64.261 24.8 64.277 24.624C64.309 24.432 64.381 24.224 64.493 24C64.717 23.568 65.341 23.352 66.365 23.352C67.325 23.352 67.925 23.536 68.165 23.904C68.341 24.16 68.429 24.424 68.429 24.696C68.509 24.584 68.621 24.448 68.765 24.288C68.925 24.128 69.253 23.912 69.749 23.64C70.245 23.368 70.677 23.232 71.045 23.232C71.429 23.232 71.749 23.256 72.005 23.304C72.261 23.336 72.541 23.4 72.845 23.496ZM86.9817 23.496C87.9257 23.912 88.3977 24.416 88.3977 25.008C88.3977 25.296 88.3337 25.568 88.2057 25.824C88.0777 26.08 88.0137 26.216 88.0137 26.232L81.7257 40.296C81.5977 40.6 81.4857 40.832 81.3897 40.992C81.3097 41.152 81.1737 41.304 80.9817 41.448C80.7897 41.592 80.5497 41.664 80.2617 41.664C79.9737 41.664 79.5497 41.544 78.9897 41.304C78.0457 40.888 77.5737 40.392 77.5737 39.816C77.5737 39.432 78.3417 37.6 79.8777 34.32L75.1017 26.28C74.7817 25.752 74.6217 25.36 74.6217 25.104C74.6217 24.592 75.0537 24.08 75.9177 23.568C76.4617 23.248 76.8857 23.088 77.1897 23.088C77.4937 23.088 77.7417 23.152 77.9337 23.28C78.1257 23.408 78.2617 23.544 78.3417 23.688C78.4377 23.816 78.8777 24.56 79.6617 25.92C80.4617 27.264 81.2217 28.52 81.9417 29.688C82.0217 29.432 82.4537 28.448 83.2377 26.736C84.0217 25.008 84.4377 24.088 84.4857 23.976C84.5497 23.864 84.6457 23.728 84.7737 23.568C84.9817 23.296 85.2697 23.16 85.6377 23.16C86.0217 23.16 86.4697 23.272 86.9817 23.496ZM102.784 23.4C104.384 23.4 105.712 24.008 106.768 25.224C107.84 26.44 108.376 27.928 108.376 29.688V33.912C108.376 34.28 108.36 34.56 108.328 34.752C108.312 34.928 108.24 35.136 108.112 35.376C107.904 35.792 107.288 36 106.264 36C105.288 36 104.68 35.792 104.44 35.376C104.312 35.136 104.232 34.92 104.2 34.728C104.184 34.536 104.176 34.248 104.176 33.864V29.664C104.176 29.008 103.992 28.496 103.624 28.128C103.256 27.76 102.784 27.576 102.208 27.576C101.648 27.576 101.152 27.752 100.72 28.104C100.288 28.44 100.04 28.824 99.9764 29.256V33.912C99.9764 34.28 99.9604 34.56 99.9284 34.752C99.9124 34.928 99.8404 35.136 99.7124 35.376C99.5044 35.792 98.8884 36 97.8644 36C96.8564 36 96.2404 35.784 96.0164 35.352C95.9044 35.112 95.8324 34.904 95.8004 34.728C95.7844 34.552 95.7764 34.272 95.7764 33.888V19.536C95.7764 19.168 95.7844 18.896 95.8004 18.72C95.8324 18.528 95.9044 18.32 96.0164 18.096C96.2404 17.664 96.8644 17.448 97.8884 17.448C98.8964 17.448 99.5044 17.664 99.7124 18.096C99.8404 18.336 99.9124 18.552 99.9284 18.744C99.9604 18.92 99.9764 19.192 99.9764 19.56V24.864C100.776 23.888 101.712 23.4 102.784 23.4ZM118.516 24.696C118.612 23.8 119.244 23.352 120.412 23.352C121.036 23.352 121.5 23.4 121.804 23.496C122.108 23.592 122.316 23.76 122.428 24C122.556 24.24 122.628 24.456 122.644 24.648C122.676 24.824 122.692 25.096 122.692 25.464V33.864C122.692 34.232 122.676 34.512 122.644 34.704C122.628 34.88 122.564 35.088 122.452 35.328C122.228 35.744 121.676 35.952 120.796 35.952C119.932 35.952 119.348 35.848 119.044 35.64C118.756 35.416 118.588 35.096 118.54 34.68C117.948 35.528 116.956 35.952 115.564 35.952C114.188 35.952 112.908 35.32 111.724 34.056C110.54 32.792 109.948 31.328 109.948 29.664C109.948 27.984 110.54 26.52 111.724 25.272C112.924 24.008 114.236 23.376 115.66 23.376C116.204 23.376 116.7 23.472 117.148 23.664C117.596 23.856 117.908 24.04 118.084 24.216C118.26 24.376 118.404 24.536 118.516 24.696ZM114.148 29.688C114.148 30.216 114.356 30.696 114.772 31.128C115.188 31.544 115.692 31.752 116.284 31.752C116.876 31.752 117.364 31.536 117.748 31.104C118.148 30.672 118.348 30.2 118.348 29.688C118.348 29.16 118.156 28.672 117.772 28.224C117.404 27.776 116.9 27.552 116.26 27.552C115.636 27.552 115.124 27.776 114.724 28.224C114.34 28.672 114.148 29.16 114.148 29.688ZM136.997 23.64C137.829 24.136 138.245 24.664 138.245 25.224C138.245 25.544 138.085 25.984 137.765 26.544L132.797 35.064C132.637 35.336 132.381 35.584 132.029 35.808C131.677 36.016 131.325 36.12 130.973 36.12C130.637 36.12 130.309 36.04 129.989 35.88C129.685 35.704 129.469 35.528 129.341 35.352L129.125 35.088L124.133 26.544C123.813 26.016 123.653 25.584 123.653 25.248C123.653 24.672 124.069 24.136 124.901 23.64C125.509 23.288 125.989 23.112 126.341 23.112C126.693 23.112 126.965 23.224 127.157 23.448C127.365 23.656 127.581 23.976 127.805 24.408L130.949 30.456L134.093 24.408C134.269 24.104 134.397 23.888 134.477 23.76C134.573 23.616 134.717 23.48 134.909 23.352C135.101 23.208 135.357 23.136 135.677 23.136C135.997 23.136 136.437 23.304 136.997 23.64ZM139.558 25.464C139.558 25.096 139.566 24.824 139.582 24.648C139.614 24.456 139.686 24.24 139.798 24C140.022 23.584 140.646 23.376 141.67 23.376C142.438 23.376 142.982 23.512 143.302 23.784C143.574 24.008 143.718 24.352 143.734 24.816C143.75 24.976 143.758 25.208 143.758 25.512V33.912C143.758 34.28 143.742 34.56 143.71 34.752C143.694 34.928 143.622 35.136 143.494 35.376C143.286 35.792 142.67 36 141.646 36C140.638 36 140.022 35.784 139.798 35.352C139.686 35.112 139.614 34.904 139.582 34.728C139.566 34.552 139.558 34.272 139.558 33.888V25.464ZM143.494 21.024C143.382 21.248 143.174 21.408 142.87 21.504C142.566 21.6 142.158 21.648 141.646 21.648C141.15 21.648 140.75 21.6 140.446 21.504C140.142 21.408 139.926 21.24 139.798 21C139.686 20.76 139.614 20.552 139.582 20.376C139.566 20.184 139.558 19.904 139.558 19.536C139.558 19.168 139.566 18.896 139.582 18.72C139.614 18.528 139.686 18.32 139.798 18.096C140.022 17.664 140.646 17.448 141.67 17.448C142.678 17.448 143.286 17.664 143.494 18.096C143.622 18.336 143.694 18.552 143.71 18.744C143.742 18.92 143.758 19.192 143.758 19.56C143.758 19.928 143.742 20.208 143.71 20.4C143.694 20.576 143.622 20.784 143.494 21.024ZM152.707 23.352C154.307 23.352 155.635 23.968 156.691 25.2C157.763 26.416 158.299 27.904 158.299 29.664V33.888C158.299 34.256 158.283 34.536 158.251 34.728C158.235 34.904 158.171 35.104 158.059 35.328C157.835 35.76 157.211 35.976 156.187 35.976C155.051 35.976 154.395 35.68 154.219 35.088C154.123 34.816 154.075 34.408 154.075 33.864V29.64C154.075 28.984 153.883 28.472 153.499 28.104C153.131 27.736 152.627 27.552 151.987 27.552C151.363 27.552 150.851 27.744 150.451 28.128C150.067 28.512 149.875 29.016 149.875 29.64V33.888C149.875 34.256 149.859 34.536 149.827 34.728C149.811 34.904 149.739 35.104 149.611 35.328C149.403 35.76 148.787 35.976 147.763 35.976C146.755 35.976 146.139 35.76 145.915 35.328C145.803 35.088 145.731 34.88 145.699 34.704C145.683 34.512 145.675 34.232 145.675 33.864V25.368C145.675 25.016 145.683 24.752 145.699 24.576C145.731 24.384 145.811 24.176 145.939 23.952C146.163 23.552 146.779 23.352 147.787 23.352C148.763 23.352 149.363 23.536 149.587 23.904C149.747 24.176 149.827 24.504 149.827 24.888C149.891 24.776 150.035 24.616 150.259 24.408C150.483 24.2 150.699 24.032 150.907 23.904C151.451 23.536 152.051 23.352 152.707 23.352ZM168.246 34.416C167.638 35.216 166.67 35.616 165.342 35.616C164.014 35.616 162.766 35.008 161.598 33.792C160.446 32.56 159.87 31.128 159.87 29.496C159.87 27.864 160.454 26.432 161.622 25.2C162.79 23.968 164.07 23.352 165.462 23.352C166.006 23.352 166.502 23.456 166.95 23.664C167.398 23.856 167.702 24.04 167.862 24.216C168.038 24.376 168.174 24.528 168.27 24.672C168.318 24.224 168.478 23.888 168.75 23.664C169.038 23.424 169.494 23.304 170.118 23.304C170.742 23.304 171.198 23.352 171.486 23.448C171.774 23.544 171.974 23.712 172.086 23.952C172.214 24.176 172.286 24.376 172.302 24.552C172.334 24.728 172.35 25 172.35 25.368V35.304C172.35 37.144 171.71 38.624 170.43 39.744C169.15 40.88 167.71 41.448 166.11 41.448C164.894 41.448 163.734 41.152 162.63 40.56C161.526 39.968 160.974 39.432 160.974 38.952C160.974 38.328 161.214 37.776 161.694 37.296C161.998 36.96 162.23 36.728 162.39 36.6C162.566 36.472 162.766 36.408 162.99 36.408C163.214 36.408 163.446 36.504 163.686 36.696C164.454 37.288 165.286 37.584 166.182 37.584C166.79 37.584 167.286 37.344 167.67 36.864C168.054 36.384 168.246 35.808 168.246 35.136V34.416ZM163.974 29.52C163.974 30.032 164.174 30.496 164.574 30.912C164.99 31.328 165.486 31.536 166.062 31.536C166.654 31.536 167.142 31.328 167.526 30.912C167.91 30.48 168.102 30.016 168.102 29.52C168.102 29.008 167.918 28.536 167.55 28.104C167.182 27.656 166.686 27.432 166.062 27.432C165.438 27.432 164.934 27.648 164.55 28.08C164.166 28.512 163.974 28.992 163.974 29.52ZM104.252 58.688C104.252 56.768 104.924 55.184 106.268 53.936C107.612 52.688 109.148 52.064 110.876 52.064C112.604 52.064 114.132 52.688 115.46 53.936C116.788 55.168 117.452 56.744 117.452 58.664C117.452 59.992 117.108 61.176 116.42 62.216C115.732 63.24 114.892 64 113.9 64.496C112.924 64.976 111.908 65.216 110.852 65.216C109.796 65.216 108.772 64.96 107.78 64.448C106.788 63.92 105.948 63.152 105.26 62.144C104.588 61.12 104.252 59.968 104.252 58.688ZM109.268 60.416C109.78 60.8 110.3 60.992 110.828 60.992C111.356 60.992 111.884 60.792 112.412 60.392C112.94 59.992 113.204 59.4 113.204 58.616C113.204 57.832 112.956 57.248 112.46 56.864C111.964 56.48 111.428 56.288 110.852 56.288C110.276 56.288 109.74 56.488 109.244 56.888C108.748 57.288 108.5 57.88 108.5 58.664C108.5 59.432 108.756 60.016 109.268 60.416ZM125.926 52.376C127.03 52.376 127.678 52.68 127.87 53.288C127.966 53.592 128.014 53.992 128.014 54.488C128.014 54.984 127.958 55.384 127.846 55.688C127.75 55.976 127.59 56.184 127.366 56.312C127.03 56.504 126.542 56.6 125.902 56.6L124.366 56.504V62.936C124.366 63.544 124.286 64 124.126 64.304C123.982 64.592 123.75 64.784 123.43 64.88C123.126 64.976 122.726 65.024 122.23 65.024C121.734 65.024 121.334 64.976 121.03 64.88C120.742 64.768 120.534 64.6 120.406 64.376C120.278 64.136 120.198 63.92 120.166 63.728C120.15 63.536 120.142 63.256 120.142 62.888V56.528H119.278C118.862 56.496 118.566 56.4 118.39 56.24C118.086 55.936 117.934 55.352 117.934 54.488C117.934 53.176 118.406 52.52 119.35 52.52H120.142V51.248C120.142 50.016 120.582 48.904 121.462 47.912C122.342 46.904 123.614 46.4 125.278 46.4C125.646 46.4 125.918 46.416 126.094 46.448C126.286 46.464 126.502 46.536 126.742 46.664C127.174 46.872 127.39 47.488 127.39 48.512C127.39 49.28 127.254 49.832 126.982 50.168C126.758 50.424 126.406 50.568 125.926 50.6C125.782 50.6 125.558 50.6 125.254 50.6C124.662 50.6 124.366 50.8 124.366 51.2V52.52L125.926 52.376ZM147.169 52.496C148.113 52.912 148.585 53.416 148.585 54.008C148.585 54.296 148.521 54.568 148.393 54.824C148.265 55.08 148.201 55.216 148.201 55.232L141.913 69.296C141.785 69.6 141.673 69.832 141.577 69.992C141.497 70.152 141.361 70.304 141.169 70.448C140.977 70.592 140.737 70.664 140.449 70.664C140.161 70.664 139.737 70.544 139.177 70.304C138.233 69.888 137.761 69.392 137.761 68.816C137.761 68.432 138.529 66.6 140.065 63.32L135.289 55.28C134.969 54.752 134.809 54.36 134.809 54.104C134.809 53.592 135.241 53.08 136.105 52.568C136.649 52.248 137.073 52.088 137.377 52.088C137.681 52.088 137.929 52.152 138.121 52.28C138.313 52.408 138.449 52.544 138.529 52.688C138.625 52.816 139.065 53.56 139.849 54.92C140.649 56.264 141.409 57.52 142.129 58.688C142.209 58.432 142.641 57.448 143.425 55.736C144.209 54.008 144.625 53.088 144.673 52.976C144.737 52.864 144.833 52.728 144.961 52.568C145.169 52.296 145.457 52.16 145.825 52.16C146.209 52.16 146.657 52.272 147.169 52.496ZM149.534 58.688C149.534 56.768 150.206 55.184 151.55 53.936C152.894 52.688 154.43 52.064 156.158 52.064C157.886 52.064 159.414 52.688 160.742 53.936C162.07 55.168 162.734 56.744 162.734 58.664C162.734 59.992 162.39 61.176 161.702 62.216C161.014 63.24 160.174 64 159.182 64.496C158.206 64.976 157.19 65.216 156.134 65.216C155.078 65.216 154.054 64.96 153.062 64.448C152.07 63.92 151.23 63.152 150.542 62.144C149.87 61.12 149.534 59.968 149.534 58.688ZM154.55 60.416C155.062 60.8 155.582 60.992 156.11 60.992C156.638 60.992 157.166 60.792 157.694 60.392C158.222 59.992 158.486 59.4 158.486 58.616C158.486 57.832 158.238 57.248 157.742 56.864C157.246 56.48 156.71 56.288 156.134 56.288C155.558 56.288 155.022 56.488 154.526 56.888C154.03 57.288 153.782 57.88 153.782 58.664C153.782 59.432 154.038 60.016 154.55 60.416ZM169.9 64.952C168.284 64.952 166.94 64.344 165.868 63.128C164.812 61.896 164.284 60.4 164.284 58.64V54.44C164.284 54.056 164.292 53.776 164.308 53.6C164.34 53.424 164.412 53.216 164.524 52.976C164.748 52.544 165.372 52.328 166.396 52.328C167.516 52.328 168.172 52.632 168.364 53.24C168.46 53.496 168.508 53.904 168.508 54.464V58.664C168.508 59.32 168.692 59.832 169.06 60.2C169.444 60.568 169.948 60.752 170.572 60.752C171.212 60.752 171.724 60.56 172.108 60.176C172.508 59.792 172.708 59.288 172.708 58.664V54.416C172.708 54.048 172.716 53.776 172.732 53.6C172.764 53.408 172.844 53.192 172.972 52.952C173.18 52.536 173.796 52.328 174.82 52.328C175.828 52.328 176.444 52.544 176.668 52.976C176.78 53.216 176.844 53.432 176.86 53.624C176.892 53.8 176.908 54.072 176.908 54.44V62.936C176.908 63.288 176.892 63.56 176.86 63.752C176.844 63.928 176.772 64.128 176.644 64.352C176.404 64.768 175.788 64.976 174.796 64.976C173.82 64.976 173.22 64.784 172.996 64.4C172.836 64.128 172.756 63.8 172.756 63.416C172.692 63.528 172.548 63.688 172.324 63.896C172.1 64.104 171.884 64.28 171.676 64.424C171.132 64.776 170.54 64.952 169.9 64.952ZM187.431 52.496C187.735 52.592 187.983 52.76 188.175 53C188.383 53.224 188.487 53.592 188.487 54.104C188.487 54.616 188.335 55.176 188.031 55.784C187.727 56.392 187.287 56.696 186.711 56.696C186.423 56.696 186.143 56.632 185.871 56.504C185.615 56.376 185.271 56.312 184.839 56.312C184.407 56.312 183.999 56.464 183.615 56.768C183.247 57.072 183.063 57.44 183.063 57.872V62.912C183.063 63.28 183.047 63.56 183.015 63.752C182.999 63.928 182.927 64.136 182.799 64.376C182.559 64.792 181.935 65 180.927 65C180.159 65 179.607 64.864 179.271 64.592C179.015 64.368 178.871 64.024 178.839 63.56C178.839 63.4 178.839 63.168 178.839 62.864V54.44C178.839 54.072 178.847 53.8 178.863 53.624C178.895 53.432 178.967 53.224 179.079 53C179.303 52.568 179.927 52.352 180.951 52.352C181.911 52.352 182.511 52.536 182.751 52.904C182.927 53.16 183.015 53.424 183.015 53.696C183.095 53.584 183.207 53.448 183.351 53.288C183.511 53.128 183.839 52.912 184.335 52.64C184.831 52.368 185.263 52.232 185.631 52.232C186.015 52.232 186.335 52.256 186.591 52.304C186.847 52.336 187.127 52.4 187.431 52.496ZM39.5994 93.952C37.9834 93.952 36.6394 93.344 35.5674 92.128C34.5114 90.896 33.9834 89.4 33.9834 87.64V83.44C33.9834 83.056 33.9914 82.776 34.0074 82.6C34.0394 82.424 34.1114 82.216 34.2234 81.976C34.4474 81.544 35.0714 81.328 36.0954 81.328C37.2154 81.328 37.8714 81.632 38.0634 82.24C38.1594 82.496 38.2074 82.904 38.2074 83.464V87.664C38.2074 88.32 38.3914 88.832 38.7594 89.2C39.1434 89.568 39.6474 89.752 40.2714 89.752C40.9114 89.752 41.4234 89.56 41.8074 89.176C42.2074 88.792 42.4074 88.288 42.4074 87.664V83.416C42.4074 83.048 42.4154 82.776 42.4314 82.6C42.4634 82.408 42.5434 82.192 42.6714 81.952C42.8794 81.536 43.4954 81.328 44.5194 81.328C45.5274 81.328 46.1434 81.544 46.3674 81.976C46.4794 82.216 46.5434 82.432 46.5594 82.624C46.5914 82.8 46.6074 83.072 46.6074 83.44V91.936C46.6074 92.288 46.5914 92.56 46.5594 92.752C46.5434 92.928 46.4714 93.128 46.3434 93.352C46.1034 93.768 45.4874 93.976 44.4954 93.976C43.5194 93.976 42.9194 93.784 42.6954 93.4C42.5354 93.128 42.4554 92.8 42.4554 92.416C42.3914 92.528 42.2474 92.688 42.0234 92.896C41.7994 93.104 41.5834 93.28 41.3754 93.424C40.8314 93.776 40.2394 93.952 39.5994 93.952ZM48.6341 92.872C48.3301 92.68 48.1781 92.376 48.1781 91.96C48.1781 91.544 48.4821 90.912 49.0901 90.064C49.2661 89.792 49.5461 89.656 49.9301 89.656C50.3301 89.656 50.8661 89.856 51.5381 90.256C52.2101 90.64 52.8181 90.832 53.3621 90.832C54.3381 90.832 54.8261 90.64 54.8261 90.256C54.8261 89.952 54.2901 89.728 53.2181 89.584C52.2101 89.44 51.2101 89.064 50.2181 88.456C49.7541 88.168 49.3701 87.72 49.0661 87.112C48.7621 86.488 48.6101 85.752 48.6101 84.904C48.6101 82.376 50.3461 81.112 53.8181 81.112C54.9541 81.112 56.1221 81.384 57.3221 81.928C57.8821 82.184 58.1621 82.504 58.1621 82.888C58.1621 83.272 57.9861 83.744 57.6341 84.304C57.2821 84.864 56.9221 85.144 56.5541 85.144C56.3621 85.144 56.0021 85.024 55.4741 84.784C54.9621 84.544 54.4021 84.424 53.7941 84.424C52.8501 84.424 52.3781 84.6 52.3781 84.952C52.3781 85.432 52.9221 85.744 54.0101 85.888C55.0661 86 56.0901 86.304 57.0821 86.8C57.5461 87.024 57.9301 87.416 58.2341 87.976C58.5541 88.52 58.7141 89.208 58.7141 90.04C58.7141 90.872 58.5541 91.584 58.2341 92.176C57.9301 92.752 57.4981 93.184 56.9381 93.472C55.9141 93.968 54.6261 94.216 53.0741 94.216C51.5381 94.216 50.0581 93.768 48.6341 92.872ZM65.8963 93.952C64.2803 93.952 62.9363 93.344 61.8643 92.128C60.8083 90.896 60.2803 89.4 60.2803 87.64V83.44C60.2803 83.056 60.2883 82.776 60.3043 82.6C60.3363 82.424 60.4083 82.216 60.5203 81.976C60.7443 81.544 61.3683 81.328 62.3923 81.328C63.5123 81.328 64.1683 81.632 64.3603 82.24C64.4563 82.496 64.5043 82.904 64.5043 83.464V87.664C64.5043 88.32 64.6883 88.832 65.0563 89.2C65.4403 89.568 65.9443 89.752 66.5683 89.752C67.2083 89.752 67.7203 89.56 68.1043 89.176C68.5043 88.792 68.7043 88.288 68.7043 87.664V83.416C68.7043 83.048 68.7123 82.776 68.7283 82.6C68.7603 82.408 68.8403 82.192 68.9683 81.952C69.1763 81.536 69.7923 81.328 70.8163 81.328C71.8243 81.328 72.4403 81.544 72.6643 81.976C72.7763 82.216 72.8403 82.432 72.8563 82.624C72.8883 82.8 72.9043 83.072 72.9043 83.44V91.936C72.9043 92.288 72.8883 92.56 72.8563 92.752C72.8403 92.928 72.7683 93.128 72.6403 93.352C72.4003 93.768 71.7843 93.976 70.7923 93.976C69.8163 93.976 69.2163 93.784 68.9923 93.4C68.8323 93.128 68.7523 92.8 68.7523 92.416C68.6883 92.528 68.5443 92.688 68.3203 92.896C68.0963 93.104 67.8803 93.28 67.6723 93.424C67.1283 93.776 66.5363 93.952 65.8963 93.952ZM83.043 82.696C83.139 81.8 83.771 81.352 84.939 81.352C85.563 81.352 86.027 81.4 86.331 81.496C86.635 81.592 86.843 81.76 86.955 82C87.083 82.24 87.155 82.456 87.171 82.648C87.203 82.824 87.219 83.096 87.219 83.464V91.864C87.219 92.232 87.203 92.512 87.171 92.704C87.155 92.88 87.091 93.088 86.979 93.328C86.755 93.744 86.203 93.952 85.323 93.952C84.459 93.952 83.875 93.848 83.571 93.64C83.283 93.416 83.115 93.096 83.067 92.68C82.475 93.528 81.483 93.952 80.091 93.952C78.715 93.952 77.435 93.32 76.251 92.056C75.067 90.792 74.475 89.328 74.475 87.664C74.475 85.984 75.067 84.52 76.251 83.272C77.451 82.008 78.763 81.376 80.187 81.376C80.731 81.376 81.227 81.472 81.675 81.664C82.123 81.856 82.435 82.04 82.611 82.216C82.787 82.376 82.931 82.536 83.043 82.696ZM78.675 87.688C78.675 88.216 78.883 88.696 79.299 89.128C79.715 89.544 80.219 89.752 80.811 89.752C81.403 89.752 81.891 89.536 82.275 89.104C82.675 88.672 82.875 88.2 82.875 87.688C82.875 87.16 82.683 86.672 82.299 86.224C81.931 85.776 81.427 85.552 80.787 85.552C80.163 85.552 79.651 85.776 79.251 86.224C78.867 86.672 78.675 87.16 78.675 87.688ZM89.1319 77.512C89.1319 77.144 89.1399 76.872 89.1559 76.696C89.1879 76.504 89.2599 76.288 89.3719 76.048C89.5959 75.616 90.2199 75.4 91.2439 75.4C92.2199 75.4 92.8279 75.616 93.0679 76.048C93.1959 76.288 93.2679 76.504 93.2839 76.696C93.3159 76.888 93.3319 77.168 93.3319 77.536V88.648C93.3319 89.224 93.3799 89.592 93.4759 89.752C93.5719 89.896 93.7799 89.968 94.0999 89.968C94.4359 89.968 94.6599 89.984 94.7719 90.016C94.8839 90.032 95.0199 90.096 95.1799 90.208C95.4999 90.416 95.6599 90.984 95.6599 91.912C95.6599 92.92 95.4999 93.536 95.1799 93.76C94.7639 94.048 93.7719 94.096 92.2039 93.904C90.9719 93.744 90.1719 93.336 89.8039 92.68C89.3559 91.896 89.1319 90.648 89.1319 88.936V77.512ZM103.15 92.872C102.846 92.68 102.694 92.376 102.694 91.96C102.694 91.544 102.998 90.912 103.606 90.064C103.782 89.792 104.062 89.656 104.446 89.656C104.846 89.656 105.382 89.856 106.054 90.256C106.726 90.64 107.334 90.832 107.878 90.832C108.854 90.832 109.342 90.64 109.342 90.256C109.342 89.952 108.806 89.728 107.734 89.584C106.726 89.44 105.726 89.064 104.734 88.456C104.27 88.168 103.886 87.72 103.582 87.112C103.278 86.488 103.126 85.752 103.126 84.904C103.126 82.376 104.862 81.112 108.334 81.112C109.47 81.112 110.638 81.384 111.838 81.928C112.398 82.184 112.678 82.504 112.678 82.888C112.678 83.272 112.502 83.744 112.15 84.304C111.798 84.864 111.438 85.144 111.07 85.144C110.878 85.144 110.518 85.024 109.99 84.784C109.478 84.544 108.918 84.424 108.31 84.424C107.366 84.424 106.894 84.6 106.894 84.952C106.894 85.432 107.438 85.744 108.526 85.888C109.582 86 110.606 86.304 111.598 86.8C112.062 87.024 112.446 87.416 112.75 87.976C113.07 88.52 113.23 89.208 113.23 90.04C113.23 90.872 113.07 91.584 112.75 92.176C112.446 92.752 112.014 93.184 111.454 93.472C110.43 93.968 109.142 94.216 107.59 94.216C106.054 94.216 104.574 93.768 103.15 92.872ZM126.988 86.176C126.988 87.152 126.74 87.88 126.244 88.36C125.764 88.824 125.228 89.056 124.636 89.056H118.948C118.948 89.504 119.212 89.88 119.74 90.184C120.268 90.488 120.796 90.64 121.324 90.64C122.252 90.64 122.98 90.544 123.508 90.352L123.772 90.256C124.156 90.08 124.476 89.992 124.732 89.992C125.244 89.992 125.684 90.352 126.052 91.072C126.26 91.504 126.364 91.872 126.364 92.176C126.364 93.6 124.66 94.312 121.252 94.312C120.068 94.312 119.012 94.112 118.084 93.712C117.172 93.296 116.46 92.752 115.948 92.08C114.94 90.784 114.436 89.336 114.436 87.736C114.436 85.72 115.084 84.112 116.38 82.912C117.692 81.696 119.324 81.088 121.276 81.088C123.5 81.088 125.132 81.872 126.172 83.44C126.716 84.272 126.988 85.184 126.988 86.176ZM121.924 86.872C122.532 86.872 122.836 86.616 122.836 86.104C122.836 85.736 122.692 85.44 122.404 85.216C122.132 84.992 121.732 84.88 121.204 84.88C120.692 84.88 120.18 85.096 119.668 85.528C119.156 85.944 118.9 86.392 118.9 86.872H121.924ZM137.146 81.496C137.45 81.592 137.698 81.76 137.89 82C138.098 82.224 138.202 82.592 138.202 83.104C138.202 83.616 138.05 84.176 137.746 84.784C137.442 85.392 137.002 85.696 136.426 85.696C136.138 85.696 135.858 85.632 135.586 85.504C135.33 85.376 134.986 85.312 134.554 85.312C134.122 85.312 133.714 85.464 133.33 85.768C132.962 86.072 132.778 86.44 132.778 86.872V91.912C132.778 92.28 132.762 92.56 132.73 92.752C132.714 92.928 132.642 93.136 132.514 93.376C132.274 93.792 131.65 94 130.642 94C129.874 94 129.322 93.864 128.986 93.592C128.73 93.368 128.586 93.024 128.554 92.56C128.554 92.4 128.554 92.168 128.554 91.864V83.44C128.554 83.072 128.562 82.8 128.578 82.624C128.61 82.432 128.682 82.224 128.794 82C129.018 81.568 129.642 81.352 130.666 81.352C131.626 81.352 132.226 81.536 132.466 81.904C132.642 82.16 132.73 82.424 132.73 82.696C132.81 82.584 132.922 82.448 133.066 82.288C133.226 82.128 133.554 81.912 134.05 81.64C134.546 81.368 134.978 81.232 135.346 81.232C135.73 81.232 136.05 81.256 136.306 81.304C136.562 81.336 136.842 81.4 137.146 81.496ZM152.267 81.64C153.099 82.136 153.515 82.664 153.515 83.224C153.515 83.544 153.355 83.984 153.035 84.544L148.067 93.064C147.907 93.336 147.651 93.584 147.299 93.808C146.947 94.016 146.595 94.12 146.243 94.12C145.907 94.12 145.579 94.04 145.259 93.88C144.955 93.704 144.739 93.528 144.611 93.352L144.395 93.088L139.403 84.544C139.083 84.016 138.923 83.584 138.923 83.248C138.923 82.672 139.339 82.136 140.171 81.64C140.779 81.288 141.259 81.112 141.611 81.112C141.963 81.112 142.235 81.224 142.427 81.448C142.635 81.656 142.851 81.976 143.075 82.408L146.219 88.456L149.363 82.408C149.539 82.104 149.667 81.888 149.747 81.76C149.843 81.616 149.987 81.48 150.179 81.352C150.371 81.208 150.627 81.136 150.947 81.136C151.267 81.136 151.707 81.304 152.267 81.64ZM154.827 83.464C154.827 83.096 154.835 82.824 154.851 82.648C154.883 82.456 154.955 82.24 155.067 82C155.291 81.584 155.915 81.376 156.939 81.376C157.707 81.376 158.251 81.512 158.571 81.784C158.843 82.008 158.987 82.352 159.003 82.816C159.019 82.976 159.027 83.208 159.027 83.512V91.912C159.027 92.28 159.011 92.56 158.979 92.752C158.963 92.928 158.891 93.136 158.763 93.376C158.555 93.792 157.939 94 156.915 94C155.907 94 155.291 93.784 155.067 93.352C154.955 93.112 154.883 92.904 154.851 92.728C154.835 92.552 154.827 92.272 154.827 91.888V83.464ZM158.763 79.024C158.651 79.248 158.443 79.408 158.139 79.504C157.835 79.6 157.427 79.648 156.915 79.648C156.419 79.648 156.019 79.6 155.715 79.504C155.411 79.408 155.195 79.24 155.067 79C154.955 78.76 154.883 78.552 154.851 78.376C154.835 78.184 154.827 77.904 154.827 77.536C154.827 77.168 154.835 76.896 154.851 76.72C154.883 76.528 154.955 76.32 155.067 76.096C155.291 75.664 155.915 75.448 156.939 75.448C157.947 75.448 158.555 75.664 158.763 76.096C158.891 76.336 158.963 76.552 158.979 76.744C159.011 76.92 159.027 77.192 159.027 77.56C159.027 77.928 159.011 78.208 158.979 78.4C158.963 78.576 158.891 78.784 158.763 79.024ZM167.976 81.352C169.576 81.352 170.904 81.968 171.96 83.2C173.032 84.416 173.568 85.904 173.568 87.664V91.888C173.568 92.256 173.552 92.536 173.52 92.728C173.504 92.904 173.44 93.104 173.328 93.328C173.104 93.76 172.48 93.976 171.456 93.976C170.32 93.976 169.664 93.68 169.488 93.088C169.392 92.816 169.344 92.408 169.344 91.864V87.64C169.344 86.984 169.152 86.472 168.768 86.104C168.4 85.736 167.896 85.552 167.256 85.552C166.632 85.552 166.12 85.744 165.72 86.128C165.336 86.512 165.144 87.016 165.144 87.64V91.888C165.144 92.256 165.128 92.536 165.096 92.728C165.08 92.904 165.008 93.104 164.88 93.328C164.672 93.76 164.056 93.976 163.032 93.976C162.024 93.976 161.408 93.76 161.184 93.328C161.072 93.088 161 92.88 160.968 92.704C160.952 92.512 160.944 92.232 160.944 91.864V83.368C160.944 83.016 160.952 82.752 160.968 82.576C161 82.384 161.08 82.176 161.208 81.952C161.432 81.552 162.048 81.352 163.056 81.352C164.032 81.352 164.632 81.536 164.856 81.904C165.016 82.176 165.096 82.504 165.096 82.888C165.16 82.776 165.304 82.616 165.528 82.408C165.752 82.2 165.968 82.032 166.176 81.904C166.72 81.536 167.32 81.352 167.976 81.352ZM183.515 92.416C182.907 93.216 181.939 93.616 180.611 93.616C179.283 93.616 178.035 93.008 176.867 91.792C175.715 90.56 175.139 89.128 175.139 87.496C175.139 85.864 175.723 84.432 176.891 83.2C178.059 81.968 179.339 81.352 180.731 81.352C181.275 81.352 181.771 81.456 182.219 81.664C182.667 81.856 182.971 82.04 183.131 82.216C183.307 82.376 183.443 82.528 183.539 82.672C183.587 82.224 183.747 81.888 184.019 81.664C184.307 81.424 184.763 81.304 185.387 81.304C186.011 81.304 186.467 81.352 186.755 81.448C187.043 81.544 187.243 81.712 187.355 81.952C187.483 82.176 187.555 82.376 187.571 82.552C187.603 82.728 187.619 83 187.619 83.368V93.304C187.619 95.144 186.979 96.624 185.699 97.744C184.419 98.88 182.979 99.448 181.379 99.448C180.163 99.448 179.003 99.152 177.899 98.56C176.795 97.968 176.243 97.432 176.243 96.952C176.243 96.328 176.483 95.776 176.963 95.296C177.267 94.96 177.499 94.728 177.659 94.6C177.835 94.472 178.035 94.408 178.259 94.408C178.483 94.408 178.715 94.504 178.955 94.696C179.723 95.288 180.555 95.584 181.451 95.584C182.059 95.584 182.555 95.344 182.939 94.864C183.323 94.384 183.515 93.808 183.515 93.136V92.416ZM179.243 87.52C179.243 88.032 179.443 88.496 179.843 88.912C180.259 89.328 180.755 89.536 181.331 89.536C181.923 89.536 182.411 89.328 182.795 88.912C183.179 88.48 183.371 88.016 183.371 87.52C183.371 87.008 183.187 86.536 182.819 86.104C182.451 85.656 181.955 85.432 181.331 85.432C180.707 85.432 180.203 85.648 179.819 86.08C179.435 86.512 179.243 86.992 179.243 87.52ZM189.778 90.352C189.938 90.032 190.178 89.816 190.498 89.704C190.834 89.592 191.346 89.536 192.034 89.536C192.738 89.536 193.242 89.688 193.546 89.992C193.866 90.296 194.026 90.776 194.026 91.432V91.816C194.026 92.2 194.01 92.488 193.978 92.68C193.962 92.856 193.89 93.072 193.762 93.328C193.506 93.792 192.89 94.024 191.914 94.024C190.954 94.024 190.314 93.872 189.994 93.568C189.69 93.248 189.538 92.64 189.538 91.744C189.538 91.12 189.618 90.656 189.778 90.352ZM192.994 87.544C192.69 87.624 192.282 87.664 191.77 87.664C191.258 87.664 190.85 87.624 190.546 87.544C190.242 87.464 190.026 87.32 189.898 87.112C189.786 86.904 189.714 86.72 189.682 86.56C189.666 86.4 189.658 86.152 189.658 85.816V78.208C189.658 77.872 189.666 77.624 189.682 77.464C189.714 77.288 189.794 77.096 189.922 76.888C190.05 76.68 190.266 76.536 190.57 76.456C190.874 76.36 191.282 76.312 191.794 76.312C192.306 76.312 192.714 76.36 193.018 76.456C193.322 76.536 193.53 76.688 193.642 76.912C193.77 77.12 193.842 77.312 193.858 77.488C193.89 77.648 193.906 77.896 193.906 78.232V85.84C193.906 86.176 193.89 86.424 193.858 86.584C193.842 86.744 193.77 86.928 193.642 87.136C193.514 87.328 193.298 87.464 192.994 87.544Z" fill="#DBB780"/>
<path d="M44.914 48.056C45.042 47.816 45.258 47.648 45.562 47.552C45.866 47.456 46.25 47.408 46.714 47.408C47.178 47.408 47.546 47.448 47.818 47.528C48.09 47.608 48.298 47.704 48.442 47.816C48.586 47.928 48.698 48.088 48.778 48.296C48.858 48.568 48.898 48.984 48.898 49.544V62.864C48.898 63.232 48.882 63.512 48.85 63.704C48.834 63.88 48.762 64.088 48.634 64.328C48.41 64.76 47.786 64.976 46.762 64.976C45.642 64.976 44.986 64.68 44.794 64.088C44.698 63.816 44.65 63.4 44.65 62.84V57.968H38.29V62.864C38.29 63.232 38.274 63.512 38.242 63.704C38.226 63.88 38.154 64.088 38.026 64.328C37.802 64.76 37.178 64.976 36.154 64.976C35.034 64.976 34.378 64.68 34.186 64.088C34.09 63.816 34.042 63.4 34.042 62.84V49.52C34.042 49.152 34.05 48.88 34.066 48.704C34.098 48.512 34.178 48.296 34.306 48.056C34.53 47.624 35.154 47.408 36.178 47.408C37.298 47.408 37.962 47.704 38.17 48.296C38.25 48.568 38.29 48.984 38.29 49.544V54.44H44.65V49.52C44.65 49.152 44.658 48.88 44.674 48.704C44.706 48.512 44.786 48.296 44.914 48.056ZM60.9753 48.656L67.4553 62.048C67.7273 62.592 67.8633 63 67.8633 63.272C67.8633 63.848 67.3993 64.368 66.4713 64.832C65.9273 65.104 65.4953 65.24 65.1753 65.24C64.8713 65.24 64.6153 65.168 64.4073 65.024C64.2153 64.88 64.0713 64.728 63.9753 64.568C63.8953 64.408 63.7753 64.168 63.6153 63.848L62.3673 61.256H55.7193L54.4713 63.848C54.3113 64.168 54.1833 64.4 54.0873 64.544C54.0073 64.688 53.8633 64.84 53.6553 65C53.4633 65.144 53.2073 65.216 52.8873 65.216C52.5833 65.216 52.1593 65.08 51.6153 64.808C50.6873 64.36 50.2233 63.848 50.2233 63.272C50.2233 63 50.3593 62.592 50.6313 62.048L57.1113 48.632C57.2873 48.264 57.5513 47.968 57.9033 47.744C58.2713 47.52 58.6553 47.408 59.0553 47.408C59.9193 47.408 60.5593 47.824 60.9753 48.656ZM59.0313 54.416L57.4473 57.704H60.6393L59.0313 54.416ZM73.4228 61.448H79.9508C80.4788 61.448 80.8628 61.512 81.1028 61.64C81.3428 61.752 81.5028 61.936 81.5828 62.192C81.6628 62.448 81.7028 62.792 81.7028 63.224C81.7028 63.64 81.6628 63.976 81.5828 64.232C81.5028 64.488 81.3668 64.664 81.1748 64.76C80.8708 64.92 80.4548 65 79.9268 65H71.2868C70.1668 65 69.5108 64.696 69.3188 64.088C69.2228 63.832 69.1748 63.424 69.1748 62.864V49.52C69.1748 49.152 69.1828 48.88 69.1988 48.704C69.2308 48.512 69.3108 48.296 69.4388 48.056C69.6628 47.624 70.2868 47.408 71.3108 47.408C72.4308 47.408 73.0948 47.704 73.3028 48.296C73.3828 48.568 73.4228 48.984 73.4228 49.544V61.448ZM94.9008 47.408C95.2688 47.408 95.5408 47.424 95.7168 47.456C95.9088 47.472 96.1168 47.544 96.3408 47.672C96.5808 47.8 96.7488 48.016 96.8448 48.32C96.9408 48.624 96.9888 49.032 96.9888 49.544C96.9888 50.056 96.9408 50.464 96.8448 50.768C96.7488 51.072 96.5808 51.288 96.3408 51.416C96.1008 51.528 95.8848 51.6 95.6928 51.632C95.5168 51.648 95.2368 51.656 94.8528 51.656H87.5088V54.08H92.2368C92.6208 54.08 92.9008 54.096 93.0768 54.128C93.2688 54.144 93.4848 54.216 93.7248 54.344C94.1408 54.584 94.3488 55.216 94.3488 56.24C94.3488 57.36 94.0448 58.024 93.4368 58.232C93.1808 58.312 92.7728 58.352 92.2128 58.352H87.5088V62.888C87.5088 63.272 87.4928 63.552 87.4608 63.728C87.4448 63.904 87.3728 64.112 87.2448 64.352C87.0208 64.784 86.3968 65 85.3728 65C84.2528 65 83.5968 64.696 83.4048 64.088C83.3088 63.832 83.2608 63.424 83.2608 62.864V49.52C83.2608 48.704 83.4128 48.152 83.7168 47.864C84.0208 47.56 84.5968 47.408 85.4448 47.408H94.9008Z" fill="#EE97A1"/>
<path d="M154.808 189.029C138.228 210.412 107.354 214.3 85.9706 197.72C64.5875 181.139 60.6997 150.265 77.2802 128.882C85.742 117.905 98.4346 111.158 112.271 110.014C113.186 109.9 113.986 110.472 114.215 111.387C114.786 112.873 115.473 114.474 116.159 115.961C116.616 117.104 117.302 118.248 118.103 119.162C120.847 122.135 123.934 124.651 127.479 126.595C133.54 130.369 138.685 133.456 139.143 144.205C139.143 146.835 138.685 149.579 137.656 151.98C136.398 155.868 135.14 159.756 139.028 165.016C140.858 167.417 141.087 170.276 141.43 173.249C141.887 177.937 142.459 183.083 151.378 185.141L152.75 185.484L154.008 185.827C155.037 186.056 155.609 187.2 155.266 188.114C155.151 188.457 155.037 188.801 154.808 189.029Z" fill="#773228"/>
<path d="M97.5198 141.232C97.6342 142.261 96.9481 143.176 95.919 143.29C94.8898 143.404 93.975 142.718 93.8607 141.689L93.1746 135.629C93.0602 134.599 93.7463 133.685 94.7755 133.57C95.8046 133.456 96.7194 134.142 96.8337 135.171L97.5198 141.232Z" fill="#92483B"/>
<path d="M120.733 147.063C121.533 147.635 121.762 148.893 121.19 149.693C120.618 150.494 119.36 150.723 118.56 150.151L113.643 146.606C112.843 146.034 112.614 144.776 113.186 143.976C113.757 143.176 115.015 142.947 115.816 143.519L120.733 147.063Z" fill="#92483B"/>
<path d="M105.524 174.393C108.05 174.393 110.098 172.345 110.098 169.819C110.098 167.293 108.05 165.245 105.524 165.245C102.998 165.245 100.95 167.293 100.95 169.819C100.95 172.345 102.998 174.393 105.524 174.393Z" fill="#F7CB91"/>
<path d="M88.1433 147.749C91.002 147.749 93.2889 150.036 93.2889 152.895C93.2889 155.754 91.002 158.041 88.1433 158.041C85.2846 158.041 82.9976 155.754 82.9976 152.895C82.9976 151.523 83.5693 150.265 84.4841 149.236C85.3989 148.207 86.7711 147.749 88.1433 147.749ZM105.524 122.364C106.896 122.364 108.154 122.936 109.183 123.851L109.298 123.965C111.242 126.023 111.127 129.225 109.069 131.169C107.011 133.113 103.809 132.999 101.865 130.94C99.9212 128.882 100.036 125.795 101.979 123.851C102.894 122.936 104.152 122.364 105.524 122.364ZM126.907 184.112C129.995 184.112 132.51 186.628 132.625 189.715C132.625 191.202 132.053 192.688 130.91 193.718C128.737 195.89 125.192 195.89 122.905 193.718C120.733 191.545 120.733 187.886 122.905 185.713C123.934 184.684 125.421 184.112 126.907 184.112Z" fill="#F7CB91"/>
<path d="M104.609 193.146C105.41 193.718 105.639 194.975 105.067 195.776C104.495 196.576 103.237 196.805 102.437 196.233L97.5198 192.688C96.7194 192.117 96.4907 190.859 97.0624 190.058C97.6342 189.258 98.892 189.029 99.6924 189.601L104.609 193.146Z" fill="#92483B"/>
<path d="M84.2554 169.59C84.3697 170.619 83.6837 171.534 82.6545 171.648C81.6254 171.763 80.7106 171.077 80.5963 170.047L79.9102 163.987C79.7958 162.958 80.4819 162.043 81.511 161.929C82.5402 161.814 83.455 162.5 83.5693 163.53L84.2554 169.59Z" fill="#92483B"/>
<path d="M137.199 125.909C138.967 125.909 140.401 124.475 140.401 122.707C140.401 120.939 138.967 119.505 137.199 119.505C135.43 119.505 133.997 120.939 133.997 122.707C133.997 124.475 135.43 125.909 137.199 125.909Z" fill="#773228"/>
<path d="M152.864 162.043C156.464 162.043 159.382 159.125 159.382 155.525C159.382 151.925 156.464 149.007 152.864 149.007C149.265 149.007 146.347 151.925 146.347 155.525C146.347 159.125 149.265 162.043 152.864 162.043Z" fill="#773228"/>
<path d="M151.721 139.516C153.489 139.516 154.923 138.083 154.923 136.315C154.923 134.546 153.489 133.113 151.721 133.113C149.953 133.113 148.519 134.546 148.519 136.315C148.519 138.083 149.953 139.516 151.721 139.516Z" fill="#773228"/>
</svg>
